<?xml version="1.0" encoding="utf-8" standalone="no"?>
<!DOCTYPE svg PUBLIC "-//W3C//DTD SVG 1.1//EN"
  "http://www.w3.org/Graphics/SVG/1.1/DTD/svg11.dtd">
<svg xmlns:xlink="http://www.w3.org/1999/xlink" width="460.8pt" height="345.6pt" viewBox="0 0 460.8 345.6" xmlns="http://www.w3.org/2000/svg" version="1.1">
 <metadata>
  <rdf:RDF xmlns:dc="http://purl.org/dc/elements/1.1/" xmlns:cc="http://creativecommons.org/ns#" xmlns:rdf="http://www.w3.org/1999/02/22-rdf-syntax-ns#">
   <cc:Work>
    <dc:type rdf:resource="http://purl.org/dc/dcmitype/StillImage"/>
    <dc:date>2025-05-14T15:55:54.886162</dc:date>
    <dc:format>image/svg+xml</dc:format>
    <dc:creator>
     <cc:Agent>
      <dc:title>Matplotlib v3.10.3, https://matplotlib.org/</dc:title>
     </cc:Agent>
    </dc:creator>
   </cc:Work>
  </rdf:RDF>
 </metadata>
 <defs>
  <style type="text/css">*{stroke-linejoin: round; stroke-linecap: butt}</style>
 </defs>
 <g id="figure_1">
  <g id="patch_1">
   <path d="M 0 345.6 
L 460.8 345.6 
L 460.8 0 
L 0 0 
z
" style="fill: #ffffff"/>
  </g>
  <g id="axes_1">
   <g id="patch_2">
    <path d="M 57.6 307.584 
L 414.72 307.584 
L 414.72 41.472 
L 57.6 41.472 
z
" style="fill: #ffffff"/>
   </g>
   <g id="matplotlib.axis_1">
    <g id="xtick_1">
     <g id="line2d_1">
      <defs>
       <path id="m9e093247cb" d="M 0 0 
L 0 3.5 
" style="stroke: #000000; stroke-width: 0.8"/>
      </defs>
      <g>
       <use xlink:href="#m9e093247cb" x="73.832727" y="307.584" style="stroke: #000000; stroke-width: 0.8"/>
      </g>
     </g>
     <g id="text_1">
      <!-- 0 -->
      <g transform="translate(70.651477 322.182437) scale(0.1 -0.1)">
       <defs>
        <path id="DejaVuSans-30" d="M 2034 4250 
Q 1547 4250 1301 3770 
Q 1056 3291 1056 2328 
Q 1056 1369 1301 889 
Q 1547 409 2034 409 
Q 2525 409 2770 889 
Q 3016 1369 3016 2328 
Q 3016 3291 2770 3770 
Q 2525 4250 2034 4250 
z
M 2034 4750 
Q 2819 4750 3233 4129 
Q 3647 3509 3647 2328 
Q 3647 1150 3233 529 
Q 2819 -91 2034 -91 
Q 1250 -91 836 529 
Q 422 1150 422 2328 
Q 422 3509 836 4129 
Q 1250 4750 2034 4750 
z
" transform="scale(0.015625)"/>
       </defs>
       <use xlink:href="#DejaVuSans-30"/>
      </g>
     </g>
    </g>
    <g id="xtick_2">
     <g id="line2d_2">
      <g>
       <use xlink:href="#m9e093247cb" x="130.789665" y="307.584" style="stroke: #000000; stroke-width: 0.8"/>
      </g>
     </g>
     <g id="text_2">
      <!-- 50 -->
      <g transform="translate(124.427165 322.182437) scale(0.1 -0.1)">
       <defs>
        <path id="DejaVuSans-35" d="M 691 4666 
L 3169 4666 
L 3169 4134 
L 1269 4134 
L 1269 2991 
Q 1406 3038 1543 3061 
Q 1681 3084 1819 3084 
Q 2600 3084 3056 2656 
Q 3513 2228 3513 1497 
Q 3513 744 3044 326 
Q 2575 -91 1722 -91 
Q 1428 -91 1123 -41 
Q 819 9 494 109 
L 494 744 
Q 775 591 1075 516 
Q 1375 441 1709 441 
Q 2250 441 2565 725 
Q 2881 1009 2881 1497 
Q 2881 1984 2565 2268 
Q 2250 2553 1709 2553 
Q 1456 2553 1204 2497 
Q 953 2441 691 2322 
L 691 4666 
z
" transform="scale(0.015625)"/>
       </defs>
       <use xlink:href="#DejaVuSans-35"/>
       <use xlink:href="#DejaVuSans-30" transform="translate(63.623047 0)"/>
      </g>
     </g>
    </g>
    <g id="xtick_3">
     <g id="line2d_3">
      <g>
       <use xlink:href="#m9e093247cb" x="187.746603" y="307.584" style="stroke: #000000; stroke-width: 0.8"/>
      </g>
     </g>
     <g id="text_3">
      <!-- 100 -->
      <g transform="translate(178.202853 322.182437) scale(0.1 -0.1)">
       <defs>
        <path id="DejaVuSans-31" d="M 794 531 
L 1825 531 
L 1825 4091 
L 703 3866 
L 703 4441 
L 1819 4666 
L 2450 4666 
L 2450 531 
L 3481 531 
L 3481 0 
L 794 0 
L 794 531 
z
" transform="scale(0.015625)"/>
       </defs>
       <use xlink:href="#DejaVuSans-31"/>
       <use xlink:href="#DejaVuSans-30" transform="translate(63.623047 0)"/>
       <use xlink:href="#DejaVuSans-30" transform="translate(127.246094 0)"/>
      </g>
     </g>
    </g>
    <g id="xtick_4">
     <g id="line2d_4">
      <g>
       <use xlink:href="#m9e093247cb" x="244.703541" y="307.584" style="stroke: #000000; stroke-width: 0.8"/>
      </g>
     </g>
     <g id="text_4">
      <!-- 150 -->
      <g transform="translate(235.159791 322.182437) scale(0.1 -0.1)">
       <use xlink:href="#DejaVuSans-31"/>
       <use xlink:href="#DejaVuSans-35" transform="translate(63.623047 0)"/>
       <use xlink:href="#DejaVuSans-30" transform="translate(127.246094 0)"/>
      </g>
     </g>
    </g>
    <g id="xtick_5">
     <g id="line2d_5">
      <g>
       <use xlink:href="#m9e093247cb" x="301.660478" y="307.584" style="stroke: #000000; stroke-width: 0.8"/>
      </g>
     </g>
     <g id="text_5">
      <!-- 200 -->
      <g transform="translate(292.116728 322.182437) scale(0.1 -0.1)">
       <defs>
        <path id="DejaVuSans-32" d="M 1228 531 
L 3431 531 
L 3431 0 
L 469 0 
L 469 531 
Q 828 903 1448 1529 
Q 2069 2156 2228 2338 
Q 2531 2678 2651 2914 
Q 2772 3150 2772 3378 
Q 2772 3750 2511 3984 
Q 2250 4219 1831 4219 
Q 1534 4219 1204 4116 
Q 875 4013 500 3803 
L 500 4441 
Q 881 4594 1212 4672 
Q 1544 4750 1819 4750 
Q 2544 4750 2975 4387 
Q 3406 4025 3406 3419 
Q 3406 3131 3298 2873 
Q 3191 2616 2906 2266 
Q 2828 2175 2409 1742 
Q 1991 1309 1228 531 
z
" transform="scale(0.015625)"/>
       </defs>
       <use xlink:href="#DejaVuSans-32"/>
       <use xlink:href="#DejaVuSans-30" transform="translate(63.623047 0)"/>
       <use xlink:href="#DejaVuSans-30" transform="translate(127.246094 0)"/>
      </g>
     </g>
    </g>
    <g id="xtick_6">
     <g id="line2d_6">
      <g>
       <use xlink:href="#m9e093247cb" x="358.617416" y="307.584" style="stroke: #000000; stroke-width: 0.8"/>
      </g>
     </g>
     <g id="text_6">
      <!-- 250 -->
      <g transform="translate(349.073666 322.182437) scale(0.1 -0.1)">
       <use xlink:href="#DejaVuSans-32"/>
       <use xlink:href="#DejaVuSans-35" transform="translate(63.623047 0)"/>
       <use xlink:href="#DejaVuSans-30" transform="translate(127.246094 0)"/>
      </g>
     </g>
    </g>
    <g id="text_7">
     <!-- CoT token position -->
     <g transform="translate(189.593594 335.860562) scale(0.1 -0.1)">
      <defs>
       <path id="DejaVuSans-43" d="M 4122 4306 
L 4122 3641 
Q 3803 3938 3442 4084 
Q 3081 4231 2675 4231 
Q 1875 4231 1450 3742 
Q 1025 3253 1025 2328 
Q 1025 1406 1450 917 
Q 1875 428 2675 428 
Q 3081 428 3442 575 
Q 3803 722 4122 1019 
L 4122 359 
Q 3791 134 3420 21 
Q 3050 -91 2638 -91 
Q 1578 -91 968 557 
Q 359 1206 359 2328 
Q 359 3453 968 4101 
Q 1578 4750 2638 4750 
Q 3056 4750 3426 4639 
Q 3797 4528 4122 4306 
z
" transform="scale(0.015625)"/>
       <path id="DejaVuSans-6f" d="M 1959 3097 
Q 1497 3097 1228 2736 
Q 959 2375 959 1747 
Q 959 1119 1226 758 
Q 1494 397 1959 397 
Q 2419 397 2687 759 
Q 2956 1122 2956 1747 
Q 2956 2369 2687 2733 
Q 2419 3097 1959 3097 
z
M 1959 3584 
Q 2709 3584 3137 3096 
Q 3566 2609 3566 1747 
Q 3566 888 3137 398 
Q 2709 -91 1959 -91 
Q 1206 -91 779 398 
Q 353 888 353 1747 
Q 353 2609 779 3096 
Q 1206 3584 1959 3584 
z
" transform="scale(0.015625)"/>
       <path id="DejaVuSans-54" d="M -19 4666 
L 3928 4666 
L 3928 4134 
L 2272 4134 
L 2272 0 
L 1638 0 
L 1638 4134 
L -19 4134 
L -19 4666 
z
" transform="scale(0.015625)"/>
       <path id="DejaVuSans-20" transform="scale(0.015625)"/>
       <path id="DejaVuSans-74" d="M 1172 4494 
L 1172 3500 
L 2356 3500 
L 2356 3053 
L 1172 3053 
L 1172 1153 
Q 1172 725 1289 603 
Q 1406 481 1766 481 
L 2356 481 
L 2356 0 
L 1766 0 
Q 1100 0 847 248 
Q 594 497 594 1153 
L 594 3053 
L 172 3053 
L 172 3500 
L 594 3500 
L 594 4494 
L 1172 4494 
z
" transform="scale(0.015625)"/>
       <path id="DejaVuSans-6b" d="M 581 4863 
L 1159 4863 
L 1159 1991 
L 2875 3500 
L 3609 3500 
L 1753 1863 
L 3688 0 
L 2938 0 
L 1159 1709 
L 1159 0 
L 581 0 
L 581 4863 
z
" transform="scale(0.015625)"/>
       <path id="DejaVuSans-65" d="M 3597 1894 
L 3597 1613 
L 953 1613 
Q 991 1019 1311 708 
Q 1631 397 2203 397 
Q 2534 397 2845 478 
Q 3156 559 3463 722 
L 3463 178 
Q 3153 47 2828 -22 
Q 2503 -91 2169 -91 
Q 1331 -91 842 396 
Q 353 884 353 1716 
Q 353 2575 817 3079 
Q 1281 3584 2069 3584 
Q 2775 3584 3186 3129 
Q 3597 2675 3597 1894 
z
M 3022 2063 
Q 3016 2534 2758 2815 
Q 2500 3097 2075 3097 
Q 1594 3097 1305 2825 
Q 1016 2553 972 2059 
L 3022 2063 
z
" transform="scale(0.015625)"/>
       <path id="DejaVuSans-6e" d="M 3513 2113 
L 3513 0 
L 2938 0 
L 2938 2094 
Q 2938 2591 2744 2837 
Q 2550 3084 2163 3084 
Q 1697 3084 1428 2787 
Q 1159 2491 1159 1978 
L 1159 0 
L 581 0 
L 581 3500 
L 1159 3500 
L 1159 2956 
Q 1366 3272 1645 3428 
Q 1925 3584 2291 3584 
Q 2894 3584 3203 3211 
Q 3513 2838 3513 2113 
z
" transform="scale(0.015625)"/>
       <path id="DejaVuSans-70" d="M 1159 525 
L 1159 -1331 
L 581 -1331 
L 581 3500 
L 1159 3500 
L 1159 2969 
Q 1341 3281 1617 3432 
Q 1894 3584 2278 3584 
Q 2916 3584 3314 3078 
Q 3713 2572 3713 1747 
Q 3713 922 3314 415 
Q 2916 -91 2278 -91 
Q 1894 -91 1617 61 
Q 1341 213 1159 525 
z
M 3116 1747 
Q 3116 2381 2855 2742 
Q 2594 3103 2138 3103 
Q 1681 3103 1420 2742 
Q 1159 2381 1159 1747 
Q 1159 1113 1420 752 
Q 1681 391 2138 391 
Q 2594 391 2855 752 
Q 3116 1113 3116 1747 
z
" transform="scale(0.015625)"/>
       <path id="DejaVuSans-73" d="M 2834 3397 
L 2834 2853 
Q 2591 2978 2328 3040 
Q 2066 3103 1784 3103 
Q 1356 3103 1142 2972 
Q 928 2841 928 2578 
Q 928 2378 1081 2264 
Q 1234 2150 1697 2047 
L 1894 2003 
Q 2506 1872 2764 1633 
Q 3022 1394 3022 966 
Q 3022 478 2636 193 
Q 2250 -91 1575 -91 
Q 1294 -91 989 -36 
Q 684 19 347 128 
L 347 722 
Q 666 556 975 473 
Q 1284 391 1588 391 
Q 1994 391 2212 530 
Q 2431 669 2431 922 
Q 2431 1156 2273 1281 
Q 2116 1406 1581 1522 
L 1381 1569 
Q 847 1681 609 1914 
Q 372 2147 372 2553 
Q 372 3047 722 3315 
Q 1072 3584 1716 3584 
Q 2034 3584 2315 3537 
Q 2597 3491 2834 3397 
z
" transform="scale(0.015625)"/>
       <path id="DejaVuSans-69" d="M 603 3500 
L 1178 3500 
L 1178 0 
L 603 0 
L 603 3500 
z
M 603 4863 
L 1178 4863 
L 1178 4134 
L 603 4134 
L 603 4863 
z
" transform="scale(0.015625)"/>
      </defs>
      <use xlink:href="#DejaVuSans-43"/>
      <use xlink:href="#DejaVuSans-6f" transform="translate(69.824219 0)"/>
      <use xlink:href="#DejaVuSans-54" transform="translate(131.005859 0)"/>
      <use xlink:href="#DejaVuSans-20" transform="translate(192.089844 0)"/>
      <use xlink:href="#DejaVuSans-74" transform="translate(223.876953 0)"/>
      <use xlink:href="#DejaVuSans-6f" transform="translate(263.085938 0)"/>
      <use xlink:href="#DejaVuSans-6b" transform="translate(324.267578 0)"/>
      <use xlink:href="#DejaVuSans-65" transform="translate(378.552734 0)"/>
      <use xlink:href="#DejaVuSans-6e" transform="translate(440.076172 0)"/>
      <use xlink:href="#DejaVuSans-20" transform="translate(503.455078 0)"/>
      <use xlink:href="#DejaVuSans-70" transform="translate(535.242188 0)"/>
      <use xlink:href="#DejaVuSans-6f" transform="translate(598.71875 0)"/>
      <use xlink:href="#DejaVuSans-73" transform="translate(659.900391 0)"/>
      <use xlink:href="#DejaVuSans-69" transform="translate(712 0)"/>
      <use xlink:href="#DejaVuSans-74" transform="translate(739.783203 0)"/>
      <use xlink:href="#DejaVuSans-69" transform="translate(778.992188 0)"/>
      <use xlink:href="#DejaVuSans-6f" transform="translate(806.775391 0)"/>
      <use xlink:href="#DejaVuSans-6e" transform="translate(867.957031 0)"/>
     </g>
    </g>
   </g>
   <g id="matplotlib.axis_2">
    <g id="ytick_1">
     <g id="line2d_7">
      <defs>
       <path id="m58e3728c4f" d="M 0 0 
L -3.5 0 
" style="stroke: #000000; stroke-width: 0.8"/>
      </defs>
      <g>
       <use xlink:href="#m58e3728c4f" x="57.6" y="307.584" style="stroke: #000000; stroke-width: 0.8"/>
      </g>
     </g>
     <g id="text_8">
      <!-- 0.0 -->
      <g transform="translate(34.696875 311.383219) scale(0.1 -0.1)">
       <defs>
        <path id="DejaVuSans-2e" d="M 684 794 
L 1344 794 
L 1344 0 
L 684 0 
L 684 794 
z
" transform="scale(0.015625)"/>
       </defs>
       <use xlink:href="#DejaVuSans-30"/>
       <use xlink:href="#DejaVuSans-2e" transform="translate(63.623047 0)"/>
       <use xlink:href="#DejaVuSans-30" transform="translate(95.410156 0)"/>
      </g>
     </g>
    </g>
    <g id="ytick_2">
     <g id="line2d_8">
      <g>
       <use xlink:href="#m58e3728c4f" x="57.6" y="254.3616" style="stroke: #000000; stroke-width: 0.8"/>
      </g>
     </g>
     <g id="text_9">
      <!-- 0.2 -->
      <g transform="translate(34.696875 258.160819) scale(0.1 -0.1)">
       <use xlink:href="#DejaVuSans-30"/>
       <use xlink:href="#DejaVuSans-2e" transform="translate(63.623047 0)"/>
       <use xlink:href="#DejaVuSans-32" transform="translate(95.410156 0)"/>
      </g>
     </g>
    </g>
    <g id="ytick_3">
     <g id="line2d_9">
      <g>
       <use xlink:href="#m58e3728c4f" x="57.6" y="201.1392" style="stroke: #000000; stroke-width: 0.8"/>
      </g>
     </g>
     <g id="text_10">
      <!-- 0.4 -->
      <g transform="translate(34.696875 204.938419) scale(0.1 -0.1)">
       <defs>
        <path id="DejaVuSans-34" d="M 2419 4116 
L 825 1625 
L 2419 1625 
L 2419 4116 
z
M 2253 4666 
L 3047 4666 
L 3047 1625 
L 3713 1625 
L 3713 1100 
L 3047 1100 
L 3047 0 
L 2419 0 
L 2419 1100 
L 313 1100 
L 313 1709 
L 2253 4666 
z
" transform="scale(0.015625)"/>
       </defs>
       <use xlink:href="#DejaVuSans-30"/>
       <use xlink:href="#DejaVuSans-2e" transform="translate(63.623047 0)"/>
       <use xlink:href="#DejaVuSans-34" transform="translate(95.410156 0)"/>
      </g>
     </g>
    </g>
    <g id="ytick_4">
     <g id="line2d_10">
      <g>
       <use xlink:href="#m58e3728c4f" x="57.6" y="147.9168" style="stroke: #000000; stroke-width: 0.8"/>
      </g>
     </g>
     <g id="text_11">
      <!-- 0.6 -->
      <g transform="translate(34.696875 151.716019) scale(0.1 -0.1)">
       <defs>
        <path id="DejaVuSans-36" d="M 2113 2584 
Q 1688 2584 1439 2293 
Q 1191 2003 1191 1497 
Q 1191 994 1439 701 
Q 1688 409 2113 409 
Q 2538 409 2786 701 
Q 3034 994 3034 1497 
Q 3034 2003 2786 2293 
Q 2538 2584 2113 2584 
z
M 3366 4563 
L 3366 3988 
Q 3128 4100 2886 4159 
Q 2644 4219 2406 4219 
Q 1781 4219 1451 3797 
Q 1122 3375 1075 2522 
Q 1259 2794 1537 2939 
Q 1816 3084 2150 3084 
Q 2853 3084 3261 2657 
Q 3669 2231 3669 1497 
Q 3669 778 3244 343 
Q 2819 -91 2113 -91 
Q 1303 -91 875 529 
Q 447 1150 447 2328 
Q 447 3434 972 4092 
Q 1497 4750 2381 4750 
Q 2619 4750 2861 4703 
Q 3103 4656 3366 4563 
z
" transform="scale(0.015625)"/>
       </defs>
       <use xlink:href="#DejaVuSans-30"/>
       <use xlink:href="#DejaVuSans-2e" transform="translate(63.623047 0)"/>
       <use xlink:href="#DejaVuSans-36" transform="translate(95.410156 0)"/>
      </g>
     </g>
    </g>
    <g id="ytick_5">
     <g id="line2d_11">
      <g>
       <use xlink:href="#m58e3728c4f" x="57.6" y="94.6944" style="stroke: #000000; stroke-width: 0.8"/>
      </g>
     </g>
     <g id="text_12">
      <!-- 0.8 -->
      <g transform="translate(34.696875 98.493619) scale(0.1 -0.1)">
       <defs>
        <path id="DejaVuSans-38" d="M 2034 2216 
Q 1584 2216 1326 1975 
Q 1069 1734 1069 1313 
Q 1069 891 1326 650 
Q 1584 409 2034 409 
Q 2484 409 2743 651 
Q 3003 894 3003 1313 
Q 3003 1734 2745 1975 
Q 2488 2216 2034 2216 
z
M 1403 2484 
Q 997 2584 770 2862 
Q 544 3141 544 3541 
Q 544 4100 942 4425 
Q 1341 4750 2034 4750 
Q 2731 4750 3128 4425 
Q 3525 4100 3525 3541 
Q 3525 3141 3298 2862 
Q 3072 2584 2669 2484 
Q 3125 2378 3379 2068 
Q 3634 1759 3634 1313 
Q 3634 634 3220 271 
Q 2806 -91 2034 -91 
Q 1263 -91 848 271 
Q 434 634 434 1313 
Q 434 1759 690 2068 
Q 947 2378 1403 2484 
z
M 1172 3481 
Q 1172 3119 1398 2916 
Q 1625 2713 2034 2713 
Q 2441 2713 2670 2916 
Q 2900 3119 2900 3481 
Q 2900 3844 2670 4047 
Q 2441 4250 2034 4250 
Q 1625 4250 1398 4047 
Q 1172 3844 1172 3481 
z
" transform="scale(0.015625)"/>
       </defs>
       <use xlink:href="#DejaVuSans-30"/>
       <use xlink:href="#DejaVuSans-2e" transform="translate(63.623047 0)"/>
       <use xlink:href="#DejaVuSans-38" transform="translate(95.410156 0)"/>
      </g>
     </g>
    </g>
    <g id="ytick_6">
     <g id="line2d_12">
      <g>
       <use xlink:href="#m58e3728c4f" x="57.6" y="41.472" style="stroke: #000000; stroke-width: 0.8"/>
      </g>
     </g>
     <g id="text_13">
      <!-- 1.0 -->
      <g transform="translate(34.696875 45.271219) scale(0.1 -0.1)">
       <use xlink:href="#DejaVuSans-31"/>
       <use xlink:href="#DejaVuSans-2e" transform="translate(63.623047 0)"/>
       <use xlink:href="#DejaVuSans-30" transform="translate(95.410156 0)"/>
      </g>
     </g>
    </g>
    <g id="text_14">
     <!-- Accuracy -->
     <g transform="translate(28.617187 197.356125) rotate(-90) scale(0.1 -0.1)">
      <defs>
       <path id="DejaVuSans-41" d="M 2188 4044 
L 1331 1722 
L 3047 1722 
L 2188 4044 
z
M 1831 4666 
L 2547 4666 
L 4325 0 
L 3669 0 
L 3244 1197 
L 1141 1197 
L 716 0 
L 50 0 
L 1831 4666 
z
" transform="scale(0.015625)"/>
       <path id="DejaVuSans-63" d="M 3122 3366 
L 3122 2828 
Q 2878 2963 2633 3030 
Q 2388 3097 2138 3097 
Q 1578 3097 1268 2742 
Q 959 2388 959 1747 
Q 959 1106 1268 751 
Q 1578 397 2138 397 
Q 2388 397 2633 464 
Q 2878 531 3122 666 
L 3122 134 
Q 2881 22 2623 -34 
Q 2366 -91 2075 -91 
Q 1284 -91 818 406 
Q 353 903 353 1747 
Q 353 2603 823 3093 
Q 1294 3584 2113 3584 
Q 2378 3584 2631 3529 
Q 2884 3475 3122 3366 
z
" transform="scale(0.015625)"/>
       <path id="DejaVuSans-75" d="M 544 1381 
L 544 3500 
L 1119 3500 
L 1119 1403 
Q 1119 906 1312 657 
Q 1506 409 1894 409 
Q 2359 409 2629 706 
Q 2900 1003 2900 1516 
L 2900 3500 
L 3475 3500 
L 3475 0 
L 2900 0 
L 2900 538 
Q 2691 219 2414 64 
Q 2138 -91 1772 -91 
Q 1169 -91 856 284 
Q 544 659 544 1381 
z
M 1991 3584 
L 1991 3584 
z
" transform="scale(0.015625)"/>
       <path id="DejaVuSans-72" d="M 2631 2963 
Q 2534 3019 2420 3045 
Q 2306 3072 2169 3072 
Q 1681 3072 1420 2755 
Q 1159 2438 1159 1844 
L 1159 0 
L 581 0 
L 581 3500 
L 1159 3500 
L 1159 2956 
Q 1341 3275 1631 3429 
Q 1922 3584 2338 3584 
Q 2397 3584 2469 3576 
Q 2541 3569 2628 3553 
L 2631 2963 
z
" transform="scale(0.015625)"/>
       <path id="DejaVuSans-61" d="M 2194 1759 
Q 1497 1759 1228 1600 
Q 959 1441 959 1056 
Q 959 750 1161 570 
Q 1363 391 1709 391 
Q 2188 391 2477 730 
Q 2766 1069 2766 1631 
L 2766 1759 
L 2194 1759 
z
M 3341 1997 
L 3341 0 
L 2766 0 
L 2766 531 
Q 2569 213 2275 61 
Q 1981 -91 1556 -91 
Q 1019 -91 701 211 
Q 384 513 384 1019 
Q 384 1609 779 1909 
Q 1175 2209 1959 2209 
L 2766 2209 
L 2766 2266 
Q 2766 2663 2505 2880 
Q 2244 3097 1772 3097 
Q 1472 3097 1187 3025 
Q 903 2953 641 2809 
L 641 3341 
Q 956 3463 1253 3523 
Q 1550 3584 1831 3584 
Q 2591 3584 2966 3190 
Q 3341 2797 3341 1997 
z
" transform="scale(0.015625)"/>
       <path id="DejaVuSans-79" d="M 2059 -325 
Q 1816 -950 1584 -1140 
Q 1353 -1331 966 -1331 
L 506 -1331 
L 506 -850 
L 844 -850 
Q 1081 -850 1212 -737 
Q 1344 -625 1503 -206 
L 1606 56 
L 191 3500 
L 800 3500 
L 1894 763 
L 2988 3500 
L 3597 3500 
L 2059 -325 
z
" transform="scale(0.015625)"/>
      </defs>
      <use xlink:href="#DejaVuSans-41"/>
      <use xlink:href="#DejaVuSans-63" transform="translate(66.658203 0)"/>
      <use xlink:href="#DejaVuSans-63" transform="translate(121.638672 0)"/>
      <use xlink:href="#DejaVuSans-75" transform="translate(176.619141 0)"/>
      <use xlink:href="#DejaVuSans-72" transform="translate(239.998047 0)"/>
      <use xlink:href="#DejaVuSans-61" transform="translate(281.111328 0)"/>
      <use xlink:href="#DejaVuSans-63" transform="translate(342.390625 0)"/>
      <use xlink:href="#DejaVuSans-79" transform="translate(397.371094 0)"/>
     </g>
    </g>
   </g>
   <g id="line2d_13">
    <path d="M 73.832727 254.204083 
L 74.971866 254.204086 
L 76.111005 257.060768 
L 77.250144 257.060764 
L 78.389282 254.204083 
L 79.528421 261.98003 
L 80.66756 248.670128 
L 81.806699 252.759257 
L 82.945837 251.745235 
L 84.084976 252.759257 
L 85.224115 246.030122 
L 86.363254 242.73736 
L 87.502392 254.863461 
L 88.641531 258.001023 
L 89.78067 254.204083 
L 90.919809 272.904011 
L 92.058947 275.131201 
L 93.198086 278.528146 
L 94.337225 272.904011 
L 95.476364 266.511576 
L 96.615502 270.66822 
L 97.754641 277.33266 
L 98.89378 275.131201 
L 100.032919 276.192854 
L 101.172057 258.001015 
L 102.311196 254.863465 
L 103.450335 254.863461 
L 104.589474 267.308804 
L 105.728612 275.113177 
L 106.867751 276.192852 
L 108.00689 268.583649 
L 110.285167 262.847738 
L 111.424306 261.133509 
L 112.563445 256.144227 
L 113.702584 262.847742 
L 114.841722 249.379161 
L 115.980861 257.060764 
L 117.12 262.847738 
L 118.259139 267.308812 
L 119.398278 272.563219 
L 120.537416 264.643435 
L 121.676555 266.51158 
L 122.815694 270.66822 
L 123.954833 267.308808 
L 125.093971 271.397743 
L 126.23311 267.308808 
L 127.372249 258.001015 
L 128.511388 247.118091 
L 129.650526 254.863465 
L 130.789665 247.118091 
L 131.928804 257.060764 
L 133.067943 239.918317 
L 135.34622 234.651058 
L 136.485359 223.544796 
L 137.624498 197.518412 
L 138.763636 205.48967 
L 141.041914 236.634858 
L 142.181053 232.224168 
L 143.320191 232.224176 
L 144.45933 249.74335 
L 145.598469 243.885432 
L 146.737608 267.354441 
L 147.876746 268.251568 
L 149.015885 275.916534 
L 150.155024 241.047625 
L 151.294163 232.73958 
L 152.433301 241.047625 
L 153.57244 245.428226 
L 154.711579 252.731718 
L 155.850718 251.183805 
L 156.989856 252.731714 
L 158.128995 256.539809 
L 159.268134 261.498962 
L 160.407273 269.22098 
L 161.546411 267.287188 
L 162.68555 243.495703 
L 163.824689 237.218807 
L 164.963828 242.946645 
L 166.102967 242.946645 
L 167.242105 238.790025 
L 168.381244 237.218807 
L 169.520383 248.865863 
L 170.659522 250.757685 
L 171.79866 234.65105 
L 172.937799 241.079178 
L 174.076938 250.757685 
L 175.216077 246.030122 
L 176.355215 258.001019 
L 177.494354 251.745235 
L 178.633493 248.670132 
L 179.772632 236.412344 
L 180.91177 227.849793 
L 182.050909 223.544804 
L 183.190048 223.544796 
L 184.329187 207.590678 
L 185.468325 203.536523 
L 186.607464 171.264748 
L 188.885742 131.308285 
L 190.02488 124.026994 
L 191.164019 121.049947 
L 192.303158 105.42417 
L 193.442297 105.42417 
L 194.581435 135.652879 
L 195.720574 110.502931 
L 196.859713 156.286977 
L 197.998852 153.955017 
L 199.13799 174.656335 
L 200.277129 105.393446 
L 201.416268 105.393462 
L 202.555407 101.283824 
L 203.694545 95.687597 
L 204.833684 107.278301 
L 205.972823 95.687581 
L 207.111962 99.520912 
L 208.2511 97.939932 
L 209.390239 97.939932 
L 210.529378 123.306818 
L 211.668517 95.687581 
L 212.807656 120.423719 
L 213.946794 92.185439 
L 215.085933 73.845091 
L 216.225072 84.311832 
L 217.364211 92.185439 
L 218.503349 84.311832 
L 219.642488 90.942118 
L 220.781627 114.256811 
L 221.920766 129.989685 
L 223.059904 138.890912 
L 224.199043 120.1867 
L 225.338182 121.049947 
L 226.477321 57.812862 
L 227.616459 83.486716 
L 228.755598 113.438817 
L 229.894737 104.306837 
L 231.033876 98.505966 
L 232.173014 120.1867 
L 233.312153 159.498758 
L 234.451292 143.39022 
L 235.590431 159.498758 
L 236.729569 138.890912 
L 237.868708 138.890928 
L 239.007847 120.1867 
L 240.146986 127.287614 
L 241.286124 142.415768 
L 242.425263 131.308269 
L 243.564402 178.099743 
L 244.703541 114.256811 
L 245.842679 96.174974 
L 246.981818 85.530472 
L 248.120957 158.480053 
L 249.260096 154.779054 
L 250.399234 142.415768 
L 251.538373 167.756213 
L 252.677512 210.45146 
L 253.816651 223.544804 
L 254.955789 199.675538 
L 256.094928 202.61968 
L 257.234067 101.80719 
L 258.373206 128.192703 
L 259.512344 135.652879 
L 260.651483 125.313982 
L 261.790622 102.182505 
L 262.929761 118.306794 
L 264.0689 113.663337 
L 265.208038 140.284885 
L 266.347177 149.992257 
L 267.486316 148.166597 
L 268.625455 125.350289 
L 269.764593 125.350304 
L 270.903732 118.306778 
L 272.042871 125.350289 
L 273.18201 128.192719 
L 274.321148 138.890928 
L 275.460287 135.652879 
L 276.599426 146.731415 
L 277.738565 194.578719 
L 278.877703 140.407177 
L 280.016842 136.141874 
L 281.155981 130.555402 
L 282.29512 161.57917 
L 283.434258 181.202643 
L 284.573397 185.16465 
L 285.712536 182.961026 
L 286.851675 193.110109 
L 287.990813 195.199903 
L 289.129952 222.896473 
L 290.269091 225.292997 
L 291.40823 233.002104 
L 292.547368 193.375782 
L 293.686507 205.573712 
L 294.825646 204.059834 
L 295.964785 178.169145 
L 297.103923 171.296265 
L 298.243062 178.169145 
L 299.382201 175.703853 
L 300.52134 216.922504 
L 301.660478 223.231214 
L 302.799617 209.309035 
L 303.938756 203.226787 
L 305.077895 186.453961 
L 306.217033 185.164642 
L 307.356172 193.375798 
L 308.495311 190.275689 
L 309.63445 187.882504 
L 310.773589 202.686029 
L 311.912727 141.17968 
L 313.051866 157.185071 
L 314.191005 167.394729 
L 315.330144 157.185071 
L 316.469282 166.350598 
L 317.608421 158.108386 
L 318.74756 182.960947 
L 319.886699 215.870601 
L 321.025837 215.870601 
L 322.164976 216.922489 
L 323.304115 185.164642 
L 324.443254 182.960947 
L 325.582392 218.085669 
L 326.721531 209.309035 
L 327.86067 210.515842 
L 328.999809 194.64659 
L 330.138947 201.443002 
L 331.278086 209.309035 
L 332.417225 185.164642 
L 333.556364 179.609148 
L 334.695502 186.453961 
L 335.834641 208.218833 
L 336.97378 236.116297 
L 338.112919 214.068075 
L 339.252057 221.501945 
L 340.391196 249.927569 
L 341.530335 244.082602 
L 342.669474 231.222101 
L 343.808612 242.458812 
L 344.947751 237.843354 
L 346.08689 224.239039 
L 347.226029 215.870601 
L 348.365167 209.309027 
L 349.504306 209.309035 
L 350.643445 231.222101 
L 351.782584 249.131032 
L 352.921722 257.080159 
L 354.060861 270.476938 
L 355.2 266.302637 
L 356.339139 281.132006 
L 357.478278 299.029209 
L 358.617416 295.361793 
L 359.756555 296.785048 
L 360.895694 293.875869 
L 362.034833 299.061403 
L 363.173971 295.412947 
L 365.452249 295.687836 
L 366.591388 292.500537 
L 367.730526 288.663832 
L 368.869665 294.284682 
L 370.008804 297.413061 
L 371.147943 299.040791 
L 372.287081 291.043591 
L 373.42622 292.613519 
L 374.565359 290.887007 
L 375.704498 293.208021 
L 376.843636 289.641304 
L 377.982775 288.395095 
L 379.121914 287.724504 
L 380.261053 290.505142 
L 381.400191 283.910962 
L 382.53933 284.419123 
L 384.817608 278.882013 
L 385.956746 243.230248 
L 387.095885 253.355166 
L 388.235024 220.777684 
L 389.374163 205.573704 
L 390.513301 184.895306 
L 391.65244 122.765988 
L 392.791579 67.020596 
L 393.930718 51.519268 
L 395.069856 48.430889 
L 396.208995 46.138028 
L 397.348134 44.115368 
L 398.487273 41.775082 
L 398.487273 41.775082 
" clip-path="url(#pdab3249135)" style="fill: none; stroke: #0000ff; stroke-width: 1.5; stroke-linecap: square"/>
   </g>
   <g id="line2d_14">
    <path d="M 73.832727 251.400644 
L 74.971866 249.379165 
L 76.111005 236.412344 
L 77.250144 236.412344 
L 78.389282 239.918317 
L 79.528421 234.65105 
L 80.66756 230.561525 
L 81.806699 233.419666 
L 82.945837 226.551734 
L 84.084976 226.551734 
L 85.224115 230.561517 
L 86.363254 226.551742 
L 87.502392 233.419666 
L 88.641531 236.412344 
L 89.78067 236.412344 
L 90.919809 233.419666 
L 92.058947 251.745231 
L 93.198086 259.949399 
L 94.337225 243.495699 
L 95.476364 254.204086 
L 96.615502 239.918309 
L 97.754641 279.384507 
L 98.89378 277.923829 
L 100.032919 279.384509 
L 101.172057 262.824195 
L 103.450335 294.397352 
L 104.589474 290.887009 
L 105.728612 250.757681 
L 106.867751 239.918309 
L 108.00689 236.412344 
L 109.146029 194.578719 
L 110.285167 197.518412 
L 111.424306 199.949474 
L 112.563445 220.66253 
L 113.702584 197.518404 
L 114.841722 158.480053 
L 115.980861 197.518404 
L 117.12 202.619672 
L 118.259139 189.331786 
L 119.398278 193.110109 
L 120.537416 181.072031 
L 121.676555 191.200249 
L 122.815694 187.015807 
L 123.954833 209.056392 
L 125.093971 207.236506 
L 126.23311 216.678824 
L 127.372249 156.374183 
L 128.511388 163.00853 
L 129.650526 174.656328 
L 130.789665 182.961018 
L 131.928804 196.052848 
L 133.067943 204.059834 
L 134.207081 209.056385 
L 135.34622 136.14189 
L 136.485359 121.498416 
L 137.624498 140.407177 
L 138.763636 171.296265 
L 139.902775 111.761446 
L 141.041914 68.335404 
L 142.181053 161.57917 
L 143.320191 169.855976 
L 145.598469 126.958233 
L 146.737608 125.415194 
L 147.876746 111.169606 
L 149.015885 100.824046 
L 150.155024 148.279245 
L 151.294163 173.717842 
L 152.433301 187.882512 
L 153.57244 189.331778 
L 154.711579 197.518412 
L 155.850718 189.373336 
L 156.989856 199.675522 
L 159.268134 227.814461 
L 160.407273 214.921892 
L 161.546411 181.114009 
L 162.68555 154.77907 
L 163.824689 171.264748 
L 164.963828 140.324174 
L 166.102967 148.207012 
L 167.242105 118.341341 
L 168.381244 111.692385 
L 169.520383 113.438817 
L 170.659522 96.174974 
L 171.79866 107.837261 
L 172.937799 125.350304 
L 174.076938 138.109336 
L 175.216077 140.407161 
L 176.355215 134.969328 
L 177.494354 113.663337 
L 178.633493 120.423703 
L 179.772632 140.284869 
L 180.91177 128.662632 
L 182.050909 136.14189 
L 183.190048 140.284885 
L 184.329187 59.006964 
L 185.468325 58.439423 
L 186.607464 51.519268 
L 187.746603 52.589127 
L 188.885742 59.00698 
L 190.02488 45.264392 
L 191.164019 42.162991 
L 192.303158 45.4179 
L 193.442297 46.03312 
L 194.581435 44.696582 
L 195.720574 46.314456 
L 196.859713 42.110489 
L 197.998852 45.672699 
L 199.13799 42.362703 
L 200.277129 42.594583 
L 201.416268 43.988476 
L 202.555407 44.373403 
L 203.694545 47.976108 
L 204.833684 47.976108 
L 205.972823 47.22838 
L 207.111962 48.818227 
L 208.2511 48.592264 
L 209.390239 47.976108 
L 210.529378 50.053284 
L 212.807656 199.949474 
L 213.946794 191.571408 
L 215.085933 81.651587 
L 216.225072 95.503397 
L 217.364211 98.157583 
L 218.503349 95.503397 
L 219.642488 103.933616 
L 220.781627 117.08273 
L 221.920766 105.42417 
L 223.059904 191.571408 
L 224.199043 87.801761 
L 225.338182 138.410197 
L 226.477321 43.707061 
L 227.616459 49.330094 
L 228.755598 98.157583 
L 229.894737 110.105298 
L 231.033876 101.085967 
L 232.173014 154.27239 
L 233.312153 170.746711 
L 234.451292 170.746711 
L 235.590431 195.516967 
L 236.729569 183.336651 
L 237.868708 187.851305 
L 239.007847 148.207012 
L 240.146986 82.705838 
L 241.286124 76.067653 
L 242.425263 186.385059 
L 243.564402 175.033546 
L 244.703541 128.662616 
L 245.842679 138.10932 
L 246.981818 132.652389 
L 248.120957 145.925873 
L 249.260096 172.761424 
L 250.399234 153.33461 
L 251.538373 128.662616 
L 252.677512 158.760199 
L 253.816651 233.002104 
L 254.955789 288.546191 
L 256.094928 289.641322 
L 257.234067 55.709213 
L 258.373206 45.016667 
L 259.512344 65.609524 
L 260.651483 75.079386 
L 261.790622 80.044197 
L 262.929761 69.556265 
L 264.0689 67.254268 
L 265.208038 72.059338 
L 266.347177 66.282195 
L 267.486316 59.136695 
L 268.625455 45.988042 
L 269.764593 63.49214 
L 270.903732 66.723764 
L 272.042871 60.902954 
L 273.18201 66.56748 
L 274.321148 46.116695 
L 276.599426 64.157847 
L 277.738565 68.497017 
L 278.877703 59.039226 
L 280.016842 59.039226 
L 281.155981 63.131306 
L 282.29512 77.95005 
L 283.434258 64.858418 
L 285.712536 71.282299 
L 286.851675 53.161854 
L 287.990813 57.729494 
L 289.129952 109.113811 
L 290.269091 304.281703 
L 291.40823 291.648242 
L 292.547368 45.603654 
L 293.686507 42.743348 
L 294.825646 45.356992 
L 295.964785 49.395872 
L 297.103923 54.875294 
L 299.382201 49.073756 
L 300.52134 47.775444 
L 301.660478 46.718988 
L 302.799617 45.047423 
L 303.938756 42.76733 
L 305.077895 44.786532 
L 306.217033 45.406813 
L 307.356172 43.728332 
L 308.495311 44.44294 
L 309.63445 42.720793 
L 310.773589 42.567983 
L 311.912727 43.175955 
L 313.051866 45.761238 
L 314.191005 46.746968 
L 315.330144 48.90932 
L 316.469282 48.90932 
L 317.608421 47.632119 
L 318.74756 52.753865 
L 319.886699 54.937598 
L 321.025837 56.628388 
L 322.164976 56.628404 
L 323.304115 55.78584 
L 324.443254 54.184272 
L 325.582392 54.937598 
L 326.721531 52.753865 
L 327.86067 55.785824 
L 328.999809 51.478044 
L 330.138947 58.641927 
L 331.278086 59.017338 
L 332.417225 81.651587 
L 333.556364 81.651587 
L 334.695502 69.212847 
L 335.834641 85.687739 
L 336.97378 87.251573 
L 338.112919 81.651587 
L 339.252057 71.638929 
L 340.391196 86.104151 
L 341.530335 70.45547 
L 342.669474 71.847984 
L 343.808612 63.121884 
L 344.947751 58.641927 
L 346.08689 80.006955 
L 347.226029 71.847984 
L 348.365167 75.37717 
L 349.504306 63.121868 
L 350.643445 80.006955 
L 351.782584 88.997196 
L 352.921722 101.283824 
L 354.060861 214.921829 
L 355.2 234.71084 
L 356.339139 293.682212 
L 357.478278 304.677336 
L 358.617416 295.31629 
L 359.756555 290.236226 
L 360.895694 266.02395 
L 362.034833 282.807675 
L 363.173971 245.366556 
L 364.31311 160.29407 
L 365.452249 148.292426 
L 366.591388 167.756197 
L 367.730526 153.955017 
L 368.869665 179.577679 
L 370.008804 226.551742 
L 371.147943 255.201986 
L 372.287081 175.703853 
L 373.42622 127.874505 
L 374.565359 130.051371 
L 375.704498 157.185071 
L 376.843636 67.569738 
L 377.982775 63.573715 
L 380.261053 54.115797 
L 381.400191 51.154295 
L 382.53933 47.300217 
L 383.678469 45.736653 
L 384.817608 45.354993 
L 385.956746 44.196627 
L 387.095885 44.090164 
L 388.235024 42.241791 
L 390.513301 42.124257 
L 392.791579 41.553687 
L 398.487273 41.539729 
L 398.487273 41.539729 
" clip-path="url(#pdab3249135)" style="fill: none; stroke: #ffa500; stroke-width: 1.5; stroke-linecap: square"/>
   </g>
   <g id="line2d_15">
    <path d="M 73.832727 224.239039 
L 74.971866 225.352327 
L 76.111005 216.922497 
L 77.250144 216.922504 
L 78.389282 223.231222 
L 79.528421 216.922497 
L 80.66756 211.847995 
L 84.084976 211.847995 
L 85.224115 202.686021 
L 86.363254 202.686021 
L 87.502392 210.515834 
L 88.641531 210.515834 
L 89.78067 202.686029 
L 90.919809 204.059834 
L 93.198086 219.368151 
L 94.337225 220.777684 
L 95.476364 213.314011 
L 96.615502 204.059826 
L 101.172057 204.059834 
L 102.311196 202.686029 
L 103.450335 205.573704 
L 104.589474 205.573704 
L 105.728612 211.847995 
L 106.867751 207.236506 
L 108.00689 213.314011 
L 109.146029 211.847995 
L 110.285167 219.368151 
L 114.841722 219.368151 
L 115.980861 213.314011 
L 117.12 213.314011 
L 118.259139 210.515834 
L 119.398278 218.085669 
L 120.537416 216.922497 
L 121.676555 218.085661 
L 122.815694 224.239031 
L 123.954833 219.368151 
L 125.093971 226.578445 
L 126.23311 225.352327 
L 127.372249 225.352327 
L 128.511388 218.085661 
L 129.650526 219.368151 
L 130.789665 214.921884 
L 131.928804 220.777684 
L 134.207081 220.777684 
L 135.34622 211.847995 
L 136.485359 220.777676 
L 137.624498 226.578445 
L 138.763636 213.314011 
L 139.902775 205.573704 
L 141.041914 199.311603 
L 142.181053 214.921892 
L 143.320191 220.777676 
L 144.45933 219.368151 
L 145.598469 219.368151 
L 146.737608 205.573712 
L 147.876746 201.182944 
L 149.015885 213.314011 
L 150.155024 191.200249 
L 151.294163 189.461081 
L 152.433301 197.604611 
L 153.57244 196.052848 
L 154.711579 205.573704 
L 155.850718 197.604603 
L 156.989856 211.847995 
L 158.128995 204.059834 
L 159.268134 204.059834 
L 160.407273 211.847987 
L 161.546411 194.64659 
L 162.68555 197.604611 
L 163.824689 204.059834 
L 164.963828 204.059834 
L 166.102967 211.847995 
L 167.242105 207.236506 
L 168.381244 205.573704 
L 169.520383 205.573712 
L 170.659522 211.847987 
L 171.79866 207.236506 
L 172.937799 205.573704 
L 174.076938 218.085661 
L 176.355215 218.085669 
L 177.494354 211.847987 
L 178.633493 218.085661 
L 179.772632 218.085661 
L 180.91177 211.848003 
L 182.050909 204.059834 
L 183.190048 210.515834 
L 184.329187 209.309035 
L 185.468325 209.309035 
L 186.607464 223.231214 
L 187.746603 202.686029 
L 188.885742 197.604603 
L 190.02488 197.604611 
L 191.164019 189.461074 
L 192.303158 191.200257 
L 193.442297 204.059826 
L 194.581435 194.646598 
L 195.720574 186.453953 
L 196.859713 181.202651 
L 197.998852 164.594776 
L 200.277129 192.230319 
L 201.416268 199.31154 
L 202.555407 205.560737 
L 203.694545 201.443002 
L 205.972823 201.443002 
L 207.111962 218.085661 
L 208.2511 230.263003 
L 209.390239 210.515834 
L 210.529378 204.059826 
L 211.668517 158.108465 
L 212.807656 169.855976 
L 213.946794 178.169145 
L 215.085933 176.87115 
L 216.225072 178.169137 
L 217.364211 172.892345 
L 218.503349 197.604603 
L 219.642488 213.314011 
L 220.781627 225.352327 
L 221.920766 225.352327 
L 223.059904 219.368151 
L 224.199043 222.321422 
L 225.338182 227.92435 
L 226.477321 176.600187 
L 227.616459 191.200249 
L 228.755598 214.921884 
L 229.894737 214.921892 
L 231.033876 209.056385 
L 232.173014 229.396417 
L 233.312153 231.000079 
L 234.451292 229.396425 
L 235.590431 236.116345 
L 236.729569 234.721737 
L 237.868708 234.721745 
L 239.007847 213.314011 
L 240.146986 207.236506 
L 241.286124 216.922497 
L 242.425263 170.421978 
L 243.564402 191.200257 
L 244.703541 184.895306 
L 245.842679 193.110117 
L 246.981818 184.895298 
L 248.120957 199.311603 
L 249.260096 181.072039 
L 250.399234 172.761424 
L 251.538373 172.761424 
L 252.677512 187.015807 
L 253.816651 184.895306 
L 254.955789 199.311603 
L 256.094928 195.199903 
L 257.234067 161.510378 
L 258.373206 161.510363 
L 259.512344 151.356933 
L 260.651483 164.506412 
L 261.790622 156.286977 
L 262.929761 161.510378 
L 264.0689 161.510378 
L 265.208038 153.33461 
L 266.347177 148.207012 
L 267.486316 140.324174 
L 268.625455 135.652879 
L 269.764593 143.39022 
L 270.903732 148.207028 
L 272.042871 151.356918 
L 273.18201 143.39022 
L 274.321148 143.39022 
L 275.460287 148.207012 
L 276.599426 151.356933 
L 277.738565 145.31982 
L 278.877703 172.803489 
L 280.016842 167.756213 
L 281.155981 159.498758 
L 282.29512 171.264764 
L 283.434258 159.498774 
L 284.573397 162.977235 
L 285.712536 167.756197 
L 286.851675 164.506412 
L 287.990813 169.786614 
L 289.129952 169.786598 
L 290.269091 172.803489 
L 291.40823 172.803489 
L 292.547368 143.895456 
L 293.686507 148.292426 
L 294.825646 130.555402 
L 295.964785 156.245705 
L 297.103923 156.245705 
L 298.243062 148.166581 
L 299.382201 160.026201 
L 300.52134 151.875097 
L 301.660478 145.925873 
L 302.799617 145.925873 
L 303.938756 151.875113 
L 305.077895 148.166597 
L 306.217033 150.631761 
L 307.356172 153.955017 
L 309.63445 166.350661 
L 310.773589 149.992257 
L 311.912727 140.407177 
L 313.051866 149.992272 
L 314.191005 149.992257 
L 315.330144 162.140651 
L 316.469282 164.464585 
L 317.608421 156.245705 
L 318.74756 156.245689 
L 319.886699 164.464585 
L 321.025837 164.464569 
L 322.164976 172.761424 
L 323.304115 156.245705 
L 324.443254 162.140651 
L 326.721531 162.140636 
L 327.86067 170.421994 
L 328.999809 168.288938 
L 330.138947 172.892345 
L 331.278086 156.374167 
L 332.417225 168.288938 
L 333.556364 170.421978 
L 334.695502 170.421978 
L 335.834641 172.761424 
L 336.97378 170.421978 
L 339.252057 170.421978 
L 341.530335 166.350645 
L 343.808612 166.350645 
L 344.947751 164.594776 
L 347.226029 174.656335 
L 348.365167 176.600195 
L 349.504306 168.288938 
L 350.643445 168.288938 
L 351.782584 174.656335 
L 354.060861 174.656343 
L 355.2 168.288938 
L 356.339139 172.761424 
L 357.478278 181.072039 
L 358.617416 170.421978 
L 359.756555 178.735282 
L 360.895694 176.600187 
L 362.034833 178.735274 
L 363.173971 163.00853 
L 364.31311 187.882512 
L 365.452249 189.461081 
L 366.591388 182.961018 
L 367.730526 182.961018 
L 368.869665 178.735274 
L 370.008804 178.735266 
L 371.147943 189.373336 
L 372.287081 181.072031 
L 373.42622 184.895306 
L 374.565359 187.015815 
L 375.704498 182.96101 
L 376.843636 187.882512 
L 377.982775 186.453953 
L 379.121914 179.609156 
L 380.261053 181.202651 
L 381.400191 176.600187 
L 382.53933 184.895298 
L 383.678469 168.288938 
L 384.817608 189.461074 
L 385.956746 171.296249 
L 387.095885 166.350661 
L 388.235024 153.33461 
L 389.374163 154.77907 
L 390.513301 164.464569 
L 392.791579 142.683574 
L 393.930718 110.527151 
L 395.069856 105.489091 
L 396.208995 113.141509 
L 397.348134 108.237923 
L 398.487273 51.289355 
L 398.487273 51.289355 
" clip-path="url(#pdab3249135)" style="fill: none; stroke: #008000; stroke-width: 1.5; stroke-linecap: square"/>
   </g>
   <g id="patch_3">
    <path d="M 57.6 307.584 
L 57.6 41.472 
" style="fill: none; stroke: #000000; stroke-width: 0.8; stroke-linejoin: miter; stroke-linecap: square"/>
   </g>
   <g id="patch_4">
    <path d="M 414.72 307.584 
L 414.72 41.472 
" style="fill: none; stroke: #000000; stroke-width: 0.8; stroke-linejoin: miter; stroke-linecap: square"/>
   </g>
   <g id="patch_5">
    <path d="M 57.6 307.584 
L 414.72 307.584 
" style="fill: none; stroke: #000000; stroke-width: 0.8; stroke-linejoin: miter; stroke-linecap: square"/>
   </g>
   <g id="patch_6">
    <path d="M 57.6 41.472 
L 414.72 41.472 
" style="fill: none; stroke: #000000; stroke-width: 0.8; stroke-linejoin: miter; stroke-linecap: square"/>
   </g>
   <g id="text_15">
    <!-- logical_deduction_three_objects Q15 -->
    <g transform="translate(126.047813 31.472) scale(0.12 -0.12)">
     <defs>
      <path id="DejaVuSans-6c" d="M 603 4863 
L 1178 4863 
L 1178 0 
L 603 0 
L 603 4863 
z
" transform="scale(0.015625)"/>
      <path id="DejaVuSans-67" d="M 2906 1791 
Q 2906 2416 2648 2759 
Q 2391 3103 1925 3103 
Q 1463 3103 1205 2759 
Q 947 2416 947 1791 
Q 947 1169 1205 825 
Q 1463 481 1925 481 
Q 2391 481 2648 825 
Q 2906 1169 2906 1791 
z
M 3481 434 
Q 3481 -459 3084 -895 
Q 2688 -1331 1869 -1331 
Q 1566 -1331 1297 -1286 
Q 1028 -1241 775 -1147 
L 775 -588 
Q 1028 -725 1275 -790 
Q 1522 -856 1778 -856 
Q 2344 -856 2625 -561 
Q 2906 -266 2906 331 
L 2906 616 
Q 2728 306 2450 153 
Q 2172 0 1784 0 
Q 1141 0 747 490 
Q 353 981 353 1791 
Q 353 2603 747 3093 
Q 1141 3584 1784 3584 
Q 2172 3584 2450 3431 
Q 2728 3278 2906 2969 
L 2906 3500 
L 3481 3500 
L 3481 434 
z
" transform="scale(0.015625)"/>
      <path id="DejaVuSans-5f" d="M 3263 -1063 
L 3263 -1509 
L -63 -1509 
L -63 -1063 
L 3263 -1063 
z
" transform="scale(0.015625)"/>
      <path id="DejaVuSans-64" d="M 2906 2969 
L 2906 4863 
L 3481 4863 
L 3481 0 
L 2906 0 
L 2906 525 
Q 2725 213 2448 61 
Q 2172 -91 1784 -91 
Q 1150 -91 751 415 
Q 353 922 353 1747 
Q 353 2572 751 3078 
Q 1150 3584 1784 3584 
Q 2172 3584 2448 3432 
Q 2725 3281 2906 2969 
z
M 947 1747 
Q 947 1113 1208 752 
Q 1469 391 1925 391 
Q 2381 391 2643 752 
Q 2906 1113 2906 1747 
Q 2906 2381 2643 2742 
Q 2381 3103 1925 3103 
Q 1469 3103 1208 2742 
Q 947 2381 947 1747 
z
" transform="scale(0.015625)"/>
      <path id="DejaVuSans-68" d="M 3513 2113 
L 3513 0 
L 2938 0 
L 2938 2094 
Q 2938 2591 2744 2837 
Q 2550 3084 2163 3084 
Q 1697 3084 1428 2787 
Q 1159 2491 1159 1978 
L 1159 0 
L 581 0 
L 581 4863 
L 1159 4863 
L 1159 2956 
Q 1366 3272 1645 3428 
Q 1925 3584 2291 3584 
Q 2894 3584 3203 3211 
Q 3513 2838 3513 2113 
z
" transform="scale(0.015625)"/>
      <path id="DejaVuSans-62" d="M 3116 1747 
Q 3116 2381 2855 2742 
Q 2594 3103 2138 3103 
Q 1681 3103 1420 2742 
Q 1159 2381 1159 1747 
Q 1159 1113 1420 752 
Q 1681 391 2138 391 
Q 2594 391 2855 752 
Q 3116 1113 3116 1747 
z
M 1159 2969 
Q 1341 3281 1617 3432 
Q 1894 3584 2278 3584 
Q 2916 3584 3314 3078 
Q 3713 2572 3713 1747 
Q 3713 922 3314 415 
Q 2916 -91 2278 -91 
Q 1894 -91 1617 61 
Q 1341 213 1159 525 
L 1159 0 
L 581 0 
L 581 4863 
L 1159 4863 
L 1159 2969 
z
" transform="scale(0.015625)"/>
      <path id="DejaVuSans-6a" d="M 603 3500 
L 1178 3500 
L 1178 -63 
Q 1178 -731 923 -1031 
Q 669 -1331 103 -1331 
L -116 -1331 
L -116 -844 
L 38 -844 
Q 366 -844 484 -692 
Q 603 -541 603 -63 
L 603 3500 
z
M 603 4863 
L 1178 4863 
L 1178 4134 
L 603 4134 
L 603 4863 
z
" transform="scale(0.015625)"/>
      <path id="DejaVuSans-51" d="M 2522 4238 
Q 1834 4238 1429 3725 
Q 1025 3213 1025 2328 
Q 1025 1447 1429 934 
Q 1834 422 2522 422 
Q 3209 422 3611 934 
Q 4013 1447 4013 2328 
Q 4013 3213 3611 3725 
Q 3209 4238 2522 4238 
z
M 3406 84 
L 4238 -825 
L 3475 -825 
L 2784 -78 
Q 2681 -84 2626 -87 
Q 2572 -91 2522 -91 
Q 1538 -91 948 567 
Q 359 1225 359 2328 
Q 359 3434 948 4092 
Q 1538 4750 2522 4750 
Q 3503 4750 4090 4092 
Q 4678 3434 4678 2328 
Q 4678 1516 4351 937 
Q 4025 359 3406 84 
z
" transform="scale(0.015625)"/>
     </defs>
     <use xlink:href="#DejaVuSans-6c"/>
     <use xlink:href="#DejaVuSans-6f" transform="translate(27.783203 0)"/>
     <use xlink:href="#DejaVuSans-67" transform="translate(88.964844 0)"/>
     <use xlink:href="#DejaVuSans-69" transform="translate(152.441406 0)"/>
     <use xlink:href="#DejaVuSans-63" transform="translate(180.224609 0)"/>
     <use xlink:href="#DejaVuSans-61" transform="translate(235.205078 0)"/>
     <use xlink:href="#DejaVuSans-6c" transform="translate(296.484375 0)"/>
     <use xlink:href="#DejaVuSans-5f" transform="translate(324.267578 0)"/>
     <use xlink:href="#DejaVuSans-64" transform="translate(374.267578 0)"/>
     <use xlink:href="#DejaVuSans-65" transform="translate(437.744141 0)"/>
     <use xlink:href="#DejaVuSans-64" transform="translate(499.267578 0)"/>
     <use xlink:href="#DejaVuSans-75" transform="translate(562.744141 0)"/>
     <use xlink:href="#DejaVuSans-63" transform="translate(626.123047 0)"/>
     <use xlink:href="#DejaVuSans-74" transform="translate(681.103516 0)"/>
     <use xlink:href="#DejaVuSans-69" transform="translate(720.3125 0)"/>
     <use xlink:href="#DejaVuSans-6f" transform="translate(748.095703 0)"/>
     <use xlink:href="#DejaVuSans-6e" transform="translate(809.277344 0)"/>
     <use xlink:href="#DejaVuSans-5f" transform="translate(872.65625 0)"/>
     <use xlink:href="#DejaVuSans-74" transform="translate(922.65625 0)"/>
     <use xlink:href="#DejaVuSans-68" transform="translate(961.865234 0)"/>
     <use xlink:href="#DejaVuSans-72" transform="translate(1025.244141 0)"/>
     <use xlink:href="#DejaVuSans-65" transform="translate(1064.107422 0)"/>
     <use xlink:href="#DejaVuSans-65" transform="translate(1125.630859 0)"/>
     <use xlink:href="#DejaVuSans-5f" transform="translate(1187.154297 0)"/>
     <use xlink:href="#DejaVuSans-6f" transform="translate(1237.154297 0)"/>
     <use xlink:href="#DejaVuSans-62" transform="translate(1298.335938 0)"/>
     <use xlink:href="#DejaVuSans-6a" transform="translate(1361.8125 0)"/>
     <use xlink:href="#DejaVuSans-65" transform="translate(1389.595703 0)"/>
     <use xlink:href="#DejaVuSans-63" transform="translate(1451.119141 0)"/>
     <use xlink:href="#DejaVuSans-74" transform="translate(1506.099609 0)"/>
     <use xlink:href="#DejaVuSans-73" transform="translate(1545.308594 0)"/>
     <use xlink:href="#DejaVuSans-20" transform="translate(1597.408203 0)"/>
     <use xlink:href="#DejaVuSans-51" transform="translate(1629.195312 0)"/>
     <use xlink:href="#DejaVuSans-31" transform="translate(1707.90625 0)"/>
     <use xlink:href="#DejaVuSans-35" transform="translate(1771.529297 0)"/>
    </g>
   </g>
   <g id="legend_1">
    <g id="patch_7">
     <path d="M 64.6 93.506375 
L 150.876563 93.506375 
Q 152.876563 93.506375 152.876563 91.506375 
L 152.876563 48.472 
Q 152.876563 46.472 150.876563 46.472 
L 64.6 46.472 
Q 62.6 46.472 62.6 48.472 
L 62.6 91.506375 
Q 62.6 93.506375 64.6 93.506375 
z
" style="fill: #ffffff; opacity: 0.8; stroke: #cccccc; stroke-linejoin: miter"/>
    </g>
    <g id="line2d_16">
     <path d="M 66.6 54.570438 
L 76.6 54.570438 
L 86.6 54.570438 
" style="fill: none; stroke: #0000ff; stroke-width: 1.5; stroke-linecap: square"/>
    </g>
    <g id="text_16">
     <!-- smooth-3B -->
     <g transform="translate(94.6 58.070438) scale(0.1 -0.1)">
      <defs>
       <path id="DejaVuSans-6d" d="M 3328 2828 
Q 3544 3216 3844 3400 
Q 4144 3584 4550 3584 
Q 5097 3584 5394 3201 
Q 5691 2819 5691 2113 
L 5691 0 
L 5113 0 
L 5113 2094 
Q 5113 2597 4934 2840 
Q 4756 3084 4391 3084 
Q 3944 3084 3684 2787 
Q 3425 2491 3425 1978 
L 3425 0 
L 2847 0 
L 2847 2094 
Q 2847 2600 2669 2842 
Q 2491 3084 2119 3084 
Q 1678 3084 1418 2786 
Q 1159 2488 1159 1978 
L 1159 0 
L 581 0 
L 581 3500 
L 1159 3500 
L 1159 2956 
Q 1356 3278 1631 3431 
Q 1906 3584 2284 3584 
Q 2666 3584 2933 3390 
Q 3200 3197 3328 2828 
z
" transform="scale(0.015625)"/>
       <path id="DejaVuSans-2d" d="M 313 2009 
L 1997 2009 
L 1997 1497 
L 313 1497 
L 313 2009 
z
" transform="scale(0.015625)"/>
       <path id="DejaVuSans-33" d="M 2597 2516 
Q 3050 2419 3304 2112 
Q 3559 1806 3559 1356 
Q 3559 666 3084 287 
Q 2609 -91 1734 -91 
Q 1441 -91 1130 -33 
Q 819 25 488 141 
L 488 750 
Q 750 597 1062 519 
Q 1375 441 1716 441 
Q 2309 441 2620 675 
Q 2931 909 2931 1356 
Q 2931 1769 2642 2001 
Q 2353 2234 1838 2234 
L 1294 2234 
L 1294 2753 
L 1863 2753 
Q 2328 2753 2575 2939 
Q 2822 3125 2822 3475 
Q 2822 3834 2567 4026 
Q 2313 4219 1838 4219 
Q 1578 4219 1281 4162 
Q 984 4106 628 3988 
L 628 4550 
Q 988 4650 1302 4700 
Q 1616 4750 1894 4750 
Q 2613 4750 3031 4423 
Q 3450 4097 3450 3541 
Q 3450 3153 3228 2886 
Q 3006 2619 2597 2516 
z
" transform="scale(0.015625)"/>
       <path id="DejaVuSans-42" d="M 1259 2228 
L 1259 519 
L 2272 519 
Q 2781 519 3026 730 
Q 3272 941 3272 1375 
Q 3272 1813 3026 2020 
Q 2781 2228 2272 2228 
L 1259 2228 
z
M 1259 4147 
L 1259 2741 
L 2194 2741 
Q 2656 2741 2882 2914 
Q 3109 3088 3109 3444 
Q 3109 3797 2882 3972 
Q 2656 4147 2194 4147 
L 1259 4147 
z
M 628 4666 
L 2241 4666 
Q 2963 4666 3353 4366 
Q 3744 4066 3744 3513 
Q 3744 3084 3544 2831 
Q 3344 2578 2956 2516 
Q 3422 2416 3680 2098 
Q 3938 1781 3938 1306 
Q 3938 681 3513 340 
Q 3088 0 2303 0 
L 628 0 
L 628 4666 
z
" transform="scale(0.015625)"/>
      </defs>
      <use xlink:href="#DejaVuSans-73"/>
      <use xlink:href="#DejaVuSans-6d" transform="translate(52.099609 0)"/>
      <use xlink:href="#DejaVuSans-6f" transform="translate(149.511719 0)"/>
      <use xlink:href="#DejaVuSans-6f" transform="translate(210.693359 0)"/>
      <use xlink:href="#DejaVuSans-74" transform="translate(271.875 0)"/>
      <use xlink:href="#DejaVuSans-68" transform="translate(311.083984 0)"/>
      <use xlink:href="#DejaVuSans-2d" transform="translate(374.462891 0)"/>
      <use xlink:href="#DejaVuSans-33" transform="translate(410.546875 0)"/>
      <use xlink:href="#DejaVuSans-42" transform="translate(474.169922 0)"/>
     </g>
    </g>
    <g id="line2d_17">
     <path d="M 66.6 69.248563 
L 76.6 69.248563 
L 86.6 69.248563 
" style="fill: none; stroke: #ffa500; stroke-width: 1.5; stroke-linecap: square"/>
    </g>
    <g id="text_17">
     <!-- abrupt-3B -->
     <g transform="translate(94.6 72.748563) scale(0.1 -0.1)">
      <use xlink:href="#DejaVuSans-61"/>
      <use xlink:href="#DejaVuSans-62" transform="translate(61.279297 0)"/>
      <use xlink:href="#DejaVuSans-72" transform="translate(124.755859 0)"/>
      <use xlink:href="#DejaVuSans-75" transform="translate(165.869141 0)"/>
      <use xlink:href="#DejaVuSans-70" transform="translate(229.248047 0)"/>
      <use xlink:href="#DejaVuSans-74" transform="translate(292.724609 0)"/>
      <use xlink:href="#DejaVuSans-2d" transform="translate(331.933594 0)"/>
      <use xlink:href="#DejaVuSans-33" transform="translate(368.017578 0)"/>
      <use xlink:href="#DejaVuSans-42" transform="translate(431.640625 0)"/>
     </g>
    </g>
    <g id="line2d_18">
     <path d="M 66.6 83.926688 
L 76.6 83.926688 
L 86.6 83.926688 
" style="fill: none; stroke: #008000; stroke-width: 1.5; stroke-linecap: square"/>
    </g>
    <g id="text_18">
     <!-- smooth-1B -->
     <g transform="translate(94.6 87.426688) scale(0.1 -0.1)">
      <use xlink:href="#DejaVuSans-73"/>
      <use xlink:href="#DejaVuSans-6d" transform="translate(52.099609 0)"/>
      <use xlink:href="#DejaVuSans-6f" transform="translate(149.511719 0)"/>
      <use xlink:href="#DejaVuSans-6f" transform="translate(210.693359 0)"/>
      <use xlink:href="#DejaVuSans-74" transform="translate(271.875 0)"/>
      <use xlink:href="#DejaVuSans-68" transform="translate(311.083984 0)"/>
      <use xlink:href="#DejaVuSans-2d" transform="translate(374.462891 0)"/>
      <use xlink:href="#DejaVuSans-31" transform="translate(410.546875 0)"/>
      <use xlink:href="#DejaVuSans-42" transform="translate(474.169922 0)"/>
     </g>
    </g>
   </g>
  </g>
 </g>
 <defs>
  <clipPath id="pdab3249135">
   <rect x="57.6" y="41.472" width="357.12" height="266.112"/>
  </clipPath>
 </defs>
</svg>
