<?xml version="1.0" encoding="utf-8" standalone="no"?>
<!DOCTYPE svg PUBLIC "-//W3C//DTD SVG 1.1//EN"
  "http://www.w3.org/Graphics/SVG/1.1/DTD/svg11.dtd">
<svg xmlns:xlink="http://www.w3.org/1999/xlink" width="460.8pt" height="345.6pt" viewBox="0 0 460.8 345.6" xmlns="http://www.w3.org/2000/svg" version="1.1">
 <metadata>
  <rdf:RDF xmlns:dc="http://purl.org/dc/elements/1.1/" xmlns:cc="http://creativecommons.org/ns#" xmlns:rdf="http://www.w3.org/1999/02/22-rdf-syntax-ns#">
   <cc:Work>
    <dc:type rdf:resource="http://purl.org/dc/dcmitype/StillImage"/>
    <dc:date>2025-05-14T15:50:26.145895</dc:date>
    <dc:format>image/svg+xml</dc:format>
    <dc:creator>
     <cc:Agent>
      <dc:title>Matplotlib v3.10.3, https://matplotlib.org/</dc:title>
     </cc:Agent>
    </dc:creator>
   </cc:Work>
  </rdf:RDF>
 </metadata>
 <defs>
  <style type="text/css">*{stroke-linejoin: round; stroke-linecap: butt}</style>
 </defs>
 <g id="figure_1">
  <g id="patch_1">
   <path d="M 0 345.6 
L 460.8 345.6 
L 460.8 0 
L 0 0 
z
" style="fill: #ffffff"/>
  </g>
  <g id="axes_1">
   <g id="patch_2">
    <path d="M 57.6 307.584 
L 414.72 307.584 
L 414.72 41.472 
L 57.6 41.472 
z
" style="fill: #ffffff"/>
   </g>
   <g id="matplotlib.axis_1">
    <g id="xtick_1">
     <g id="line2d_1">
      <defs>
       <path id="m7f8f3e17fc" d="M 0 0 
L 0 3.5 
" style="stroke: #000000; stroke-width: 0.8"/>
      </defs>
      <g>
       <use xlink:href="#m7f8f3e17fc" x="73.832727" y="307.584" style="stroke: #000000; stroke-width: 0.8"/>
      </g>
     </g>
     <g id="text_1">
      <!-- 0 -->
      <g transform="translate(70.651477 322.182437) scale(0.1 -0.1)">
       <defs>
        <path id="DejaVuSans-30" d="M 2034 4250 
Q 1547 4250 1301 3770 
Q 1056 3291 1056 2328 
Q 1056 1369 1301 889 
Q 1547 409 2034 409 
Q 2525 409 2770 889 
Q 3016 1369 3016 2328 
Q 3016 3291 2770 3770 
Q 2525 4250 2034 4250 
z
M 2034 4750 
Q 2819 4750 3233 4129 
Q 3647 3509 3647 2328 
Q 3647 1150 3233 529 
Q 2819 -91 2034 -91 
Q 1250 -91 836 529 
Q 422 1150 422 2328 
Q 422 3509 836 4129 
Q 1250 4750 2034 4750 
z
" transform="scale(0.015625)"/>
       </defs>
       <use xlink:href="#DejaVuSans-30"/>
      </g>
     </g>
    </g>
    <g id="xtick_2">
     <g id="line2d_2">
      <g>
       <use xlink:href="#m7f8f3e17fc" x="121.576043" y="307.584" style="stroke: #000000; stroke-width: 0.8"/>
      </g>
     </g>
     <g id="text_2">
      <!-- 25 -->
      <g transform="translate(115.213543 322.182437) scale(0.1 -0.1)">
       <defs>
        <path id="DejaVuSans-32" d="M 1228 531 
L 3431 531 
L 3431 0 
L 469 0 
L 469 531 
Q 828 903 1448 1529 
Q 2069 2156 2228 2338 
Q 2531 2678 2651 2914 
Q 2772 3150 2772 3378 
Q 2772 3750 2511 3984 
Q 2250 4219 1831 4219 
Q 1534 4219 1204 4116 
Q 875 4013 500 3803 
L 500 4441 
Q 881 4594 1212 4672 
Q 1544 4750 1819 4750 
Q 2544 4750 2975 4387 
Q 3406 4025 3406 3419 
Q 3406 3131 3298 2873 
Q 3191 2616 2906 2266 
Q 2828 2175 2409 1742 
Q 1991 1309 1228 531 
z
" transform="scale(0.015625)"/>
        <path id="DejaVuSans-35" d="M 691 4666 
L 3169 4666 
L 3169 4134 
L 1269 4134 
L 1269 2991 
Q 1406 3038 1543 3061 
Q 1681 3084 1819 3084 
Q 2600 3084 3056 2656 
Q 3513 2228 3513 1497 
Q 3513 744 3044 326 
Q 2575 -91 1722 -91 
Q 1428 -91 1123 -41 
Q 819 9 494 109 
L 494 744 
Q 775 591 1075 516 
Q 1375 441 1709 441 
Q 2250 441 2565 725 
Q 2881 1009 2881 1497 
Q 2881 1984 2565 2268 
Q 2250 2553 1709 2553 
Q 1456 2553 1204 2497 
Q 953 2441 691 2322 
L 691 4666 
z
" transform="scale(0.015625)"/>
       </defs>
       <use xlink:href="#DejaVuSans-32"/>
       <use xlink:href="#DejaVuSans-35" transform="translate(63.623047 0)"/>
      </g>
     </g>
    </g>
    <g id="xtick_3">
     <g id="line2d_3">
      <g>
       <use xlink:href="#m7f8f3e17fc" x="169.319358" y="307.584" style="stroke: #000000; stroke-width: 0.8"/>
      </g>
     </g>
     <g id="text_3">
      <!-- 50 -->
      <g transform="translate(162.956858 322.182437) scale(0.1 -0.1)">
       <use xlink:href="#DejaVuSans-35"/>
       <use xlink:href="#DejaVuSans-30" transform="translate(63.623047 0)"/>
      </g>
     </g>
    </g>
    <g id="xtick_4">
     <g id="line2d_4">
      <g>
       <use xlink:href="#m7f8f3e17fc" x="217.062674" y="307.584" style="stroke: #000000; stroke-width: 0.8"/>
      </g>
     </g>
     <g id="text_4">
      <!-- 75 -->
      <g transform="translate(210.700174 322.182437) scale(0.1 -0.1)">
       <defs>
        <path id="DejaVuSans-37" d="M 525 4666 
L 3525 4666 
L 3525 4397 
L 1831 0 
L 1172 0 
L 2766 4134 
L 525 4134 
L 525 4666 
z
" transform="scale(0.015625)"/>
       </defs>
       <use xlink:href="#DejaVuSans-37"/>
       <use xlink:href="#DejaVuSans-35" transform="translate(63.623047 0)"/>
      </g>
     </g>
    </g>
    <g id="xtick_5">
     <g id="line2d_5">
      <g>
       <use xlink:href="#m7f8f3e17fc" x="264.805989" y="307.584" style="stroke: #000000; stroke-width: 0.8"/>
      </g>
     </g>
     <g id="text_5">
      <!-- 100 -->
      <g transform="translate(255.262239 322.182437) scale(0.1 -0.1)">
       <defs>
        <path id="DejaVuSans-31" d="M 794 531 
L 1825 531 
L 1825 4091 
L 703 3866 
L 703 4441 
L 1819 4666 
L 2450 4666 
L 2450 531 
L 3481 531 
L 3481 0 
L 794 0 
L 794 531 
z
" transform="scale(0.015625)"/>
       </defs>
       <use xlink:href="#DejaVuSans-31"/>
       <use xlink:href="#DejaVuSans-30" transform="translate(63.623047 0)"/>
       <use xlink:href="#DejaVuSans-30" transform="translate(127.246094 0)"/>
      </g>
     </g>
    </g>
    <g id="xtick_6">
     <g id="line2d_6">
      <g>
       <use xlink:href="#m7f8f3e17fc" x="312.549305" y="307.584" style="stroke: #000000; stroke-width: 0.8"/>
      </g>
     </g>
     <g id="text_6">
      <!-- 125 -->
      <g transform="translate(303.005555 322.182437) scale(0.1 -0.1)">
       <use xlink:href="#DejaVuSans-31"/>
       <use xlink:href="#DejaVuSans-32" transform="translate(63.623047 0)"/>
       <use xlink:href="#DejaVuSans-35" transform="translate(127.246094 0)"/>
      </g>
     </g>
    </g>
    <g id="xtick_7">
     <g id="line2d_7">
      <g>
       <use xlink:href="#m7f8f3e17fc" x="360.29262" y="307.584" style="stroke: #000000; stroke-width: 0.8"/>
      </g>
     </g>
     <g id="text_7">
      <!-- 150 -->
      <g transform="translate(350.74887 322.182437) scale(0.1 -0.1)">
       <use xlink:href="#DejaVuSans-31"/>
       <use xlink:href="#DejaVuSans-35" transform="translate(63.623047 0)"/>
       <use xlink:href="#DejaVuSans-30" transform="translate(127.246094 0)"/>
      </g>
     </g>
    </g>
    <g id="xtick_8">
     <g id="line2d_8">
      <g>
       <use xlink:href="#m7f8f3e17fc" x="408.035936" y="307.584" style="stroke: #000000; stroke-width: 0.8"/>
      </g>
     </g>
     <g id="text_8">
      <!-- 175 -->
      <g transform="translate(398.492186 322.182437) scale(0.1 -0.1)">
       <use xlink:href="#DejaVuSans-31"/>
       <use xlink:href="#DejaVuSans-37" transform="translate(63.623047 0)"/>
       <use xlink:href="#DejaVuSans-35" transform="translate(127.246094 0)"/>
      </g>
     </g>
    </g>
    <g id="text_9">
     <!-- CoT token position -->
     <g transform="translate(189.593594 335.860562) scale(0.1 -0.1)">
      <defs>
       <path id="DejaVuSans-43" d="M 4122 4306 
L 4122 3641 
Q 3803 3938 3442 4084 
Q 3081 4231 2675 4231 
Q 1875 4231 1450 3742 
Q 1025 3253 1025 2328 
Q 1025 1406 1450 917 
Q 1875 428 2675 428 
Q 3081 428 3442 575 
Q 3803 722 4122 1019 
L 4122 359 
Q 3791 134 3420 21 
Q 3050 -91 2638 -91 
Q 1578 -91 968 557 
Q 359 1206 359 2328 
Q 359 3453 968 4101 
Q 1578 4750 2638 4750 
Q 3056 4750 3426 4639 
Q 3797 4528 4122 4306 
z
" transform="scale(0.015625)"/>
       <path id="DejaVuSans-6f" d="M 1959 3097 
Q 1497 3097 1228 2736 
Q 959 2375 959 1747 
Q 959 1119 1226 758 
Q 1494 397 1959 397 
Q 2419 397 2687 759 
Q 2956 1122 2956 1747 
Q 2956 2369 2687 2733 
Q 2419 3097 1959 3097 
z
M 1959 3584 
Q 2709 3584 3137 3096 
Q 3566 2609 3566 1747 
Q 3566 888 3137 398 
Q 2709 -91 1959 -91 
Q 1206 -91 779 398 
Q 353 888 353 1747 
Q 353 2609 779 3096 
Q 1206 3584 1959 3584 
z
" transform="scale(0.015625)"/>
       <path id="DejaVuSans-54" d="M -19 4666 
L 3928 4666 
L 3928 4134 
L 2272 4134 
L 2272 0 
L 1638 0 
L 1638 4134 
L -19 4134 
L -19 4666 
z
" transform="scale(0.015625)"/>
       <path id="DejaVuSans-20" transform="scale(0.015625)"/>
       <path id="DejaVuSans-74" d="M 1172 4494 
L 1172 3500 
L 2356 3500 
L 2356 3053 
L 1172 3053 
L 1172 1153 
Q 1172 725 1289 603 
Q 1406 481 1766 481 
L 2356 481 
L 2356 0 
L 1766 0 
Q 1100 0 847 248 
Q 594 497 594 1153 
L 594 3053 
L 172 3053 
L 172 3500 
L 594 3500 
L 594 4494 
L 1172 4494 
z
" transform="scale(0.015625)"/>
       <path id="DejaVuSans-6b" d="M 581 4863 
L 1159 4863 
L 1159 1991 
L 2875 3500 
L 3609 3500 
L 1753 1863 
L 3688 0 
L 2938 0 
L 1159 1709 
L 1159 0 
L 581 0 
L 581 4863 
z
" transform="scale(0.015625)"/>
       <path id="DejaVuSans-65" d="M 3597 1894 
L 3597 1613 
L 953 1613 
Q 991 1019 1311 708 
Q 1631 397 2203 397 
Q 2534 397 2845 478 
Q 3156 559 3463 722 
L 3463 178 
Q 3153 47 2828 -22 
Q 2503 -91 2169 -91 
Q 1331 -91 842 396 
Q 353 884 353 1716 
Q 353 2575 817 3079 
Q 1281 3584 2069 3584 
Q 2775 3584 3186 3129 
Q 3597 2675 3597 1894 
z
M 3022 2063 
Q 3016 2534 2758 2815 
Q 2500 3097 2075 3097 
Q 1594 3097 1305 2825 
Q 1016 2553 972 2059 
L 3022 2063 
z
" transform="scale(0.015625)"/>
       <path id="DejaVuSans-6e" d="M 3513 2113 
L 3513 0 
L 2938 0 
L 2938 2094 
Q 2938 2591 2744 2837 
Q 2550 3084 2163 3084 
Q 1697 3084 1428 2787 
Q 1159 2491 1159 1978 
L 1159 0 
L 581 0 
L 581 3500 
L 1159 3500 
L 1159 2956 
Q 1366 3272 1645 3428 
Q 1925 3584 2291 3584 
Q 2894 3584 3203 3211 
Q 3513 2838 3513 2113 
z
" transform="scale(0.015625)"/>
       <path id="DejaVuSans-70" d="M 1159 525 
L 1159 -1331 
L 581 -1331 
L 581 3500 
L 1159 3500 
L 1159 2969 
Q 1341 3281 1617 3432 
Q 1894 3584 2278 3584 
Q 2916 3584 3314 3078 
Q 3713 2572 3713 1747 
Q 3713 922 3314 415 
Q 2916 -91 2278 -91 
Q 1894 -91 1617 61 
Q 1341 213 1159 525 
z
M 3116 1747 
Q 3116 2381 2855 2742 
Q 2594 3103 2138 3103 
Q 1681 3103 1420 2742 
Q 1159 2381 1159 1747 
Q 1159 1113 1420 752 
Q 1681 391 2138 391 
Q 2594 391 2855 752 
Q 3116 1113 3116 1747 
z
" transform="scale(0.015625)"/>
       <path id="DejaVuSans-73" d="M 2834 3397 
L 2834 2853 
Q 2591 2978 2328 3040 
Q 2066 3103 1784 3103 
Q 1356 3103 1142 2972 
Q 928 2841 928 2578 
Q 928 2378 1081 2264 
Q 1234 2150 1697 2047 
L 1894 2003 
Q 2506 1872 2764 1633 
Q 3022 1394 3022 966 
Q 3022 478 2636 193 
Q 2250 -91 1575 -91 
Q 1294 -91 989 -36 
Q 684 19 347 128 
L 347 722 
Q 666 556 975 473 
Q 1284 391 1588 391 
Q 1994 391 2212 530 
Q 2431 669 2431 922 
Q 2431 1156 2273 1281 
Q 2116 1406 1581 1522 
L 1381 1569 
Q 847 1681 609 1914 
Q 372 2147 372 2553 
Q 372 3047 722 3315 
Q 1072 3584 1716 3584 
Q 2034 3584 2315 3537 
Q 2597 3491 2834 3397 
z
" transform="scale(0.015625)"/>
       <path id="DejaVuSans-69" d="M 603 3500 
L 1178 3500 
L 1178 0 
L 603 0 
L 603 3500 
z
M 603 4863 
L 1178 4863 
L 1178 4134 
L 603 4134 
L 603 4863 
z
" transform="scale(0.015625)"/>
      </defs>
      <use xlink:href="#DejaVuSans-43"/>
      <use xlink:href="#DejaVuSans-6f" transform="translate(69.824219 0)"/>
      <use xlink:href="#DejaVuSans-54" transform="translate(131.005859 0)"/>
      <use xlink:href="#DejaVuSans-20" transform="translate(192.089844 0)"/>
      <use xlink:href="#DejaVuSans-74" transform="translate(223.876953 0)"/>
      <use xlink:href="#DejaVuSans-6f" transform="translate(263.085938 0)"/>
      <use xlink:href="#DejaVuSans-6b" transform="translate(324.267578 0)"/>
      <use xlink:href="#DejaVuSans-65" transform="translate(378.552734 0)"/>
      <use xlink:href="#DejaVuSans-6e" transform="translate(440.076172 0)"/>
      <use xlink:href="#DejaVuSans-20" transform="translate(503.455078 0)"/>
      <use xlink:href="#DejaVuSans-70" transform="translate(535.242188 0)"/>
      <use xlink:href="#DejaVuSans-6f" transform="translate(598.71875 0)"/>
      <use xlink:href="#DejaVuSans-73" transform="translate(659.900391 0)"/>
      <use xlink:href="#DejaVuSans-69" transform="translate(712 0)"/>
      <use xlink:href="#DejaVuSans-74" transform="translate(739.783203 0)"/>
      <use xlink:href="#DejaVuSans-69" transform="translate(778.992188 0)"/>
      <use xlink:href="#DejaVuSans-6f" transform="translate(806.775391 0)"/>
      <use xlink:href="#DejaVuSans-6e" transform="translate(867.957031 0)"/>
     </g>
    </g>
   </g>
   <g id="matplotlib.axis_2">
    <g id="ytick_1">
     <g id="line2d_9">
      <defs>
       <path id="m1bc76110e0" d="M 0 0 
L -3.5 0 
" style="stroke: #000000; stroke-width: 0.8"/>
      </defs>
      <g>
       <use xlink:href="#m1bc76110e0" x="57.6" y="307.584" style="stroke: #000000; stroke-width: 0.8"/>
      </g>
     </g>
     <g id="text_10">
      <!-- 0.0 -->
      <g transform="translate(34.696875 311.383219) scale(0.1 -0.1)">
       <defs>
        <path id="DejaVuSans-2e" d="M 684 794 
L 1344 794 
L 1344 0 
L 684 0 
L 684 794 
z
" transform="scale(0.015625)"/>
       </defs>
       <use xlink:href="#DejaVuSans-30"/>
       <use xlink:href="#DejaVuSans-2e" transform="translate(63.623047 0)"/>
       <use xlink:href="#DejaVuSans-30" transform="translate(95.410156 0)"/>
      </g>
     </g>
    </g>
    <g id="ytick_2">
     <g id="line2d_10">
      <g>
       <use xlink:href="#m1bc76110e0" x="57.6" y="254.3616" style="stroke: #000000; stroke-width: 0.8"/>
      </g>
     </g>
     <g id="text_11">
      <!-- 0.2 -->
      <g transform="translate(34.696875 258.160819) scale(0.1 -0.1)">
       <use xlink:href="#DejaVuSans-30"/>
       <use xlink:href="#DejaVuSans-2e" transform="translate(63.623047 0)"/>
       <use xlink:href="#DejaVuSans-32" transform="translate(95.410156 0)"/>
      </g>
     </g>
    </g>
    <g id="ytick_3">
     <g id="line2d_11">
      <g>
       <use xlink:href="#m1bc76110e0" x="57.6" y="201.1392" style="stroke: #000000; stroke-width: 0.8"/>
      </g>
     </g>
     <g id="text_12">
      <!-- 0.4 -->
      <g transform="translate(34.696875 204.938419) scale(0.1 -0.1)">
       <defs>
        <path id="DejaVuSans-34" d="M 2419 4116 
L 825 1625 
L 2419 1625 
L 2419 4116 
z
M 2253 4666 
L 3047 4666 
L 3047 1625 
L 3713 1625 
L 3713 1100 
L 3047 1100 
L 3047 0 
L 2419 0 
L 2419 1100 
L 313 1100 
L 313 1709 
L 2253 4666 
z
" transform="scale(0.015625)"/>
       </defs>
       <use xlink:href="#DejaVuSans-30"/>
       <use xlink:href="#DejaVuSans-2e" transform="translate(63.623047 0)"/>
       <use xlink:href="#DejaVuSans-34" transform="translate(95.410156 0)"/>
      </g>
     </g>
    </g>
    <g id="ytick_4">
     <g id="line2d_12">
      <g>
       <use xlink:href="#m1bc76110e0" x="57.6" y="147.9168" style="stroke: #000000; stroke-width: 0.8"/>
      </g>
     </g>
     <g id="text_13">
      <!-- 0.6 -->
      <g transform="translate(34.696875 151.716019) scale(0.1 -0.1)">
       <defs>
        <path id="DejaVuSans-36" d="M 2113 2584 
Q 1688 2584 1439 2293 
Q 1191 2003 1191 1497 
Q 1191 994 1439 701 
Q 1688 409 2113 409 
Q 2538 409 2786 701 
Q 3034 994 3034 1497 
Q 3034 2003 2786 2293 
Q 2538 2584 2113 2584 
z
M 3366 4563 
L 3366 3988 
Q 3128 4100 2886 4159 
Q 2644 4219 2406 4219 
Q 1781 4219 1451 3797 
Q 1122 3375 1075 2522 
Q 1259 2794 1537 2939 
Q 1816 3084 2150 3084 
Q 2853 3084 3261 2657 
Q 3669 2231 3669 1497 
Q 3669 778 3244 343 
Q 2819 -91 2113 -91 
Q 1303 -91 875 529 
Q 447 1150 447 2328 
Q 447 3434 972 4092 
Q 1497 4750 2381 4750 
Q 2619 4750 2861 4703 
Q 3103 4656 3366 4563 
z
" transform="scale(0.015625)"/>
       </defs>
       <use xlink:href="#DejaVuSans-30"/>
       <use xlink:href="#DejaVuSans-2e" transform="translate(63.623047 0)"/>
       <use xlink:href="#DejaVuSans-36" transform="translate(95.410156 0)"/>
      </g>
     </g>
    </g>
    <g id="ytick_5">
     <g id="line2d_13">
      <g>
       <use xlink:href="#m1bc76110e0" x="57.6" y="94.6944" style="stroke: #000000; stroke-width: 0.8"/>
      </g>
     </g>
     <g id="text_14">
      <!-- 0.8 -->
      <g transform="translate(34.696875 98.493619) scale(0.1 -0.1)">
       <defs>
        <path id="DejaVuSans-38" d="M 2034 2216 
Q 1584 2216 1326 1975 
Q 1069 1734 1069 1313 
Q 1069 891 1326 650 
Q 1584 409 2034 409 
Q 2484 409 2743 651 
Q 3003 894 3003 1313 
Q 3003 1734 2745 1975 
Q 2488 2216 2034 2216 
z
M 1403 2484 
Q 997 2584 770 2862 
Q 544 3141 544 3541 
Q 544 4100 942 4425 
Q 1341 4750 2034 4750 
Q 2731 4750 3128 4425 
Q 3525 4100 3525 3541 
Q 3525 3141 3298 2862 
Q 3072 2584 2669 2484 
Q 3125 2378 3379 2068 
Q 3634 1759 3634 1313 
Q 3634 634 3220 271 
Q 2806 -91 2034 -91 
Q 1263 -91 848 271 
Q 434 634 434 1313 
Q 434 1759 690 2068 
Q 947 2378 1403 2484 
z
M 1172 3481 
Q 1172 3119 1398 2916 
Q 1625 2713 2034 2713 
Q 2441 2713 2670 2916 
Q 2900 3119 2900 3481 
Q 2900 3844 2670 4047 
Q 2441 4250 2034 4250 
Q 1625 4250 1398 4047 
Q 1172 3844 1172 3481 
z
" transform="scale(0.015625)"/>
       </defs>
       <use xlink:href="#DejaVuSans-30"/>
       <use xlink:href="#DejaVuSans-2e" transform="translate(63.623047 0)"/>
       <use xlink:href="#DejaVuSans-38" transform="translate(95.410156 0)"/>
      </g>
     </g>
    </g>
    <g id="ytick_6">
     <g id="line2d_14">
      <g>
       <use xlink:href="#m1bc76110e0" x="57.6" y="41.472" style="stroke: #000000; stroke-width: 0.8"/>
      </g>
     </g>
     <g id="text_15">
      <!-- 1.0 -->
      <g transform="translate(34.696875 45.271219) scale(0.1 -0.1)">
       <use xlink:href="#DejaVuSans-31"/>
       <use xlink:href="#DejaVuSans-2e" transform="translate(63.623047 0)"/>
       <use xlink:href="#DejaVuSans-30" transform="translate(95.410156 0)"/>
      </g>
     </g>
    </g>
    <g id="text_16">
     <!-- Accuracy -->
     <g transform="translate(28.617187 197.356125) rotate(-90) scale(0.1 -0.1)">
      <defs>
       <path id="DejaVuSans-41" d="M 2188 4044 
L 1331 1722 
L 3047 1722 
L 2188 4044 
z
M 1831 4666 
L 2547 4666 
L 4325 0 
L 3669 0 
L 3244 1197 
L 1141 1197 
L 716 0 
L 50 0 
L 1831 4666 
z
" transform="scale(0.015625)"/>
       <path id="DejaVuSans-63" d="M 3122 3366 
L 3122 2828 
Q 2878 2963 2633 3030 
Q 2388 3097 2138 3097 
Q 1578 3097 1268 2742 
Q 959 2388 959 1747 
Q 959 1106 1268 751 
Q 1578 397 2138 397 
Q 2388 397 2633 464 
Q 2878 531 3122 666 
L 3122 134 
Q 2881 22 2623 -34 
Q 2366 -91 2075 -91 
Q 1284 -91 818 406 
Q 353 903 353 1747 
Q 353 2603 823 3093 
Q 1294 3584 2113 3584 
Q 2378 3584 2631 3529 
Q 2884 3475 3122 3366 
z
" transform="scale(0.015625)"/>
       <path id="DejaVuSans-75" d="M 544 1381 
L 544 3500 
L 1119 3500 
L 1119 1403 
Q 1119 906 1312 657 
Q 1506 409 1894 409 
Q 2359 409 2629 706 
Q 2900 1003 2900 1516 
L 2900 3500 
L 3475 3500 
L 3475 0 
L 2900 0 
L 2900 538 
Q 2691 219 2414 64 
Q 2138 -91 1772 -91 
Q 1169 -91 856 284 
Q 544 659 544 1381 
z
M 1991 3584 
L 1991 3584 
z
" transform="scale(0.015625)"/>
       <path id="DejaVuSans-72" d="M 2631 2963 
Q 2534 3019 2420 3045 
Q 2306 3072 2169 3072 
Q 1681 3072 1420 2755 
Q 1159 2438 1159 1844 
L 1159 0 
L 581 0 
L 581 3500 
L 1159 3500 
L 1159 2956 
Q 1341 3275 1631 3429 
Q 1922 3584 2338 3584 
Q 2397 3584 2469 3576 
Q 2541 3569 2628 3553 
L 2631 2963 
z
" transform="scale(0.015625)"/>
       <path id="DejaVuSans-61" d="M 2194 1759 
Q 1497 1759 1228 1600 
Q 959 1441 959 1056 
Q 959 750 1161 570 
Q 1363 391 1709 391 
Q 2188 391 2477 730 
Q 2766 1069 2766 1631 
L 2766 1759 
L 2194 1759 
z
M 3341 1997 
L 3341 0 
L 2766 0 
L 2766 531 
Q 2569 213 2275 61 
Q 1981 -91 1556 -91 
Q 1019 -91 701 211 
Q 384 513 384 1019 
Q 384 1609 779 1909 
Q 1175 2209 1959 2209 
L 2766 2209 
L 2766 2266 
Q 2766 2663 2505 2880 
Q 2244 3097 1772 3097 
Q 1472 3097 1187 3025 
Q 903 2953 641 2809 
L 641 3341 
Q 956 3463 1253 3523 
Q 1550 3584 1831 3584 
Q 2591 3584 2966 3190 
Q 3341 2797 3341 1997 
z
" transform="scale(0.015625)"/>
       <path id="DejaVuSans-79" d="M 2059 -325 
Q 1816 -950 1584 -1140 
Q 1353 -1331 966 -1331 
L 506 -1331 
L 506 -850 
L 844 -850 
Q 1081 -850 1212 -737 
Q 1344 -625 1503 -206 
L 1606 56 
L 191 3500 
L 800 3500 
L 1894 763 
L 2988 3500 
L 3597 3500 
L 2059 -325 
z
" transform="scale(0.015625)"/>
      </defs>
      <use xlink:href="#DejaVuSans-41"/>
      <use xlink:href="#DejaVuSans-63" transform="translate(66.658203 0)"/>
      <use xlink:href="#DejaVuSans-63" transform="translate(121.638672 0)"/>
      <use xlink:href="#DejaVuSans-75" transform="translate(176.619141 0)"/>
      <use xlink:href="#DejaVuSans-72" transform="translate(239.998047 0)"/>
      <use xlink:href="#DejaVuSans-61" transform="translate(281.111328 0)"/>
      <use xlink:href="#DejaVuSans-63" transform="translate(342.390625 0)"/>
      <use xlink:href="#DejaVuSans-79" transform="translate(397.371094 0)"/>
     </g>
    </g>
   </g>
   <g id="line2d_15">
    <path d="M 73.832727 259.507759 
L 75.74246 261.133509 
L 79.561925 254.863461 
L 81.471658 252.759253 
L 83.38139 261.98003 
L 85.291123 241.079182 
L 87.200856 234.65105 
L 89.110588 238.790025 
L 92.930053 243.495703 
L 94.839786 246.030126 
L 96.749519 251.745227 
L 98.659251 243.495699 
L 100.568984 241.079178 
L 102.478717 264.081434 
L 106.298182 268.441244 
L 108.207914 266.240202 
L 110.117647 262.847738 
L 112.02738 268.956684 
L 113.937112 267.308808 
L 115.846845 277.923829 
L 117.756578 266.51158 
L 119.66631 262.847738 
L 121.576043 282.38426 
L 123.485775 289.806965 
L 125.395508 290.488451 
L 127.305241 288.376499 
L 129.214973 284.39522 
L 131.124706 281.06164 
L 133.034439 279.773507 
L 134.944171 276.503067 
L 136.853904 276.074374 
L 138.763636 268.44124 
L 140.673369 272.433099 
L 142.583102 267.308808 
L 144.492834 260.26251 
L 148.312299 262.824195 
L 150.222032 264.236675 
L 152.131765 259.507763 
L 154.041497 271.397743 
L 155.95123 271.397743 
L 157.860963 272.563223 
L 159.770695 276.074374 
L 161.680428 271.397743 
L 163.59016 264.236679 
L 165.499893 263.874711 
L 167.409626 269.955451 
L 169.319358 271.397747 
L 171.229091 272.563223 
L 173.138824 268.583645 
L 175.048556 271.377967 
L 176.958289 277.717851 
L 178.868021 274.239495 
L 180.777754 281.061638 
L 182.687487 274.239495 
L 184.597219 275.131201 
L 186.506952 269.955447 
L 188.416684 271.397743 
L 190.326417 264.236675 
L 192.23615 265.733204 
L 194.145882 249.379161 
L 196.055615 259.339255 
L 197.965348 259.339255 
L 199.87508 258.001015 
L 201.784813 257.060768 
L 203.694545 257.060768 
L 205.604278 257.975502 
L 207.514011 262.847738 
L 209.423743 259.507763 
L 211.333476 261.133509 
L 213.243209 252.759257 
L 215.152941 254.386145 
L 217.062674 261.133509 
L 218.972406 267.308808 
L 220.882139 258.001015 
L 222.791872 259.507759 
L 224.701604 236.634858 
L 226.611337 245.42823 
L 228.52107 226.578445 
L 230.430802 213.314011 
L 232.340535 156.245689 
L 234.250267 158.760199 
L 236.16 148.207028 
L 238.069733 166.726516 
L 239.979465 166.726516 
L 241.889198 164.506396 
L 243.79893 259.114854 
L 245.708663 256.81459 
L 247.618396 261.75273 
L 249.528128 261.178793 
L 251.437861 234.113107 
L 253.347594 227.282522 
L 255.257326 218.985762 
L 257.167059 227.282522 
L 259.076791 212.614415 
L 260.986524 231.644747 
L 262.896257 239.21087 
L 264.805989 163.836073 
L 266.715722 198.404484 
L 268.625455 196.863546 
L 270.535187 136.390503 
L 272.44492 149.086866 
L 274.354652 126.958233 
L 276.264385 171.460923 
L 278.174118 178.169137 
L 280.08385 146.761568 
L 281.993583 125.313966 
L 283.903316 151.356933 
L 285.813048 99.549605 
L 287.722781 93.104582 
L 289.632513 114.256811 
L 291.542246 107.278301 
L 293.451979 105.393462 
L 295.361711 172.761408 
L 297.271444 125.313966 
L 299.181176 91.266201 
L 301.090909 111.659695 
L 303.000642 88.997196 
L 304.910374 103.245702 
L 306.820107 99.520912 
L 308.72984 125.427042 
L 310.639572 142.683558 
L 312.549305 170.421978 
L 314.459037 134.969328 
L 316.36877 129.989685 
L 318.278503 120.423719 
L 322.097968 120.423719 
L 324.007701 92.185439 
L 325.917433 87.615119 
L 327.827166 81.926166 
L 329.736898 106.787102 
L 331.646631 91.266201 
L 333.556364 106.787086 
L 335.466096 123.306802 
L 337.375829 145.925857 
L 339.285561 115.884821 
L 341.195294 111.692385 
L 343.105027 128.192703 
L 345.014759 143.39022 
L 346.924492 107.066931 
L 348.834225 138.890912 
L 350.743957 101.80719 
L 352.65369 107.066947 
L 354.563422 167.009771 
L 356.473155 153.33461 
L 358.382888 137.521683 
L 360.29262 127.536195 
L 362.202353 134.969312 
L 364.112086 138.109336 
L 366.021818 143.895456 
L 367.931551 90.490541 
L 371.751016 71.5085 
L 373.660749 53.262575 
L 375.570481 46.294201 
L 377.480214 44.417816 
L 379.389947 42.871667 
L 383.209412 42.322716 
L 387.028877 42.563335 
L 388.93861 42.181771 
L 390.848342 41.996683 
L 392.758075 42.113202 
L 396.57754 41.807741 
L 398.487273 41.800365 
L 398.487273 41.800365 
" clip-path="url(#p44a04561b3)" style="fill: none; stroke: #0000ff; stroke-width: 1.5; stroke-linecap: square"/>
   </g>
   <g id="line2d_16">
    <path d="M 73.832727 268.583645 
L 75.74246 273.815862 
L 77.652193 267.287188 
L 81.471658 264.236679 
L 83.38139 261.133509 
L 85.291123 266.06931 
L 87.200856 269.22098 
L 89.110588 264.93171 
L 91.020321 270.683285 
L 92.930053 267.354441 
L 94.839786 264.93171 
L 100.568984 264.93171 
L 102.478717 266.06931 
L 104.388449 273.145388 
L 106.298182 276.192854 
L 108.207914 273.145388 
L 110.117647 260.262506 
L 112.02738 287.433185 
L 113.937112 292.704764 
L 115.846845 300.045994 
L 117.756578 290.124136 
L 119.66631 286.214888 
L 121.576043 299.403489 
L 123.485775 294.360328 
L 125.395508 279.49203 
L 127.305241 271.377963 
L 129.214973 264.93171 
L 131.124706 259.114898 
L 133.034439 261.498958 
L 134.944171 264.931706 
L 136.853904 201.182952 
L 138.763636 237.633482 
L 140.673369 245.428226 
L 142.583102 253.961727 
L 144.492834 236.116289 
L 146.402567 235.376524 
L 148.312299 244.082606 
L 150.222032 233.445012 
L 152.131765 245.021564 
L 154.041497 274.096749 
L 155.95123 282.916435 
L 157.860963 281.640335 
L 159.770695 283.625784 
L 161.680428 282.916435 
L 163.59016 283.007463 
L 165.499893 263.874671 
L 167.409626 287.433167 
L 169.319358 293.839194 
L 171.229091 293.839195 
L 173.138824 291.857802 
L 175.048556 290.190483 
L 176.958289 294.64029 
L 178.868021 286.93373 
L 180.777754 295.702534 
L 182.687487 294.664505 
L 184.597219 279.972773 
L 186.506952 249.927569 
L 188.416684 251.766137 
L 192.23615 249.927573 
L 194.145882 230.263003 
L 196.055615 202.686021 
L 197.965348 211.847995 
L 199.87508 186.453961 
L 201.784813 208.218833 
L 203.694545 215.870609 
L 205.604278 215.870601 
L 207.514011 188.045584 
L 209.423743 196.863546 
L 211.333476 232.66994 
L 213.243209 225.762172 
L 215.152941 232.66994 
L 217.062674 244.457751 
L 218.972406 225.76218 
L 220.882139 218.514183 
L 222.791872 225.762172 
L 224.701604 218.985762 
L 226.611337 211.450624 
L 228.52107 197.591304 
L 230.430802 219.514125 
L 232.340535 89.049364 
L 234.250267 84.359877 
L 236.16 78.841625 
L 238.069733 52.397203 
L 239.979465 92.185439 
L 241.889198 80.006971 
L 243.79893 69.240922 
L 245.708663 66.889945 
L 247.618396 87.291163 
L 249.528128 83.503482 
L 251.437861 113.141509 
L 253.347594 130.051371 
L 255.257326 137.585779 
L 257.167059 153.402307 
L 259.076791 146.761552 
L 260.986524 138.920176 
L 262.896257 169.855976 
L 264.805989 242.946645 
L 266.715722 276.192854 
L 268.625455 268.956684 
L 270.535187 220.699535 
L 272.44492 164.506412 
L 274.354652 218.02365 
L 276.264385 229.944234 
L 278.174118 218.02365 
L 280.08385 186.385051 
L 283.903316 143.39022 
L 285.813048 95.259669 
L 287.722781 119.872769 
L 289.632513 121.726599 
L 291.542246 114.898425 
L 293.451979 121.726584 
L 295.361711 166.350582 
L 297.271444 145.925873 
L 299.181176 111.169622 
L 301.090909 96.702734 
L 303.000642 75.391207 
L 304.910374 96.702718 
L 306.820107 111.750787 
L 308.72984 117.788377 
L 310.639572 177.388203 
L 312.549305 178.178289 
L 314.459037 195.115877 
L 316.36877 203.649862 
L 318.278503 195.632994 
L 322.097968 166.350598 
L 324.007701 89.049364 
L 325.917433 60.536759 
L 327.827166 56.558724 
L 329.736898 49.362721 
L 331.646631 54.875262 
L 333.556364 59.976182 
L 335.466096 69.197144 
L 337.375829 72.512771 
L 339.285561 85.322417 
L 341.195294 95.259654 
L 343.105027 114.682011 
L 345.014759 149.992272 
L 346.924492 164.594776 
L 348.834225 158.108465 
L 350.743957 134.367256 
L 352.65369 134.367272 
L 354.563422 182.960947 
L 356.473155 176.87115 
L 358.382888 145.385931 
L 360.29262 145.385931 
L 364.112086 130.051371 
L 366.021818 120.74639 
L 367.931551 47.14893 
L 369.841283 43.707061 
L 371.751016 44.184096 
L 373.660749 42.715194 
L 375.570481 41.516269 
L 387.028877 41.496585 
L 398.487273 41.521615 
L 398.487273 41.521615 
" clip-path="url(#p44a04561b3)" style="fill: none; stroke: #ffa500; stroke-width: 1.5; stroke-linecap: square"/>
   </g>
   <g id="line2d_17">
    <path d="M 73.832727 234.71084 
L 75.74246 235.376524 
L 77.652193 228.615254 
L 79.561925 229.396362 
L 81.471658 228.615262 
L 83.38139 222.321358 
L 85.291123 224.239031 
L 87.200856 223.231214 
L 89.110588 215.870601 
L 91.020321 216.922497 
L 92.930053 215.870601 
L 96.749519 215.870609 
L 98.659251 216.922497 
L 100.568984 208.218833 
L 102.478717 201.443002 
L 106.298182 216.922497 
L 108.207914 218.085661 
L 110.117647 216.922504 
L 112.02738 208.218833 
L 113.937112 209.309035 
L 115.846845 216.922497 
L 117.756578 218.085669 
L 119.66631 218.085661 
L 121.576043 224.239039 
L 123.485775 223.231222 
L 125.395508 224.239031 
L 127.305241 218.085661 
L 129.214973 218.085661 
L 131.124706 219.368151 
L 133.034439 225.352327 
L 134.944171 219.368151 
L 136.853904 224.239039 
L 138.763636 219.368143 
L 140.673369 226.578437 
L 142.583102 224.239031 
L 144.492834 232.280548 
L 146.402567 231.222101 
L 148.312299 226.578445 
L 150.222032 232.280548 
L 152.131765 232.28054 
L 154.041497 231.222101 
L 155.95123 231.222101 
L 159.770695 219.368143 
L 161.680428 211.847987 
L 163.59016 218.085669 
L 165.499893 216.922504 
L 167.409626 216.922497 
L 169.319358 210.515842 
L 171.229091 210.515834 
L 173.138824 218.085661 
L 175.048556 218.085661 
L 176.958289 225.352327 
L 178.868021 231.222101 
L 180.777754 233.445012 
L 182.687487 238.843272 
L 184.597219 232.280548 
L 186.506952 219.368151 
L 188.416684 219.368151 
L 190.326417 226.578445 
L 192.23615 225.352327 
L 196.055615 225.352327 
L 197.965348 210.515842 
L 199.87508 223.231222 
L 201.784813 218.085669 
L 203.694545 218.085669 
L 205.604278 223.231222 
L 207.514011 223.231214 
L 209.423743 229.396362 
L 211.333476 210.515834 
L 213.243209 218.085661 
L 215.152941 210.515834 
L 217.062674 210.515834 
L 218.972406 202.686029 
L 220.882139 210.515834 
L 222.791872 210.515834 
L 224.701604 213.314011 
L 226.611337 210.515834 
L 228.52107 211.847995 
L 230.430802 218.085661 
L 232.340535 210.515834 
L 234.250267 204.059834 
L 236.16 189.461074 
L 238.069733 199.311603 
L 239.979465 197.604603 
L 241.889198 210.515834 
L 243.79893 199.311595 
L 245.708663 202.686029 
L 247.618396 201.443002 
L 249.528128 214.921829 
L 251.437861 205.573704 
L 253.347594 211.847995 
L 255.257326 204.059834 
L 257.167059 213.314019 
L 259.076791 219.368151 
L 260.986524 213.314011 
L 264.805989 184.895298 
L 266.715722 189.461074 
L 268.625455 196.05284 
L 270.535187 204.059834 
L 274.354652 191.200249 
L 276.264385 199.311603 
L 278.174118 210.515834 
L 280.08385 202.686029 
L 281.993583 149.992257 
L 283.903316 156.374167 
L 285.813048 134.367256 
L 287.722781 136.141874 
L 289.632513 142.060771 
L 291.542246 140.284885 
L 293.451979 140.284869 
L 295.361711 149.992272 
L 297.271444 164.59476 
L 299.181176 151.875113 
L 301.090909 149.992272 
L 304.910374 163.008546 
L 306.820107 149.992272 
L 308.72984 158.108449 
L 310.639572 172.892329 
L 312.549305 182.961018 
L 314.459037 168.288938 
L 316.36877 168.288938 
L 318.278503 170.421978 
L 320.188235 162.140651 
L 322.097968 174.656335 
L 324.007701 176.600195 
L 325.917433 168.288922 
L 327.827166 168.288938 
L 329.736898 166.350661 
L 331.646631 168.288938 
L 333.556364 176.600187 
L 335.466096 176.600195 
L 337.375829 174.656343 
L 339.285561 178.735274 
L 341.195294 187.015815 
L 343.105027 178.735258 
L 345.014759 187.015807 
L 346.924492 178.735274 
L 348.834225 187.015815 
L 350.743957 187.015807 
L 352.65369 195.199903 
L 354.563422 193.110117 
L 356.473155 184.895306 
L 358.382888 187.015815 
L 360.29262 181.072031 
L 362.202353 181.072039 
L 364.112086 189.331778 
L 366.021818 193.110117 
L 367.931551 191.200249 
L 369.841283 178.735266 
L 371.751016 164.464585 
L 373.660749 170.421978 
L 375.570481 170.421978 
L 377.480214 176.600187 
L 379.389947 140.284885 
L 381.299679 148.292426 
L 383.209412 151.875113 
L 387.028877 140.284869 
L 388.93861 138.109336 
L 392.758075 116.398416 
L 394.667807 140.284869 
L 396.57754 145.925857 
L 398.487273 65.46344 
L 398.487273 65.46344 
" clip-path="url(#p44a04561b3)" style="fill: none; stroke: #008000; stroke-width: 1.5; stroke-linecap: square"/>
   </g>
   <g id="patch_3">
    <path d="M 57.6 307.584 
L 57.6 41.472 
" style="fill: none; stroke: #000000; stroke-width: 0.8; stroke-linejoin: miter; stroke-linecap: square"/>
   </g>
   <g id="patch_4">
    <path d="M 414.72 307.584 
L 414.72 41.472 
" style="fill: none; stroke: #000000; stroke-width: 0.8; stroke-linejoin: miter; stroke-linecap: square"/>
   </g>
   <g id="patch_5">
    <path d="M 57.6 307.584 
L 414.72 307.584 
" style="fill: none; stroke: #000000; stroke-width: 0.8; stroke-linejoin: miter; stroke-linecap: square"/>
   </g>
   <g id="patch_6">
    <path d="M 57.6 41.472 
L 414.72 41.472 
" style="fill: none; stroke: #000000; stroke-width: 0.8; stroke-linejoin: miter; stroke-linecap: square"/>
   </g>
   <g id="text_17">
    <!-- logical_deduction_three_objects Q9 -->
    <g transform="translate(129.865313 31.472) scale(0.12 -0.12)">
     <defs>
      <path id="DejaVuSans-6c" d="M 603 4863 
L 1178 4863 
L 1178 0 
L 603 0 
L 603 4863 
z
" transform="scale(0.015625)"/>
      <path id="DejaVuSans-67" d="M 2906 1791 
Q 2906 2416 2648 2759 
Q 2391 3103 1925 3103 
Q 1463 3103 1205 2759 
Q 947 2416 947 1791 
Q 947 1169 1205 825 
Q 1463 481 1925 481 
Q 2391 481 2648 825 
Q 2906 1169 2906 1791 
z
M 3481 434 
Q 3481 -459 3084 -895 
Q 2688 -1331 1869 -1331 
Q 1566 -1331 1297 -1286 
Q 1028 -1241 775 -1147 
L 775 -588 
Q 1028 -725 1275 -790 
Q 1522 -856 1778 -856 
Q 2344 -856 2625 -561 
Q 2906 -266 2906 331 
L 2906 616 
Q 2728 306 2450 153 
Q 2172 0 1784 0 
Q 1141 0 747 490 
Q 353 981 353 1791 
Q 353 2603 747 3093 
Q 1141 3584 1784 3584 
Q 2172 3584 2450 3431 
Q 2728 3278 2906 2969 
L 2906 3500 
L 3481 3500 
L 3481 434 
z
" transform="scale(0.015625)"/>
      <path id="DejaVuSans-5f" d="M 3263 -1063 
L 3263 -1509 
L -63 -1509 
L -63 -1063 
L 3263 -1063 
z
" transform="scale(0.015625)"/>
      <path id="DejaVuSans-64" d="M 2906 2969 
L 2906 4863 
L 3481 4863 
L 3481 0 
L 2906 0 
L 2906 525 
Q 2725 213 2448 61 
Q 2172 -91 1784 -91 
Q 1150 -91 751 415 
Q 353 922 353 1747 
Q 353 2572 751 3078 
Q 1150 3584 1784 3584 
Q 2172 3584 2448 3432 
Q 2725 3281 2906 2969 
z
M 947 1747 
Q 947 1113 1208 752 
Q 1469 391 1925 391 
Q 2381 391 2643 752 
Q 2906 1113 2906 1747 
Q 2906 2381 2643 2742 
Q 2381 3103 1925 3103 
Q 1469 3103 1208 2742 
Q 947 2381 947 1747 
z
" transform="scale(0.015625)"/>
      <path id="DejaVuSans-68" d="M 3513 2113 
L 3513 0 
L 2938 0 
L 2938 2094 
Q 2938 2591 2744 2837 
Q 2550 3084 2163 3084 
Q 1697 3084 1428 2787 
Q 1159 2491 1159 1978 
L 1159 0 
L 581 0 
L 581 4863 
L 1159 4863 
L 1159 2956 
Q 1366 3272 1645 3428 
Q 1925 3584 2291 3584 
Q 2894 3584 3203 3211 
Q 3513 2838 3513 2113 
z
" transform="scale(0.015625)"/>
      <path id="DejaVuSans-62" d="M 3116 1747 
Q 3116 2381 2855 2742 
Q 2594 3103 2138 3103 
Q 1681 3103 1420 2742 
Q 1159 2381 1159 1747 
Q 1159 1113 1420 752 
Q 1681 391 2138 391 
Q 2594 391 2855 752 
Q 3116 1113 3116 1747 
z
M 1159 2969 
Q 1341 3281 1617 3432 
Q 1894 3584 2278 3584 
Q 2916 3584 3314 3078 
Q 3713 2572 3713 1747 
Q 3713 922 3314 415 
Q 2916 -91 2278 -91 
Q 1894 -91 1617 61 
Q 1341 213 1159 525 
L 1159 0 
L 581 0 
L 581 4863 
L 1159 4863 
L 1159 2969 
z
" transform="scale(0.015625)"/>
      <path id="DejaVuSans-6a" d="M 603 3500 
L 1178 3500 
L 1178 -63 
Q 1178 -731 923 -1031 
Q 669 -1331 103 -1331 
L -116 -1331 
L -116 -844 
L 38 -844 
Q 366 -844 484 -692 
Q 603 -541 603 -63 
L 603 3500 
z
M 603 4863 
L 1178 4863 
L 1178 4134 
L 603 4134 
L 603 4863 
z
" transform="scale(0.015625)"/>
      <path id="DejaVuSans-51" d="M 2522 4238 
Q 1834 4238 1429 3725 
Q 1025 3213 1025 2328 
Q 1025 1447 1429 934 
Q 1834 422 2522 422 
Q 3209 422 3611 934 
Q 4013 1447 4013 2328 
Q 4013 3213 3611 3725 
Q 3209 4238 2522 4238 
z
M 3406 84 
L 4238 -825 
L 3475 -825 
L 2784 -78 
Q 2681 -84 2626 -87 
Q 2572 -91 2522 -91 
Q 1538 -91 948 567 
Q 359 1225 359 2328 
Q 359 3434 948 4092 
Q 1538 4750 2522 4750 
Q 3503 4750 4090 4092 
Q 4678 3434 4678 2328 
Q 4678 1516 4351 937 
Q 4025 359 3406 84 
z
" transform="scale(0.015625)"/>
      <path id="DejaVuSans-39" d="M 703 97 
L 703 672 
Q 941 559 1184 500 
Q 1428 441 1663 441 
Q 2288 441 2617 861 
Q 2947 1281 2994 2138 
Q 2813 1869 2534 1725 
Q 2256 1581 1919 1581 
Q 1219 1581 811 2004 
Q 403 2428 403 3163 
Q 403 3881 828 4315 
Q 1253 4750 1959 4750 
Q 2769 4750 3195 4129 
Q 3622 3509 3622 2328 
Q 3622 1225 3098 567 
Q 2575 -91 1691 -91 
Q 1453 -91 1209 -44 
Q 966 3 703 97 
z
M 1959 2075 
Q 2384 2075 2632 2365 
Q 2881 2656 2881 3163 
Q 2881 3666 2632 3958 
Q 2384 4250 1959 4250 
Q 1534 4250 1286 3958 
Q 1038 3666 1038 3163 
Q 1038 2656 1286 2365 
Q 1534 2075 1959 2075 
z
" transform="scale(0.015625)"/>
     </defs>
     <use xlink:href="#DejaVuSans-6c"/>
     <use xlink:href="#DejaVuSans-6f" transform="translate(27.783203 0)"/>
     <use xlink:href="#DejaVuSans-67" transform="translate(88.964844 0)"/>
     <use xlink:href="#DejaVuSans-69" transform="translate(152.441406 0)"/>
     <use xlink:href="#DejaVuSans-63" transform="translate(180.224609 0)"/>
     <use xlink:href="#DejaVuSans-61" transform="translate(235.205078 0)"/>
     <use xlink:href="#DejaVuSans-6c" transform="translate(296.484375 0)"/>
     <use xlink:href="#DejaVuSans-5f" transform="translate(324.267578 0)"/>
     <use xlink:href="#DejaVuSans-64" transform="translate(374.267578 0)"/>
     <use xlink:href="#DejaVuSans-65" transform="translate(437.744141 0)"/>
     <use xlink:href="#DejaVuSans-64" transform="translate(499.267578 0)"/>
     <use xlink:href="#DejaVuSans-75" transform="translate(562.744141 0)"/>
     <use xlink:href="#DejaVuSans-63" transform="translate(626.123047 0)"/>
     <use xlink:href="#DejaVuSans-74" transform="translate(681.103516 0)"/>
     <use xlink:href="#DejaVuSans-69" transform="translate(720.3125 0)"/>
     <use xlink:href="#DejaVuSans-6f" transform="translate(748.095703 0)"/>
     <use xlink:href="#DejaVuSans-6e" transform="translate(809.277344 0)"/>
     <use xlink:href="#DejaVuSans-5f" transform="translate(872.65625 0)"/>
     <use xlink:href="#DejaVuSans-74" transform="translate(922.65625 0)"/>
     <use xlink:href="#DejaVuSans-68" transform="translate(961.865234 0)"/>
     <use xlink:href="#DejaVuSans-72" transform="translate(1025.244141 0)"/>
     <use xlink:href="#DejaVuSans-65" transform="translate(1064.107422 0)"/>
     <use xlink:href="#DejaVuSans-65" transform="translate(1125.630859 0)"/>
     <use xlink:href="#DejaVuSans-5f" transform="translate(1187.154297 0)"/>
     <use xlink:href="#DejaVuSans-6f" transform="translate(1237.154297 0)"/>
     <use xlink:href="#DejaVuSans-62" transform="translate(1298.335938 0)"/>
     <use xlink:href="#DejaVuSans-6a" transform="translate(1361.8125 0)"/>
     <use xlink:href="#DejaVuSans-65" transform="translate(1389.595703 0)"/>
     <use xlink:href="#DejaVuSans-63" transform="translate(1451.119141 0)"/>
     <use xlink:href="#DejaVuSans-74" transform="translate(1506.099609 0)"/>
     <use xlink:href="#DejaVuSans-73" transform="translate(1545.308594 0)"/>
     <use xlink:href="#DejaVuSans-20" transform="translate(1597.408203 0)"/>
     <use xlink:href="#DejaVuSans-51" transform="translate(1629.195312 0)"/>
     <use xlink:href="#DejaVuSans-39" transform="translate(1707.90625 0)"/>
    </g>
   </g>
   <g id="legend_1">
    <g id="patch_7">
     <path d="M 64.6 93.506375 
L 150.876563 93.506375 
Q 152.876563 93.506375 152.876563 91.506375 
L 152.876563 48.472 
Q 152.876563 46.472 150.876563 46.472 
L 64.6 46.472 
Q 62.6 46.472 62.6 48.472 
L 62.6 91.506375 
Q 62.6 93.506375 64.6 93.506375 
z
" style="fill: #ffffff; opacity: 0.8; stroke: #cccccc; stroke-linejoin: miter"/>
    </g>
    <g id="line2d_18">
     <path d="M 66.6 54.570438 
L 76.6 54.570438 
L 86.6 54.570438 
" style="fill: none; stroke: #0000ff; stroke-width: 1.5; stroke-linecap: square"/>
    </g>
    <g id="text_18">
     <!-- smooth-3B -->
     <g transform="translate(94.6 58.070438) scale(0.1 -0.1)">
      <defs>
       <path id="DejaVuSans-6d" d="M 3328 2828 
Q 3544 3216 3844 3400 
Q 4144 3584 4550 3584 
Q 5097 3584 5394 3201 
Q 5691 2819 5691 2113 
L 5691 0 
L 5113 0 
L 5113 2094 
Q 5113 2597 4934 2840 
Q 4756 3084 4391 3084 
Q 3944 3084 3684 2787 
Q 3425 2491 3425 1978 
L 3425 0 
L 2847 0 
L 2847 2094 
Q 2847 2600 2669 2842 
Q 2491 3084 2119 3084 
Q 1678 3084 1418 2786 
Q 1159 2488 1159 1978 
L 1159 0 
L 581 0 
L 581 3500 
L 1159 3500 
L 1159 2956 
Q 1356 3278 1631 3431 
Q 1906 3584 2284 3584 
Q 2666 3584 2933 3390 
Q 3200 3197 3328 2828 
z
" transform="scale(0.015625)"/>
       <path id="DejaVuSans-2d" d="M 313 2009 
L 1997 2009 
L 1997 1497 
L 313 1497 
L 313 2009 
z
" transform="scale(0.015625)"/>
       <path id="DejaVuSans-33" d="M 2597 2516 
Q 3050 2419 3304 2112 
Q 3559 1806 3559 1356 
Q 3559 666 3084 287 
Q 2609 -91 1734 -91 
Q 1441 -91 1130 -33 
Q 819 25 488 141 
L 488 750 
Q 750 597 1062 519 
Q 1375 441 1716 441 
Q 2309 441 2620 675 
Q 2931 909 2931 1356 
Q 2931 1769 2642 2001 
Q 2353 2234 1838 2234 
L 1294 2234 
L 1294 2753 
L 1863 2753 
Q 2328 2753 2575 2939 
Q 2822 3125 2822 3475 
Q 2822 3834 2567 4026 
Q 2313 4219 1838 4219 
Q 1578 4219 1281 4162 
Q 984 4106 628 3988 
L 628 4550 
Q 988 4650 1302 4700 
Q 1616 4750 1894 4750 
Q 2613 4750 3031 4423 
Q 3450 4097 3450 3541 
Q 3450 3153 3228 2886 
Q 3006 2619 2597 2516 
z
" transform="scale(0.015625)"/>
       <path id="DejaVuSans-42" d="M 1259 2228 
L 1259 519 
L 2272 519 
Q 2781 519 3026 730 
Q 3272 941 3272 1375 
Q 3272 1813 3026 2020 
Q 2781 2228 2272 2228 
L 1259 2228 
z
M 1259 4147 
L 1259 2741 
L 2194 2741 
Q 2656 2741 2882 2914 
Q 3109 3088 3109 3444 
Q 3109 3797 2882 3972 
Q 2656 4147 2194 4147 
L 1259 4147 
z
M 628 4666 
L 2241 4666 
Q 2963 4666 3353 4366 
Q 3744 4066 3744 3513 
Q 3744 3084 3544 2831 
Q 3344 2578 2956 2516 
Q 3422 2416 3680 2098 
Q 3938 1781 3938 1306 
Q 3938 681 3513 340 
Q 3088 0 2303 0 
L 628 0 
L 628 4666 
z
" transform="scale(0.015625)"/>
      </defs>
      <use xlink:href="#DejaVuSans-73"/>
      <use xlink:href="#DejaVuSans-6d" transform="translate(52.099609 0)"/>
      <use xlink:href="#DejaVuSans-6f" transform="translate(149.511719 0)"/>
      <use xlink:href="#DejaVuSans-6f" transform="translate(210.693359 0)"/>
      <use xlink:href="#DejaVuSans-74" transform="translate(271.875 0)"/>
      <use xlink:href="#DejaVuSans-68" transform="translate(311.083984 0)"/>
      <use xlink:href="#DejaVuSans-2d" transform="translate(374.462891 0)"/>
      <use xlink:href="#DejaVuSans-33" transform="translate(410.546875 0)"/>
      <use xlink:href="#DejaVuSans-42" transform="translate(474.169922 0)"/>
     </g>
    </g>
    <g id="line2d_19">
     <path d="M 66.6 69.248563 
L 76.6 69.248563 
L 86.6 69.248563 
" style="fill: none; stroke: #ffa500; stroke-width: 1.5; stroke-linecap: square"/>
    </g>
    <g id="text_19">
     <!-- abrupt-3B -->
     <g transform="translate(94.6 72.748563) scale(0.1 -0.1)">
      <use xlink:href="#DejaVuSans-61"/>
      <use xlink:href="#DejaVuSans-62" transform="translate(61.279297 0)"/>
      <use xlink:href="#DejaVuSans-72" transform="translate(124.755859 0)"/>
      <use xlink:href="#DejaVuSans-75" transform="translate(165.869141 0)"/>
      <use xlink:href="#DejaVuSans-70" transform="translate(229.248047 0)"/>
      <use xlink:href="#DejaVuSans-74" transform="translate(292.724609 0)"/>
      <use xlink:href="#DejaVuSans-2d" transform="translate(331.933594 0)"/>
      <use xlink:href="#DejaVuSans-33" transform="translate(368.017578 0)"/>
      <use xlink:href="#DejaVuSans-42" transform="translate(431.640625 0)"/>
     </g>
    </g>
    <g id="line2d_20">
     <path d="M 66.6 83.926688 
L 76.6 83.926688 
L 86.6 83.926688 
" style="fill: none; stroke: #008000; stroke-width: 1.5; stroke-linecap: square"/>
    </g>
    <g id="text_20">
     <!-- smooth-1B -->
     <g transform="translate(94.6 87.426688) scale(0.1 -0.1)">
      <use xlink:href="#DejaVuSans-73"/>
      <use xlink:href="#DejaVuSans-6d" transform="translate(52.099609 0)"/>
      <use xlink:href="#DejaVuSans-6f" transform="translate(149.511719 0)"/>
      <use xlink:href="#DejaVuSans-6f" transform="translate(210.693359 0)"/>
      <use xlink:href="#DejaVuSans-74" transform="translate(271.875 0)"/>
      <use xlink:href="#DejaVuSans-68" transform="translate(311.083984 0)"/>
      <use xlink:href="#DejaVuSans-2d" transform="translate(374.462891 0)"/>
      <use xlink:href="#DejaVuSans-31" transform="translate(410.546875 0)"/>
      <use xlink:href="#DejaVuSans-42" transform="translate(474.169922 0)"/>
     </g>
    </g>
   </g>
  </g>
 </g>
 <defs>
  <clipPath id="p44a04561b3">
   <rect x="57.6" y="41.472" width="357.12" height="266.112"/>
  </clipPath>
 </defs>
</svg>
