<?xml version="1.0" encoding="utf-8" standalone="no"?>
<!DOCTYPE svg PUBLIC "-//W3C//DTD SVG 1.1//EN"
  "http://www.w3.org/Graphics/SVG/1.1/DTD/svg11.dtd">
<svg xmlns:xlink="http://www.w3.org/1999/xlink" width="460.8pt" height="345.6pt" viewBox="0 0 460.8 345.6" xmlns="http://www.w3.org/2000/svg" version="1.1">
 <metadata>
  <rdf:RDF xmlns:dc="http://purl.org/dc/elements/1.1/" xmlns:cc="http://creativecommons.org/ns#" xmlns:rdf="http://www.w3.org/1999/02/22-rdf-syntax-ns#">
   <cc:Work>
    <dc:type rdf:resource="http://purl.org/dc/dcmitype/StillImage"/>
    <dc:date>2025-05-14T15:48:16.836889</dc:date>
    <dc:format>image/svg+xml</dc:format>
    <dc:creator>
     <cc:Agent>
      <dc:title>Matplotlib v3.10.3, https://matplotlib.org/</dc:title>
     </cc:Agent>
    </dc:creator>
   </cc:Work>
  </rdf:RDF>
 </metadata>
 <defs>
  <style type="text/css">*{stroke-linejoin: round; stroke-linecap: butt}</style>
 </defs>
 <g id="figure_1">
  <g id="patch_1">
   <path d="M 0 345.6 
L 460.8 345.6 
L 460.8 0 
L 0 0 
z
" style="fill: #ffffff"/>
  </g>
  <g id="axes_1">
   <g id="patch_2">
    <path d="M 57.6 307.584 
L 414.72 307.584 
L 414.72 41.472 
L 57.6 41.472 
z
" style="fill: #ffffff"/>
   </g>
   <g id="matplotlib.axis_1">
    <g id="xtick_1">
     <g id="line2d_1">
      <defs>
       <path id="m405ec56bf5" d="M 0 0 
L 0 3.5 
" style="stroke: #000000; stroke-width: 0.8"/>
      </defs>
      <g>
       <use xlink:href="#m405ec56bf5" x="73.832727" y="307.584" style="stroke: #000000; stroke-width: 0.8"/>
      </g>
     </g>
     <g id="text_1">
      <!-- 0 -->
      <g transform="translate(70.651477 322.182437) scale(0.1 -0.1)">
       <defs>
        <path id="DejaVuSans-30" d="M 2034 4250 
Q 1547 4250 1301 3770 
Q 1056 3291 1056 2328 
Q 1056 1369 1301 889 
Q 1547 409 2034 409 
Q 2525 409 2770 889 
Q 3016 1369 3016 2328 
Q 3016 3291 2770 3770 
Q 2525 4250 2034 4250 
z
M 2034 4750 
Q 2819 4750 3233 4129 
Q 3647 3509 3647 2328 
Q 3647 1150 3233 529 
Q 2819 -91 2034 -91 
Q 1250 -91 836 529 
Q 422 1150 422 2328 
Q 422 3509 836 4129 
Q 1250 4750 2034 4750 
z
" transform="scale(0.015625)"/>
       </defs>
       <use xlink:href="#DejaVuSans-30"/>
      </g>
     </g>
    </g>
    <g id="xtick_2">
     <g id="line2d_2">
      <g>
       <use xlink:href="#m405ec56bf5" x="152.2517" y="307.584" style="stroke: #000000; stroke-width: 0.8"/>
      </g>
     </g>
     <g id="text_2">
      <!-- 50 -->
      <g transform="translate(145.8892 322.182437) scale(0.1 -0.1)">
       <defs>
        <path id="DejaVuSans-35" d="M 691 4666 
L 3169 4666 
L 3169 4134 
L 1269 4134 
L 1269 2991 
Q 1406 3038 1543 3061 
Q 1681 3084 1819 3084 
Q 2600 3084 3056 2656 
Q 3513 2228 3513 1497 
Q 3513 744 3044 326 
Q 2575 -91 1722 -91 
Q 1428 -91 1123 -41 
Q 819 9 494 109 
L 494 744 
Q 775 591 1075 516 
Q 1375 441 1709 441 
Q 2250 441 2565 725 
Q 2881 1009 2881 1497 
Q 2881 1984 2565 2268 
Q 2250 2553 1709 2553 
Q 1456 2553 1204 2497 
Q 953 2441 691 2322 
L 691 4666 
z
" transform="scale(0.015625)"/>
       </defs>
       <use xlink:href="#DejaVuSans-35"/>
       <use xlink:href="#DejaVuSans-30" transform="translate(63.623047 0)"/>
      </g>
     </g>
    </g>
    <g id="xtick_3">
     <g id="line2d_3">
      <g>
       <use xlink:href="#m405ec56bf5" x="230.670672" y="307.584" style="stroke: #000000; stroke-width: 0.8"/>
      </g>
     </g>
     <g id="text_3">
      <!-- 100 -->
      <g transform="translate(221.126922 322.182437) scale(0.1 -0.1)">
       <defs>
        <path id="DejaVuSans-31" d="M 794 531 
L 1825 531 
L 1825 4091 
L 703 3866 
L 703 4441 
L 1819 4666 
L 2450 4666 
L 2450 531 
L 3481 531 
L 3481 0 
L 794 0 
L 794 531 
z
" transform="scale(0.015625)"/>
       </defs>
       <use xlink:href="#DejaVuSans-31"/>
       <use xlink:href="#DejaVuSans-30" transform="translate(63.623047 0)"/>
       <use xlink:href="#DejaVuSans-30" transform="translate(127.246094 0)"/>
      </g>
     </g>
    </g>
    <g id="xtick_4">
     <g id="line2d_4">
      <g>
       <use xlink:href="#m405ec56bf5" x="309.089644" y="307.584" style="stroke: #000000; stroke-width: 0.8"/>
      </g>
     </g>
     <g id="text_4">
      <!-- 150 -->
      <g transform="translate(299.545894 322.182437) scale(0.1 -0.1)">
       <use xlink:href="#DejaVuSans-31"/>
       <use xlink:href="#DejaVuSans-35" transform="translate(63.623047 0)"/>
       <use xlink:href="#DejaVuSans-30" transform="translate(127.246094 0)"/>
      </g>
     </g>
    </g>
    <g id="xtick_5">
     <g id="line2d_5">
      <g>
       <use xlink:href="#m405ec56bf5" x="387.508617" y="307.584" style="stroke: #000000; stroke-width: 0.8"/>
      </g>
     </g>
     <g id="text_5">
      <!-- 200 -->
      <g transform="translate(377.964867 322.182437) scale(0.1 -0.1)">
       <defs>
        <path id="DejaVuSans-32" d="M 1228 531 
L 3431 531 
L 3431 0 
L 469 0 
L 469 531 
Q 828 903 1448 1529 
Q 2069 2156 2228 2338 
Q 2531 2678 2651 2914 
Q 2772 3150 2772 3378 
Q 2772 3750 2511 3984 
Q 2250 4219 1831 4219 
Q 1534 4219 1204 4116 
Q 875 4013 500 3803 
L 500 4441 
Q 881 4594 1212 4672 
Q 1544 4750 1819 4750 
Q 2544 4750 2975 4387 
Q 3406 4025 3406 3419 
Q 3406 3131 3298 2873 
Q 3191 2616 2906 2266 
Q 2828 2175 2409 1742 
Q 1991 1309 1228 531 
z
" transform="scale(0.015625)"/>
       </defs>
       <use xlink:href="#DejaVuSans-32"/>
       <use xlink:href="#DejaVuSans-30" transform="translate(63.623047 0)"/>
       <use xlink:href="#DejaVuSans-30" transform="translate(127.246094 0)"/>
      </g>
     </g>
    </g>
    <g id="text_6">
     <!-- CoT token position -->
     <g transform="translate(189.593594 335.860562) scale(0.1 -0.1)">
      <defs>
       <path id="DejaVuSans-43" d="M 4122 4306 
L 4122 3641 
Q 3803 3938 3442 4084 
Q 3081 4231 2675 4231 
Q 1875 4231 1450 3742 
Q 1025 3253 1025 2328 
Q 1025 1406 1450 917 
Q 1875 428 2675 428 
Q 3081 428 3442 575 
Q 3803 722 4122 1019 
L 4122 359 
Q 3791 134 3420 21 
Q 3050 -91 2638 -91 
Q 1578 -91 968 557 
Q 359 1206 359 2328 
Q 359 3453 968 4101 
Q 1578 4750 2638 4750 
Q 3056 4750 3426 4639 
Q 3797 4528 4122 4306 
z
" transform="scale(0.015625)"/>
       <path id="DejaVuSans-6f" d="M 1959 3097 
Q 1497 3097 1228 2736 
Q 959 2375 959 1747 
Q 959 1119 1226 758 
Q 1494 397 1959 397 
Q 2419 397 2687 759 
Q 2956 1122 2956 1747 
Q 2956 2369 2687 2733 
Q 2419 3097 1959 3097 
z
M 1959 3584 
Q 2709 3584 3137 3096 
Q 3566 2609 3566 1747 
Q 3566 888 3137 398 
Q 2709 -91 1959 -91 
Q 1206 -91 779 398 
Q 353 888 353 1747 
Q 353 2609 779 3096 
Q 1206 3584 1959 3584 
z
" transform="scale(0.015625)"/>
       <path id="DejaVuSans-54" d="M -19 4666 
L 3928 4666 
L 3928 4134 
L 2272 4134 
L 2272 0 
L 1638 0 
L 1638 4134 
L -19 4134 
L -19 4666 
z
" transform="scale(0.015625)"/>
       <path id="DejaVuSans-20" transform="scale(0.015625)"/>
       <path id="DejaVuSans-74" d="M 1172 4494 
L 1172 3500 
L 2356 3500 
L 2356 3053 
L 1172 3053 
L 1172 1153 
Q 1172 725 1289 603 
Q 1406 481 1766 481 
L 2356 481 
L 2356 0 
L 1766 0 
Q 1100 0 847 248 
Q 594 497 594 1153 
L 594 3053 
L 172 3053 
L 172 3500 
L 594 3500 
L 594 4494 
L 1172 4494 
z
" transform="scale(0.015625)"/>
       <path id="DejaVuSans-6b" d="M 581 4863 
L 1159 4863 
L 1159 1991 
L 2875 3500 
L 3609 3500 
L 1753 1863 
L 3688 0 
L 2938 0 
L 1159 1709 
L 1159 0 
L 581 0 
L 581 4863 
z
" transform="scale(0.015625)"/>
       <path id="DejaVuSans-65" d="M 3597 1894 
L 3597 1613 
L 953 1613 
Q 991 1019 1311 708 
Q 1631 397 2203 397 
Q 2534 397 2845 478 
Q 3156 559 3463 722 
L 3463 178 
Q 3153 47 2828 -22 
Q 2503 -91 2169 -91 
Q 1331 -91 842 396 
Q 353 884 353 1716 
Q 353 2575 817 3079 
Q 1281 3584 2069 3584 
Q 2775 3584 3186 3129 
Q 3597 2675 3597 1894 
z
M 3022 2063 
Q 3016 2534 2758 2815 
Q 2500 3097 2075 3097 
Q 1594 3097 1305 2825 
Q 1016 2553 972 2059 
L 3022 2063 
z
" transform="scale(0.015625)"/>
       <path id="DejaVuSans-6e" d="M 3513 2113 
L 3513 0 
L 2938 0 
L 2938 2094 
Q 2938 2591 2744 2837 
Q 2550 3084 2163 3084 
Q 1697 3084 1428 2787 
Q 1159 2491 1159 1978 
L 1159 0 
L 581 0 
L 581 3500 
L 1159 3500 
L 1159 2956 
Q 1366 3272 1645 3428 
Q 1925 3584 2291 3584 
Q 2894 3584 3203 3211 
Q 3513 2838 3513 2113 
z
" transform="scale(0.015625)"/>
       <path id="DejaVuSans-70" d="M 1159 525 
L 1159 -1331 
L 581 -1331 
L 581 3500 
L 1159 3500 
L 1159 2969 
Q 1341 3281 1617 3432 
Q 1894 3584 2278 3584 
Q 2916 3584 3314 3078 
Q 3713 2572 3713 1747 
Q 3713 922 3314 415 
Q 2916 -91 2278 -91 
Q 1894 -91 1617 61 
Q 1341 213 1159 525 
z
M 3116 1747 
Q 3116 2381 2855 2742 
Q 2594 3103 2138 3103 
Q 1681 3103 1420 2742 
Q 1159 2381 1159 1747 
Q 1159 1113 1420 752 
Q 1681 391 2138 391 
Q 2594 391 2855 752 
Q 3116 1113 3116 1747 
z
" transform="scale(0.015625)"/>
       <path id="DejaVuSans-73" d="M 2834 3397 
L 2834 2853 
Q 2591 2978 2328 3040 
Q 2066 3103 1784 3103 
Q 1356 3103 1142 2972 
Q 928 2841 928 2578 
Q 928 2378 1081 2264 
Q 1234 2150 1697 2047 
L 1894 2003 
Q 2506 1872 2764 1633 
Q 3022 1394 3022 966 
Q 3022 478 2636 193 
Q 2250 -91 1575 -91 
Q 1294 -91 989 -36 
Q 684 19 347 128 
L 347 722 
Q 666 556 975 473 
Q 1284 391 1588 391 
Q 1994 391 2212 530 
Q 2431 669 2431 922 
Q 2431 1156 2273 1281 
Q 2116 1406 1581 1522 
L 1381 1569 
Q 847 1681 609 1914 
Q 372 2147 372 2553 
Q 372 3047 722 3315 
Q 1072 3584 1716 3584 
Q 2034 3584 2315 3537 
Q 2597 3491 2834 3397 
z
" transform="scale(0.015625)"/>
       <path id="DejaVuSans-69" d="M 603 3500 
L 1178 3500 
L 1178 0 
L 603 0 
L 603 3500 
z
M 603 4863 
L 1178 4863 
L 1178 4134 
L 603 4134 
L 603 4863 
z
" transform="scale(0.015625)"/>
      </defs>
      <use xlink:href="#DejaVuSans-43"/>
      <use xlink:href="#DejaVuSans-6f" transform="translate(69.824219 0)"/>
      <use xlink:href="#DejaVuSans-54" transform="translate(131.005859 0)"/>
      <use xlink:href="#DejaVuSans-20" transform="translate(192.089844 0)"/>
      <use xlink:href="#DejaVuSans-74" transform="translate(223.876953 0)"/>
      <use xlink:href="#DejaVuSans-6f" transform="translate(263.085938 0)"/>
      <use xlink:href="#DejaVuSans-6b" transform="translate(324.267578 0)"/>
      <use xlink:href="#DejaVuSans-65" transform="translate(378.552734 0)"/>
      <use xlink:href="#DejaVuSans-6e" transform="translate(440.076172 0)"/>
      <use xlink:href="#DejaVuSans-20" transform="translate(503.455078 0)"/>
      <use xlink:href="#DejaVuSans-70" transform="translate(535.242188 0)"/>
      <use xlink:href="#DejaVuSans-6f" transform="translate(598.71875 0)"/>
      <use xlink:href="#DejaVuSans-73" transform="translate(659.900391 0)"/>
      <use xlink:href="#DejaVuSans-69" transform="translate(712 0)"/>
      <use xlink:href="#DejaVuSans-74" transform="translate(739.783203 0)"/>
      <use xlink:href="#DejaVuSans-69" transform="translate(778.992188 0)"/>
      <use xlink:href="#DejaVuSans-6f" transform="translate(806.775391 0)"/>
      <use xlink:href="#DejaVuSans-6e" transform="translate(867.957031 0)"/>
     </g>
    </g>
   </g>
   <g id="matplotlib.axis_2">
    <g id="ytick_1">
     <g id="line2d_6">
      <defs>
       <path id="mb6da6f5042" d="M 0 0 
L -3.5 0 
" style="stroke: #000000; stroke-width: 0.8"/>
      </defs>
      <g>
       <use xlink:href="#mb6da6f5042" x="57.6" y="307.584" style="stroke: #000000; stroke-width: 0.8"/>
      </g>
     </g>
     <g id="text_7">
      <!-- 0.0 -->
      <g transform="translate(34.696875 311.383219) scale(0.1 -0.1)">
       <defs>
        <path id="DejaVuSans-2e" d="M 684 794 
L 1344 794 
L 1344 0 
L 684 0 
L 684 794 
z
" transform="scale(0.015625)"/>
       </defs>
       <use xlink:href="#DejaVuSans-30"/>
       <use xlink:href="#DejaVuSans-2e" transform="translate(63.623047 0)"/>
       <use xlink:href="#DejaVuSans-30" transform="translate(95.410156 0)"/>
      </g>
     </g>
    </g>
    <g id="ytick_2">
     <g id="line2d_7">
      <g>
       <use xlink:href="#mb6da6f5042" x="57.6" y="254.3616" style="stroke: #000000; stroke-width: 0.8"/>
      </g>
     </g>
     <g id="text_8">
      <!-- 0.2 -->
      <g transform="translate(34.696875 258.160819) scale(0.1 -0.1)">
       <use xlink:href="#DejaVuSans-30"/>
       <use xlink:href="#DejaVuSans-2e" transform="translate(63.623047 0)"/>
       <use xlink:href="#DejaVuSans-32" transform="translate(95.410156 0)"/>
      </g>
     </g>
    </g>
    <g id="ytick_3">
     <g id="line2d_8">
      <g>
       <use xlink:href="#mb6da6f5042" x="57.6" y="201.1392" style="stroke: #000000; stroke-width: 0.8"/>
      </g>
     </g>
     <g id="text_9">
      <!-- 0.4 -->
      <g transform="translate(34.696875 204.938419) scale(0.1 -0.1)">
       <defs>
        <path id="DejaVuSans-34" d="M 2419 4116 
L 825 1625 
L 2419 1625 
L 2419 4116 
z
M 2253 4666 
L 3047 4666 
L 3047 1625 
L 3713 1625 
L 3713 1100 
L 3047 1100 
L 3047 0 
L 2419 0 
L 2419 1100 
L 313 1100 
L 313 1709 
L 2253 4666 
z
" transform="scale(0.015625)"/>
       </defs>
       <use xlink:href="#DejaVuSans-30"/>
       <use xlink:href="#DejaVuSans-2e" transform="translate(63.623047 0)"/>
       <use xlink:href="#DejaVuSans-34" transform="translate(95.410156 0)"/>
      </g>
     </g>
    </g>
    <g id="ytick_4">
     <g id="line2d_9">
      <g>
       <use xlink:href="#mb6da6f5042" x="57.6" y="147.9168" style="stroke: #000000; stroke-width: 0.8"/>
      </g>
     </g>
     <g id="text_10">
      <!-- 0.6 -->
      <g transform="translate(34.696875 151.716019) scale(0.1 -0.1)">
       <defs>
        <path id="DejaVuSans-36" d="M 2113 2584 
Q 1688 2584 1439 2293 
Q 1191 2003 1191 1497 
Q 1191 994 1439 701 
Q 1688 409 2113 409 
Q 2538 409 2786 701 
Q 3034 994 3034 1497 
Q 3034 2003 2786 2293 
Q 2538 2584 2113 2584 
z
M 3366 4563 
L 3366 3988 
Q 3128 4100 2886 4159 
Q 2644 4219 2406 4219 
Q 1781 4219 1451 3797 
Q 1122 3375 1075 2522 
Q 1259 2794 1537 2939 
Q 1816 3084 2150 3084 
Q 2853 3084 3261 2657 
Q 3669 2231 3669 1497 
Q 3669 778 3244 343 
Q 2819 -91 2113 -91 
Q 1303 -91 875 529 
Q 447 1150 447 2328 
Q 447 3434 972 4092 
Q 1497 4750 2381 4750 
Q 2619 4750 2861 4703 
Q 3103 4656 3366 4563 
z
" transform="scale(0.015625)"/>
       </defs>
       <use xlink:href="#DejaVuSans-30"/>
       <use xlink:href="#DejaVuSans-2e" transform="translate(63.623047 0)"/>
       <use xlink:href="#DejaVuSans-36" transform="translate(95.410156 0)"/>
      </g>
     </g>
    </g>
    <g id="ytick_5">
     <g id="line2d_10">
      <g>
       <use xlink:href="#mb6da6f5042" x="57.6" y="94.6944" style="stroke: #000000; stroke-width: 0.8"/>
      </g>
     </g>
     <g id="text_11">
      <!-- 0.8 -->
      <g transform="translate(34.696875 98.493619) scale(0.1 -0.1)">
       <defs>
        <path id="DejaVuSans-38" d="M 2034 2216 
Q 1584 2216 1326 1975 
Q 1069 1734 1069 1313 
Q 1069 891 1326 650 
Q 1584 409 2034 409 
Q 2484 409 2743 651 
Q 3003 894 3003 1313 
Q 3003 1734 2745 1975 
Q 2488 2216 2034 2216 
z
M 1403 2484 
Q 997 2584 770 2862 
Q 544 3141 544 3541 
Q 544 4100 942 4425 
Q 1341 4750 2034 4750 
Q 2731 4750 3128 4425 
Q 3525 4100 3525 3541 
Q 3525 3141 3298 2862 
Q 3072 2584 2669 2484 
Q 3125 2378 3379 2068 
Q 3634 1759 3634 1313 
Q 3634 634 3220 271 
Q 2806 -91 2034 -91 
Q 1263 -91 848 271 
Q 434 634 434 1313 
Q 434 1759 690 2068 
Q 947 2378 1403 2484 
z
M 1172 3481 
Q 1172 3119 1398 2916 
Q 1625 2713 2034 2713 
Q 2441 2713 2670 2916 
Q 2900 3119 2900 3481 
Q 2900 3844 2670 4047 
Q 2441 4250 2034 4250 
Q 1625 4250 1398 4047 
Q 1172 3844 1172 3481 
z
" transform="scale(0.015625)"/>
       </defs>
       <use xlink:href="#DejaVuSans-30"/>
       <use xlink:href="#DejaVuSans-2e" transform="translate(63.623047 0)"/>
       <use xlink:href="#DejaVuSans-38" transform="translate(95.410156 0)"/>
      </g>
     </g>
    </g>
    <g id="ytick_6">
     <g id="line2d_11">
      <g>
       <use xlink:href="#mb6da6f5042" x="57.6" y="41.472" style="stroke: #000000; stroke-width: 0.8"/>
      </g>
     </g>
     <g id="text_12">
      <!-- 1.0 -->
      <g transform="translate(34.696875 45.271219) scale(0.1 -0.1)">
       <use xlink:href="#DejaVuSans-31"/>
       <use xlink:href="#DejaVuSans-2e" transform="translate(63.623047 0)"/>
       <use xlink:href="#DejaVuSans-30" transform="translate(95.410156 0)"/>
      </g>
     </g>
    </g>
    <g id="text_13">
     <!-- Accuracy -->
     <g transform="translate(28.617187 197.356125) rotate(-90) scale(0.1 -0.1)">
      <defs>
       <path id="DejaVuSans-41" d="M 2188 4044 
L 1331 1722 
L 3047 1722 
L 2188 4044 
z
M 1831 4666 
L 2547 4666 
L 4325 0 
L 3669 0 
L 3244 1197 
L 1141 1197 
L 716 0 
L 50 0 
L 1831 4666 
z
" transform="scale(0.015625)"/>
       <path id="DejaVuSans-63" d="M 3122 3366 
L 3122 2828 
Q 2878 2963 2633 3030 
Q 2388 3097 2138 3097 
Q 1578 3097 1268 2742 
Q 959 2388 959 1747 
Q 959 1106 1268 751 
Q 1578 397 2138 397 
Q 2388 397 2633 464 
Q 2878 531 3122 666 
L 3122 134 
Q 2881 22 2623 -34 
Q 2366 -91 2075 -91 
Q 1284 -91 818 406 
Q 353 903 353 1747 
Q 353 2603 823 3093 
Q 1294 3584 2113 3584 
Q 2378 3584 2631 3529 
Q 2884 3475 3122 3366 
z
" transform="scale(0.015625)"/>
       <path id="DejaVuSans-75" d="M 544 1381 
L 544 3500 
L 1119 3500 
L 1119 1403 
Q 1119 906 1312 657 
Q 1506 409 1894 409 
Q 2359 409 2629 706 
Q 2900 1003 2900 1516 
L 2900 3500 
L 3475 3500 
L 3475 0 
L 2900 0 
L 2900 538 
Q 2691 219 2414 64 
Q 2138 -91 1772 -91 
Q 1169 -91 856 284 
Q 544 659 544 1381 
z
M 1991 3584 
L 1991 3584 
z
" transform="scale(0.015625)"/>
       <path id="DejaVuSans-72" d="M 2631 2963 
Q 2534 3019 2420 3045 
Q 2306 3072 2169 3072 
Q 1681 3072 1420 2755 
Q 1159 2438 1159 1844 
L 1159 0 
L 581 0 
L 581 3500 
L 1159 3500 
L 1159 2956 
Q 1341 3275 1631 3429 
Q 1922 3584 2338 3584 
Q 2397 3584 2469 3576 
Q 2541 3569 2628 3553 
L 2631 2963 
z
" transform="scale(0.015625)"/>
       <path id="DejaVuSans-61" d="M 2194 1759 
Q 1497 1759 1228 1600 
Q 959 1441 959 1056 
Q 959 750 1161 570 
Q 1363 391 1709 391 
Q 2188 391 2477 730 
Q 2766 1069 2766 1631 
L 2766 1759 
L 2194 1759 
z
M 3341 1997 
L 3341 0 
L 2766 0 
L 2766 531 
Q 2569 213 2275 61 
Q 1981 -91 1556 -91 
Q 1019 -91 701 211 
Q 384 513 384 1019 
Q 384 1609 779 1909 
Q 1175 2209 1959 2209 
L 2766 2209 
L 2766 2266 
Q 2766 2663 2505 2880 
Q 2244 3097 1772 3097 
Q 1472 3097 1187 3025 
Q 903 2953 641 2809 
L 641 3341 
Q 956 3463 1253 3523 
Q 1550 3584 1831 3584 
Q 2591 3584 2966 3190 
Q 3341 2797 3341 1997 
z
" transform="scale(0.015625)"/>
       <path id="DejaVuSans-79" d="M 2059 -325 
Q 1816 -950 1584 -1140 
Q 1353 -1331 966 -1331 
L 506 -1331 
L 506 -850 
L 844 -850 
Q 1081 -850 1212 -737 
Q 1344 -625 1503 -206 
L 1606 56 
L 191 3500 
L 800 3500 
L 1894 763 
L 2988 3500 
L 3597 3500 
L 2059 -325 
z
" transform="scale(0.015625)"/>
      </defs>
      <use xlink:href="#DejaVuSans-41"/>
      <use xlink:href="#DejaVuSans-63" transform="translate(66.658203 0)"/>
      <use xlink:href="#DejaVuSans-63" transform="translate(121.638672 0)"/>
      <use xlink:href="#DejaVuSans-75" transform="translate(176.619141 0)"/>
      <use xlink:href="#DejaVuSans-72" transform="translate(239.998047 0)"/>
      <use xlink:href="#DejaVuSans-61" transform="translate(281.111328 0)"/>
      <use xlink:href="#DejaVuSans-63" transform="translate(342.390625 0)"/>
      <use xlink:href="#DejaVuSans-79" transform="translate(397.371094 0)"/>
     </g>
    </g>
   </g>
   <g id="line2d_12">
    <path d="M 73.832727 244.218718 
L 75.401107 256.193235 
L 78.537866 245.028151 
L 80.106245 244.726441 
L 81.674625 260.937124 
L 83.243004 239.210878 
L 84.811383 250.27795 
L 87.948142 237.988233 
L 89.516522 231.644739 
L 91.084901 224.683439 
L 92.653281 224.400216 
L 94.22166 231.375402 
L 95.79004 244.218718 
L 97.358419 255.306898 
L 98.926798 250.277946 
L 100.495178 250.277946 
L 102.063557 251.126267 
L 103.631937 256.486403 
L 105.200316 265.774865 
L 106.768696 260.93712 
L 108.337075 260.93712 
L 109.905455 265.55255 
L 111.473834 274.841223 
L 113.042213 273.850678 
L 114.610593 273.850678 
L 116.178972 270.221746 
L 117.747352 277.553607 
L 119.315731 280.554557 
L 120.884111 252.316654 
L 122.45249 240.572192 
L 124.02087 277.553611 
L 125.589249 280.917945 
L 127.157628 280.917943 
L 128.726008 280.726133 
L 130.294387 277.195288 
L 131.862767 277.364324 
L 136.567905 277.364322 
L 138.136285 274.551558 
L 139.704664 274.479846 
L 141.273043 275.520845 
L 142.841423 288.397543 
L 144.409802 292.500537 
L 145.978182 288.285172 
L 147.546561 292.156469 
L 149.114941 292.156469 
L 150.68332 290.164805 
L 152.2517 269.061477 
L 153.820079 264.5504 
L 155.388458 254.754247 
L 158.525217 243.650146 
L 160.093597 237.561281 
L 161.661976 244.006269 
L 163.230356 237.76208 
L 164.798735 230.923714 
L 166.367115 291.708152 
L 167.935494 299.814485 
L 169.503874 289.708128 
L 171.072253 259.954182 
L 172.640632 259.671537 
L 174.209012 282.533618 
L 175.777391 285.07687 
L 177.345771 285.07687 
L 178.91415 282.384421 
L 180.48253 276.170049 
L 183.619289 276.170051 
L 185.187668 272.582637 
L 186.756047 272.632878 
L 188.324427 279.549578 
L 189.892806 276.25627 
L 191.461186 264.206796 
L 193.029565 259.597992 
L 194.597945 279.471335 
L 196.166324 272.582633 
L 197.734704 268.604899 
L 199.303083 215.659429 
L 200.871462 236.668072 
L 204.008221 236.754073 
L 205.576601 168.196021 
L 207.14498 223.551831 
L 208.71336 243.370024 
L 211.850119 243.370028 
L 213.418498 254.652896 
L 214.986877 268.871373 
L 216.555257 272.907695 
L 218.123636 254.868628 
L 219.692016 193.272872 
L 221.260395 203.649854 
L 222.828775 207.236443 
L 224.397154 209.790447 
L 225.965534 211.999726 
L 229.102292 210.960773 
L 230.670672 217.719561 
L 232.239051 210.52432 
L 233.807431 211.450624 
L 235.37581 153.0032 
L 236.94419 139.695138 
L 238.512569 171.460923 
L 240.080949 153.0032 
L 241.649328 130.951385 
L 243.217708 116.758219 
L 244.786087 130.951369 
L 246.354466 126.141826 
L 247.922846 170.335977 
L 249.491225 178.649257 
L 251.059605 174.656264 
L 252.627984 167.394745 
L 254.196364 169.855976 
L 255.764743 167.756213 
L 257.333123 78.372727 
L 258.901502 102.299531 
L 260.469881 166.955191 
L 262.038261 192.594206 
L 263.60664 192.594214 
L 265.17502 268.411734 
L 266.743399 272.40613 
L 268.311779 248.716701 
L 269.880158 242.906348 
L 271.448538 242.843077 
L 273.016917 236.754065 
L 274.585296 293.427497 
L 276.153676 268.362214 
L 277.722055 230.420175 
L 279.290435 236.961081 
L 280.858814 237.225128 
L 283.995573 226.213012 
L 285.563953 244.726437 
L 287.132332 255.306894 
L 288.700711 249.384721 
L 291.83747 249.384721 
L 293.40585 255.143072 
L 294.974229 255.143072 
L 296.542609 254.997642 
L 298.110988 264.550396 
L 299.679368 254.868628 
L 301.247747 254.652896 
L 302.816126 254.563128 
L 304.384506 243.370024 
L 307.521265 243.150164 
L 309.089644 259.671534 
L 310.658024 279.471335 
L 312.226403 268.513196 
L 313.794783 272.689639 
L 315.363162 264.387534 
L 316.931542 259.754592 
L 318.499921 264.387534 
L 320.0683 249.261691 
L 321.63668 249.679971 
L 323.205059 254.997642 
L 324.773439 254.754247 
L 326.341818 268.79218 
L 327.910198 259.754592 
L 329.478577 254.754247 
L 331.046957 243.150164 
L 332.615336 236.851272 
L 334.183715 287.557349 
L 335.752095 285.139438 
L 337.320474 291.7232 
L 338.888854 287.538666 
L 340.457233 276.134244 
L 342.025613 276.25627 
L 343.593992 282.433421 
L 345.162372 276.25627 
L 346.730751 279.471337 
L 348.29913 272.538177 
L 349.86751 268.513196 
L 351.435889 302.822192 
L 353.004269 276.506426 
L 354.572648 279.776548 
L 356.141028 260.721756 
L 357.709407 255.698689 
L 359.277787 195.633002 
L 360.846166 196.863546 
L 362.414545 179.178817 
L 363.982925 163.172078 
L 367.119684 179.178817 
L 368.688063 116.758219 
L 370.256443 93.647743 
L 371.824822 83.948699 
L 373.393202 98.23743 
L 374.961581 88.602736 
L 376.52996 106.09435 
L 378.09834 89.53617 
L 379.666719 100.824046 
L 381.235099 100.824046 
L 382.803478 77.401162 
L 384.371858 76.483463 
L 385.940237 99.600933 
L 387.508617 118.403105 
L 389.076996 94.121971 
L 390.645375 100.176088 
L 392.213755 42.877647 
L 393.782134 42.19833 
L 395.350514 42.614616 
L 398.487273 41.902941 
L 398.487273 41.902941 
" clip-path="url(#p998b9ba661)" style="fill: none; stroke: #0000ff; stroke-width: 1.5; stroke-linecap: square"/>
   </g>
   <g id="line2d_13">
    <path d="M 73.832727 260.420804 
L 75.401107 267.347399 
L 78.537866 268.251533 
L 80.106245 267.776369 
L 83.243004 259.735963 
L 84.811383 262.889755 
L 86.379763 263.356944 
L 87.948142 258.046577 
L 89.516522 262.469191 
L 91.084901 258.046581 
L 92.653281 258.553182 
L 94.22166 266.61395 
L 95.79004 267.347403 
L 97.358419 267.776369 
L 98.926798 273.846629 
L 100.495178 277.360636 
L 102.063557 273.846629 
L 103.631937 269.989165 
L 105.200316 270.683289 
L 106.768696 251.183801 
L 108.337075 264.236679 
L 109.905455 254.204083 
L 111.473834 193.770757 
L 113.042213 252.794438 
L 114.610593 270.482137 
L 116.178972 161.510378 
L 117.747352 268.44124 
L 119.315731 261.98003 
L 120.884111 143.390204 
L 122.45249 152.225843 
L 124.02087 245.753351 
L 125.589249 245.753351 
L 127.157628 222.986995 
L 128.726008 276.192854 
L 130.294387 256.539813 
L 131.862767 270.683289 
L 133.431146 261.997941 
L 134.999526 262.89742 
L 136.567905 262.89742 
L 138.136285 284.978059 
L 139.704664 302.371324 
L 141.273043 269.22098 
L 142.841423 288.395095 
L 144.409802 286.933732 
L 147.546561 289.903009 
L 149.114941 287.724502 
L 150.68332 278.882015 
L 152.2517 240.572192 
L 153.820079 247.75796 
L 155.388458 252.316658 
L 156.956838 252.316654 
L 158.525217 253.355166 
L 160.093597 253.355163 
L 161.661976 258.553178 
L 163.230356 271.43305 
L 164.798735 275.916499 
L 166.367115 299.937706 
L 167.935494 300.783503 
L 169.503874 300.771094 
L 171.072253 301.5351 
L 172.640632 298.975185 
L 174.209012 303.375744 
L 175.777391 299.877827 
L 177.345771 298.885301 
L 178.91415 296.554719 
L 180.48253 290.101288 
L 182.050909 291.940026 
L 183.619289 291.940025 
L 185.187668 293.818603 
L 186.756047 292.092462 
L 188.324427 293.818603 
L 189.892806 292.092462 
L 191.461186 283.007461 
L 193.029565 296.755823 
L 194.597945 283.416523 
L 196.166324 276.192856 
L 197.734704 292.518939 
L 199.303083 284.423479 
L 200.871462 300.016097 
L 202.439842 271.377967 
L 204.008221 298.550526 
L 205.576601 53.784562 
L 207.14498 167.756213 
L 208.71336 296.946129 
L 210.281739 297.669297 
L 211.850119 294.366281 
L 213.418498 301.652799 
L 214.986877 282.25461 
L 216.555257 275.169245 
L 218.123636 286.933732 
L 219.692016 274.479846 
L 221.260395 264.446871 
L 222.828775 266.61395 
L 224.397154 250.528824 
L 225.965534 262.091417 
L 227.533913 261.449625 
L 229.102292 271.439486 
L 230.670672 238.528873 
L 232.239051 304.516358 
L 233.807431 305.897233 
L 235.37581 107.843336 
L 236.94419 55.88737 
L 238.512569 151.274945 
L 240.080949 223.136656 
L 241.649328 229.898965 
L 243.217708 222.810464 
L 244.786087 127.31645 
L 246.354466 101.008722 
L 247.922846 229.709516 
L 249.491225 200.351714 
L 251.059605 242.906348 
L 252.627984 120.712129 
L 254.196364 57.736743 
L 255.764743 50.397954 
L 257.333123 174.816791 
L 258.901502 166.793832 
L 260.469881 259.149607 
L 262.038261 268.385439 
L 263.60664 275.983758 
L 265.17502 298.793904 
L 266.743399 306.358522 
L 268.311779 291.641913 
L 269.880158 307.370072 
L 271.448538 307.49477 
L 273.016917 306.628136 
L 274.585296 305.568366 
L 276.153676 306.739931 
L 277.722055 268.362214 
L 279.290435 272.360877 
L 280.858814 289.658989 
L 282.427194 259.1811 
L 283.995573 287.433177 
L 285.563953 284.983355 
L 287.132332 294.983854 
L 288.700711 293.397087 
L 290.269091 296.465271 
L 291.83747 293.488172 
L 293.40585 293.540078 
L 294.974229 296.46527 
L 296.542609 293.4628 
L 298.110988 289.752864 
L 299.679368 291.69485 
L 301.247747 291.694849 
L 302.816126 295.018835 
L 305.952885 295.006617 
L 307.521265 279.384686 
L 309.089644 272.46406 
L 310.658024 279.384686 
L 312.226403 287.494651 
L 313.794783 285.046325 
L 315.363162 268.513196 
L 316.931542 282.330248 
L 318.499921 287.494651 
L 320.0683 289.752864 
L 321.63668 272.632878 
L 323.205059 279.508068 
L 324.773439 287.557349 
L 326.341818 296.427626 
L 327.910198 295.006616 
L 329.478577 291.672699 
L 331.046957 285.046327 
L 332.615336 285.046325 
L 334.183715 299.810876 
L 335.752095 298.810022 
L 337.320474 299.807689 
L 338.888854 302.185632 
L 340.457233 301.483326 
L 342.025613 301.480957 
L 343.593992 300.693074 
L 345.162372 302.181274 
L 346.730751 303.355695 
L 348.29913 299.796541 
L 349.86751 297.669293 
L 351.435889 306.501934 
L 353.004269 296.46527 
L 354.572648 291.740215 
L 356.141028 79.056517 
L 357.709407 109.113811 
L 359.277787 100.824094 
L 360.846166 54.472412 
L 362.414545 57.936407 
L 363.982925 51.707322 
L 367.119684 64.858418 
L 368.688063 69.91261 
L 370.256443 77.401146 
L 371.824822 73.247239 
L 373.393202 70.315064 
L 374.961581 65.752072 
L 376.52996 77.822 
L 378.09834 65.46344 
L 379.666719 76.914594 
L 381.235099 69.197129 
L 382.803478 77.822 
L 384.371858 70.66343 
L 385.940237 83.040088 
L 387.508617 74.074036 
L 389.076996 62.871082 
L 390.645375 52.800101 
L 392.213755 41.722422 
L 393.782134 41.506055 
L 398.487273 41.48848 
L 398.487273 41.48848 
" clip-path="url(#p998b9ba661)" style="fill: none; stroke: #ffa500; stroke-width: 1.5; stroke-linecap: square"/>
   </g>
   <g id="line2d_14">
    <path d="M 73.832727 226.578437 
L 75.401107 213.314011 
L 76.969486 214.921892 
L 78.537866 214.921892 
L 80.106245 207.236514 
L 81.674625 209.056385 
L 83.243004 203.226779 
L 84.811383 203.226779 
L 86.379763 211.040398 
L 87.948142 205.449873 
L 89.516522 205.449873 
L 91.084901 203.226779 
L 92.653281 205.449865 
L 94.22166 205.449873 
L 95.79004 211.040406 
L 97.358419 211.040406 
L 98.926798 213.194169 
L 100.495178 218.590858 
L 102.063557 222.321422 
L 103.631937 216.678816 
L 105.200316 225.835492 
L 106.768696 218.59085 
L 109.905455 207.857199 
L 111.473834 207.857191 
L 113.042213 192.586227 
L 114.610593 202.61968 
L 116.178972 210.45146 
L 117.747352 207.857199 
L 120.884111 207.857191 
L 122.45249 199.949482 
L 125.589249 215.521441 
L 127.157628 210.451452 
L 128.726008 227.814461 
L 130.294387 215.521441 
L 131.862767 220.662522 
L 133.431146 222.896465 
L 134.999526 218.02365 
L 136.567905 210.45146 
L 138.136285 220.66253 
L 139.704664 220.66253 
L 141.273043 222.896465 
L 142.841423 225.835492 
L 144.409802 220.66253 
L 145.978182 213.194169 
L 147.546561 222.896473 
L 150.68332 213.232689 
L 155.388458 227.814461 
L 156.956838 227.814461 
L 158.525217 220.662522 
L 160.093597 220.66253 
L 161.661976 222.896473 
L 163.230356 220.662522 
L 164.798735 222.896465 
L 167.935494 222.896465 
L 169.503874 218.023642 
L 171.072253 215.521441 
L 172.640632 220.662522 
L 174.209012 222.896465 
L 177.345771 222.896465 
L 178.91415 220.66253 
L 180.48253 222.896465 
L 183.619289 222.896465 
L 185.187668 225.292997 
L 188.324427 225.292997 
L 189.892806 227.849785 
L 191.461186 210.451452 
L 193.029565 213.194169 
L 194.597945 210.45146 
L 196.166324 213.232697 
L 197.734704 218.023642 
L 199.303083 210.451452 
L 200.871462 213.232689 
L 202.439842 218.023642 
L 204.008221 225.292997 
L 205.576601 205.48967 
L 208.71336 220.699535 
L 210.281739 220.699543 
L 211.850119 213.232681 
L 213.418498 223.544804 
L 214.986877 230.561517 
L 216.555257 227.849785 
L 218.123636 223.544804 
L 219.692016 225.293005 
L 221.260395 200.669959 
L 222.828775 208.557818 
L 225.965534 208.557818 
L 227.533913 213.232689 
L 229.102292 213.232689 
L 230.670672 208.557825 
L 232.239051 213.232689 
L 233.807431 213.232689 
L 235.37581 199.675538 
L 236.94419 203.536515 
L 238.512569 195.516959 
L 240.080949 199.67553 
L 243.217708 199.67553 
L 244.786087 196.02214 
L 246.354466 187.337891 
L 247.922846 183.336651 
L 249.491225 192.586235 
L 251.059605 187.851297 
L 254.196364 187.851305 
L 255.764743 187.337891 
L 258.901502 203.536515 
L 260.469881 203.536523 
L 262.038261 211.818952 
L 263.60664 216.197792 
L 265.17502 213.232689 
L 266.743399 225.835492 
L 268.311779 220.662522 
L 269.880158 232.739564 
L 271.448538 225.835492 
L 273.016917 232.739572 
L 274.585296 232.739572 
L 276.153676 227.814469 
L 277.722055 227.814461 
L 279.290435 232.739572 
L 280.858814 227.814469 
L 283.995573 227.814461 
L 285.563953 229.944234 
L 287.132332 227.814469 
L 288.700711 229.944234 
L 291.83747 220.699535 
L 293.40585 225.292997 
L 304.384506 225.292997 
L 305.952885 220.699535 
L 307.521265 220.699543 
L 309.089644 216.197792 
L 310.658024 216.197792 
L 312.226403 213.232689 
L 313.794783 216.1978 
L 315.363162 213.232689 
L 316.931542 213.232681 
L 318.499921 216.197792 
L 320.0683 216.197784 
L 321.63668 208.557818 
L 323.205059 213.232689 
L 324.773439 216.197792 
L 326.341818 213.232689 
L 331.046957 213.232681 
L 332.615336 218.023642 
L 334.183715 218.023642 
L 335.752095 215.521433 
L 337.320474 215.521441 
L 338.888854 218.590858 
L 340.457233 218.59085 
L 343.593992 222.896465 
L 345.162372 218.590858 
L 346.730751 229.396417 
L 348.29913 215.521433 
L 349.86751 213.194169 
L 351.435889 215.521433 
L 353.004269 210.45146 
L 356.141028 210.45146 
L 357.709407 203.536523 
L 359.277787 213.232689 
L 360.846166 208.557818 
L 362.414545 208.557818 
L 363.982925 205.48967 
L 365.551304 213.232689 
L 367.119684 205.48967 
L 368.688063 208.557818 
L 370.256443 205.48967 
L 371.824822 204.029848 
L 373.393202 205.48967 
L 374.961581 200.669959 
L 376.52996 200.669951 
L 378.09834 208.557818 
L 379.666719 200.669951 
L 381.235099 205.48967 
L 382.803478 204.029864 
L 384.371858 200.669959 
L 385.940237 202.61968 
L 389.076996 202.619672 
L 390.645375 197.477592 
L 392.213755 164.506412 
L 393.782134 151.356933 
L 395.350514 103.9336 
L 396.918893 110.105314 
L 398.487273 110.105314 
L 398.487273 110.105314 
" clip-path="url(#p998b9ba661)" style="fill: none; stroke: #008000; stroke-width: 1.5; stroke-linecap: square"/>
   </g>
   <g id="patch_3">
    <path d="M 57.6 307.584 
L 57.6 41.472 
" style="fill: none; stroke: #000000; stroke-width: 0.8; stroke-linejoin: miter; stroke-linecap: square"/>
   </g>
   <g id="patch_4">
    <path d="M 414.72 307.584 
L 414.72 41.472 
" style="fill: none; stroke: #000000; stroke-width: 0.8; stroke-linejoin: miter; stroke-linecap: square"/>
   </g>
   <g id="patch_5">
    <path d="M 57.6 307.584 
L 414.72 307.584 
" style="fill: none; stroke: #000000; stroke-width: 0.8; stroke-linejoin: miter; stroke-linecap: square"/>
   </g>
   <g id="patch_6">
    <path d="M 57.6 41.472 
L 414.72 41.472 
" style="fill: none; stroke: #000000; stroke-width: 0.8; stroke-linejoin: miter; stroke-linecap: square"/>
   </g>
   <g id="text_14">
    <!-- logical_deduction_three_objects Q7 -->
    <g transform="translate(129.865313 31.472) scale(0.12 -0.12)">
     <defs>
      <path id="DejaVuSans-6c" d="M 603 4863 
L 1178 4863 
L 1178 0 
L 603 0 
L 603 4863 
z
" transform="scale(0.015625)"/>
      <path id="DejaVuSans-67" d="M 2906 1791 
Q 2906 2416 2648 2759 
Q 2391 3103 1925 3103 
Q 1463 3103 1205 2759 
Q 947 2416 947 1791 
Q 947 1169 1205 825 
Q 1463 481 1925 481 
Q 2391 481 2648 825 
Q 2906 1169 2906 1791 
z
M 3481 434 
Q 3481 -459 3084 -895 
Q 2688 -1331 1869 -1331 
Q 1566 -1331 1297 -1286 
Q 1028 -1241 775 -1147 
L 775 -588 
Q 1028 -725 1275 -790 
Q 1522 -856 1778 -856 
Q 2344 -856 2625 -561 
Q 2906 -266 2906 331 
L 2906 616 
Q 2728 306 2450 153 
Q 2172 0 1784 0 
Q 1141 0 747 490 
Q 353 981 353 1791 
Q 353 2603 747 3093 
Q 1141 3584 1784 3584 
Q 2172 3584 2450 3431 
Q 2728 3278 2906 2969 
L 2906 3500 
L 3481 3500 
L 3481 434 
z
" transform="scale(0.015625)"/>
      <path id="DejaVuSans-5f" d="M 3263 -1063 
L 3263 -1509 
L -63 -1509 
L -63 -1063 
L 3263 -1063 
z
" transform="scale(0.015625)"/>
      <path id="DejaVuSans-64" d="M 2906 2969 
L 2906 4863 
L 3481 4863 
L 3481 0 
L 2906 0 
L 2906 525 
Q 2725 213 2448 61 
Q 2172 -91 1784 -91 
Q 1150 -91 751 415 
Q 353 922 353 1747 
Q 353 2572 751 3078 
Q 1150 3584 1784 3584 
Q 2172 3584 2448 3432 
Q 2725 3281 2906 2969 
z
M 947 1747 
Q 947 1113 1208 752 
Q 1469 391 1925 391 
Q 2381 391 2643 752 
Q 2906 1113 2906 1747 
Q 2906 2381 2643 2742 
Q 2381 3103 1925 3103 
Q 1469 3103 1208 2742 
Q 947 2381 947 1747 
z
" transform="scale(0.015625)"/>
      <path id="DejaVuSans-68" d="M 3513 2113 
L 3513 0 
L 2938 0 
L 2938 2094 
Q 2938 2591 2744 2837 
Q 2550 3084 2163 3084 
Q 1697 3084 1428 2787 
Q 1159 2491 1159 1978 
L 1159 0 
L 581 0 
L 581 4863 
L 1159 4863 
L 1159 2956 
Q 1366 3272 1645 3428 
Q 1925 3584 2291 3584 
Q 2894 3584 3203 3211 
Q 3513 2838 3513 2113 
z
" transform="scale(0.015625)"/>
      <path id="DejaVuSans-62" d="M 3116 1747 
Q 3116 2381 2855 2742 
Q 2594 3103 2138 3103 
Q 1681 3103 1420 2742 
Q 1159 2381 1159 1747 
Q 1159 1113 1420 752 
Q 1681 391 2138 391 
Q 2594 391 2855 752 
Q 3116 1113 3116 1747 
z
M 1159 2969 
Q 1341 3281 1617 3432 
Q 1894 3584 2278 3584 
Q 2916 3584 3314 3078 
Q 3713 2572 3713 1747 
Q 3713 922 3314 415 
Q 2916 -91 2278 -91 
Q 1894 -91 1617 61 
Q 1341 213 1159 525 
L 1159 0 
L 581 0 
L 581 4863 
L 1159 4863 
L 1159 2969 
z
" transform="scale(0.015625)"/>
      <path id="DejaVuSans-6a" d="M 603 3500 
L 1178 3500 
L 1178 -63 
Q 1178 -731 923 -1031 
Q 669 -1331 103 -1331 
L -116 -1331 
L -116 -844 
L 38 -844 
Q 366 -844 484 -692 
Q 603 -541 603 -63 
L 603 3500 
z
M 603 4863 
L 1178 4863 
L 1178 4134 
L 603 4134 
L 603 4863 
z
" transform="scale(0.015625)"/>
      <path id="DejaVuSans-51" d="M 2522 4238 
Q 1834 4238 1429 3725 
Q 1025 3213 1025 2328 
Q 1025 1447 1429 934 
Q 1834 422 2522 422 
Q 3209 422 3611 934 
Q 4013 1447 4013 2328 
Q 4013 3213 3611 3725 
Q 3209 4238 2522 4238 
z
M 3406 84 
L 4238 -825 
L 3475 -825 
L 2784 -78 
Q 2681 -84 2626 -87 
Q 2572 -91 2522 -91 
Q 1538 -91 948 567 
Q 359 1225 359 2328 
Q 359 3434 948 4092 
Q 1538 4750 2522 4750 
Q 3503 4750 4090 4092 
Q 4678 3434 4678 2328 
Q 4678 1516 4351 937 
Q 4025 359 3406 84 
z
" transform="scale(0.015625)"/>
      <path id="DejaVuSans-37" d="M 525 4666 
L 3525 4666 
L 3525 4397 
L 1831 0 
L 1172 0 
L 2766 4134 
L 525 4134 
L 525 4666 
z
" transform="scale(0.015625)"/>
     </defs>
     <use xlink:href="#DejaVuSans-6c"/>
     <use xlink:href="#DejaVuSans-6f" transform="translate(27.783203 0)"/>
     <use xlink:href="#DejaVuSans-67" transform="translate(88.964844 0)"/>
     <use xlink:href="#DejaVuSans-69" transform="translate(152.441406 0)"/>
     <use xlink:href="#DejaVuSans-63" transform="translate(180.224609 0)"/>
     <use xlink:href="#DejaVuSans-61" transform="translate(235.205078 0)"/>
     <use xlink:href="#DejaVuSans-6c" transform="translate(296.484375 0)"/>
     <use xlink:href="#DejaVuSans-5f" transform="translate(324.267578 0)"/>
     <use xlink:href="#DejaVuSans-64" transform="translate(374.267578 0)"/>
     <use xlink:href="#DejaVuSans-65" transform="translate(437.744141 0)"/>
     <use xlink:href="#DejaVuSans-64" transform="translate(499.267578 0)"/>
     <use xlink:href="#DejaVuSans-75" transform="translate(562.744141 0)"/>
     <use xlink:href="#DejaVuSans-63" transform="translate(626.123047 0)"/>
     <use xlink:href="#DejaVuSans-74" transform="translate(681.103516 0)"/>
     <use xlink:href="#DejaVuSans-69" transform="translate(720.3125 0)"/>
     <use xlink:href="#DejaVuSans-6f" transform="translate(748.095703 0)"/>
     <use xlink:href="#DejaVuSans-6e" transform="translate(809.277344 0)"/>
     <use xlink:href="#DejaVuSans-5f" transform="translate(872.65625 0)"/>
     <use xlink:href="#DejaVuSans-74" transform="translate(922.65625 0)"/>
     <use xlink:href="#DejaVuSans-68" transform="translate(961.865234 0)"/>
     <use xlink:href="#DejaVuSans-72" transform="translate(1025.244141 0)"/>
     <use xlink:href="#DejaVuSans-65" transform="translate(1064.107422 0)"/>
     <use xlink:href="#DejaVuSans-65" transform="translate(1125.630859 0)"/>
     <use xlink:href="#DejaVuSans-5f" transform="translate(1187.154297 0)"/>
     <use xlink:href="#DejaVuSans-6f" transform="translate(1237.154297 0)"/>
     <use xlink:href="#DejaVuSans-62" transform="translate(1298.335938 0)"/>
     <use xlink:href="#DejaVuSans-6a" transform="translate(1361.8125 0)"/>
     <use xlink:href="#DejaVuSans-65" transform="translate(1389.595703 0)"/>
     <use xlink:href="#DejaVuSans-63" transform="translate(1451.119141 0)"/>
     <use xlink:href="#DejaVuSans-74" transform="translate(1506.099609 0)"/>
     <use xlink:href="#DejaVuSans-73" transform="translate(1545.308594 0)"/>
     <use xlink:href="#DejaVuSans-20" transform="translate(1597.408203 0)"/>
     <use xlink:href="#DejaVuSans-51" transform="translate(1629.195312 0)"/>
     <use xlink:href="#DejaVuSans-37" transform="translate(1707.90625 0)"/>
    </g>
   </g>
   <g id="legend_1">
    <g id="patch_7">
     <path d="M 64.6 93.506375 
L 150.876563 93.506375 
Q 152.876563 93.506375 152.876563 91.506375 
L 152.876563 48.472 
Q 152.876563 46.472 150.876563 46.472 
L 64.6 46.472 
Q 62.6 46.472 62.6 48.472 
L 62.6 91.506375 
Q 62.6 93.506375 64.6 93.506375 
z
" style="fill: #ffffff; opacity: 0.8; stroke: #cccccc; stroke-linejoin: miter"/>
    </g>
    <g id="line2d_15">
     <path d="M 66.6 54.570438 
L 76.6 54.570438 
L 86.6 54.570438 
" style="fill: none; stroke: #0000ff; stroke-width: 1.5; stroke-linecap: square"/>
    </g>
    <g id="text_15">
     <!-- smooth-3B -->
     <g transform="translate(94.6 58.070438) scale(0.1 -0.1)">
      <defs>
       <path id="DejaVuSans-6d" d="M 3328 2828 
Q 3544 3216 3844 3400 
Q 4144 3584 4550 3584 
Q 5097 3584 5394 3201 
Q 5691 2819 5691 2113 
L 5691 0 
L 5113 0 
L 5113 2094 
Q 5113 2597 4934 2840 
Q 4756 3084 4391 3084 
Q 3944 3084 3684 2787 
Q 3425 2491 3425 1978 
L 3425 0 
L 2847 0 
L 2847 2094 
Q 2847 2600 2669 2842 
Q 2491 3084 2119 3084 
Q 1678 3084 1418 2786 
Q 1159 2488 1159 1978 
L 1159 0 
L 581 0 
L 581 3500 
L 1159 3500 
L 1159 2956 
Q 1356 3278 1631 3431 
Q 1906 3584 2284 3584 
Q 2666 3584 2933 3390 
Q 3200 3197 3328 2828 
z
" transform="scale(0.015625)"/>
       <path id="DejaVuSans-2d" d="M 313 2009 
L 1997 2009 
L 1997 1497 
L 313 1497 
L 313 2009 
z
" transform="scale(0.015625)"/>
       <path id="DejaVuSans-33" d="M 2597 2516 
Q 3050 2419 3304 2112 
Q 3559 1806 3559 1356 
Q 3559 666 3084 287 
Q 2609 -91 1734 -91 
Q 1441 -91 1130 -33 
Q 819 25 488 141 
L 488 750 
Q 750 597 1062 519 
Q 1375 441 1716 441 
Q 2309 441 2620 675 
Q 2931 909 2931 1356 
Q 2931 1769 2642 2001 
Q 2353 2234 1838 2234 
L 1294 2234 
L 1294 2753 
L 1863 2753 
Q 2328 2753 2575 2939 
Q 2822 3125 2822 3475 
Q 2822 3834 2567 4026 
Q 2313 4219 1838 4219 
Q 1578 4219 1281 4162 
Q 984 4106 628 3988 
L 628 4550 
Q 988 4650 1302 4700 
Q 1616 4750 1894 4750 
Q 2613 4750 3031 4423 
Q 3450 4097 3450 3541 
Q 3450 3153 3228 2886 
Q 3006 2619 2597 2516 
z
" transform="scale(0.015625)"/>
       <path id="DejaVuSans-42" d="M 1259 2228 
L 1259 519 
L 2272 519 
Q 2781 519 3026 730 
Q 3272 941 3272 1375 
Q 3272 1813 3026 2020 
Q 2781 2228 2272 2228 
L 1259 2228 
z
M 1259 4147 
L 1259 2741 
L 2194 2741 
Q 2656 2741 2882 2914 
Q 3109 3088 3109 3444 
Q 3109 3797 2882 3972 
Q 2656 4147 2194 4147 
L 1259 4147 
z
M 628 4666 
L 2241 4666 
Q 2963 4666 3353 4366 
Q 3744 4066 3744 3513 
Q 3744 3084 3544 2831 
Q 3344 2578 2956 2516 
Q 3422 2416 3680 2098 
Q 3938 1781 3938 1306 
Q 3938 681 3513 340 
Q 3088 0 2303 0 
L 628 0 
L 628 4666 
z
" transform="scale(0.015625)"/>
      </defs>
      <use xlink:href="#DejaVuSans-73"/>
      <use xlink:href="#DejaVuSans-6d" transform="translate(52.099609 0)"/>
      <use xlink:href="#DejaVuSans-6f" transform="translate(149.511719 0)"/>
      <use xlink:href="#DejaVuSans-6f" transform="translate(210.693359 0)"/>
      <use xlink:href="#DejaVuSans-74" transform="translate(271.875 0)"/>
      <use xlink:href="#DejaVuSans-68" transform="translate(311.083984 0)"/>
      <use xlink:href="#DejaVuSans-2d" transform="translate(374.462891 0)"/>
      <use xlink:href="#DejaVuSans-33" transform="translate(410.546875 0)"/>
      <use xlink:href="#DejaVuSans-42" transform="translate(474.169922 0)"/>
     </g>
    </g>
    <g id="line2d_16">
     <path d="M 66.6 69.248563 
L 76.6 69.248563 
L 86.6 69.248563 
" style="fill: none; stroke: #ffa500; stroke-width: 1.5; stroke-linecap: square"/>
    </g>
    <g id="text_16">
     <!-- abrupt-3B -->
     <g transform="translate(94.6 72.748563) scale(0.1 -0.1)">
      <use xlink:href="#DejaVuSans-61"/>
      <use xlink:href="#DejaVuSans-62" transform="translate(61.279297 0)"/>
      <use xlink:href="#DejaVuSans-72" transform="translate(124.755859 0)"/>
      <use xlink:href="#DejaVuSans-75" transform="translate(165.869141 0)"/>
      <use xlink:href="#DejaVuSans-70" transform="translate(229.248047 0)"/>
      <use xlink:href="#DejaVuSans-74" transform="translate(292.724609 0)"/>
      <use xlink:href="#DejaVuSans-2d" transform="translate(331.933594 0)"/>
      <use xlink:href="#DejaVuSans-33" transform="translate(368.017578 0)"/>
      <use xlink:href="#DejaVuSans-42" transform="translate(431.640625 0)"/>
     </g>
    </g>
    <g id="line2d_17">
     <path d="M 66.6 83.926688 
L 76.6 83.926688 
L 86.6 83.926688 
" style="fill: none; stroke: #008000; stroke-width: 1.5; stroke-linecap: square"/>
    </g>
    <g id="text_17">
     <!-- smooth-1B -->
     <g transform="translate(94.6 87.426688) scale(0.1 -0.1)">
      <use xlink:href="#DejaVuSans-73"/>
      <use xlink:href="#DejaVuSans-6d" transform="translate(52.099609 0)"/>
      <use xlink:href="#DejaVuSans-6f" transform="translate(149.511719 0)"/>
      <use xlink:href="#DejaVuSans-6f" transform="translate(210.693359 0)"/>
      <use xlink:href="#DejaVuSans-74" transform="translate(271.875 0)"/>
      <use xlink:href="#DejaVuSans-68" transform="translate(311.083984 0)"/>
      <use xlink:href="#DejaVuSans-2d" transform="translate(374.462891 0)"/>
      <use xlink:href="#DejaVuSans-31" transform="translate(410.546875 0)"/>
      <use xlink:href="#DejaVuSans-42" transform="translate(474.169922 0)"/>
     </g>
    </g>
   </g>
  </g>
 </g>
 <defs>
  <clipPath id="p998b9ba661">
   <rect x="57.6" y="41.472" width="357.12" height="266.112"/>
  </clipPath>
 </defs>
</svg>
