<?xml version="1.0" encoding="utf-8" standalone="no"?>
<!DOCTYPE svg PUBLIC "-//W3C//DTD SVG 1.1//EN"
  "http://www.w3.org/Graphics/SVG/1.1/DTD/svg11.dtd">
<svg xmlns:xlink="http://www.w3.org/1999/xlink" width="460.8pt" height="345.6pt" viewBox="0 0 460.8 345.6" xmlns="http://www.w3.org/2000/svg" version="1.1">
 <metadata>
  <rdf:RDF xmlns:dc="http://purl.org/dc/elements/1.1/" xmlns:cc="http://creativecommons.org/ns#" xmlns:rdf="http://www.w3.org/1999/02/22-rdf-syntax-ns#">
   <cc:Work>
    <dc:type rdf:resource="http://purl.org/dc/dcmitype/StillImage"/>
    <dc:date>2025-05-14T16:28:56.524041</dc:date>
    <dc:format>image/svg+xml</dc:format>
    <dc:creator>
     <cc:Agent>
      <dc:title>Matplotlib v3.10.3, https://matplotlib.org/</dc:title>
     </cc:Agent>
    </dc:creator>
   </cc:Work>
  </rdf:RDF>
 </metadata>
 <defs>
  <style type="text/css">*{stroke-linejoin: round; stroke-linecap: butt}</style>
 </defs>
 <g id="figure_1">
  <g id="patch_1">
   <path d="M 0 345.6 
L 460.8 345.6 
L 460.8 0 
L 0 0 
z
" style="fill: #ffffff"/>
  </g>
  <g id="axes_1">
   <g id="patch_2">
    <path d="M 57.6 307.584 
L 414.72 307.584 
L 414.72 41.472 
L 57.6 41.472 
z
" style="fill: #ffffff"/>
   </g>
   <g id="matplotlib.axis_1">
    <g id="xtick_1">
     <g id="line2d_1">
      <defs>
       <path id="m8409bcbccf" d="M 0 0 
L 0 3.5 
" style="stroke: #000000; stroke-width: 0.8"/>
      </defs>
      <g>
       <use xlink:href="#m8409bcbccf" x="73.832727" y="307.584" style="stroke: #000000; stroke-width: 0.8"/>
      </g>
     </g>
     <g id="text_1">
      <!-- 0 -->
      <g transform="translate(70.651477 322.182437) scale(0.1 -0.1)">
       <defs>
        <path id="DejaVuSans-30" d="M 2034 4250 
Q 1547 4250 1301 3770 
Q 1056 3291 1056 2328 
Q 1056 1369 1301 889 
Q 1547 409 2034 409 
Q 2525 409 2770 889 
Q 3016 1369 3016 2328 
Q 3016 3291 2770 3770 
Q 2525 4250 2034 4250 
z
M 2034 4750 
Q 2819 4750 3233 4129 
Q 3647 3509 3647 2328 
Q 3647 1150 3233 529 
Q 2819 -91 2034 -91 
Q 1250 -91 836 529 
Q 422 1150 422 2328 
Q 422 3509 836 4129 
Q 1250 4750 2034 4750 
z
" transform="scale(0.015625)"/>
       </defs>
       <use xlink:href="#DejaVuSans-30"/>
      </g>
     </g>
    </g>
    <g id="xtick_2">
     <g id="line2d_2">
      <g>
       <use xlink:href="#m8409bcbccf" x="117.410519" y="307.584" style="stroke: #000000; stroke-width: 0.8"/>
      </g>
     </g>
     <g id="text_2">
      <!-- 20 -->
      <g transform="translate(111.048019 322.182437) scale(0.1 -0.1)">
       <defs>
        <path id="DejaVuSans-32" d="M 1228 531 
L 3431 531 
L 3431 0 
L 469 0 
L 469 531 
Q 828 903 1448 1529 
Q 2069 2156 2228 2338 
Q 2531 2678 2651 2914 
Q 2772 3150 2772 3378 
Q 2772 3750 2511 3984 
Q 2250 4219 1831 4219 
Q 1534 4219 1204 4116 
Q 875 4013 500 3803 
L 500 4441 
Q 881 4594 1212 4672 
Q 1544 4750 1819 4750 
Q 2544 4750 2975 4387 
Q 3406 4025 3406 3419 
Q 3406 3131 3298 2873 
Q 3191 2616 2906 2266 
Q 2828 2175 2409 1742 
Q 1991 1309 1228 531 
z
" transform="scale(0.015625)"/>
       </defs>
       <use xlink:href="#DejaVuSans-32"/>
       <use xlink:href="#DejaVuSans-30" transform="translate(63.623047 0)"/>
      </g>
     </g>
    </g>
    <g id="xtick_3">
     <g id="line2d_3">
      <g>
       <use xlink:href="#m8409bcbccf" x="160.98831" y="307.584" style="stroke: #000000; stroke-width: 0.8"/>
      </g>
     </g>
     <g id="text_3">
      <!-- 40 -->
      <g transform="translate(154.62581 322.182437) scale(0.1 -0.1)">
       <defs>
        <path id="DejaVuSans-34" d="M 2419 4116 
L 825 1625 
L 2419 1625 
L 2419 4116 
z
M 2253 4666 
L 3047 4666 
L 3047 1625 
L 3713 1625 
L 3713 1100 
L 3047 1100 
L 3047 0 
L 2419 0 
L 2419 1100 
L 313 1100 
L 313 1709 
L 2253 4666 
z
" transform="scale(0.015625)"/>
       </defs>
       <use xlink:href="#DejaVuSans-34"/>
       <use xlink:href="#DejaVuSans-30" transform="translate(63.623047 0)"/>
      </g>
     </g>
    </g>
    <g id="xtick_4">
     <g id="line2d_4">
      <g>
       <use xlink:href="#m8409bcbccf" x="204.566101" y="307.584" style="stroke: #000000; stroke-width: 0.8"/>
      </g>
     </g>
     <g id="text_4">
      <!-- 60 -->
      <g transform="translate(198.203601 322.182437) scale(0.1 -0.1)">
       <defs>
        <path id="DejaVuSans-36" d="M 2113 2584 
Q 1688 2584 1439 2293 
Q 1191 2003 1191 1497 
Q 1191 994 1439 701 
Q 1688 409 2113 409 
Q 2538 409 2786 701 
Q 3034 994 3034 1497 
Q 3034 2003 2786 2293 
Q 2538 2584 2113 2584 
z
M 3366 4563 
L 3366 3988 
Q 3128 4100 2886 4159 
Q 2644 4219 2406 4219 
Q 1781 4219 1451 3797 
Q 1122 3375 1075 2522 
Q 1259 2794 1537 2939 
Q 1816 3084 2150 3084 
Q 2853 3084 3261 2657 
Q 3669 2231 3669 1497 
Q 3669 778 3244 343 
Q 2819 -91 2113 -91 
Q 1303 -91 875 529 
Q 447 1150 447 2328 
Q 447 3434 972 4092 
Q 1497 4750 2381 4750 
Q 2619 4750 2861 4703 
Q 3103 4656 3366 4563 
z
" transform="scale(0.015625)"/>
       </defs>
       <use xlink:href="#DejaVuSans-36"/>
       <use xlink:href="#DejaVuSans-30" transform="translate(63.623047 0)"/>
      </g>
     </g>
    </g>
    <g id="xtick_5">
     <g id="line2d_5">
      <g>
       <use xlink:href="#m8409bcbccf" x="248.143893" y="307.584" style="stroke: #000000; stroke-width: 0.8"/>
      </g>
     </g>
     <g id="text_5">
      <!-- 80 -->
      <g transform="translate(241.781393 322.182437) scale(0.1 -0.1)">
       <defs>
        <path id="DejaVuSans-38" d="M 2034 2216 
Q 1584 2216 1326 1975 
Q 1069 1734 1069 1313 
Q 1069 891 1326 650 
Q 1584 409 2034 409 
Q 2484 409 2743 651 
Q 3003 894 3003 1313 
Q 3003 1734 2745 1975 
Q 2488 2216 2034 2216 
z
M 1403 2484 
Q 997 2584 770 2862 
Q 544 3141 544 3541 
Q 544 4100 942 4425 
Q 1341 4750 2034 4750 
Q 2731 4750 3128 4425 
Q 3525 4100 3525 3541 
Q 3525 3141 3298 2862 
Q 3072 2584 2669 2484 
Q 3125 2378 3379 2068 
Q 3634 1759 3634 1313 
Q 3634 634 3220 271 
Q 2806 -91 2034 -91 
Q 1263 -91 848 271 
Q 434 634 434 1313 
Q 434 1759 690 2068 
Q 947 2378 1403 2484 
z
M 1172 3481 
Q 1172 3119 1398 2916 
Q 1625 2713 2034 2713 
Q 2441 2713 2670 2916 
Q 2900 3119 2900 3481 
Q 2900 3844 2670 4047 
Q 2441 4250 2034 4250 
Q 1625 4250 1398 4047 
Q 1172 3844 1172 3481 
z
" transform="scale(0.015625)"/>
       </defs>
       <use xlink:href="#DejaVuSans-38"/>
       <use xlink:href="#DejaVuSans-30" transform="translate(63.623047 0)"/>
      </g>
     </g>
    </g>
    <g id="xtick_6">
     <g id="line2d_6">
      <g>
       <use xlink:href="#m8409bcbccf" x="291.721684" y="307.584" style="stroke: #000000; stroke-width: 0.8"/>
      </g>
     </g>
     <g id="text_6">
      <!-- 100 -->
      <g transform="translate(282.177934 322.182437) scale(0.1 -0.1)">
       <defs>
        <path id="DejaVuSans-31" d="M 794 531 
L 1825 531 
L 1825 4091 
L 703 3866 
L 703 4441 
L 1819 4666 
L 2450 4666 
L 2450 531 
L 3481 531 
L 3481 0 
L 794 0 
L 794 531 
z
" transform="scale(0.015625)"/>
       </defs>
       <use xlink:href="#DejaVuSans-31"/>
       <use xlink:href="#DejaVuSans-30" transform="translate(63.623047 0)"/>
       <use xlink:href="#DejaVuSans-30" transform="translate(127.246094 0)"/>
      </g>
     </g>
    </g>
    <g id="xtick_7">
     <g id="line2d_7">
      <g>
       <use xlink:href="#m8409bcbccf" x="335.299475" y="307.584" style="stroke: #000000; stroke-width: 0.8"/>
      </g>
     </g>
     <g id="text_7">
      <!-- 120 -->
      <g transform="translate(325.755725 322.182437) scale(0.1 -0.1)">
       <use xlink:href="#DejaVuSans-31"/>
       <use xlink:href="#DejaVuSans-32" transform="translate(63.623047 0)"/>
       <use xlink:href="#DejaVuSans-30" transform="translate(127.246094 0)"/>
      </g>
     </g>
    </g>
    <g id="xtick_8">
     <g id="line2d_8">
      <g>
       <use xlink:href="#m8409bcbccf" x="378.877267" y="307.584" style="stroke: #000000; stroke-width: 0.8"/>
      </g>
     </g>
     <g id="text_8">
      <!-- 140 -->
      <g transform="translate(369.333517 322.182437) scale(0.1 -0.1)">
       <use xlink:href="#DejaVuSans-31"/>
       <use xlink:href="#DejaVuSans-34" transform="translate(63.623047 0)"/>
       <use xlink:href="#DejaVuSans-30" transform="translate(127.246094 0)"/>
      </g>
     </g>
    </g>
    <g id="text_9">
     <!-- CoT token position -->
     <g transform="translate(189.593594 335.860562) scale(0.1 -0.1)">
      <defs>
       <path id="DejaVuSans-43" d="M 4122 4306 
L 4122 3641 
Q 3803 3938 3442 4084 
Q 3081 4231 2675 4231 
Q 1875 4231 1450 3742 
Q 1025 3253 1025 2328 
Q 1025 1406 1450 917 
Q 1875 428 2675 428 
Q 3081 428 3442 575 
Q 3803 722 4122 1019 
L 4122 359 
Q 3791 134 3420 21 
Q 3050 -91 2638 -91 
Q 1578 -91 968 557 
Q 359 1206 359 2328 
Q 359 3453 968 4101 
Q 1578 4750 2638 4750 
Q 3056 4750 3426 4639 
Q 3797 4528 4122 4306 
z
" transform="scale(0.015625)"/>
       <path id="DejaVuSans-6f" d="M 1959 3097 
Q 1497 3097 1228 2736 
Q 959 2375 959 1747 
Q 959 1119 1226 758 
Q 1494 397 1959 397 
Q 2419 397 2687 759 
Q 2956 1122 2956 1747 
Q 2956 2369 2687 2733 
Q 2419 3097 1959 3097 
z
M 1959 3584 
Q 2709 3584 3137 3096 
Q 3566 2609 3566 1747 
Q 3566 888 3137 398 
Q 2709 -91 1959 -91 
Q 1206 -91 779 398 
Q 353 888 353 1747 
Q 353 2609 779 3096 
Q 1206 3584 1959 3584 
z
" transform="scale(0.015625)"/>
       <path id="DejaVuSans-54" d="M -19 4666 
L 3928 4666 
L 3928 4134 
L 2272 4134 
L 2272 0 
L 1638 0 
L 1638 4134 
L -19 4134 
L -19 4666 
z
" transform="scale(0.015625)"/>
       <path id="DejaVuSans-20" transform="scale(0.015625)"/>
       <path id="DejaVuSans-74" d="M 1172 4494 
L 1172 3500 
L 2356 3500 
L 2356 3053 
L 1172 3053 
L 1172 1153 
Q 1172 725 1289 603 
Q 1406 481 1766 481 
L 2356 481 
L 2356 0 
L 1766 0 
Q 1100 0 847 248 
Q 594 497 594 1153 
L 594 3053 
L 172 3053 
L 172 3500 
L 594 3500 
L 594 4494 
L 1172 4494 
z
" transform="scale(0.015625)"/>
       <path id="DejaVuSans-6b" d="M 581 4863 
L 1159 4863 
L 1159 1991 
L 2875 3500 
L 3609 3500 
L 1753 1863 
L 3688 0 
L 2938 0 
L 1159 1709 
L 1159 0 
L 581 0 
L 581 4863 
z
" transform="scale(0.015625)"/>
       <path id="DejaVuSans-65" d="M 3597 1894 
L 3597 1613 
L 953 1613 
Q 991 1019 1311 708 
Q 1631 397 2203 397 
Q 2534 397 2845 478 
Q 3156 559 3463 722 
L 3463 178 
Q 3153 47 2828 -22 
Q 2503 -91 2169 -91 
Q 1331 -91 842 396 
Q 353 884 353 1716 
Q 353 2575 817 3079 
Q 1281 3584 2069 3584 
Q 2775 3584 3186 3129 
Q 3597 2675 3597 1894 
z
M 3022 2063 
Q 3016 2534 2758 2815 
Q 2500 3097 2075 3097 
Q 1594 3097 1305 2825 
Q 1016 2553 972 2059 
L 3022 2063 
z
" transform="scale(0.015625)"/>
       <path id="DejaVuSans-6e" d="M 3513 2113 
L 3513 0 
L 2938 0 
L 2938 2094 
Q 2938 2591 2744 2837 
Q 2550 3084 2163 3084 
Q 1697 3084 1428 2787 
Q 1159 2491 1159 1978 
L 1159 0 
L 581 0 
L 581 3500 
L 1159 3500 
L 1159 2956 
Q 1366 3272 1645 3428 
Q 1925 3584 2291 3584 
Q 2894 3584 3203 3211 
Q 3513 2838 3513 2113 
z
" transform="scale(0.015625)"/>
       <path id="DejaVuSans-70" d="M 1159 525 
L 1159 -1331 
L 581 -1331 
L 581 3500 
L 1159 3500 
L 1159 2969 
Q 1341 3281 1617 3432 
Q 1894 3584 2278 3584 
Q 2916 3584 3314 3078 
Q 3713 2572 3713 1747 
Q 3713 922 3314 415 
Q 2916 -91 2278 -91 
Q 1894 -91 1617 61 
Q 1341 213 1159 525 
z
M 3116 1747 
Q 3116 2381 2855 2742 
Q 2594 3103 2138 3103 
Q 1681 3103 1420 2742 
Q 1159 2381 1159 1747 
Q 1159 1113 1420 752 
Q 1681 391 2138 391 
Q 2594 391 2855 752 
Q 3116 1113 3116 1747 
z
" transform="scale(0.015625)"/>
       <path id="DejaVuSans-73" d="M 2834 3397 
L 2834 2853 
Q 2591 2978 2328 3040 
Q 2066 3103 1784 3103 
Q 1356 3103 1142 2972 
Q 928 2841 928 2578 
Q 928 2378 1081 2264 
Q 1234 2150 1697 2047 
L 1894 2003 
Q 2506 1872 2764 1633 
Q 3022 1394 3022 966 
Q 3022 478 2636 193 
Q 2250 -91 1575 -91 
Q 1294 -91 989 -36 
Q 684 19 347 128 
L 347 722 
Q 666 556 975 473 
Q 1284 391 1588 391 
Q 1994 391 2212 530 
Q 2431 669 2431 922 
Q 2431 1156 2273 1281 
Q 2116 1406 1581 1522 
L 1381 1569 
Q 847 1681 609 1914 
Q 372 2147 372 2553 
Q 372 3047 722 3315 
Q 1072 3584 1716 3584 
Q 2034 3584 2315 3537 
Q 2597 3491 2834 3397 
z
" transform="scale(0.015625)"/>
       <path id="DejaVuSans-69" d="M 603 3500 
L 1178 3500 
L 1178 0 
L 603 0 
L 603 3500 
z
M 603 4863 
L 1178 4863 
L 1178 4134 
L 603 4134 
L 603 4863 
z
" transform="scale(0.015625)"/>
      </defs>
      <use xlink:href="#DejaVuSans-43"/>
      <use xlink:href="#DejaVuSans-6f" transform="translate(69.824219 0)"/>
      <use xlink:href="#DejaVuSans-54" transform="translate(131.005859 0)"/>
      <use xlink:href="#DejaVuSans-20" transform="translate(192.089844 0)"/>
      <use xlink:href="#DejaVuSans-74" transform="translate(223.876953 0)"/>
      <use xlink:href="#DejaVuSans-6f" transform="translate(263.085938 0)"/>
      <use xlink:href="#DejaVuSans-6b" transform="translate(324.267578 0)"/>
      <use xlink:href="#DejaVuSans-65" transform="translate(378.552734 0)"/>
      <use xlink:href="#DejaVuSans-6e" transform="translate(440.076172 0)"/>
      <use xlink:href="#DejaVuSans-20" transform="translate(503.455078 0)"/>
      <use xlink:href="#DejaVuSans-70" transform="translate(535.242188 0)"/>
      <use xlink:href="#DejaVuSans-6f" transform="translate(598.71875 0)"/>
      <use xlink:href="#DejaVuSans-73" transform="translate(659.900391 0)"/>
      <use xlink:href="#DejaVuSans-69" transform="translate(712 0)"/>
      <use xlink:href="#DejaVuSans-74" transform="translate(739.783203 0)"/>
      <use xlink:href="#DejaVuSans-69" transform="translate(778.992188 0)"/>
      <use xlink:href="#DejaVuSans-6f" transform="translate(806.775391 0)"/>
      <use xlink:href="#DejaVuSans-6e" transform="translate(867.957031 0)"/>
     </g>
    </g>
   </g>
   <g id="matplotlib.axis_2">
    <g id="ytick_1">
     <g id="line2d_9">
      <defs>
       <path id="mc313fdd6b5" d="M 0 0 
L -3.5 0 
" style="stroke: #000000; stroke-width: 0.8"/>
      </defs>
      <g>
       <use xlink:href="#mc313fdd6b5" x="57.6" y="307.584" style="stroke: #000000; stroke-width: 0.8"/>
      </g>
     </g>
     <g id="text_10">
      <!-- 0.0 -->
      <g transform="translate(34.696875 311.383219) scale(0.1 -0.1)">
       <defs>
        <path id="DejaVuSans-2e" d="M 684 794 
L 1344 794 
L 1344 0 
L 684 0 
L 684 794 
z
" transform="scale(0.015625)"/>
       </defs>
       <use xlink:href="#DejaVuSans-30"/>
       <use xlink:href="#DejaVuSans-2e" transform="translate(63.623047 0)"/>
       <use xlink:href="#DejaVuSans-30" transform="translate(95.410156 0)"/>
      </g>
     </g>
    </g>
    <g id="ytick_2">
     <g id="line2d_10">
      <g>
       <use xlink:href="#mc313fdd6b5" x="57.6" y="254.3616" style="stroke: #000000; stroke-width: 0.8"/>
      </g>
     </g>
     <g id="text_11">
      <!-- 0.2 -->
      <g transform="translate(34.696875 258.160819) scale(0.1 -0.1)">
       <use xlink:href="#DejaVuSans-30"/>
       <use xlink:href="#DejaVuSans-2e" transform="translate(63.623047 0)"/>
       <use xlink:href="#DejaVuSans-32" transform="translate(95.410156 0)"/>
      </g>
     </g>
    </g>
    <g id="ytick_3">
     <g id="line2d_11">
      <g>
       <use xlink:href="#mc313fdd6b5" x="57.6" y="201.1392" style="stroke: #000000; stroke-width: 0.8"/>
      </g>
     </g>
     <g id="text_12">
      <!-- 0.4 -->
      <g transform="translate(34.696875 204.938419) scale(0.1 -0.1)">
       <use xlink:href="#DejaVuSans-30"/>
       <use xlink:href="#DejaVuSans-2e" transform="translate(63.623047 0)"/>
       <use xlink:href="#DejaVuSans-34" transform="translate(95.410156 0)"/>
      </g>
     </g>
    </g>
    <g id="ytick_4">
     <g id="line2d_12">
      <g>
       <use xlink:href="#mc313fdd6b5" x="57.6" y="147.9168" style="stroke: #000000; stroke-width: 0.8"/>
      </g>
     </g>
     <g id="text_13">
      <!-- 0.6 -->
      <g transform="translate(34.696875 151.716019) scale(0.1 -0.1)">
       <use xlink:href="#DejaVuSans-30"/>
       <use xlink:href="#DejaVuSans-2e" transform="translate(63.623047 0)"/>
       <use xlink:href="#DejaVuSans-36" transform="translate(95.410156 0)"/>
      </g>
     </g>
    </g>
    <g id="ytick_5">
     <g id="line2d_13">
      <g>
       <use xlink:href="#mc313fdd6b5" x="57.6" y="94.6944" style="stroke: #000000; stroke-width: 0.8"/>
      </g>
     </g>
     <g id="text_14">
      <!-- 0.8 -->
      <g transform="translate(34.696875 98.493619) scale(0.1 -0.1)">
       <use xlink:href="#DejaVuSans-30"/>
       <use xlink:href="#DejaVuSans-2e" transform="translate(63.623047 0)"/>
       <use xlink:href="#DejaVuSans-38" transform="translate(95.410156 0)"/>
      </g>
     </g>
    </g>
    <g id="ytick_6">
     <g id="line2d_14">
      <g>
       <use xlink:href="#mc313fdd6b5" x="57.6" y="41.472" style="stroke: #000000; stroke-width: 0.8"/>
      </g>
     </g>
     <g id="text_15">
      <!-- 1.0 -->
      <g transform="translate(34.696875 45.271219) scale(0.1 -0.1)">
       <use xlink:href="#DejaVuSans-31"/>
       <use xlink:href="#DejaVuSans-2e" transform="translate(63.623047 0)"/>
       <use xlink:href="#DejaVuSans-30" transform="translate(95.410156 0)"/>
      </g>
     </g>
    </g>
    <g id="text_16">
     <!-- Accuracy -->
     <g transform="translate(28.617187 197.356125) rotate(-90) scale(0.1 -0.1)">
      <defs>
       <path id="DejaVuSans-41" d="M 2188 4044 
L 1331 1722 
L 3047 1722 
L 2188 4044 
z
M 1831 4666 
L 2547 4666 
L 4325 0 
L 3669 0 
L 3244 1197 
L 1141 1197 
L 716 0 
L 50 0 
L 1831 4666 
z
" transform="scale(0.015625)"/>
       <path id="DejaVuSans-63" d="M 3122 3366 
L 3122 2828 
Q 2878 2963 2633 3030 
Q 2388 3097 2138 3097 
Q 1578 3097 1268 2742 
Q 959 2388 959 1747 
Q 959 1106 1268 751 
Q 1578 397 2138 397 
Q 2388 397 2633 464 
Q 2878 531 3122 666 
L 3122 134 
Q 2881 22 2623 -34 
Q 2366 -91 2075 -91 
Q 1284 -91 818 406 
Q 353 903 353 1747 
Q 353 2603 823 3093 
Q 1294 3584 2113 3584 
Q 2378 3584 2631 3529 
Q 2884 3475 3122 3366 
z
" transform="scale(0.015625)"/>
       <path id="DejaVuSans-75" d="M 544 1381 
L 544 3500 
L 1119 3500 
L 1119 1403 
Q 1119 906 1312 657 
Q 1506 409 1894 409 
Q 2359 409 2629 706 
Q 2900 1003 2900 1516 
L 2900 3500 
L 3475 3500 
L 3475 0 
L 2900 0 
L 2900 538 
Q 2691 219 2414 64 
Q 2138 -91 1772 -91 
Q 1169 -91 856 284 
Q 544 659 544 1381 
z
M 1991 3584 
L 1991 3584 
z
" transform="scale(0.015625)"/>
       <path id="DejaVuSans-72" d="M 2631 2963 
Q 2534 3019 2420 3045 
Q 2306 3072 2169 3072 
Q 1681 3072 1420 2755 
Q 1159 2438 1159 1844 
L 1159 0 
L 581 0 
L 581 3500 
L 1159 3500 
L 1159 2956 
Q 1341 3275 1631 3429 
Q 1922 3584 2338 3584 
Q 2397 3584 2469 3576 
Q 2541 3569 2628 3553 
L 2631 2963 
z
" transform="scale(0.015625)"/>
       <path id="DejaVuSans-61" d="M 2194 1759 
Q 1497 1759 1228 1600 
Q 959 1441 959 1056 
Q 959 750 1161 570 
Q 1363 391 1709 391 
Q 2188 391 2477 730 
Q 2766 1069 2766 1631 
L 2766 1759 
L 2194 1759 
z
M 3341 1997 
L 3341 0 
L 2766 0 
L 2766 531 
Q 2569 213 2275 61 
Q 1981 -91 1556 -91 
Q 1019 -91 701 211 
Q 384 513 384 1019 
Q 384 1609 779 1909 
Q 1175 2209 1959 2209 
L 2766 2209 
L 2766 2266 
Q 2766 2663 2505 2880 
Q 2244 3097 1772 3097 
Q 1472 3097 1187 3025 
Q 903 2953 641 2809 
L 641 3341 
Q 956 3463 1253 3523 
Q 1550 3584 1831 3584 
Q 2591 3584 2966 3190 
Q 3341 2797 3341 1997 
z
" transform="scale(0.015625)"/>
       <path id="DejaVuSans-79" d="M 2059 -325 
Q 1816 -950 1584 -1140 
Q 1353 -1331 966 -1331 
L 506 -1331 
L 506 -850 
L 844 -850 
Q 1081 -850 1212 -737 
Q 1344 -625 1503 -206 
L 1606 56 
L 191 3500 
L 800 3500 
L 1894 763 
L 2988 3500 
L 3597 3500 
L 2059 -325 
z
" transform="scale(0.015625)"/>
      </defs>
      <use xlink:href="#DejaVuSans-41"/>
      <use xlink:href="#DejaVuSans-63" transform="translate(66.658203 0)"/>
      <use xlink:href="#DejaVuSans-63" transform="translate(121.638672 0)"/>
      <use xlink:href="#DejaVuSans-75" transform="translate(176.619141 0)"/>
      <use xlink:href="#DejaVuSans-72" transform="translate(239.998047 0)"/>
      <use xlink:href="#DejaVuSans-61" transform="translate(281.111328 0)"/>
      <use xlink:href="#DejaVuSans-63" transform="translate(342.390625 0)"/>
      <use xlink:href="#DejaVuSans-79" transform="translate(397.371094 0)"/>
     </g>
    </g>
   </g>
   <g id="line2d_15">
    <path d="M 73.832727 264.93171 
L 76.011617 267.287188 
L 78.190506 271.377967 
L 80.369396 267.287188 
L 82.548286 270.263288 
L 84.727175 274.096745 
L 89.084954 272.25976 
L 91.263844 278.562697 
L 95.621623 278.562697 
L 97.800513 283.439451 
L 99.979402 279.241242 
L 102.158292 284.978059 
L 104.337181 282.254608 
L 106.516071 282.481549 
L 108.69496 280.757367 
L 110.87385 280.757367 
L 113.052739 279.972773 
L 115.231629 276.722741 
L 117.410519 275.916532 
L 119.589408 275.916534 
L 121.768298 278.562697 
L 123.947187 275.169245 
L 126.126077 279.241242 
L 128.304966 275.916532 
L 130.483856 278.562697 
L 132.662746 279.24124 
L 134.841635 282.916434 
L 137.020525 278.511773 
L 139.199414 280.757369 
L 141.378304 282.25461 
L 143.557193 282.916435 
L 145.736083 285.575231 
L 147.914973 282.916435 
L 150.093862 280.757367 
L 152.272752 280.757367 
L 154.451641 275.113179 
L 156.630531 268.583649 
L 160.98831 268.583645 
L 163.1672 273.815858 
L 165.346089 272.904011 
L 167.524979 275.131203 
L 169.703868 273.815858 
L 171.882758 277.33266 
L 174.061647 275.131201 
L 176.240537 282.481549 
L 178.419426 281.609046 
L 180.598316 287.617575 
L 182.777206 285.182867 
L 184.956095 282.481547 
L 187.134985 286.214886 
L 189.313874 287.970724 
L 191.492764 289.192504 
L 193.671653 292.704765 
L 195.850543 293.839195 
L 198.029433 292.704765 
L 200.208322 294.366281 
L 202.387212 289.192504 
L 204.566101 287.433189 
L 206.744991 289.158781 
L 208.92388 287.970726 
L 211.10277 286.933732 
L 213.28166 286.93373 
L 215.460549 285.575227 
L 217.639439 287.433187 
L 219.818328 286.471934 
L 221.997218 284.978059 
L 224.176107 284.978059 
L 226.354997 281.640335 
L 228.533887 281.640337 
L 230.712776 284.423477 
L 232.891666 282.916435 
L 235.070555 284.978059 
L 237.249445 287.433187 
L 239.428334 287.433185 
L 241.607224 285.575227 
L 243.786113 279.972773 
L 245.965003 285.575227 
L 248.143893 292.879749 
L 250.322782 291.217512 
L 252.501672 294.522739 
L 254.680561 291.857803 
L 256.859451 290.190485 
L 259.03834 283.910962 
L 261.21723 290.848214 
L 263.39612 300.045994 
L 265.575009 299.233753 
L 267.753899 299.798249 
L 269.932788 295.60548 
L 272.111678 293.03832 
L 274.290567 286.896212 
L 276.469457 295.850925 
L 278.648347 296.956785 
L 280.827236 299.798249 
L 283.006126 298.928661 
L 285.185015 298.928662 
L 287.363905 296.755822 
L 289.542794 296.956785 
L 291.721684 295.850925 
L 293.900574 291.220676 
L 296.079463 294.366281 
L 298.258353 296.755822 
L 300.437242 296.755822 
L 302.616132 296.572053 
L 304.795021 297.818507 
L 306.973911 297.818507 
L 309.1528 295.605479 
L 311.33169 288.546191 
L 313.51058 296.713422 
L 315.689469 288.546191 
L 317.868359 297.413061 
L 320.047248 297.413062 
L 322.226138 298.795824 
L 324.405027 296.755822 
L 326.583917 286.026229 
L 328.762807 296.11717 
L 330.941696 296.572054 
L 333.120586 300.045994 
L 335.299475 299.233753 
L 337.478365 297.669287 
L 339.657254 297.533762 
L 341.836144 290.640765 
L 344.015034 296.956785 
L 346.193923 301.574153 
L 348.372813 301.396272 
L 352.730592 300.341892 
L 354.909481 299.233754 
L 357.088371 298.795833 
L 359.267261 298.795833 
L 361.44615 299.595326 
L 363.62504 297.393791 
L 365.803929 297.175675 
L 367.982819 295.33266 
L 370.161708 288.376499 
L 372.340598 261.133509 
L 374.519487 262.824195 
L 376.698377 269.955447 
L 378.877267 262.847738 
L 381.056156 268.44124 
L 383.235046 266.240198 
L 385.413935 268.441244 
L 387.592825 268.44124 
L 389.771714 266.511576 
L 391.950604 254.863465 
L 394.129494 254.863461 
L 396.308383 252.759261 
L 398.487273 79.986113 
L 398.487273 79.986113 
" clip-path="url(#p4a7cc63b54)" style="fill: none; stroke: #0000ff; stroke-width: 1.5; stroke-linecap: square"/>
   </g>
   <g id="line2d_16">
    <path d="M 73.832727 259.507763 
L 76.011617 251.183805 
L 78.190506 260.262506 
L 80.369396 255.201986 
L 82.548286 261.498962 
L 84.727175 263.874707 
L 86.906065 257.975506 
L 89.084954 263.874711 
L 91.263844 256.539813 
L 93.442733 257.975502 
L 95.621623 261.498962 
L 97.800513 254.386145 
L 99.979402 254.386141 
L 102.158292 259.507759 
L 104.337181 265.733204 
L 106.516071 267.308808 
L 108.69496 261.133505 
L 110.87385 261.980026 
L 113.052739 264.643431 
L 115.231629 237.218807 
L 117.410519 218.880005 
L 119.589408 222.649628 
L 121.768298 175.317745 
L 123.947187 251.400648 
L 126.126077 257.060764 
L 128.304966 245.021564 
L 130.483856 258.054885 
L 132.662746 250.757681 
L 134.841635 256.144223 
L 137.020525 254.204083 
L 139.199414 256.144223 
L 141.378304 256.144223 
L 143.557193 250.757685 
L 145.736083 252.759257 
L 147.914973 258.001019 
L 150.093862 266.240198 
L 152.272752 257.060764 
L 154.451641 268.956688 
L 156.630531 257.060772 
L 158.80942 259.339255 
L 160.98831 248.670128 
L 163.1672 259.339255 
L 165.346089 256.741048 
L 167.524979 251.400648 
L 169.703868 242.737356 
L 171.882758 268.441244 
L 174.061647 272.904011 
L 176.240537 269.955451 
L 178.419426 276.722741 
L 180.598316 259.507759 
L 182.777206 262.824195 
L 184.956095 264.93171 
L 187.134985 262.847742 
L 189.313874 264.643435 
L 191.492764 257.060768 
L 193.671653 261.684819 
L 195.850543 283.910964 
L 198.029433 286.714129 
L 200.208322 291.217512 
L 202.387212 265.733204 
L 204.566101 261.980034 
L 206.744991 248.865863 
L 208.92388 249.379165 
L 211.10277 259.949399 
L 213.28166 248.670132 
L 215.460549 248.670132 
L 217.639439 251.745235 
L 219.818328 256.144227 
L 221.997218 252.759257 
L 226.354997 259.507759 
L 228.533887 256.144227 
L 230.712776 261.133509 
L 232.891666 258.001019 
L 235.070555 256.144223 
L 237.249445 247.118087 
L 239.428334 241.079182 
L 241.607224 247.118091 
L 243.786113 256.741044 
L 245.965003 246.030126 
L 248.143893 287.733227 
L 250.322782 299.814485 
L 252.501672 295.095561 
L 254.680561 264.446871 
L 256.859451 254.204079 
L 259.03834 244.971596 
L 261.21723 259.507759 
L 263.39612 295.687836 
L 265.575009 300.066601 
L 267.753899 295.87867 
L 269.932788 271.397743 
L 274.290567 257.060768 
L 276.469457 262.847738 
L 278.648347 283.910962 
L 280.827236 282.25461 
L 283.006126 272.563223 
L 285.185015 270.263288 
L 287.363905 267.308808 
L 289.542794 246.03013 
L 291.721684 266.06931 
L 296.079463 263.874711 
L 298.258353 263.874715 
L 300.437242 248.865859 
L 302.616132 247.088537 
L 304.795021 247.088537 
L 306.973911 262.897424 
L 309.1528 222.896457 
L 311.33169 249.379161 
L 313.51058 238.790025 
L 315.689469 150.356833 
L 317.868359 176.066273 
L 320.047248 179.577679 
L 322.226138 239.524357 
L 324.405027 236.63485 
L 326.583917 232.739564 
L 328.762807 232.224176 
L 330.941696 236.63485 
L 333.120586 222.649628 
L 335.299475 248.670132 
L 337.478365 257.060768 
L 339.657254 238.790025 
L 341.836144 226.551742 
L 344.015034 237.218807 
L 346.193923 271.397743 
L 348.372813 274.479846 
L 350.551702 277.923829 
L 352.730592 272.904011 
L 354.909481 268.441236 
L 357.088371 272.433099 
L 359.267261 270.66822 
L 361.44615 266.511584 
L 363.62504 261.98003 
L 365.803929 213.314011 
L 367.982819 195.199903 
L 370.161708 87.251573 
L 372.340598 42.25835 
L 374.519487 41.996699 
L 376.698377 45.120037 
L 378.877267 44.856609 
L 381.056156 53.784577 
L 383.235046 58.288168 
L 385.413935 62.247629 
L 387.592825 69.912625 
L 389.771714 65.463456 
L 391.950604 76.048619 
L 394.129494 106.787039 
L 396.308383 78.568871 
L 398.487273 41.596814 
L 398.487273 41.596814 
" clip-path="url(#p4a7cc63b54)" style="fill: none; stroke: #ffa500; stroke-width: 1.5; stroke-linecap: square"/>
   </g>
   <g id="line2d_17">
    <path d="M 73.832727 216.678824 
L 78.190506 201.182944 
L 80.369396 207.236506 
L 82.548286 207.236514 
L 84.727175 209.056385 
L 86.906065 211.040398 
L 91.263844 211.040406 
L 93.442733 203.226787 
L 95.621623 211.040406 
L 97.800513 209.056385 
L 99.979402 216.678816 
L 102.158292 211.040398 
L 104.337181 218.590858 
L 106.516071 209.056385 
L 108.69496 211.040406 
L 110.87385 211.040406 
L 113.052739 203.226779 
L 115.231629 207.236506 
L 117.410519 201.182952 
L 119.589408 201.182944 
L 121.768298 209.056385 
L 123.947187 203.226787 
L 126.126077 201.182952 
L 128.304966 207.236514 
L 130.483856 201.182952 
L 132.662746 201.182952 
L 134.841635 203.226787 
L 139.199414 203.226779 
L 141.378304 209.056385 
L 143.557193 211.040406 
L 145.736083 218.590858 
L 147.914973 216.678816 
L 150.093862 213.194169 
L 152.272752 207.857191 
L 154.451641 211.040406 
L 156.630531 203.226779 
L 158.80942 201.182952 
L 160.98831 203.226787 
L 163.1672 209.056377 
L 165.346089 205.449873 
L 167.524979 203.226787 
L 169.703868 203.226779 
L 171.882758 205.449873 
L 176.240537 205.449873 
L 178.419426 213.194169 
L 180.598316 213.194169 
L 182.777206 218.590858 
L 184.956095 213.194177 
L 198.029433 213.194177 
L 200.208322 218.590858 
L 202.387212 213.194177 
L 204.566101 218.59085 
L 206.744991 215.521433 
L 208.92388 218.590858 
L 211.10277 218.590858 
L 213.28166 220.662522 
L 215.460549 218.590858 
L 217.639439 220.66253 
L 221.997218 220.66253 
L 224.176107 218.590866 
L 226.354997 220.66253 
L 228.533887 220.66253 
L 230.712776 218.590858 
L 232.891666 220.66253 
L 235.070555 215.521441 
L 237.249445 222.896473 
L 239.428334 215.521441 
L 241.607224 225.292989 
L 243.786113 218.023642 
L 245.965003 222.896457 
L 248.143893 220.66253 
L 252.501672 220.66253 
L 254.680561 222.896465 
L 256.859451 220.662522 
L 263.39612 220.66253 
L 265.575009 227.814461 
L 269.932788 227.814461 
L 272.111678 222.896457 
L 274.290567 222.896465 
L 276.469457 220.662522 
L 278.648347 225.835484 
L 280.827236 227.814469 
L 300.437242 227.814469 
L 302.616132 229.944242 
L 304.795021 227.814461 
L 306.973911 220.662522 
L 309.1528 227.814461 
L 311.33169 227.814469 
L 313.51058 225.835484 
L 315.689469 227.814469 
L 317.868359 220.662522 
L 320.047248 224.005661 
L 322.226138 225.835484 
L 324.405027 225.835484 
L 326.583917 220.66253 
L 328.762807 220.66253 
L 330.941696 225.835492 
L 333.120586 220.662522 
L 335.299475 225.835484 
L 337.478365 220.66253 
L 339.657254 227.814461 
L 341.836144 222.896473 
L 344.015034 220.66253 
L 346.193923 220.66253 
L 348.372813 227.814461 
L 350.551702 225.835492 
L 361.44615 225.835484 
L 363.62504 224.005661 
L 365.803929 227.814469 
L 367.982819 225.835492 
L 370.161708 232.739572 
L 372.340598 225.835492 
L 374.519487 220.66253 
L 376.698377 220.66253 
L 378.877267 218.590858 
L 381.056156 215.521433 
L 385.413935 215.521441 
L 387.592825 218.02365 
L 391.950604 218.023642 
L 394.129494 227.849793 
L 396.308383 227.849793 
L 398.487273 160.026185 
L 398.487273 160.026185 
" clip-path="url(#p4a7cc63b54)" style="fill: none; stroke: #008000; stroke-width: 1.5; stroke-linecap: square"/>
   </g>
   <g id="patch_3">
    <path d="M 57.6 307.584 
L 57.6 41.472 
" style="fill: none; stroke: #000000; stroke-width: 0.8; stroke-linejoin: miter; stroke-linecap: square"/>
   </g>
   <g id="patch_4">
    <path d="M 414.72 307.584 
L 414.72 41.472 
" style="fill: none; stroke: #000000; stroke-width: 0.8; stroke-linejoin: miter; stroke-linecap: square"/>
   </g>
   <g id="patch_5">
    <path d="M 57.6 307.584 
L 414.72 307.584 
" style="fill: none; stroke: #000000; stroke-width: 0.8; stroke-linejoin: miter; stroke-linecap: square"/>
   </g>
   <g id="patch_6">
    <path d="M 57.6 41.472 
L 414.72 41.472 
" style="fill: none; stroke: #000000; stroke-width: 0.8; stroke-linejoin: miter; stroke-linecap: square"/>
   </g>
   <g id="text_17">
    <!-- tracking_shuffled_objects_three_objects Q4 -->
    <g transform="translate(105.940313 31.472) scale(0.12 -0.12)">
     <defs>
      <path id="DejaVuSans-67" d="M 2906 1791 
Q 2906 2416 2648 2759 
Q 2391 3103 1925 3103 
Q 1463 3103 1205 2759 
Q 947 2416 947 1791 
Q 947 1169 1205 825 
Q 1463 481 1925 481 
Q 2391 481 2648 825 
Q 2906 1169 2906 1791 
z
M 3481 434 
Q 3481 -459 3084 -895 
Q 2688 -1331 1869 -1331 
Q 1566 -1331 1297 -1286 
Q 1028 -1241 775 -1147 
L 775 -588 
Q 1028 -725 1275 -790 
Q 1522 -856 1778 -856 
Q 2344 -856 2625 -561 
Q 2906 -266 2906 331 
L 2906 616 
Q 2728 306 2450 153 
Q 2172 0 1784 0 
Q 1141 0 747 490 
Q 353 981 353 1791 
Q 353 2603 747 3093 
Q 1141 3584 1784 3584 
Q 2172 3584 2450 3431 
Q 2728 3278 2906 2969 
L 2906 3500 
L 3481 3500 
L 3481 434 
z
" transform="scale(0.015625)"/>
      <path id="DejaVuSans-5f" d="M 3263 -1063 
L 3263 -1509 
L -63 -1509 
L -63 -1063 
L 3263 -1063 
z
" transform="scale(0.015625)"/>
      <path id="DejaVuSans-68" d="M 3513 2113 
L 3513 0 
L 2938 0 
L 2938 2094 
Q 2938 2591 2744 2837 
Q 2550 3084 2163 3084 
Q 1697 3084 1428 2787 
Q 1159 2491 1159 1978 
L 1159 0 
L 581 0 
L 581 4863 
L 1159 4863 
L 1159 2956 
Q 1366 3272 1645 3428 
Q 1925 3584 2291 3584 
Q 2894 3584 3203 3211 
Q 3513 2838 3513 2113 
z
" transform="scale(0.015625)"/>
      <path id="DejaVuSans-66" d="M 2375 4863 
L 2375 4384 
L 1825 4384 
Q 1516 4384 1395 4259 
Q 1275 4134 1275 3809 
L 1275 3500 
L 2222 3500 
L 2222 3053 
L 1275 3053 
L 1275 0 
L 697 0 
L 697 3053 
L 147 3053 
L 147 3500 
L 697 3500 
L 697 3744 
Q 697 4328 969 4595 
Q 1241 4863 1831 4863 
L 2375 4863 
z
" transform="scale(0.015625)"/>
      <path id="DejaVuSans-6c" d="M 603 4863 
L 1178 4863 
L 1178 0 
L 603 0 
L 603 4863 
z
" transform="scale(0.015625)"/>
      <path id="DejaVuSans-64" d="M 2906 2969 
L 2906 4863 
L 3481 4863 
L 3481 0 
L 2906 0 
L 2906 525 
Q 2725 213 2448 61 
Q 2172 -91 1784 -91 
Q 1150 -91 751 415 
Q 353 922 353 1747 
Q 353 2572 751 3078 
Q 1150 3584 1784 3584 
Q 2172 3584 2448 3432 
Q 2725 3281 2906 2969 
z
M 947 1747 
Q 947 1113 1208 752 
Q 1469 391 1925 391 
Q 2381 391 2643 752 
Q 2906 1113 2906 1747 
Q 2906 2381 2643 2742 
Q 2381 3103 1925 3103 
Q 1469 3103 1208 2742 
Q 947 2381 947 1747 
z
" transform="scale(0.015625)"/>
      <path id="DejaVuSans-62" d="M 3116 1747 
Q 3116 2381 2855 2742 
Q 2594 3103 2138 3103 
Q 1681 3103 1420 2742 
Q 1159 2381 1159 1747 
Q 1159 1113 1420 752 
Q 1681 391 2138 391 
Q 2594 391 2855 752 
Q 3116 1113 3116 1747 
z
M 1159 2969 
Q 1341 3281 1617 3432 
Q 1894 3584 2278 3584 
Q 2916 3584 3314 3078 
Q 3713 2572 3713 1747 
Q 3713 922 3314 415 
Q 2916 -91 2278 -91 
Q 1894 -91 1617 61 
Q 1341 213 1159 525 
L 1159 0 
L 581 0 
L 581 4863 
L 1159 4863 
L 1159 2969 
z
" transform="scale(0.015625)"/>
      <path id="DejaVuSans-6a" d="M 603 3500 
L 1178 3500 
L 1178 -63 
Q 1178 -731 923 -1031 
Q 669 -1331 103 -1331 
L -116 -1331 
L -116 -844 
L 38 -844 
Q 366 -844 484 -692 
Q 603 -541 603 -63 
L 603 3500 
z
M 603 4863 
L 1178 4863 
L 1178 4134 
L 603 4134 
L 603 4863 
z
" transform="scale(0.015625)"/>
      <path id="DejaVuSans-51" d="M 2522 4238 
Q 1834 4238 1429 3725 
Q 1025 3213 1025 2328 
Q 1025 1447 1429 934 
Q 1834 422 2522 422 
Q 3209 422 3611 934 
Q 4013 1447 4013 2328 
Q 4013 3213 3611 3725 
Q 3209 4238 2522 4238 
z
M 3406 84 
L 4238 -825 
L 3475 -825 
L 2784 -78 
Q 2681 -84 2626 -87 
Q 2572 -91 2522 -91 
Q 1538 -91 948 567 
Q 359 1225 359 2328 
Q 359 3434 948 4092 
Q 1538 4750 2522 4750 
Q 3503 4750 4090 4092 
Q 4678 3434 4678 2328 
Q 4678 1516 4351 937 
Q 4025 359 3406 84 
z
" transform="scale(0.015625)"/>
     </defs>
     <use xlink:href="#DejaVuSans-74"/>
     <use xlink:href="#DejaVuSans-72" transform="translate(39.208984 0)"/>
     <use xlink:href="#DejaVuSans-61" transform="translate(80.322266 0)"/>
     <use xlink:href="#DejaVuSans-63" transform="translate(141.601562 0)"/>
     <use xlink:href="#DejaVuSans-6b" transform="translate(196.582031 0)"/>
     <use xlink:href="#DejaVuSans-69" transform="translate(254.492188 0)"/>
     <use xlink:href="#DejaVuSans-6e" transform="translate(282.275391 0)"/>
     <use xlink:href="#DejaVuSans-67" transform="translate(345.654297 0)"/>
     <use xlink:href="#DejaVuSans-5f" transform="translate(409.130859 0)"/>
     <use xlink:href="#DejaVuSans-73" transform="translate(459.130859 0)"/>
     <use xlink:href="#DejaVuSans-68" transform="translate(511.230469 0)"/>
     <use xlink:href="#DejaVuSans-75" transform="translate(574.609375 0)"/>
     <use xlink:href="#DejaVuSans-66" transform="translate(637.988281 0)"/>
     <use xlink:href="#DejaVuSans-66" transform="translate(673.193359 0)"/>
     <use xlink:href="#DejaVuSans-6c" transform="translate(708.398438 0)"/>
     <use xlink:href="#DejaVuSans-65" transform="translate(736.181641 0)"/>
     <use xlink:href="#DejaVuSans-64" transform="translate(797.705078 0)"/>
     <use xlink:href="#DejaVuSans-5f" transform="translate(861.181641 0)"/>
     <use xlink:href="#DejaVuSans-6f" transform="translate(911.181641 0)"/>
     <use xlink:href="#DejaVuSans-62" transform="translate(972.363281 0)"/>
     <use xlink:href="#DejaVuSans-6a" transform="translate(1035.839844 0)"/>
     <use xlink:href="#DejaVuSans-65" transform="translate(1063.623047 0)"/>
     <use xlink:href="#DejaVuSans-63" transform="translate(1125.146484 0)"/>
     <use xlink:href="#DejaVuSans-74" transform="translate(1180.126953 0)"/>
     <use xlink:href="#DejaVuSans-73" transform="translate(1219.335938 0)"/>
     <use xlink:href="#DejaVuSans-5f" transform="translate(1271.435547 0)"/>
     <use xlink:href="#DejaVuSans-74" transform="translate(1321.435547 0)"/>
     <use xlink:href="#DejaVuSans-68" transform="translate(1360.644531 0)"/>
     <use xlink:href="#DejaVuSans-72" transform="translate(1424.023438 0)"/>
     <use xlink:href="#DejaVuSans-65" transform="translate(1462.886719 0)"/>
     <use xlink:href="#DejaVuSans-65" transform="translate(1524.410156 0)"/>
     <use xlink:href="#DejaVuSans-5f" transform="translate(1585.933594 0)"/>
     <use xlink:href="#DejaVuSans-6f" transform="translate(1635.933594 0)"/>
     <use xlink:href="#DejaVuSans-62" transform="translate(1697.115234 0)"/>
     <use xlink:href="#DejaVuSans-6a" transform="translate(1760.591797 0)"/>
     <use xlink:href="#DejaVuSans-65" transform="translate(1788.375 0)"/>
     <use xlink:href="#DejaVuSans-63" transform="translate(1849.898438 0)"/>
     <use xlink:href="#DejaVuSans-74" transform="translate(1904.878906 0)"/>
     <use xlink:href="#DejaVuSans-73" transform="translate(1944.087891 0)"/>
     <use xlink:href="#DejaVuSans-20" transform="translate(1996.1875 0)"/>
     <use xlink:href="#DejaVuSans-51" transform="translate(2027.974609 0)"/>
     <use xlink:href="#DejaVuSans-34" transform="translate(2106.685547 0)"/>
    </g>
   </g>
   <g id="legend_1">
    <g id="patch_7">
     <path d="M 64.6 93.506375 
L 150.876563 93.506375 
Q 152.876563 93.506375 152.876563 91.506375 
L 152.876563 48.472 
Q 152.876563 46.472 150.876563 46.472 
L 64.6 46.472 
Q 62.6 46.472 62.6 48.472 
L 62.6 91.506375 
Q 62.6 93.506375 64.6 93.506375 
z
" style="fill: #ffffff; opacity: 0.8; stroke: #cccccc; stroke-linejoin: miter"/>
    </g>
    <g id="line2d_18">
     <path d="M 66.6 54.570438 
L 76.6 54.570438 
L 86.6 54.570438 
" style="fill: none; stroke: #0000ff; stroke-width: 1.5; stroke-linecap: square"/>
    </g>
    <g id="text_18">
     <!-- smooth-3B -->
     <g transform="translate(94.6 58.070438) scale(0.1 -0.1)">
      <defs>
       <path id="DejaVuSans-6d" d="M 3328 2828 
Q 3544 3216 3844 3400 
Q 4144 3584 4550 3584 
Q 5097 3584 5394 3201 
Q 5691 2819 5691 2113 
L 5691 0 
L 5113 0 
L 5113 2094 
Q 5113 2597 4934 2840 
Q 4756 3084 4391 3084 
Q 3944 3084 3684 2787 
Q 3425 2491 3425 1978 
L 3425 0 
L 2847 0 
L 2847 2094 
Q 2847 2600 2669 2842 
Q 2491 3084 2119 3084 
Q 1678 3084 1418 2786 
Q 1159 2488 1159 1978 
L 1159 0 
L 581 0 
L 581 3500 
L 1159 3500 
L 1159 2956 
Q 1356 3278 1631 3431 
Q 1906 3584 2284 3584 
Q 2666 3584 2933 3390 
Q 3200 3197 3328 2828 
z
" transform="scale(0.015625)"/>
       <path id="DejaVuSans-2d" d="M 313 2009 
L 1997 2009 
L 1997 1497 
L 313 1497 
L 313 2009 
z
" transform="scale(0.015625)"/>
       <path id="DejaVuSans-33" d="M 2597 2516 
Q 3050 2419 3304 2112 
Q 3559 1806 3559 1356 
Q 3559 666 3084 287 
Q 2609 -91 1734 -91 
Q 1441 -91 1130 -33 
Q 819 25 488 141 
L 488 750 
Q 750 597 1062 519 
Q 1375 441 1716 441 
Q 2309 441 2620 675 
Q 2931 909 2931 1356 
Q 2931 1769 2642 2001 
Q 2353 2234 1838 2234 
L 1294 2234 
L 1294 2753 
L 1863 2753 
Q 2328 2753 2575 2939 
Q 2822 3125 2822 3475 
Q 2822 3834 2567 4026 
Q 2313 4219 1838 4219 
Q 1578 4219 1281 4162 
Q 984 4106 628 3988 
L 628 4550 
Q 988 4650 1302 4700 
Q 1616 4750 1894 4750 
Q 2613 4750 3031 4423 
Q 3450 4097 3450 3541 
Q 3450 3153 3228 2886 
Q 3006 2619 2597 2516 
z
" transform="scale(0.015625)"/>
       <path id="DejaVuSans-42" d="M 1259 2228 
L 1259 519 
L 2272 519 
Q 2781 519 3026 730 
Q 3272 941 3272 1375 
Q 3272 1813 3026 2020 
Q 2781 2228 2272 2228 
L 1259 2228 
z
M 1259 4147 
L 1259 2741 
L 2194 2741 
Q 2656 2741 2882 2914 
Q 3109 3088 3109 3444 
Q 3109 3797 2882 3972 
Q 2656 4147 2194 4147 
L 1259 4147 
z
M 628 4666 
L 2241 4666 
Q 2963 4666 3353 4366 
Q 3744 4066 3744 3513 
Q 3744 3084 3544 2831 
Q 3344 2578 2956 2516 
Q 3422 2416 3680 2098 
Q 3938 1781 3938 1306 
Q 3938 681 3513 340 
Q 3088 0 2303 0 
L 628 0 
L 628 4666 
z
" transform="scale(0.015625)"/>
      </defs>
      <use xlink:href="#DejaVuSans-73"/>
      <use xlink:href="#DejaVuSans-6d" transform="translate(52.099609 0)"/>
      <use xlink:href="#DejaVuSans-6f" transform="translate(149.511719 0)"/>
      <use xlink:href="#DejaVuSans-6f" transform="translate(210.693359 0)"/>
      <use xlink:href="#DejaVuSans-74" transform="translate(271.875 0)"/>
      <use xlink:href="#DejaVuSans-68" transform="translate(311.083984 0)"/>
      <use xlink:href="#DejaVuSans-2d" transform="translate(374.462891 0)"/>
      <use xlink:href="#DejaVuSans-33" transform="translate(410.546875 0)"/>
      <use xlink:href="#DejaVuSans-42" transform="translate(474.169922 0)"/>
     </g>
    </g>
    <g id="line2d_19">
     <path d="M 66.6 69.248563 
L 76.6 69.248563 
L 86.6 69.248563 
" style="fill: none; stroke: #ffa500; stroke-width: 1.5; stroke-linecap: square"/>
    </g>
    <g id="text_19">
     <!-- abrupt-3B -->
     <g transform="translate(94.6 72.748563) scale(0.1 -0.1)">
      <use xlink:href="#DejaVuSans-61"/>
      <use xlink:href="#DejaVuSans-62" transform="translate(61.279297 0)"/>
      <use xlink:href="#DejaVuSans-72" transform="translate(124.755859 0)"/>
      <use xlink:href="#DejaVuSans-75" transform="translate(165.869141 0)"/>
      <use xlink:href="#DejaVuSans-70" transform="translate(229.248047 0)"/>
      <use xlink:href="#DejaVuSans-74" transform="translate(292.724609 0)"/>
      <use xlink:href="#DejaVuSans-2d" transform="translate(331.933594 0)"/>
      <use xlink:href="#DejaVuSans-33" transform="translate(368.017578 0)"/>
      <use xlink:href="#DejaVuSans-42" transform="translate(431.640625 0)"/>
     </g>
    </g>
    <g id="line2d_20">
     <path d="M 66.6 83.926688 
L 76.6 83.926688 
L 86.6 83.926688 
" style="fill: none; stroke: #008000; stroke-width: 1.5; stroke-linecap: square"/>
    </g>
    <g id="text_20">
     <!-- smooth-1B -->
     <g transform="translate(94.6 87.426688) scale(0.1 -0.1)">
      <use xlink:href="#DejaVuSans-73"/>
      <use xlink:href="#DejaVuSans-6d" transform="translate(52.099609 0)"/>
      <use xlink:href="#DejaVuSans-6f" transform="translate(149.511719 0)"/>
      <use xlink:href="#DejaVuSans-6f" transform="translate(210.693359 0)"/>
      <use xlink:href="#DejaVuSans-74" transform="translate(271.875 0)"/>
      <use xlink:href="#DejaVuSans-68" transform="translate(311.083984 0)"/>
      <use xlink:href="#DejaVuSans-2d" transform="translate(374.462891 0)"/>
      <use xlink:href="#DejaVuSans-31" transform="translate(410.546875 0)"/>
      <use xlink:href="#DejaVuSans-42" transform="translate(474.169922 0)"/>
     </g>
    </g>
   </g>
  </g>
 </g>
 <defs>
  <clipPath id="p4a7cc63b54">
   <rect x="57.6" y="41.472" width="357.12" height="266.112"/>
  </clipPath>
 </defs>
</svg>
