<?xml version="1.0" encoding="utf-8" standalone="no"?>
<!DOCTYPE svg PUBLIC "-//W3C//DTD SVG 1.1//EN"
  "http://www.w3.org/Graphics/SVG/1.1/DTD/svg11.dtd">
<svg xmlns:xlink="http://www.w3.org/1999/xlink" width="460.8pt" height="345.6pt" viewBox="0 0 460.8 345.6" xmlns="http://www.w3.org/2000/svg" version="1.1">
 <metadata>
  <rdf:RDF xmlns:dc="http://purl.org/dc/elements/1.1/" xmlns:cc="http://creativecommons.org/ns#" xmlns:rdf="http://www.w3.org/1999/02/22-rdf-syntax-ns#">
   <cc:Work>
    <dc:type rdf:resource="http://purl.org/dc/dcmitype/StillImage"/>
    <dc:date>2025-05-14T18:14:19.657815</dc:date>
    <dc:format>image/svg+xml</dc:format>
    <dc:creator>
     <cc:Agent>
      <dc:title>Matplotlib v3.10.3, https://matplotlib.org/</dc:title>
     </cc:Agent>
    </dc:creator>
   </cc:Work>
  </rdf:RDF>
 </metadata>
 <defs>
  <style type="text/css">*{stroke-linejoin: round; stroke-linecap: butt}</style>
 </defs>
 <g id="figure_1">
  <g id="patch_1">
   <path d="M 0 345.6 
L 460.8 345.6 
L 460.8 0 
L 0 0 
z
" style="fill: #ffffff"/>
  </g>
  <g id="axes_1">
   <g id="patch_2">
    <path d="M 57.6 307.584 
L 414.72 307.584 
L 414.72 41.472 
L 57.6 41.472 
z
" style="fill: #ffffff"/>
   </g>
   <g id="matplotlib.axis_1">
    <g id="xtick_1">
     <g id="line2d_1">
      <defs>
       <path id="m794182a019" d="M 0 0 
L 0 3.5 
" style="stroke: #000000; stroke-width: 0.8"/>
      </defs>
      <g>
       <use xlink:href="#m794182a019" x="73.832727" y="307.584" style="stroke: #000000; stroke-width: 0.8"/>
      </g>
     </g>
     <g id="text_1">
      <!-- 0 -->
      <g transform="translate(70.651477 322.182437) scale(0.1 -0.1)">
       <defs>
        <path id="DejaVuSans-30" d="M 2034 4250 
Q 1547 4250 1301 3770 
Q 1056 3291 1056 2328 
Q 1056 1369 1301 889 
Q 1547 409 2034 409 
Q 2525 409 2770 889 
Q 3016 1369 3016 2328 
Q 3016 3291 2770 3770 
Q 2525 4250 2034 4250 
z
M 2034 4750 
Q 2819 4750 3233 4129 
Q 3647 3509 3647 2328 
Q 3647 1150 3233 529 
Q 2819 -91 2034 -91 
Q 1250 -91 836 529 
Q 422 1150 422 2328 
Q 422 3509 836 4129 
Q 1250 4750 2034 4750 
z
" transform="scale(0.015625)"/>
       </defs>
       <use xlink:href="#DejaVuSans-30"/>
      </g>
     </g>
    </g>
    <g id="xtick_2">
     <g id="line2d_2">
      <g>
       <use xlink:href="#m794182a019" x="151.131429" y="307.584" style="stroke: #000000; stroke-width: 0.8"/>
      </g>
     </g>
     <g id="text_2">
      <!-- 50 -->
      <g transform="translate(144.768929 322.182437) scale(0.1 -0.1)">
       <defs>
        <path id="DejaVuSans-35" d="M 691 4666 
L 3169 4666 
L 3169 4134 
L 1269 4134 
L 1269 2991 
Q 1406 3038 1543 3061 
Q 1681 3084 1819 3084 
Q 2600 3084 3056 2656 
Q 3513 2228 3513 1497 
Q 3513 744 3044 326 
Q 2575 -91 1722 -91 
Q 1428 -91 1123 -41 
Q 819 9 494 109 
L 494 744 
Q 775 591 1075 516 
Q 1375 441 1709 441 
Q 2250 441 2565 725 
Q 2881 1009 2881 1497 
Q 2881 1984 2565 2268 
Q 2250 2553 1709 2553 
Q 1456 2553 1204 2497 
Q 953 2441 691 2322 
L 691 4666 
z
" transform="scale(0.015625)"/>
       </defs>
       <use xlink:href="#DejaVuSans-35"/>
       <use xlink:href="#DejaVuSans-30" transform="translate(63.623047 0)"/>
      </g>
     </g>
    </g>
    <g id="xtick_3">
     <g id="line2d_3">
      <g>
       <use xlink:href="#m794182a019" x="228.43013" y="307.584" style="stroke: #000000; stroke-width: 0.8"/>
      </g>
     </g>
     <g id="text_3">
      <!-- 100 -->
      <g transform="translate(218.88638 322.182437) scale(0.1 -0.1)">
       <defs>
        <path id="DejaVuSans-31" d="M 794 531 
L 1825 531 
L 1825 4091 
L 703 3866 
L 703 4441 
L 1819 4666 
L 2450 4666 
L 2450 531 
L 3481 531 
L 3481 0 
L 794 0 
L 794 531 
z
" transform="scale(0.015625)"/>
       </defs>
       <use xlink:href="#DejaVuSans-31"/>
       <use xlink:href="#DejaVuSans-30" transform="translate(63.623047 0)"/>
       <use xlink:href="#DejaVuSans-30" transform="translate(127.246094 0)"/>
      </g>
     </g>
    </g>
    <g id="xtick_4">
     <g id="line2d_4">
      <g>
       <use xlink:href="#m794182a019" x="305.728831" y="307.584" style="stroke: #000000; stroke-width: 0.8"/>
      </g>
     </g>
     <g id="text_4">
      <!-- 150 -->
      <g transform="translate(296.185081 322.182437) scale(0.1 -0.1)">
       <use xlink:href="#DejaVuSans-31"/>
       <use xlink:href="#DejaVuSans-35" transform="translate(63.623047 0)"/>
       <use xlink:href="#DejaVuSans-30" transform="translate(127.246094 0)"/>
      </g>
     </g>
    </g>
    <g id="xtick_5">
     <g id="line2d_5">
      <g>
       <use xlink:href="#m794182a019" x="383.027532" y="307.584" style="stroke: #000000; stroke-width: 0.8"/>
      </g>
     </g>
     <g id="text_5">
      <!-- 200 -->
      <g transform="translate(373.483782 322.182437) scale(0.1 -0.1)">
       <defs>
        <path id="DejaVuSans-32" d="M 1228 531 
L 3431 531 
L 3431 0 
L 469 0 
L 469 531 
Q 828 903 1448 1529 
Q 2069 2156 2228 2338 
Q 2531 2678 2651 2914 
Q 2772 3150 2772 3378 
Q 2772 3750 2511 3984 
Q 2250 4219 1831 4219 
Q 1534 4219 1204 4116 
Q 875 4013 500 3803 
L 500 4441 
Q 881 4594 1212 4672 
Q 1544 4750 1819 4750 
Q 2544 4750 2975 4387 
Q 3406 4025 3406 3419 
Q 3406 3131 3298 2873 
Q 3191 2616 2906 2266 
Q 2828 2175 2409 1742 
Q 1991 1309 1228 531 
z
" transform="scale(0.015625)"/>
       </defs>
       <use xlink:href="#DejaVuSans-32"/>
       <use xlink:href="#DejaVuSans-30" transform="translate(63.623047 0)"/>
       <use xlink:href="#DejaVuSans-30" transform="translate(127.246094 0)"/>
      </g>
     </g>
    </g>
    <g id="text_6">
     <!-- CoT token position -->
     <g transform="translate(189.593594 335.860562) scale(0.1 -0.1)">
      <defs>
       <path id="DejaVuSans-43" d="M 4122 4306 
L 4122 3641 
Q 3803 3938 3442 4084 
Q 3081 4231 2675 4231 
Q 1875 4231 1450 3742 
Q 1025 3253 1025 2328 
Q 1025 1406 1450 917 
Q 1875 428 2675 428 
Q 3081 428 3442 575 
Q 3803 722 4122 1019 
L 4122 359 
Q 3791 134 3420 21 
Q 3050 -91 2638 -91 
Q 1578 -91 968 557 
Q 359 1206 359 2328 
Q 359 3453 968 4101 
Q 1578 4750 2638 4750 
Q 3056 4750 3426 4639 
Q 3797 4528 4122 4306 
z
" transform="scale(0.015625)"/>
       <path id="DejaVuSans-6f" d="M 1959 3097 
Q 1497 3097 1228 2736 
Q 959 2375 959 1747 
Q 959 1119 1226 758 
Q 1494 397 1959 397 
Q 2419 397 2687 759 
Q 2956 1122 2956 1747 
Q 2956 2369 2687 2733 
Q 2419 3097 1959 3097 
z
M 1959 3584 
Q 2709 3584 3137 3096 
Q 3566 2609 3566 1747 
Q 3566 888 3137 398 
Q 2709 -91 1959 -91 
Q 1206 -91 779 398 
Q 353 888 353 1747 
Q 353 2609 779 3096 
Q 1206 3584 1959 3584 
z
" transform="scale(0.015625)"/>
       <path id="DejaVuSans-54" d="M -19 4666 
L 3928 4666 
L 3928 4134 
L 2272 4134 
L 2272 0 
L 1638 0 
L 1638 4134 
L -19 4134 
L -19 4666 
z
" transform="scale(0.015625)"/>
       <path id="DejaVuSans-20" transform="scale(0.015625)"/>
       <path id="DejaVuSans-74" d="M 1172 4494 
L 1172 3500 
L 2356 3500 
L 2356 3053 
L 1172 3053 
L 1172 1153 
Q 1172 725 1289 603 
Q 1406 481 1766 481 
L 2356 481 
L 2356 0 
L 1766 0 
Q 1100 0 847 248 
Q 594 497 594 1153 
L 594 3053 
L 172 3053 
L 172 3500 
L 594 3500 
L 594 4494 
L 1172 4494 
z
" transform="scale(0.015625)"/>
       <path id="DejaVuSans-6b" d="M 581 4863 
L 1159 4863 
L 1159 1991 
L 2875 3500 
L 3609 3500 
L 1753 1863 
L 3688 0 
L 2938 0 
L 1159 1709 
L 1159 0 
L 581 0 
L 581 4863 
z
" transform="scale(0.015625)"/>
       <path id="DejaVuSans-65" d="M 3597 1894 
L 3597 1613 
L 953 1613 
Q 991 1019 1311 708 
Q 1631 397 2203 397 
Q 2534 397 2845 478 
Q 3156 559 3463 722 
L 3463 178 
Q 3153 47 2828 -22 
Q 2503 -91 2169 -91 
Q 1331 -91 842 396 
Q 353 884 353 1716 
Q 353 2575 817 3079 
Q 1281 3584 2069 3584 
Q 2775 3584 3186 3129 
Q 3597 2675 3597 1894 
z
M 3022 2063 
Q 3016 2534 2758 2815 
Q 2500 3097 2075 3097 
Q 1594 3097 1305 2825 
Q 1016 2553 972 2059 
L 3022 2063 
z
" transform="scale(0.015625)"/>
       <path id="DejaVuSans-6e" d="M 3513 2113 
L 3513 0 
L 2938 0 
L 2938 2094 
Q 2938 2591 2744 2837 
Q 2550 3084 2163 3084 
Q 1697 3084 1428 2787 
Q 1159 2491 1159 1978 
L 1159 0 
L 581 0 
L 581 3500 
L 1159 3500 
L 1159 2956 
Q 1366 3272 1645 3428 
Q 1925 3584 2291 3584 
Q 2894 3584 3203 3211 
Q 3513 2838 3513 2113 
z
" transform="scale(0.015625)"/>
       <path id="DejaVuSans-70" d="M 1159 525 
L 1159 -1331 
L 581 -1331 
L 581 3500 
L 1159 3500 
L 1159 2969 
Q 1341 3281 1617 3432 
Q 1894 3584 2278 3584 
Q 2916 3584 3314 3078 
Q 3713 2572 3713 1747 
Q 3713 922 3314 415 
Q 2916 -91 2278 -91 
Q 1894 -91 1617 61 
Q 1341 213 1159 525 
z
M 3116 1747 
Q 3116 2381 2855 2742 
Q 2594 3103 2138 3103 
Q 1681 3103 1420 2742 
Q 1159 2381 1159 1747 
Q 1159 1113 1420 752 
Q 1681 391 2138 391 
Q 2594 391 2855 752 
Q 3116 1113 3116 1747 
z
" transform="scale(0.015625)"/>
       <path id="DejaVuSans-73" d="M 2834 3397 
L 2834 2853 
Q 2591 2978 2328 3040 
Q 2066 3103 1784 3103 
Q 1356 3103 1142 2972 
Q 928 2841 928 2578 
Q 928 2378 1081 2264 
Q 1234 2150 1697 2047 
L 1894 2003 
Q 2506 1872 2764 1633 
Q 3022 1394 3022 966 
Q 3022 478 2636 193 
Q 2250 -91 1575 -91 
Q 1294 -91 989 -36 
Q 684 19 347 128 
L 347 722 
Q 666 556 975 473 
Q 1284 391 1588 391 
Q 1994 391 2212 530 
Q 2431 669 2431 922 
Q 2431 1156 2273 1281 
Q 2116 1406 1581 1522 
L 1381 1569 
Q 847 1681 609 1914 
Q 372 2147 372 2553 
Q 372 3047 722 3315 
Q 1072 3584 1716 3584 
Q 2034 3584 2315 3537 
Q 2597 3491 2834 3397 
z
" transform="scale(0.015625)"/>
       <path id="DejaVuSans-69" d="M 603 3500 
L 1178 3500 
L 1178 0 
L 603 0 
L 603 3500 
z
M 603 4863 
L 1178 4863 
L 1178 4134 
L 603 4134 
L 603 4863 
z
" transform="scale(0.015625)"/>
      </defs>
      <use xlink:href="#DejaVuSans-43"/>
      <use xlink:href="#DejaVuSans-6f" transform="translate(69.824219 0)"/>
      <use xlink:href="#DejaVuSans-54" transform="translate(131.005859 0)"/>
      <use xlink:href="#DejaVuSans-20" transform="translate(192.089844 0)"/>
      <use xlink:href="#DejaVuSans-74" transform="translate(223.876953 0)"/>
      <use xlink:href="#DejaVuSans-6f" transform="translate(263.085938 0)"/>
      <use xlink:href="#DejaVuSans-6b" transform="translate(324.267578 0)"/>
      <use xlink:href="#DejaVuSans-65" transform="translate(378.552734 0)"/>
      <use xlink:href="#DejaVuSans-6e" transform="translate(440.076172 0)"/>
      <use xlink:href="#DejaVuSans-20" transform="translate(503.455078 0)"/>
      <use xlink:href="#DejaVuSans-70" transform="translate(535.242188 0)"/>
      <use xlink:href="#DejaVuSans-6f" transform="translate(598.71875 0)"/>
      <use xlink:href="#DejaVuSans-73" transform="translate(659.900391 0)"/>
      <use xlink:href="#DejaVuSans-69" transform="translate(712 0)"/>
      <use xlink:href="#DejaVuSans-74" transform="translate(739.783203 0)"/>
      <use xlink:href="#DejaVuSans-69" transform="translate(778.992188 0)"/>
      <use xlink:href="#DejaVuSans-6f" transform="translate(806.775391 0)"/>
      <use xlink:href="#DejaVuSans-6e" transform="translate(867.957031 0)"/>
     </g>
    </g>
   </g>
   <g id="matplotlib.axis_2">
    <g id="ytick_1">
     <g id="line2d_6">
      <defs>
       <path id="m673c6f2001" d="M 0 0 
L -3.5 0 
" style="stroke: #000000; stroke-width: 0.8"/>
      </defs>
      <g>
       <use xlink:href="#m673c6f2001" x="57.6" y="307.584" style="stroke: #000000; stroke-width: 0.8"/>
      </g>
     </g>
     <g id="text_7">
      <!-- 0.0 -->
      <g transform="translate(34.696875 311.383219) scale(0.1 -0.1)">
       <defs>
        <path id="DejaVuSans-2e" d="M 684 794 
L 1344 794 
L 1344 0 
L 684 0 
L 684 794 
z
" transform="scale(0.015625)"/>
       </defs>
       <use xlink:href="#DejaVuSans-30"/>
       <use xlink:href="#DejaVuSans-2e" transform="translate(63.623047 0)"/>
       <use xlink:href="#DejaVuSans-30" transform="translate(95.410156 0)"/>
      </g>
     </g>
    </g>
    <g id="ytick_2">
     <g id="line2d_7">
      <g>
       <use xlink:href="#m673c6f2001" x="57.6" y="254.3616" style="stroke: #000000; stroke-width: 0.8"/>
      </g>
     </g>
     <g id="text_8">
      <!-- 0.2 -->
      <g transform="translate(34.696875 258.160819) scale(0.1 -0.1)">
       <use xlink:href="#DejaVuSans-30"/>
       <use xlink:href="#DejaVuSans-2e" transform="translate(63.623047 0)"/>
       <use xlink:href="#DejaVuSans-32" transform="translate(95.410156 0)"/>
      </g>
     </g>
    </g>
    <g id="ytick_3">
     <g id="line2d_8">
      <g>
       <use xlink:href="#m673c6f2001" x="57.6" y="201.1392" style="stroke: #000000; stroke-width: 0.8"/>
      </g>
     </g>
     <g id="text_9">
      <!-- 0.4 -->
      <g transform="translate(34.696875 204.938419) scale(0.1 -0.1)">
       <defs>
        <path id="DejaVuSans-34" d="M 2419 4116 
L 825 1625 
L 2419 1625 
L 2419 4116 
z
M 2253 4666 
L 3047 4666 
L 3047 1625 
L 3713 1625 
L 3713 1100 
L 3047 1100 
L 3047 0 
L 2419 0 
L 2419 1100 
L 313 1100 
L 313 1709 
L 2253 4666 
z
" transform="scale(0.015625)"/>
       </defs>
       <use xlink:href="#DejaVuSans-30"/>
       <use xlink:href="#DejaVuSans-2e" transform="translate(63.623047 0)"/>
       <use xlink:href="#DejaVuSans-34" transform="translate(95.410156 0)"/>
      </g>
     </g>
    </g>
    <g id="ytick_4">
     <g id="line2d_9">
      <g>
       <use xlink:href="#m673c6f2001" x="57.6" y="147.9168" style="stroke: #000000; stroke-width: 0.8"/>
      </g>
     </g>
     <g id="text_10">
      <!-- 0.6 -->
      <g transform="translate(34.696875 151.716019) scale(0.1 -0.1)">
       <defs>
        <path id="DejaVuSans-36" d="M 2113 2584 
Q 1688 2584 1439 2293 
Q 1191 2003 1191 1497 
Q 1191 994 1439 701 
Q 1688 409 2113 409 
Q 2538 409 2786 701 
Q 3034 994 3034 1497 
Q 3034 2003 2786 2293 
Q 2538 2584 2113 2584 
z
M 3366 4563 
L 3366 3988 
Q 3128 4100 2886 4159 
Q 2644 4219 2406 4219 
Q 1781 4219 1451 3797 
Q 1122 3375 1075 2522 
Q 1259 2794 1537 2939 
Q 1816 3084 2150 3084 
Q 2853 3084 3261 2657 
Q 3669 2231 3669 1497 
Q 3669 778 3244 343 
Q 2819 -91 2113 -91 
Q 1303 -91 875 529 
Q 447 1150 447 2328 
Q 447 3434 972 4092 
Q 1497 4750 2381 4750 
Q 2619 4750 2861 4703 
Q 3103 4656 3366 4563 
z
" transform="scale(0.015625)"/>
       </defs>
       <use xlink:href="#DejaVuSans-30"/>
       <use xlink:href="#DejaVuSans-2e" transform="translate(63.623047 0)"/>
       <use xlink:href="#DejaVuSans-36" transform="translate(95.410156 0)"/>
      </g>
     </g>
    </g>
    <g id="ytick_5">
     <g id="line2d_10">
      <g>
       <use xlink:href="#m673c6f2001" x="57.6" y="94.6944" style="stroke: #000000; stroke-width: 0.8"/>
      </g>
     </g>
     <g id="text_11">
      <!-- 0.8 -->
      <g transform="translate(34.696875 98.493619) scale(0.1 -0.1)">
       <defs>
        <path id="DejaVuSans-38" d="M 2034 2216 
Q 1584 2216 1326 1975 
Q 1069 1734 1069 1313 
Q 1069 891 1326 650 
Q 1584 409 2034 409 
Q 2484 409 2743 651 
Q 3003 894 3003 1313 
Q 3003 1734 2745 1975 
Q 2488 2216 2034 2216 
z
M 1403 2484 
Q 997 2584 770 2862 
Q 544 3141 544 3541 
Q 544 4100 942 4425 
Q 1341 4750 2034 4750 
Q 2731 4750 3128 4425 
Q 3525 4100 3525 3541 
Q 3525 3141 3298 2862 
Q 3072 2584 2669 2484 
Q 3125 2378 3379 2068 
Q 3634 1759 3634 1313 
Q 3634 634 3220 271 
Q 2806 -91 2034 -91 
Q 1263 -91 848 271 
Q 434 634 434 1313 
Q 434 1759 690 2068 
Q 947 2378 1403 2484 
z
M 1172 3481 
Q 1172 3119 1398 2916 
Q 1625 2713 2034 2713 
Q 2441 2713 2670 2916 
Q 2900 3119 2900 3481 
Q 2900 3844 2670 4047 
Q 2441 4250 2034 4250 
Q 1625 4250 1398 4047 
Q 1172 3844 1172 3481 
z
" transform="scale(0.015625)"/>
       </defs>
       <use xlink:href="#DejaVuSans-30"/>
       <use xlink:href="#DejaVuSans-2e" transform="translate(63.623047 0)"/>
       <use xlink:href="#DejaVuSans-38" transform="translate(95.410156 0)"/>
      </g>
     </g>
    </g>
    <g id="ytick_6">
     <g id="line2d_11">
      <g>
       <use xlink:href="#m673c6f2001" x="57.6" y="41.472" style="stroke: #000000; stroke-width: 0.8"/>
      </g>
     </g>
     <g id="text_12">
      <!-- 1.0 -->
      <g transform="translate(34.696875 45.271219) scale(0.1 -0.1)">
       <use xlink:href="#DejaVuSans-31"/>
       <use xlink:href="#DejaVuSans-2e" transform="translate(63.623047 0)"/>
       <use xlink:href="#DejaVuSans-30" transform="translate(95.410156 0)"/>
      </g>
     </g>
    </g>
    <g id="text_13">
     <!-- Accuracy -->
     <g transform="translate(28.617187 197.356125) rotate(-90) scale(0.1 -0.1)">
      <defs>
       <path id="DejaVuSans-41" d="M 2188 4044 
L 1331 1722 
L 3047 1722 
L 2188 4044 
z
M 1831 4666 
L 2547 4666 
L 4325 0 
L 3669 0 
L 3244 1197 
L 1141 1197 
L 716 0 
L 50 0 
L 1831 4666 
z
" transform="scale(0.015625)"/>
       <path id="DejaVuSans-63" d="M 3122 3366 
L 3122 2828 
Q 2878 2963 2633 3030 
Q 2388 3097 2138 3097 
Q 1578 3097 1268 2742 
Q 959 2388 959 1747 
Q 959 1106 1268 751 
Q 1578 397 2138 397 
Q 2388 397 2633 464 
Q 2878 531 3122 666 
L 3122 134 
Q 2881 22 2623 -34 
Q 2366 -91 2075 -91 
Q 1284 -91 818 406 
Q 353 903 353 1747 
Q 353 2603 823 3093 
Q 1294 3584 2113 3584 
Q 2378 3584 2631 3529 
Q 2884 3475 3122 3366 
z
" transform="scale(0.015625)"/>
       <path id="DejaVuSans-75" d="M 544 1381 
L 544 3500 
L 1119 3500 
L 1119 1403 
Q 1119 906 1312 657 
Q 1506 409 1894 409 
Q 2359 409 2629 706 
Q 2900 1003 2900 1516 
L 2900 3500 
L 3475 3500 
L 3475 0 
L 2900 0 
L 2900 538 
Q 2691 219 2414 64 
Q 2138 -91 1772 -91 
Q 1169 -91 856 284 
Q 544 659 544 1381 
z
M 1991 3584 
L 1991 3584 
z
" transform="scale(0.015625)"/>
       <path id="DejaVuSans-72" d="M 2631 2963 
Q 2534 3019 2420 3045 
Q 2306 3072 2169 3072 
Q 1681 3072 1420 2755 
Q 1159 2438 1159 1844 
L 1159 0 
L 581 0 
L 581 3500 
L 1159 3500 
L 1159 2956 
Q 1341 3275 1631 3429 
Q 1922 3584 2338 3584 
Q 2397 3584 2469 3576 
Q 2541 3569 2628 3553 
L 2631 2963 
z
" transform="scale(0.015625)"/>
       <path id="DejaVuSans-61" d="M 2194 1759 
Q 1497 1759 1228 1600 
Q 959 1441 959 1056 
Q 959 750 1161 570 
Q 1363 391 1709 391 
Q 2188 391 2477 730 
Q 2766 1069 2766 1631 
L 2766 1759 
L 2194 1759 
z
M 3341 1997 
L 3341 0 
L 2766 0 
L 2766 531 
Q 2569 213 2275 61 
Q 1981 -91 1556 -91 
Q 1019 -91 701 211 
Q 384 513 384 1019 
Q 384 1609 779 1909 
Q 1175 2209 1959 2209 
L 2766 2209 
L 2766 2266 
Q 2766 2663 2505 2880 
Q 2244 3097 1772 3097 
Q 1472 3097 1187 3025 
Q 903 2953 641 2809 
L 641 3341 
Q 956 3463 1253 3523 
Q 1550 3584 1831 3584 
Q 2591 3584 2966 3190 
Q 3341 2797 3341 1997 
z
" transform="scale(0.015625)"/>
       <path id="DejaVuSans-79" d="M 2059 -325 
Q 1816 -950 1584 -1140 
Q 1353 -1331 966 -1331 
L 506 -1331 
L 506 -850 
L 844 -850 
Q 1081 -850 1212 -737 
Q 1344 -625 1503 -206 
L 1606 56 
L 191 3500 
L 800 3500 
L 1894 763 
L 2988 3500 
L 3597 3500 
L 2059 -325 
z
" transform="scale(0.015625)"/>
      </defs>
      <use xlink:href="#DejaVuSans-41"/>
      <use xlink:href="#DejaVuSans-63" transform="translate(66.658203 0)"/>
      <use xlink:href="#DejaVuSans-63" transform="translate(121.638672 0)"/>
      <use xlink:href="#DejaVuSans-75" transform="translate(176.619141 0)"/>
      <use xlink:href="#DejaVuSans-72" transform="translate(239.998047 0)"/>
      <use xlink:href="#DejaVuSans-61" transform="translate(281.111328 0)"/>
      <use xlink:href="#DejaVuSans-63" transform="translate(342.390625 0)"/>
      <use xlink:href="#DejaVuSans-79" transform="translate(397.371094 0)"/>
     </g>
    </g>
   </g>
   <g id="line2d_12">
    <path d="M 73.832727 117.08273 
L 75.378701 113.438817 
L 76.924675 116.66167 
L 78.470649 116.66167 
L 80.016623 110.105298 
L 81.562597 113.438817 
L 83.108571 120.1867 
L 84.654545 107.066915 
L 86.200519 107.066931 
L 87.746494 113.438817 
L 89.292468 117.08273 
L 90.838442 110.105298 
L 92.384416 113.438817 
L 93.93039 104.306853 
L 95.476364 104.306837 
L 97.022338 98.505966 
L 98.568312 83.486701 
L 100.114286 81.124874 
L 101.66026 79.25071 
L 103.206234 85.530456 
L 104.752208 83.211741 
L 106.298182 88.100671 
L 107.844156 81.124874 
L 109.39013 81.124874 
L 110.936104 90.942118 
L 112.482078 87.251589 
L 114.028052 90.490541 
L 115.574026 92.185423 
L 117.12 94.074275 
L 118.665974 96.174974 
L 120.211948 96.174974 
L 121.757922 101.807174 
L 123.303896 124.026994 
L 124.84987 96.174974 
L 126.395844 96.174974 
L 127.941818 107.837245 
L 129.487792 107.837245 
L 131.033766 101.80719 
L 132.57974 98.505966 
L 134.125714 96.174974 
L 135.671688 98.505966 
L 137.217662 84.311832 
L 138.763636 84.311832 
L 140.30961 96.174974 
L 141.855584 90.942118 
L 143.401558 98.505966 
L 144.947532 93.104582 
L 146.493506 95.503413 
L 148.039481 98.157552 
L 149.585455 103.9336 
L 151.131429 101.085967 
L 152.677403 101.085983 
L 154.223377 95.503397 
L 155.769351 87.801745 
L 157.315325 92.781102 
L 158.861299 101.085983 
L 160.407273 93.104582 
L 161.953247 96.174974 
L 163.499221 101.80719 
L 165.045195 105.42417 
L 166.591169 96.174974 
L 168.137143 101.80719 
L 169.683117 98.505981 
L 171.229091 85.530472 
L 172.775065 95.503413 
L 174.321039 101.80719 
L 175.867013 103.245686 
L 177.412987 107.278317 
L 178.958961 103.245702 
L 180.504935 118.306778 
L 182.050909 123.306818 
L 183.596883 118.306778 
L 185.142857 123.306802 
L 186.688831 123.306818 
L 188.234805 128.662616 
L 189.780779 156.374167 
L 191.326753 154.809905 
L 192.872727 142.060771 
L 194.418701 138.109336 
L 195.964675 142.060771 
L 197.510649 134.367272 
L 199.056623 113.663337 
L 200.602597 115.884805 
L 202.148571 118.306762 
L 203.694545 109.372084 
L 205.240519 113.663353 
L 206.786494 109.372084 
L 208.332468 126.958297 
L 209.878442 134.367272 
L 211.424416 107.278301 
L 212.97039 111.659695 
L 214.516364 107.278317 
L 216.062338 97.515779 
L 217.608312 101.283808 
L 219.154286 107.278301 
L 220.70026 111.659695 
L 222.246234 107.278301 
L 223.792208 107.278301 
L 225.338182 115.884805 
L 226.884156 118.341341 
L 228.43013 122.766004 
L 229.976104 120.423719 
L 231.522078 148.29241 
L 233.068052 140.284869 
L 234.614026 118.306778 
L 236.16 88.100671 
L 237.705974 123.306802 
L 239.251948 115.884821 
L 240.797922 118.341341 
L 242.343896 111.692385 
L 243.88987 87.801745 
L 245.435844 101.085967 
L 246.981818 81.124874 
L 248.527792 77.570817 
L 250.073766 67.381398 
L 251.61974 79.25071 
L 253.165714 95.503413 
L 254.711688 87.801761 
L 256.257662 88.100671 
L 257.803636 79.25071 
L 259.34961 85.530472 
L 260.895584 79.25071 
L 262.441558 88.100687 
L 263.987532 95.503413 
L 265.533506 73.406266 
L 267.079481 78.998829 
L 268.625455 77.089166 
L 270.171429 68.643134 
L 271.717403 71.254684 
L 273.263377 64.365046 
L 274.809351 60.536743 
L 276.355325 65.46344 
L 277.901299 83.040088 
L 279.447273 72.854666 
L 280.993247 87.870251 
L 282.539221 122.477594 
L 284.085195 85.322369 
L 285.631169 81.466087 
L 287.177143 69.246061 
L 288.723117 72.512755 
L 290.269091 73.690488 
L 291.815065 104.44856 
L 293.361039 116.758235 
L 294.907013 144.329951 
L 297.998961 114.814549 
L 301.090909 103.003481 
L 304.182857 115.611035 
L 305.728831 115.312521 
L 307.274805 128.80897 
L 308.820779 136.562616 
L 310.366753 129.358651 
L 311.912727 143.807282 
L 313.458701 144.052723 
L 315.004675 152.320552 
L 316.550649 159.934188 
L 318.096623 192.261344 
L 319.642597 136.5626 
L 321.188571 122.163061 
L 322.734545 144.052723 
L 324.280519 306.19518 
L 325.826494 299.786203 
L 327.372468 303.352515 
L 328.918442 307.231439 
L 330.464416 307.131451 
L 333.556364 306.011164 
L 335.102338 307.071391 
L 336.648312 307.131521 
L 341.286234 306.739882 
L 344.378182 306.357656 
L 345.924156 306.740031 
L 347.47013 306.501352 
L 349.016104 306.838811 
L 350.562078 306.501207 
L 352.108052 306.838834 
L 355.2 306.627948 
L 356.745974 306.838834 
L 359.837922 306.739993 
L 361.383896 306.739931 
L 362.92987 306.627981 
L 364.475844 306.628019 
L 366.021818 306.357699 
L 367.567792 306.838791 
L 369.113766 306.628061 
L 370.65974 306.739993 
L 372.205714 306.627948 
L 373.751688 307.370072 
L 376.843636 307.370095 
L 378.38961 307.272913 
L 379.935584 307.494786 
L 383.027532 307.555026 
L 398.487273 307.579556 
L 398.487273 307.579556 
" clip-path="url(#pf0808781b8)" style="fill: none; stroke: #0000ff; stroke-width: 1.5; stroke-linecap: square"/>
   </g>
   <g id="line2d_13">
    <path d="M 73.832727 179.577671 
L 75.378701 162.977251 
L 76.924675 184.364381 
L 78.470649 183.336651 
L 80.016623 179.577671 
L 81.562597 183.336651 
L 83.108571 166.7265 
L 86.200519 175.033546 
L 87.746494 170.746727 
L 89.292468 171.264764 
L 90.838442 170.746711 
L 92.384416 170.746727 
L 93.93039 161.510378 
L 95.476364 158.760199 
L 97.022338 153.334626 
L 98.568312 134.969328 
L 100.114286 113.663337 
L 101.66026 105.393462 
L 103.206234 128.192703 
L 104.752208 92.185439 
L 106.298182 122.765988 
L 107.844156 115.884821 
L 109.39013 132.690298 
L 110.936104 167.394745 
L 112.482078 166.350661 
L 114.028052 164.506412 
L 115.574026 175.033562 
L 117.12 175.033546 
L 118.665974 183.336651 
L 120.211948 170.746727 
L 121.757922 179.577671 
L 123.303896 197.477592 
L 124.84987 167.756197 
L 126.395844 167.756197 
L 127.941818 181.072031 
L 129.487792 158.760199 
L 131.033766 213.314011 
L 132.57974 178.099743 
L 134.125714 164.506412 
L 135.671688 164.506412 
L 137.217662 111.659695 
L 138.763636 118.306762 
L 140.30961 132.690282 
L 141.855584 122.76602 
L 143.401558 125.350289 
L 144.947532 128.192703 
L 146.493506 146.731415 
L 148.039481 166.726516 
L 149.585455 162.977251 
L 151.131429 175.033554 
L 152.677403 170.746711 
L 154.223377 146.236029 
L 155.769351 162.462926 
L 157.315325 138.890912 
L 158.861299 131.308285 
L 160.407273 103.9336 
L 161.953247 103.933616 
L 163.499221 189.447536 
L 165.045195 159.141033 
L 166.591169 113.141461 
L 168.137143 130.478728 
L 169.683117 95.938574 
L 171.229091 137.585779 
L 172.775065 131.483935 
L 174.321039 212.614415 
L 175.867013 209.309027 
L 177.412987 202.686029 
L 178.958961 202.686021 
L 180.504935 244.082606 
L 182.050909 232.280548 
L 183.596883 239.942221 
L 185.142857 233.44502 
L 186.688831 232.280555 
L 188.234805 220.777676 
L 189.780779 267.347407 
L 191.326753 270.76193 
L 192.872727 274.551558 
L 194.418701 288.184908 
L 195.964675 266.61395 
L 197.510649 247.170862 
L 199.056623 245.745622 
L 200.602597 240.067074 
L 202.148571 192.230311 
L 203.694545 185.164642 
L 205.240519 146.761552 
L 206.786494 138.920176 
L 208.332468 128.901617 
L 209.878442 131.33647 
L 211.424416 141.17968 
L 212.97039 152.138382 
L 214.516364 137.585779 
L 216.062338 149.086866 
L 217.608312 204.851006 
L 219.154286 174.656343 
L 220.70026 174.656335 
L 222.246234 214.921892 
L 223.792208 211.847995 
L 226.884156 195.199895 
L 228.43013 209.056385 
L 229.976104 214.921884 
L 231.522078 179.577679 
L 233.068052 160.026185 
L 234.614026 178.735274 
L 236.16 209.056385 
L 237.705974 191.200249 
L 239.251948 191.200249 
L 240.797922 199.311603 
L 242.343896 195.199903 
L 243.88987 178.735274 
L 245.435844 199.311595 
L 246.981818 181.072031 
L 248.527792 182.961018 
L 250.073766 209.056385 
L 251.61974 203.226779 
L 253.165714 181.072039 
L 254.711688 183.619572 
L 256.257662 205.449873 
L 257.803636 215.521433 
L 259.34961 189.331778 
L 260.895584 176.066273 
L 262.441558 172.803489 
L 263.987532 184.364373 
L 265.533506 128.192703 
L 267.079481 167.756197 
L 268.625455 166.726516 
L 270.171429 143.39022 
L 271.717403 159.498758 
L 273.263377 158.760199 
L 276.355325 169.786614 
L 277.901299 135.321643 
L 279.447273 131.33647 
L 280.993247 193.55941 
L 282.539221 223.396301 
L 284.085195 116.398401 
L 285.631169 116.398401 
L 287.177143 136.390503 
L 288.723117 102.182505 
L 290.269091 108.237907 
L 293.361039 147.55964 
L 294.907013 201.342273 
L 296.452987 237.988233 
L 297.998961 282.251923 
L 299.544935 131.33647 
L 301.090909 138.920176 
L 302.636883 132.770383 
L 304.182857 123.306818 
L 305.728831 125.427042 
L 307.274805 142.060708 
L 308.820779 140.407177 
L 310.366753 121.498416 
L 311.912727 108.237907 
L 313.458701 187.455806 
L 315.004675 162.580983 
L 316.550649 169.446892 
L 318.096623 293.682212 
L 319.642597 264.387538 
L 321.188571 116.758219 
L 322.734545 122.477594 
L 324.280519 307.489018 
L 325.826494 303.352605 
L 327.372468 307.071359 
L 328.918442 307.546795 
L 330.464416 307.544395 
L 332.01039 307.003473 
L 333.556364 307.514511 
L 338.194286 307.505263 
L 347.47013 307.43698 
L 349.016104 306.740898 
L 350.562078 307.291835 
L 352.108052 307.395274 
L 356.745974 307.326132 
L 358.291948 307.494789 
L 361.383896 307.500186 
L 362.92987 307.417406 
L 364.475844 307.514515 
L 370.65974 307.489044 
L 376.843636 307.572652 
L 398.487273 307.581765 
L 398.487273 307.581765 
" clip-path="url(#pf0808781b8)" style="fill: none; stroke: #ffa500; stroke-width: 1.5; stroke-linecap: square"/>
   </g>
   <g id="line2d_14">
    <path d="M 73.832727 301.120433 
L 75.378701 303.62582 
L 76.924675 302.522977 
L 78.470649 303.086108 
L 80.016623 301.31265 
L 81.562597 302.522977 
L 83.108571 294.648076 
L 84.654545 298.565889 
L 86.200519 286.908272 
L 87.746494 292.698109 
L 89.292468 296.755822 
L 90.838442 266.240198 
L 92.384416 289.806965 
L 93.93039 296.510622 
L 95.476364 288.546191 
L 97.022338 303.020758 
L 98.568312 304.121706 
L 100.114286 305.408796 
L 101.66026 305.353436 
L 103.206234 299.074414 
L 104.752208 300.359318 
L 106.298182 303.020758 
L 107.844156 301.828903 
L 109.39013 305.854819 
L 110.936104 305.854819 
L 112.482078 304.74503 
L 114.028052 303.926311 
L 115.574026 303.979304 
L 117.12 305.367778 
L 118.665974 305.385926 
L 120.211948 304.74503 
L 121.757922 305.367778 
L 123.303896 306.214298 
L 124.84987 306.516059 
L 126.395844 306.508107 
L 127.941818 306.930398 
L 129.487792 306.506518 
L 131.033766 306.506518 
L 132.57974 305.818128 
L 135.671688 307.072896 
L 137.217662 306.508107 
L 138.763636 302.973218 
L 140.30961 306.51014 
L 141.855584 302.829116 
L 143.401558 305.333258 
L 144.947532 304.700916 
L 146.493506 305.342137 
L 149.585455 305.326294 
L 151.131429 304.700916 
L 152.677403 301.644677 
L 154.223377 302.905698 
L 155.769351 298.378311 
L 157.315325 298.378311 
L 158.861299 289.188973 
L 160.407273 300.689396 
L 161.953247 296.755822 
L 165.045195 296.11491 
L 166.591169 291.623189 
L 168.137143 285.182867 
L 169.683117 293.531582 
L 171.229091 292.698109 
L 172.775065 300.248661 
L 174.321039 303.495371 
L 175.867013 304.282082 
L 177.412987 303.657923 
L 178.958961 301.90705 
L 180.504935 305.440228 
L 182.050909 305.636884 
L 183.596883 303.086108 
L 185.142857 303.848611 
L 186.688831 305.51738 
L 188.234805 306.014006 
L 189.780779 305.089038 
L 191.326753 305.18881 
L 192.872727 303.657923 
L 194.418701 301.90705 
L 195.964675 300.755859 
L 197.510649 301.48096 
L 199.056623 303.62582 
L 200.602597 303.141825 
L 202.148571 301.31265 
L 203.694545 302.674274 
L 205.240519 298.352054 
L 206.786494 299.074414 
L 208.332468 298.879927 
L 209.878442 301.172359 
L 211.424416 296.510622 
L 212.97039 292.518938 
L 214.516364 290.190485 
L 216.062338 293.839195 
L 217.608312 299.407245 
L 219.154286 292.739515 
L 220.70026 298.56589 
L 222.246234 289.188973 
L 223.792208 285.657338 
L 225.338182 281.072951 
L 226.884156 284.419123 
L 228.43013 289.641302 
L 229.976104 275.916534 
L 231.522078 290.190485 
L 233.068052 285.182869 
L 234.614026 293.531582 
L 236.16 272.563223 
L 237.705974 285.182869 
L 239.251948 282.25461 
L 240.797922 275.131203 
L 242.343896 282.25461 
L 243.88987 292.518939 
L 245.435844 284.978037 
L 246.981818 283.96432 
L 248.527792 292.309023 
L 250.073766 288.523305 
L 251.61974 281.072953 
L 253.165714 286.471936 
L 254.711688 291.200154 
L 256.257662 286.310708 
L 257.803636 283.900743 
L 259.34961 288.769065 
L 260.895584 289.806965 
L 262.441558 294.366281 
L 263.987532 291.623189 
L 265.533506 287.433187 
L 267.079481 288.546191 
L 268.625455 285.182867 
L 270.171429 288.546191 
L 271.717403 227.912858 
L 273.263377 273.267347 
L 274.809351 257.080159 
L 276.355325 275.916532 
L 277.901299 272.563223 
L 279.447273 285.182867 
L 280.993247 253.961679 
L 282.539221 241.13551 
L 284.085195 278.001494 
L 285.631169 277.553607 
L 287.177143 253.961679 
L 288.723117 255.373167 
L 290.269091 293.531582 
L 291.815065 296.510621 
L 293.361039 301.48096 
L 294.907013 297.669297 
L 296.452987 302.356907 
L 297.998961 298.352055 
L 301.090909 295.84561 
L 304.182857 298.352054 
L 305.728831 295.84561 
L 307.274805 290.718104 
L 308.820779 291.200153 
L 310.366753 283.900743 
L 311.912727 280.874986 
L 313.458701 296.510621 
L 315.004675 286.908274 
L 316.550649 296.510621 
L 318.096623 300.755859 
L 319.642597 281.609048 
L 321.188571 275.131201 
L 322.734545 277.923829 
L 324.280519 288.769069 
L 325.826494 288.769065 
L 327.372468 293.531582 
L 328.918442 292.698109 
L 330.464416 292.698108 
L 332.01039 294.648076 
L 333.556364 287.433187 
L 335.102338 297.669297 
L 336.648312 298.238406 
L 338.194286 301.48096 
L 339.74026 297.669297 
L 341.286234 303.848611 
L 342.832208 300.755859 
L 344.378182 299.58497 
L 345.924156 301.31265 
L 347.47013 299.58497 
L 349.016104 299.341478 
L 350.562078 297.092688 
L 352.108052 303.141825 
L 353.654026 305.089038 
L 355.2 305.18881 
L 356.745974 303.62582 
L 358.291948 304.067892 
L 359.837922 303.400285 
L 362.92987 303.400285 
L 364.475844 302.674274 
L 367.567792 296.510622 
L 369.113766 299.074415 
L 370.65974 294.366281 
L 372.205714 293.531581 
L 373.751688 293.531581 
L 376.843636 298.352054 
L 378.38961 303.657923 
L 379.935584 296.755822 
L 381.481558 296.510622 
L 383.027532 303.400284 
L 384.573506 292.518938 
L 386.119481 301.836186 
L 387.665455 299.58497 
L 389.211429 298.238407 
L 390.757403 298.238407 
L 392.303377 302.356907 
L 393.849351 304.936248 
L 395.395325 304.282082 
L 396.941299 304.516357 
L 398.487273 303.62582 
L 398.487273 303.62582 
" clip-path="url(#pf0808781b8)" style="fill: none; stroke: #008000; stroke-width: 1.5; stroke-linecap: square"/>
   </g>
   <g id="patch_3">
    <path d="M 57.6 307.584 
L 57.6 41.472 
" style="fill: none; stroke: #000000; stroke-width: 0.8; stroke-linejoin: miter; stroke-linecap: square"/>
   </g>
   <g id="patch_4">
    <path d="M 414.72 307.584 
L 414.72 41.472 
" style="fill: none; stroke: #000000; stroke-width: 0.8; stroke-linejoin: miter; stroke-linecap: square"/>
   </g>
   <g id="patch_5">
    <path d="M 57.6 307.584 
L 414.72 307.584 
" style="fill: none; stroke: #000000; stroke-width: 0.8; stroke-linejoin: miter; stroke-linecap: square"/>
   </g>
   <g id="patch_6">
    <path d="M 57.6 41.472 
L 414.72 41.472 
" style="fill: none; stroke: #000000; stroke-width: 0.8; stroke-linejoin: miter; stroke-linecap: square"/>
   </g>
   <g id="text_14">
    <!-- logical_deduction_three_objects Q5 -->
    <g transform="translate(129.865313 31.472) scale(0.12 -0.12)">
     <defs>
      <path id="DejaVuSans-6c" d="M 603 4863 
L 1178 4863 
L 1178 0 
L 603 0 
L 603 4863 
z
" transform="scale(0.015625)"/>
      <path id="DejaVuSans-67" d="M 2906 1791 
Q 2906 2416 2648 2759 
Q 2391 3103 1925 3103 
Q 1463 3103 1205 2759 
Q 947 2416 947 1791 
Q 947 1169 1205 825 
Q 1463 481 1925 481 
Q 2391 481 2648 825 
Q 2906 1169 2906 1791 
z
M 3481 434 
Q 3481 -459 3084 -895 
Q 2688 -1331 1869 -1331 
Q 1566 -1331 1297 -1286 
Q 1028 -1241 775 -1147 
L 775 -588 
Q 1028 -725 1275 -790 
Q 1522 -856 1778 -856 
Q 2344 -856 2625 -561 
Q 2906 -266 2906 331 
L 2906 616 
Q 2728 306 2450 153 
Q 2172 0 1784 0 
Q 1141 0 747 490 
Q 353 981 353 1791 
Q 353 2603 747 3093 
Q 1141 3584 1784 3584 
Q 2172 3584 2450 3431 
Q 2728 3278 2906 2969 
L 2906 3500 
L 3481 3500 
L 3481 434 
z
" transform="scale(0.015625)"/>
      <path id="DejaVuSans-5f" d="M 3263 -1063 
L 3263 -1509 
L -63 -1509 
L -63 -1063 
L 3263 -1063 
z
" transform="scale(0.015625)"/>
      <path id="DejaVuSans-64" d="M 2906 2969 
L 2906 4863 
L 3481 4863 
L 3481 0 
L 2906 0 
L 2906 525 
Q 2725 213 2448 61 
Q 2172 -91 1784 -91 
Q 1150 -91 751 415 
Q 353 922 353 1747 
Q 353 2572 751 3078 
Q 1150 3584 1784 3584 
Q 2172 3584 2448 3432 
Q 2725 3281 2906 2969 
z
M 947 1747 
Q 947 1113 1208 752 
Q 1469 391 1925 391 
Q 2381 391 2643 752 
Q 2906 1113 2906 1747 
Q 2906 2381 2643 2742 
Q 2381 3103 1925 3103 
Q 1469 3103 1208 2742 
Q 947 2381 947 1747 
z
" transform="scale(0.015625)"/>
      <path id="DejaVuSans-68" d="M 3513 2113 
L 3513 0 
L 2938 0 
L 2938 2094 
Q 2938 2591 2744 2837 
Q 2550 3084 2163 3084 
Q 1697 3084 1428 2787 
Q 1159 2491 1159 1978 
L 1159 0 
L 581 0 
L 581 4863 
L 1159 4863 
L 1159 2956 
Q 1366 3272 1645 3428 
Q 1925 3584 2291 3584 
Q 2894 3584 3203 3211 
Q 3513 2838 3513 2113 
z
" transform="scale(0.015625)"/>
      <path id="DejaVuSans-62" d="M 3116 1747 
Q 3116 2381 2855 2742 
Q 2594 3103 2138 3103 
Q 1681 3103 1420 2742 
Q 1159 2381 1159 1747 
Q 1159 1113 1420 752 
Q 1681 391 2138 391 
Q 2594 391 2855 752 
Q 3116 1113 3116 1747 
z
M 1159 2969 
Q 1341 3281 1617 3432 
Q 1894 3584 2278 3584 
Q 2916 3584 3314 3078 
Q 3713 2572 3713 1747 
Q 3713 922 3314 415 
Q 2916 -91 2278 -91 
Q 1894 -91 1617 61 
Q 1341 213 1159 525 
L 1159 0 
L 581 0 
L 581 4863 
L 1159 4863 
L 1159 2969 
z
" transform="scale(0.015625)"/>
      <path id="DejaVuSans-6a" d="M 603 3500 
L 1178 3500 
L 1178 -63 
Q 1178 -731 923 -1031 
Q 669 -1331 103 -1331 
L -116 -1331 
L -116 -844 
L 38 -844 
Q 366 -844 484 -692 
Q 603 -541 603 -63 
L 603 3500 
z
M 603 4863 
L 1178 4863 
L 1178 4134 
L 603 4134 
L 603 4863 
z
" transform="scale(0.015625)"/>
      <path id="DejaVuSans-51" d="M 2522 4238 
Q 1834 4238 1429 3725 
Q 1025 3213 1025 2328 
Q 1025 1447 1429 934 
Q 1834 422 2522 422 
Q 3209 422 3611 934 
Q 4013 1447 4013 2328 
Q 4013 3213 3611 3725 
Q 3209 4238 2522 4238 
z
M 3406 84 
L 4238 -825 
L 3475 -825 
L 2784 -78 
Q 2681 -84 2626 -87 
Q 2572 -91 2522 -91 
Q 1538 -91 948 567 
Q 359 1225 359 2328 
Q 359 3434 948 4092 
Q 1538 4750 2522 4750 
Q 3503 4750 4090 4092 
Q 4678 3434 4678 2328 
Q 4678 1516 4351 937 
Q 4025 359 3406 84 
z
" transform="scale(0.015625)"/>
     </defs>
     <use xlink:href="#DejaVuSans-6c"/>
     <use xlink:href="#DejaVuSans-6f" transform="translate(27.783203 0)"/>
     <use xlink:href="#DejaVuSans-67" transform="translate(88.964844 0)"/>
     <use xlink:href="#DejaVuSans-69" transform="translate(152.441406 0)"/>
     <use xlink:href="#DejaVuSans-63" transform="translate(180.224609 0)"/>
     <use xlink:href="#DejaVuSans-61" transform="translate(235.205078 0)"/>
     <use xlink:href="#DejaVuSans-6c" transform="translate(296.484375 0)"/>
     <use xlink:href="#DejaVuSans-5f" transform="translate(324.267578 0)"/>
     <use xlink:href="#DejaVuSans-64" transform="translate(374.267578 0)"/>
     <use xlink:href="#DejaVuSans-65" transform="translate(437.744141 0)"/>
     <use xlink:href="#DejaVuSans-64" transform="translate(499.267578 0)"/>
     <use xlink:href="#DejaVuSans-75" transform="translate(562.744141 0)"/>
     <use xlink:href="#DejaVuSans-63" transform="translate(626.123047 0)"/>
     <use xlink:href="#DejaVuSans-74" transform="translate(681.103516 0)"/>
     <use xlink:href="#DejaVuSans-69" transform="translate(720.3125 0)"/>
     <use xlink:href="#DejaVuSans-6f" transform="translate(748.095703 0)"/>
     <use xlink:href="#DejaVuSans-6e" transform="translate(809.277344 0)"/>
     <use xlink:href="#DejaVuSans-5f" transform="translate(872.65625 0)"/>
     <use xlink:href="#DejaVuSans-74" transform="translate(922.65625 0)"/>
     <use xlink:href="#DejaVuSans-68" transform="translate(961.865234 0)"/>
     <use xlink:href="#DejaVuSans-72" transform="translate(1025.244141 0)"/>
     <use xlink:href="#DejaVuSans-65" transform="translate(1064.107422 0)"/>
     <use xlink:href="#DejaVuSans-65" transform="translate(1125.630859 0)"/>
     <use xlink:href="#DejaVuSans-5f" transform="translate(1187.154297 0)"/>
     <use xlink:href="#DejaVuSans-6f" transform="translate(1237.154297 0)"/>
     <use xlink:href="#DejaVuSans-62" transform="translate(1298.335938 0)"/>
     <use xlink:href="#DejaVuSans-6a" transform="translate(1361.8125 0)"/>
     <use xlink:href="#DejaVuSans-65" transform="translate(1389.595703 0)"/>
     <use xlink:href="#DejaVuSans-63" transform="translate(1451.119141 0)"/>
     <use xlink:href="#DejaVuSans-74" transform="translate(1506.099609 0)"/>
     <use xlink:href="#DejaVuSans-73" transform="translate(1545.308594 0)"/>
     <use xlink:href="#DejaVuSans-20" transform="translate(1597.408203 0)"/>
     <use xlink:href="#DejaVuSans-51" transform="translate(1629.195312 0)"/>
     <use xlink:href="#DejaVuSans-35" transform="translate(1707.90625 0)"/>
    </g>
   </g>
   <g id="legend_1">
    <g id="patch_7">
     <path d="M 64.6 93.506375 
L 246.234375 93.506375 
Q 248.234375 93.506375 248.234375 91.506375 
L 248.234375 48.472 
Q 248.234375 46.472 246.234375 46.472 
L 64.6 46.472 
Q 62.6 46.472 62.6 48.472 
L 62.6 91.506375 
Q 62.6 93.506375 64.6 93.506375 
z
" style="fill: #ffffff; opacity: 0.8; stroke: #cccccc; stroke-linejoin: miter"/>
    </g>
    <g id="line2d_15">
     <path d="M 66.6 54.570438 
L 76.6 54.570438 
L 86.6 54.570438 
" style="fill: none; stroke: #0000ff; stroke-width: 1.5; stroke-linecap: square"/>
    </g>
    <g id="text_15">
     <!-- smooth-Llama-3.2-3B-Instruct -->
     <g transform="translate(94.6 58.070438) scale(0.1 -0.1)">
      <defs>
       <path id="DejaVuSans-6d" d="M 3328 2828 
Q 3544 3216 3844 3400 
Q 4144 3584 4550 3584 
Q 5097 3584 5394 3201 
Q 5691 2819 5691 2113 
L 5691 0 
L 5113 0 
L 5113 2094 
Q 5113 2597 4934 2840 
Q 4756 3084 4391 3084 
Q 3944 3084 3684 2787 
Q 3425 2491 3425 1978 
L 3425 0 
L 2847 0 
L 2847 2094 
Q 2847 2600 2669 2842 
Q 2491 3084 2119 3084 
Q 1678 3084 1418 2786 
Q 1159 2488 1159 1978 
L 1159 0 
L 581 0 
L 581 3500 
L 1159 3500 
L 1159 2956 
Q 1356 3278 1631 3431 
Q 1906 3584 2284 3584 
Q 2666 3584 2933 3390 
Q 3200 3197 3328 2828 
z
" transform="scale(0.015625)"/>
       <path id="DejaVuSans-2d" d="M 313 2009 
L 1997 2009 
L 1997 1497 
L 313 1497 
L 313 2009 
z
" transform="scale(0.015625)"/>
       <path id="DejaVuSans-4c" d="M 628 4666 
L 1259 4666 
L 1259 531 
L 3531 531 
L 3531 0 
L 628 0 
L 628 4666 
z
" transform="scale(0.015625)"/>
       <path id="DejaVuSans-33" d="M 2597 2516 
Q 3050 2419 3304 2112 
Q 3559 1806 3559 1356 
Q 3559 666 3084 287 
Q 2609 -91 1734 -91 
Q 1441 -91 1130 -33 
Q 819 25 488 141 
L 488 750 
Q 750 597 1062 519 
Q 1375 441 1716 441 
Q 2309 441 2620 675 
Q 2931 909 2931 1356 
Q 2931 1769 2642 2001 
Q 2353 2234 1838 2234 
L 1294 2234 
L 1294 2753 
L 1863 2753 
Q 2328 2753 2575 2939 
Q 2822 3125 2822 3475 
Q 2822 3834 2567 4026 
Q 2313 4219 1838 4219 
Q 1578 4219 1281 4162 
Q 984 4106 628 3988 
L 628 4550 
Q 988 4650 1302 4700 
Q 1616 4750 1894 4750 
Q 2613 4750 3031 4423 
Q 3450 4097 3450 3541 
Q 3450 3153 3228 2886 
Q 3006 2619 2597 2516 
z
" transform="scale(0.015625)"/>
       <path id="DejaVuSans-42" d="M 1259 2228 
L 1259 519 
L 2272 519 
Q 2781 519 3026 730 
Q 3272 941 3272 1375 
Q 3272 1813 3026 2020 
Q 2781 2228 2272 2228 
L 1259 2228 
z
M 1259 4147 
L 1259 2741 
L 2194 2741 
Q 2656 2741 2882 2914 
Q 3109 3088 3109 3444 
Q 3109 3797 2882 3972 
Q 2656 4147 2194 4147 
L 1259 4147 
z
M 628 4666 
L 2241 4666 
Q 2963 4666 3353 4366 
Q 3744 4066 3744 3513 
Q 3744 3084 3544 2831 
Q 3344 2578 2956 2516 
Q 3422 2416 3680 2098 
Q 3938 1781 3938 1306 
Q 3938 681 3513 340 
Q 3088 0 2303 0 
L 628 0 
L 628 4666 
z
" transform="scale(0.015625)"/>
       <path id="DejaVuSans-49" d="M 628 4666 
L 1259 4666 
L 1259 0 
L 628 0 
L 628 4666 
z
" transform="scale(0.015625)"/>
      </defs>
      <use xlink:href="#DejaVuSans-73"/>
      <use xlink:href="#DejaVuSans-6d" transform="translate(52.099609 0)"/>
      <use xlink:href="#DejaVuSans-6f" transform="translate(149.511719 0)"/>
      <use xlink:href="#DejaVuSans-6f" transform="translate(210.693359 0)"/>
      <use xlink:href="#DejaVuSans-74" transform="translate(271.875 0)"/>
      <use xlink:href="#DejaVuSans-68" transform="translate(311.083984 0)"/>
      <use xlink:href="#DejaVuSans-2d" transform="translate(374.462891 0)"/>
      <use xlink:href="#DejaVuSans-4c" transform="translate(410.546875 0)"/>
      <use xlink:href="#DejaVuSans-6c" transform="translate(466.259766 0)"/>
      <use xlink:href="#DejaVuSans-61" transform="translate(494.042969 0)"/>
      <use xlink:href="#DejaVuSans-6d" transform="translate(555.322266 0)"/>
      <use xlink:href="#DejaVuSans-61" transform="translate(652.734375 0)"/>
      <use xlink:href="#DejaVuSans-2d" transform="translate(714.013672 0)"/>
      <use xlink:href="#DejaVuSans-33" transform="translate(750.097656 0)"/>
      <use xlink:href="#DejaVuSans-2e" transform="translate(813.720703 0)"/>
      <use xlink:href="#DejaVuSans-32" transform="translate(845.507812 0)"/>
      <use xlink:href="#DejaVuSans-2d" transform="translate(909.130859 0)"/>
      <use xlink:href="#DejaVuSans-33" transform="translate(945.214844 0)"/>
      <use xlink:href="#DejaVuSans-42" transform="translate(1008.837891 0)"/>
      <use xlink:href="#DejaVuSans-2d" transform="translate(1077.441406 0)"/>
      <use xlink:href="#DejaVuSans-49" transform="translate(1113.525391 0)"/>
      <use xlink:href="#DejaVuSans-6e" transform="translate(1143.017578 0)"/>
      <use xlink:href="#DejaVuSans-73" transform="translate(1206.396484 0)"/>
      <use xlink:href="#DejaVuSans-74" transform="translate(1258.496094 0)"/>
      <use xlink:href="#DejaVuSans-72" transform="translate(1297.705078 0)"/>
      <use xlink:href="#DejaVuSans-75" transform="translate(1338.818359 0)"/>
      <use xlink:href="#DejaVuSans-63" transform="translate(1402.197266 0)"/>
      <use xlink:href="#DejaVuSans-74" transform="translate(1457.177734 0)"/>
     </g>
    </g>
    <g id="line2d_16">
     <path d="M 66.6 69.248563 
L 76.6 69.248563 
L 86.6 69.248563 
" style="fill: none; stroke: #ffa500; stroke-width: 1.5; stroke-linecap: square"/>
    </g>
    <g id="text_16">
     <!-- abrupt-Llama-3.2-3B-Instruct -->
     <g transform="translate(94.6 72.748563) scale(0.1 -0.1)">
      <use xlink:href="#DejaVuSans-61"/>
      <use xlink:href="#DejaVuSans-62" transform="translate(61.279297 0)"/>
      <use xlink:href="#DejaVuSans-72" transform="translate(124.755859 0)"/>
      <use xlink:href="#DejaVuSans-75" transform="translate(165.869141 0)"/>
      <use xlink:href="#DejaVuSans-70" transform="translate(229.248047 0)"/>
      <use xlink:href="#DejaVuSans-74" transform="translate(292.724609 0)"/>
      <use xlink:href="#DejaVuSans-2d" transform="translate(331.933594 0)"/>
      <use xlink:href="#DejaVuSans-4c" transform="translate(368.017578 0)"/>
      <use xlink:href="#DejaVuSans-6c" transform="translate(423.730469 0)"/>
      <use xlink:href="#DejaVuSans-61" transform="translate(451.513672 0)"/>
      <use xlink:href="#DejaVuSans-6d" transform="translate(512.792969 0)"/>
      <use xlink:href="#DejaVuSans-61" transform="translate(610.205078 0)"/>
      <use xlink:href="#DejaVuSans-2d" transform="translate(671.484375 0)"/>
      <use xlink:href="#DejaVuSans-33" transform="translate(707.568359 0)"/>
      <use xlink:href="#DejaVuSans-2e" transform="translate(771.191406 0)"/>
      <use xlink:href="#DejaVuSans-32" transform="translate(802.978516 0)"/>
      <use xlink:href="#DejaVuSans-2d" transform="translate(866.601562 0)"/>
      <use xlink:href="#DejaVuSans-33" transform="translate(902.685547 0)"/>
      <use xlink:href="#DejaVuSans-42" transform="translate(966.308594 0)"/>
      <use xlink:href="#DejaVuSans-2d" transform="translate(1034.912109 0)"/>
      <use xlink:href="#DejaVuSans-49" transform="translate(1070.996094 0)"/>
      <use xlink:href="#DejaVuSans-6e" transform="translate(1100.488281 0)"/>
      <use xlink:href="#DejaVuSans-73" transform="translate(1163.867188 0)"/>
      <use xlink:href="#DejaVuSans-74" transform="translate(1215.966797 0)"/>
      <use xlink:href="#DejaVuSans-72" transform="translate(1255.175781 0)"/>
      <use xlink:href="#DejaVuSans-75" transform="translate(1296.289062 0)"/>
      <use xlink:href="#DejaVuSans-63" transform="translate(1359.667969 0)"/>
      <use xlink:href="#DejaVuSans-74" transform="translate(1414.648438 0)"/>
     </g>
    </g>
    <g id="line2d_17">
     <path d="M 66.6 83.926688 
L 76.6 83.926688 
L 86.6 83.926688 
" style="fill: none; stroke: #008000; stroke-width: 1.5; stroke-linecap: square"/>
    </g>
    <g id="text_17">
     <!-- smooth-GEMMA-3-4B-IT -->
     <g transform="translate(94.6 87.426688) scale(0.1 -0.1)">
      <defs>
       <path id="DejaVuSans-47" d="M 3809 666 
L 3809 1919 
L 2778 1919 
L 2778 2438 
L 4434 2438 
L 4434 434 
Q 4069 175 3628 42 
Q 3188 -91 2688 -91 
Q 1594 -91 976 548 
Q 359 1188 359 2328 
Q 359 3472 976 4111 
Q 1594 4750 2688 4750 
Q 3144 4750 3555 4637 
Q 3966 4525 4313 4306 
L 4313 3634 
Q 3963 3931 3569 4081 
Q 3175 4231 2741 4231 
Q 1884 4231 1454 3753 
Q 1025 3275 1025 2328 
Q 1025 1384 1454 906 
Q 1884 428 2741 428 
Q 3075 428 3337 486 
Q 3600 544 3809 666 
z
" transform="scale(0.015625)"/>
       <path id="DejaVuSans-45" d="M 628 4666 
L 3578 4666 
L 3578 4134 
L 1259 4134 
L 1259 2753 
L 3481 2753 
L 3481 2222 
L 1259 2222 
L 1259 531 
L 3634 531 
L 3634 0 
L 628 0 
L 628 4666 
z
" transform="scale(0.015625)"/>
       <path id="DejaVuSans-4d" d="M 628 4666 
L 1569 4666 
L 2759 1491 
L 3956 4666 
L 4897 4666 
L 4897 0 
L 4281 0 
L 4281 4097 
L 3078 897 
L 2444 897 
L 1241 4097 
L 1241 0 
L 628 0 
L 628 4666 
z
" transform="scale(0.015625)"/>
      </defs>
      <use xlink:href="#DejaVuSans-73"/>
      <use xlink:href="#DejaVuSans-6d" transform="translate(52.099609 0)"/>
      <use xlink:href="#DejaVuSans-6f" transform="translate(149.511719 0)"/>
      <use xlink:href="#DejaVuSans-6f" transform="translate(210.693359 0)"/>
      <use xlink:href="#DejaVuSans-74" transform="translate(271.875 0)"/>
      <use xlink:href="#DejaVuSans-68" transform="translate(311.083984 0)"/>
      <use xlink:href="#DejaVuSans-2d" transform="translate(374.462891 0)"/>
      <use xlink:href="#DejaVuSans-47" transform="translate(414.171875 0)"/>
      <use xlink:href="#DejaVuSans-45" transform="translate(491.662109 0)"/>
      <use xlink:href="#DejaVuSans-4d" transform="translate(554.845703 0)"/>
      <use xlink:href="#DejaVuSans-4d" transform="translate(641.125 0)"/>
      <use xlink:href="#DejaVuSans-41" transform="translate(727.404297 0)"/>
      <use xlink:href="#DejaVuSans-2d" transform="translate(793.5625 0)"/>
      <use xlink:href="#DejaVuSans-33" transform="translate(829.646484 0)"/>
      <use xlink:href="#DejaVuSans-2d" transform="translate(893.269531 0)"/>
      <use xlink:href="#DejaVuSans-34" transform="translate(929.353516 0)"/>
      <use xlink:href="#DejaVuSans-42" transform="translate(992.976562 0)"/>
      <use xlink:href="#DejaVuSans-2d" transform="translate(1061.580078 0)"/>
      <use xlink:href="#DejaVuSans-49" transform="translate(1097.664062 0)"/>
      <use xlink:href="#DejaVuSans-54" transform="translate(1127.15625 0)"/>
     </g>
    </g>
   </g>
  </g>
 </g>
 <defs>
  <clipPath id="pf0808781b8">
   <rect x="57.6" y="41.472" width="357.12" height="266.112"/>
  </clipPath>
 </defs>
</svg>
