<?xml version="1.0" encoding="utf-8" standalone="no"?>
<!DOCTYPE svg PUBLIC "-//W3C//DTD SVG 1.1//EN"
  "http://www.w3.org/Graphics/SVG/1.1/DTD/svg11.dtd">
<svg xmlns:xlink="http://www.w3.org/1999/xlink" width="460.8pt" height="345.6pt" viewBox="0 0 460.8 345.6" xmlns="http://www.w3.org/2000/svg" version="1.1">
 <metadata>
  <rdf:RDF xmlns:dc="http://purl.org/dc/elements/1.1/" xmlns:cc="http://creativecommons.org/ns#" xmlns:rdf="http://www.w3.org/1999/02/22-rdf-syntax-ns#">
   <cc:Work>
    <dc:type rdf:resource="http://purl.org/dc/dcmitype/StillImage"/>
    <dc:date>2025-05-14T18:11:42.796415</dc:date>
    <dc:format>image/svg+xml</dc:format>
    <dc:creator>
     <cc:Agent>
      <dc:title>Matplotlib v3.10.3, https://matplotlib.org/</dc:title>
     </cc:Agent>
    </dc:creator>
   </cc:Work>
  </rdf:RDF>
 </metadata>
 <defs>
  <style type="text/css">*{stroke-linejoin: round; stroke-linecap: butt}</style>
 </defs>
 <g id="figure_1">
  <g id="patch_1">
   <path d="M 0 345.6 
L 460.8 345.6 
L 460.8 0 
L 0 0 
z
" style="fill: #ffffff"/>
  </g>
  <g id="axes_1">
   <g id="patch_2">
    <path d="M 57.6 307.584 
L 414.72 307.584 
L 414.72 41.472 
L 57.6 41.472 
z
" style="fill: #ffffff"/>
   </g>
   <g id="matplotlib.axis_1">
    <g id="xtick_1">
     <g id="line2d_1">
      <defs>
       <path id="m0b37d4c664" d="M 0 0 
L 0 3.5 
" style="stroke: #000000; stroke-width: 0.8"/>
      </defs>
      <g>
       <use xlink:href="#m0b37d4c664" x="73.832727" y="307.584" style="stroke: #000000; stroke-width: 0.8"/>
      </g>
     </g>
     <g id="text_1">
      <!-- 0 -->
      <g transform="translate(70.651477 322.182437) scale(0.1 -0.1)">
       <defs>
        <path id="DejaVuSans-30" d="M 2034 4250 
Q 1547 4250 1301 3770 
Q 1056 3291 1056 2328 
Q 1056 1369 1301 889 
Q 1547 409 2034 409 
Q 2525 409 2770 889 
Q 3016 1369 3016 2328 
Q 3016 3291 2770 3770 
Q 2525 4250 2034 4250 
z
M 2034 4750 
Q 2819 4750 3233 4129 
Q 3647 3509 3647 2328 
Q 3647 1150 3233 529 
Q 2819 -91 2034 -91 
Q 1250 -91 836 529 
Q 422 1150 422 2328 
Q 422 3509 836 4129 
Q 1250 4750 2034 4750 
z
" transform="scale(0.015625)"/>
       </defs>
       <use xlink:href="#DejaVuSans-30"/>
      </g>
     </g>
    </g>
    <g id="xtick_2">
     <g id="line2d_2">
      <g>
       <use xlink:href="#m0b37d4c664" x="115.032543" y="307.584" style="stroke: #000000; stroke-width: 0.8"/>
      </g>
     </g>
     <g id="text_2">
      <!-- 25 -->
      <g transform="translate(108.670043 322.182437) scale(0.1 -0.1)">
       <defs>
        <path id="DejaVuSans-32" d="M 1228 531 
L 3431 531 
L 3431 0 
L 469 0 
L 469 531 
Q 828 903 1448 1529 
Q 2069 2156 2228 2338 
Q 2531 2678 2651 2914 
Q 2772 3150 2772 3378 
Q 2772 3750 2511 3984 
Q 2250 4219 1831 4219 
Q 1534 4219 1204 4116 
Q 875 4013 500 3803 
L 500 4441 
Q 881 4594 1212 4672 
Q 1544 4750 1819 4750 
Q 2544 4750 2975 4387 
Q 3406 4025 3406 3419 
Q 3406 3131 3298 2873 
Q 3191 2616 2906 2266 
Q 2828 2175 2409 1742 
Q 1991 1309 1228 531 
z
" transform="scale(0.015625)"/>
        <path id="DejaVuSans-35" d="M 691 4666 
L 3169 4666 
L 3169 4134 
L 1269 4134 
L 1269 2991 
Q 1406 3038 1543 3061 
Q 1681 3084 1819 3084 
Q 2600 3084 3056 2656 
Q 3513 2228 3513 1497 
Q 3513 744 3044 326 
Q 2575 -91 1722 -91 
Q 1428 -91 1123 -41 
Q 819 9 494 109 
L 494 744 
Q 775 591 1075 516 
Q 1375 441 1709 441 
Q 2250 441 2565 725 
Q 2881 1009 2881 1497 
Q 2881 1984 2565 2268 
Q 2250 2553 1709 2553 
Q 1456 2553 1204 2497 
Q 953 2441 691 2322 
L 691 4666 
z
" transform="scale(0.015625)"/>
       </defs>
       <use xlink:href="#DejaVuSans-32"/>
       <use xlink:href="#DejaVuSans-35" transform="translate(63.623047 0)"/>
      </g>
     </g>
    </g>
    <g id="xtick_3">
     <g id="line2d_3">
      <g>
       <use xlink:href="#m0b37d4c664" x="156.232358" y="307.584" style="stroke: #000000; stroke-width: 0.8"/>
      </g>
     </g>
     <g id="text_3">
      <!-- 50 -->
      <g transform="translate(149.869858 322.182437) scale(0.1 -0.1)">
       <use xlink:href="#DejaVuSans-35"/>
       <use xlink:href="#DejaVuSans-30" transform="translate(63.623047 0)"/>
      </g>
     </g>
    </g>
    <g id="xtick_4">
     <g id="line2d_4">
      <g>
       <use xlink:href="#m0b37d4c664" x="197.432174" y="307.584" style="stroke: #000000; stroke-width: 0.8"/>
      </g>
     </g>
     <g id="text_4">
      <!-- 75 -->
      <g transform="translate(191.069674 322.182437) scale(0.1 -0.1)">
       <defs>
        <path id="DejaVuSans-37" d="M 525 4666 
L 3525 4666 
L 3525 4397 
L 1831 0 
L 1172 0 
L 2766 4134 
L 525 4134 
L 525 4666 
z
" transform="scale(0.015625)"/>
       </defs>
       <use xlink:href="#DejaVuSans-37"/>
       <use xlink:href="#DejaVuSans-35" transform="translate(63.623047 0)"/>
      </g>
     </g>
    </g>
    <g id="xtick_5">
     <g id="line2d_5">
      <g>
       <use xlink:href="#m0b37d4c664" x="238.631989" y="307.584" style="stroke: #000000; stroke-width: 0.8"/>
      </g>
     </g>
     <g id="text_5">
      <!-- 100 -->
      <g transform="translate(229.088239 322.182437) scale(0.1 -0.1)">
       <defs>
        <path id="DejaVuSans-31" d="M 794 531 
L 1825 531 
L 1825 4091 
L 703 3866 
L 703 4441 
L 1819 4666 
L 2450 4666 
L 2450 531 
L 3481 531 
L 3481 0 
L 794 0 
L 794 531 
z
" transform="scale(0.015625)"/>
       </defs>
       <use xlink:href="#DejaVuSans-31"/>
       <use xlink:href="#DejaVuSans-30" transform="translate(63.623047 0)"/>
       <use xlink:href="#DejaVuSans-30" transform="translate(127.246094 0)"/>
      </g>
     </g>
    </g>
    <g id="xtick_6">
     <g id="line2d_6">
      <g>
       <use xlink:href="#m0b37d4c664" x="279.831804" y="307.584" style="stroke: #000000; stroke-width: 0.8"/>
      </g>
     </g>
     <g id="text_6">
      <!-- 125 -->
      <g transform="translate(270.288054 322.182437) scale(0.1 -0.1)">
       <use xlink:href="#DejaVuSans-31"/>
       <use xlink:href="#DejaVuSans-32" transform="translate(63.623047 0)"/>
       <use xlink:href="#DejaVuSans-35" transform="translate(127.246094 0)"/>
      </g>
     </g>
    </g>
    <g id="xtick_7">
     <g id="line2d_7">
      <g>
       <use xlink:href="#m0b37d4c664" x="321.03162" y="307.584" style="stroke: #000000; stroke-width: 0.8"/>
      </g>
     </g>
     <g id="text_7">
      <!-- 150 -->
      <g transform="translate(311.48787 322.182437) scale(0.1 -0.1)">
       <use xlink:href="#DejaVuSans-31"/>
       <use xlink:href="#DejaVuSans-35" transform="translate(63.623047 0)"/>
       <use xlink:href="#DejaVuSans-30" transform="translate(127.246094 0)"/>
      </g>
     </g>
    </g>
    <g id="xtick_8">
     <g id="line2d_8">
      <g>
       <use xlink:href="#m0b37d4c664" x="362.231435" y="307.584" style="stroke: #000000; stroke-width: 0.8"/>
      </g>
     </g>
     <g id="text_8">
      <!-- 175 -->
      <g transform="translate(352.687685 322.182437) scale(0.1 -0.1)">
       <use xlink:href="#DejaVuSans-31"/>
       <use xlink:href="#DejaVuSans-37" transform="translate(63.623047 0)"/>
       <use xlink:href="#DejaVuSans-35" transform="translate(127.246094 0)"/>
      </g>
     </g>
    </g>
    <g id="xtick_9">
     <g id="line2d_9">
      <g>
       <use xlink:href="#m0b37d4c664" x="403.431251" y="307.584" style="stroke: #000000; stroke-width: 0.8"/>
      </g>
     </g>
     <g id="text_9">
      <!-- 200 -->
      <g transform="translate(393.887501 322.182437) scale(0.1 -0.1)">
       <use xlink:href="#DejaVuSans-32"/>
       <use xlink:href="#DejaVuSans-30" transform="translate(63.623047 0)"/>
       <use xlink:href="#DejaVuSans-30" transform="translate(127.246094 0)"/>
      </g>
     </g>
    </g>
    <g id="text_10">
     <!-- CoT token position -->
     <g transform="translate(189.593594 335.860562) scale(0.1 -0.1)">
      <defs>
       <path id="DejaVuSans-43" d="M 4122 4306 
L 4122 3641 
Q 3803 3938 3442 4084 
Q 3081 4231 2675 4231 
Q 1875 4231 1450 3742 
Q 1025 3253 1025 2328 
Q 1025 1406 1450 917 
Q 1875 428 2675 428 
Q 3081 428 3442 575 
Q 3803 722 4122 1019 
L 4122 359 
Q 3791 134 3420 21 
Q 3050 -91 2638 -91 
Q 1578 -91 968 557 
Q 359 1206 359 2328 
Q 359 3453 968 4101 
Q 1578 4750 2638 4750 
Q 3056 4750 3426 4639 
Q 3797 4528 4122 4306 
z
" transform="scale(0.015625)"/>
       <path id="DejaVuSans-6f" d="M 1959 3097 
Q 1497 3097 1228 2736 
Q 959 2375 959 1747 
Q 959 1119 1226 758 
Q 1494 397 1959 397 
Q 2419 397 2687 759 
Q 2956 1122 2956 1747 
Q 2956 2369 2687 2733 
Q 2419 3097 1959 3097 
z
M 1959 3584 
Q 2709 3584 3137 3096 
Q 3566 2609 3566 1747 
Q 3566 888 3137 398 
Q 2709 -91 1959 -91 
Q 1206 -91 779 398 
Q 353 888 353 1747 
Q 353 2609 779 3096 
Q 1206 3584 1959 3584 
z
" transform="scale(0.015625)"/>
       <path id="DejaVuSans-54" d="M -19 4666 
L 3928 4666 
L 3928 4134 
L 2272 4134 
L 2272 0 
L 1638 0 
L 1638 4134 
L -19 4134 
L -19 4666 
z
" transform="scale(0.015625)"/>
       <path id="DejaVuSans-20" transform="scale(0.015625)"/>
       <path id="DejaVuSans-74" d="M 1172 4494 
L 1172 3500 
L 2356 3500 
L 2356 3053 
L 1172 3053 
L 1172 1153 
Q 1172 725 1289 603 
Q 1406 481 1766 481 
L 2356 481 
L 2356 0 
L 1766 0 
Q 1100 0 847 248 
Q 594 497 594 1153 
L 594 3053 
L 172 3053 
L 172 3500 
L 594 3500 
L 594 4494 
L 1172 4494 
z
" transform="scale(0.015625)"/>
       <path id="DejaVuSans-6b" d="M 581 4863 
L 1159 4863 
L 1159 1991 
L 2875 3500 
L 3609 3500 
L 1753 1863 
L 3688 0 
L 2938 0 
L 1159 1709 
L 1159 0 
L 581 0 
L 581 4863 
z
" transform="scale(0.015625)"/>
       <path id="DejaVuSans-65" d="M 3597 1894 
L 3597 1613 
L 953 1613 
Q 991 1019 1311 708 
Q 1631 397 2203 397 
Q 2534 397 2845 478 
Q 3156 559 3463 722 
L 3463 178 
Q 3153 47 2828 -22 
Q 2503 -91 2169 -91 
Q 1331 -91 842 396 
Q 353 884 353 1716 
Q 353 2575 817 3079 
Q 1281 3584 2069 3584 
Q 2775 3584 3186 3129 
Q 3597 2675 3597 1894 
z
M 3022 2063 
Q 3016 2534 2758 2815 
Q 2500 3097 2075 3097 
Q 1594 3097 1305 2825 
Q 1016 2553 972 2059 
L 3022 2063 
z
" transform="scale(0.015625)"/>
       <path id="DejaVuSans-6e" d="M 3513 2113 
L 3513 0 
L 2938 0 
L 2938 2094 
Q 2938 2591 2744 2837 
Q 2550 3084 2163 3084 
Q 1697 3084 1428 2787 
Q 1159 2491 1159 1978 
L 1159 0 
L 581 0 
L 581 3500 
L 1159 3500 
L 1159 2956 
Q 1366 3272 1645 3428 
Q 1925 3584 2291 3584 
Q 2894 3584 3203 3211 
Q 3513 2838 3513 2113 
z
" transform="scale(0.015625)"/>
       <path id="DejaVuSans-70" d="M 1159 525 
L 1159 -1331 
L 581 -1331 
L 581 3500 
L 1159 3500 
L 1159 2969 
Q 1341 3281 1617 3432 
Q 1894 3584 2278 3584 
Q 2916 3584 3314 3078 
Q 3713 2572 3713 1747 
Q 3713 922 3314 415 
Q 2916 -91 2278 -91 
Q 1894 -91 1617 61 
Q 1341 213 1159 525 
z
M 3116 1747 
Q 3116 2381 2855 2742 
Q 2594 3103 2138 3103 
Q 1681 3103 1420 2742 
Q 1159 2381 1159 1747 
Q 1159 1113 1420 752 
Q 1681 391 2138 391 
Q 2594 391 2855 752 
Q 3116 1113 3116 1747 
z
" transform="scale(0.015625)"/>
       <path id="DejaVuSans-73" d="M 2834 3397 
L 2834 2853 
Q 2591 2978 2328 3040 
Q 2066 3103 1784 3103 
Q 1356 3103 1142 2972 
Q 928 2841 928 2578 
Q 928 2378 1081 2264 
Q 1234 2150 1697 2047 
L 1894 2003 
Q 2506 1872 2764 1633 
Q 3022 1394 3022 966 
Q 3022 478 2636 193 
Q 2250 -91 1575 -91 
Q 1294 -91 989 -36 
Q 684 19 347 128 
L 347 722 
Q 666 556 975 473 
Q 1284 391 1588 391 
Q 1994 391 2212 530 
Q 2431 669 2431 922 
Q 2431 1156 2273 1281 
Q 2116 1406 1581 1522 
L 1381 1569 
Q 847 1681 609 1914 
Q 372 2147 372 2553 
Q 372 3047 722 3315 
Q 1072 3584 1716 3584 
Q 2034 3584 2315 3537 
Q 2597 3491 2834 3397 
z
" transform="scale(0.015625)"/>
       <path id="DejaVuSans-69" d="M 603 3500 
L 1178 3500 
L 1178 0 
L 603 0 
L 603 3500 
z
M 603 4863 
L 1178 4863 
L 1178 4134 
L 603 4134 
L 603 4863 
z
" transform="scale(0.015625)"/>
      </defs>
      <use xlink:href="#DejaVuSans-43"/>
      <use xlink:href="#DejaVuSans-6f" transform="translate(69.824219 0)"/>
      <use xlink:href="#DejaVuSans-54" transform="translate(131.005859 0)"/>
      <use xlink:href="#DejaVuSans-20" transform="translate(192.089844 0)"/>
      <use xlink:href="#DejaVuSans-74" transform="translate(223.876953 0)"/>
      <use xlink:href="#DejaVuSans-6f" transform="translate(263.085938 0)"/>
      <use xlink:href="#DejaVuSans-6b" transform="translate(324.267578 0)"/>
      <use xlink:href="#DejaVuSans-65" transform="translate(378.552734 0)"/>
      <use xlink:href="#DejaVuSans-6e" transform="translate(440.076172 0)"/>
      <use xlink:href="#DejaVuSans-20" transform="translate(503.455078 0)"/>
      <use xlink:href="#DejaVuSans-70" transform="translate(535.242188 0)"/>
      <use xlink:href="#DejaVuSans-6f" transform="translate(598.71875 0)"/>
      <use xlink:href="#DejaVuSans-73" transform="translate(659.900391 0)"/>
      <use xlink:href="#DejaVuSans-69" transform="translate(712 0)"/>
      <use xlink:href="#DejaVuSans-74" transform="translate(739.783203 0)"/>
      <use xlink:href="#DejaVuSans-69" transform="translate(778.992188 0)"/>
      <use xlink:href="#DejaVuSans-6f" transform="translate(806.775391 0)"/>
      <use xlink:href="#DejaVuSans-6e" transform="translate(867.957031 0)"/>
     </g>
    </g>
   </g>
   <g id="matplotlib.axis_2">
    <g id="ytick_1">
     <g id="line2d_10">
      <defs>
       <path id="mfb2f8f8e81" d="M 0 0 
L -3.5 0 
" style="stroke: #000000; stroke-width: 0.8"/>
      </defs>
      <g>
       <use xlink:href="#mfb2f8f8e81" x="57.6" y="307.584" style="stroke: #000000; stroke-width: 0.8"/>
      </g>
     </g>
     <g id="text_11">
      <!-- 0.0 -->
      <g transform="translate(34.696875 311.383219) scale(0.1 -0.1)">
       <defs>
        <path id="DejaVuSans-2e" d="M 684 794 
L 1344 794 
L 1344 0 
L 684 0 
L 684 794 
z
" transform="scale(0.015625)"/>
       </defs>
       <use xlink:href="#DejaVuSans-30"/>
       <use xlink:href="#DejaVuSans-2e" transform="translate(63.623047 0)"/>
       <use xlink:href="#DejaVuSans-30" transform="translate(95.410156 0)"/>
      </g>
     </g>
    </g>
    <g id="ytick_2">
     <g id="line2d_11">
      <g>
       <use xlink:href="#mfb2f8f8e81" x="57.6" y="254.3616" style="stroke: #000000; stroke-width: 0.8"/>
      </g>
     </g>
     <g id="text_12">
      <!-- 0.2 -->
      <g transform="translate(34.696875 258.160819) scale(0.1 -0.1)">
       <use xlink:href="#DejaVuSans-30"/>
       <use xlink:href="#DejaVuSans-2e" transform="translate(63.623047 0)"/>
       <use xlink:href="#DejaVuSans-32" transform="translate(95.410156 0)"/>
      </g>
     </g>
    </g>
    <g id="ytick_3">
     <g id="line2d_12">
      <g>
       <use xlink:href="#mfb2f8f8e81" x="57.6" y="201.1392" style="stroke: #000000; stroke-width: 0.8"/>
      </g>
     </g>
     <g id="text_13">
      <!-- 0.4 -->
      <g transform="translate(34.696875 204.938419) scale(0.1 -0.1)">
       <defs>
        <path id="DejaVuSans-34" d="M 2419 4116 
L 825 1625 
L 2419 1625 
L 2419 4116 
z
M 2253 4666 
L 3047 4666 
L 3047 1625 
L 3713 1625 
L 3713 1100 
L 3047 1100 
L 3047 0 
L 2419 0 
L 2419 1100 
L 313 1100 
L 313 1709 
L 2253 4666 
z
" transform="scale(0.015625)"/>
       </defs>
       <use xlink:href="#DejaVuSans-30"/>
       <use xlink:href="#DejaVuSans-2e" transform="translate(63.623047 0)"/>
       <use xlink:href="#DejaVuSans-34" transform="translate(95.410156 0)"/>
      </g>
     </g>
    </g>
    <g id="ytick_4">
     <g id="line2d_13">
      <g>
       <use xlink:href="#mfb2f8f8e81" x="57.6" y="147.9168" style="stroke: #000000; stroke-width: 0.8"/>
      </g>
     </g>
     <g id="text_14">
      <!-- 0.6 -->
      <g transform="translate(34.696875 151.716019) scale(0.1 -0.1)">
       <defs>
        <path id="DejaVuSans-36" d="M 2113 2584 
Q 1688 2584 1439 2293 
Q 1191 2003 1191 1497 
Q 1191 994 1439 701 
Q 1688 409 2113 409 
Q 2538 409 2786 701 
Q 3034 994 3034 1497 
Q 3034 2003 2786 2293 
Q 2538 2584 2113 2584 
z
M 3366 4563 
L 3366 3988 
Q 3128 4100 2886 4159 
Q 2644 4219 2406 4219 
Q 1781 4219 1451 3797 
Q 1122 3375 1075 2522 
Q 1259 2794 1537 2939 
Q 1816 3084 2150 3084 
Q 2853 3084 3261 2657 
Q 3669 2231 3669 1497 
Q 3669 778 3244 343 
Q 2819 -91 2113 -91 
Q 1303 -91 875 529 
Q 447 1150 447 2328 
Q 447 3434 972 4092 
Q 1497 4750 2381 4750 
Q 2619 4750 2861 4703 
Q 3103 4656 3366 4563 
z
" transform="scale(0.015625)"/>
       </defs>
       <use xlink:href="#DejaVuSans-30"/>
       <use xlink:href="#DejaVuSans-2e" transform="translate(63.623047 0)"/>
       <use xlink:href="#DejaVuSans-36" transform="translate(95.410156 0)"/>
      </g>
     </g>
    </g>
    <g id="ytick_5">
     <g id="line2d_14">
      <g>
       <use xlink:href="#mfb2f8f8e81" x="57.6" y="94.6944" style="stroke: #000000; stroke-width: 0.8"/>
      </g>
     </g>
     <g id="text_15">
      <!-- 0.8 -->
      <g transform="translate(34.696875 98.493619) scale(0.1 -0.1)">
       <defs>
        <path id="DejaVuSans-38" d="M 2034 2216 
Q 1584 2216 1326 1975 
Q 1069 1734 1069 1313 
Q 1069 891 1326 650 
Q 1584 409 2034 409 
Q 2484 409 2743 651 
Q 3003 894 3003 1313 
Q 3003 1734 2745 1975 
Q 2488 2216 2034 2216 
z
M 1403 2484 
Q 997 2584 770 2862 
Q 544 3141 544 3541 
Q 544 4100 942 4425 
Q 1341 4750 2034 4750 
Q 2731 4750 3128 4425 
Q 3525 4100 3525 3541 
Q 3525 3141 3298 2862 
Q 3072 2584 2669 2484 
Q 3125 2378 3379 2068 
Q 3634 1759 3634 1313 
Q 3634 634 3220 271 
Q 2806 -91 2034 -91 
Q 1263 -91 848 271 
Q 434 634 434 1313 
Q 434 1759 690 2068 
Q 947 2378 1403 2484 
z
M 1172 3481 
Q 1172 3119 1398 2916 
Q 1625 2713 2034 2713 
Q 2441 2713 2670 2916 
Q 2900 3119 2900 3481 
Q 2900 3844 2670 4047 
Q 2441 4250 2034 4250 
Q 1625 4250 1398 4047 
Q 1172 3844 1172 3481 
z
" transform="scale(0.015625)"/>
       </defs>
       <use xlink:href="#DejaVuSans-30"/>
       <use xlink:href="#DejaVuSans-2e" transform="translate(63.623047 0)"/>
       <use xlink:href="#DejaVuSans-38" transform="translate(95.410156 0)"/>
      </g>
     </g>
    </g>
    <g id="ytick_6">
     <g id="line2d_15">
      <g>
       <use xlink:href="#mfb2f8f8e81" x="57.6" y="41.472" style="stroke: #000000; stroke-width: 0.8"/>
      </g>
     </g>
     <g id="text_16">
      <!-- 1.0 -->
      <g transform="translate(34.696875 45.271219) scale(0.1 -0.1)">
       <use xlink:href="#DejaVuSans-31"/>
       <use xlink:href="#DejaVuSans-2e" transform="translate(63.623047 0)"/>
       <use xlink:href="#DejaVuSans-30" transform="translate(95.410156 0)"/>
      </g>
     </g>
    </g>
    <g id="text_17">
     <!-- Accuracy -->
     <g transform="translate(28.617187 197.356125) rotate(-90) scale(0.1 -0.1)">
      <defs>
       <path id="DejaVuSans-41" d="M 2188 4044 
L 1331 1722 
L 3047 1722 
L 2188 4044 
z
M 1831 4666 
L 2547 4666 
L 4325 0 
L 3669 0 
L 3244 1197 
L 1141 1197 
L 716 0 
L 50 0 
L 1831 4666 
z
" transform="scale(0.015625)"/>
       <path id="DejaVuSans-63" d="M 3122 3366 
L 3122 2828 
Q 2878 2963 2633 3030 
Q 2388 3097 2138 3097 
Q 1578 3097 1268 2742 
Q 959 2388 959 1747 
Q 959 1106 1268 751 
Q 1578 397 2138 397 
Q 2388 397 2633 464 
Q 2878 531 3122 666 
L 3122 134 
Q 2881 22 2623 -34 
Q 2366 -91 2075 -91 
Q 1284 -91 818 406 
Q 353 903 353 1747 
Q 353 2603 823 3093 
Q 1294 3584 2113 3584 
Q 2378 3584 2631 3529 
Q 2884 3475 3122 3366 
z
" transform="scale(0.015625)"/>
       <path id="DejaVuSans-75" d="M 544 1381 
L 544 3500 
L 1119 3500 
L 1119 1403 
Q 1119 906 1312 657 
Q 1506 409 1894 409 
Q 2359 409 2629 706 
Q 2900 1003 2900 1516 
L 2900 3500 
L 3475 3500 
L 3475 0 
L 2900 0 
L 2900 538 
Q 2691 219 2414 64 
Q 2138 -91 1772 -91 
Q 1169 -91 856 284 
Q 544 659 544 1381 
z
M 1991 3584 
L 1991 3584 
z
" transform="scale(0.015625)"/>
       <path id="DejaVuSans-72" d="M 2631 2963 
Q 2534 3019 2420 3045 
Q 2306 3072 2169 3072 
Q 1681 3072 1420 2755 
Q 1159 2438 1159 1844 
L 1159 0 
L 581 0 
L 581 3500 
L 1159 3500 
L 1159 2956 
Q 1341 3275 1631 3429 
Q 1922 3584 2338 3584 
Q 2397 3584 2469 3576 
Q 2541 3569 2628 3553 
L 2631 2963 
z
" transform="scale(0.015625)"/>
       <path id="DejaVuSans-61" d="M 2194 1759 
Q 1497 1759 1228 1600 
Q 959 1441 959 1056 
Q 959 750 1161 570 
Q 1363 391 1709 391 
Q 2188 391 2477 730 
Q 2766 1069 2766 1631 
L 2766 1759 
L 2194 1759 
z
M 3341 1997 
L 3341 0 
L 2766 0 
L 2766 531 
Q 2569 213 2275 61 
Q 1981 -91 1556 -91 
Q 1019 -91 701 211 
Q 384 513 384 1019 
Q 384 1609 779 1909 
Q 1175 2209 1959 2209 
L 2766 2209 
L 2766 2266 
Q 2766 2663 2505 2880 
Q 2244 3097 1772 3097 
Q 1472 3097 1187 3025 
Q 903 2953 641 2809 
L 641 3341 
Q 956 3463 1253 3523 
Q 1550 3584 1831 3584 
Q 2591 3584 2966 3190 
Q 3341 2797 3341 1997 
z
" transform="scale(0.015625)"/>
       <path id="DejaVuSans-79" d="M 2059 -325 
Q 1816 -950 1584 -1140 
Q 1353 -1331 966 -1331 
L 506 -1331 
L 506 -850 
L 844 -850 
Q 1081 -850 1212 -737 
Q 1344 -625 1503 -206 
L 1606 56 
L 191 3500 
L 800 3500 
L 1894 763 
L 2988 3500 
L 3597 3500 
L 2059 -325 
z
" transform="scale(0.015625)"/>
      </defs>
      <use xlink:href="#DejaVuSans-41"/>
      <use xlink:href="#DejaVuSans-63" transform="translate(66.658203 0)"/>
      <use xlink:href="#DejaVuSans-63" transform="translate(121.638672 0)"/>
      <use xlink:href="#DejaVuSans-75" transform="translate(176.619141 0)"/>
      <use xlink:href="#DejaVuSans-72" transform="translate(239.998047 0)"/>
      <use xlink:href="#DejaVuSans-61" transform="translate(281.111328 0)"/>
      <use xlink:href="#DejaVuSans-63" transform="translate(342.390625 0)"/>
      <use xlink:href="#DejaVuSans-79" transform="translate(397.371094 0)"/>
     </g>
    </g>
   </g>
   <g id="line2d_16">
    <path d="M 73.832727 104.329583 
L 75.48072 103.295238 
L 77.128713 104.329599 
L 78.776705 104.329599 
L 80.424698 113.969083 
L 82.07269 99.610292 
L 83.720683 94.130679 
L 85.368676 95.259654 
L 87.016668 99.610292 
L 88.664661 94.130663 
L 90.312653 89.049364 
L 91.960646 95.93859 
L 93.608639 90.723087 
L 95.256631 95.259606 
L 96.904624 106.09435 
L 98.552617 87.291147 
L 100.200609 76.107862 
L 101.848602 73.24727 
L 103.496594 75.391207 
L 105.144587 69.212847 
L 106.79258 66.256801 
L 108.440572 65.741635 
L 110.088565 80.006955 
L 111.736557 76.067637 
L 113.38455 84.311848 
L 115.032543 82.705854 
L 118.328528 97.939932 
L 119.976521 94.04758 
L 121.624513 90.490557 
L 123.272506 105.393446 
L 124.920498 97.939932 
L 126.568491 92.579058 
L 128.216484 114.682026 
L 129.864476 119.872769 
L 131.512469 118.414367 
L 133.160461 118.414367 
L 134.808454 124.053991 
L 136.456447 125.427042 
L 138.104439 88.972531 
L 139.752432 78.535562 
L 141.400425 104.329599 
L 143.048417 99.610292 
L 144.69641 104.329599 
L 146.344402 105.489091 
L 147.992395 110.527151 
L 149.640388 104.329583 
L 151.28838 105.489091 
L 152.936373 104.329599 
L 154.584365 100.824094 
L 156.232358 96.524625 
L 157.880351 99.610292 
L 159.528343 105.489091 
L 161.176336 105.489091 
L 162.824329 104.329599 
L 164.472321 117.108378 
L 166.120314 118.414383 
L 167.768306 119.872769 
L 169.416299 119.872769 
L 171.064292 113.141525 
L 172.712284 124.053991 
L 174.360277 119.872769 
L 176.008269 117.108378 
L 177.656262 117.108378 
L 179.304255 110.527151 
L 180.952247 117.108394 
L 184.248233 117.108394 
L 185.896225 118.414367 
L 187.544218 118.414383 
L 189.19221 125.427042 
L 190.840203 118.414383 
L 192.488196 131.33647 
L 194.136188 130.051371 
L 195.784181 144.152238 
L 197.432174 131.33647 
L 199.080166 138.920176 
L 200.728159 152.138382 
L 202.376151 168.559393 
L 204.024144 160.29407 
L 205.672137 168.288938 
L 207.320129 134.367272 
L 208.968122 148.29241 
L 210.616114 156.374167 
L 212.264107 160.026185 
L 213.9121 136.141874 
L 217.208085 136.141874 
L 218.856078 158.108465 
L 220.50407 156.374167 
L 222.152063 149.992257 
L 223.800055 154.809905 
L 225.448048 191.850872 
L 227.096041 189.331778 
L 228.744033 205.449873 
L 230.392026 215.521433 
L 232.040018 201.182944 
L 233.688011 203.226779 
L 235.336004 195.199903 
L 236.983996 194.64659 
L 238.631989 196.052848 
L 240.279982 219.368143 
L 243.575967 201.443002 
L 245.223959 202.686029 
L 246.871952 191.850872 
L 248.519945 182.961018 
L 250.167937 197.604611 
L 251.81593 191.200257 
L 253.463922 171.296265 
L 255.111915 164.594776 
L 256.759908 181.202651 
L 258.4079 164.594776 
L 260.055893 160.026185 
L 261.703886 166.350661 
L 263.351878 164.594776 
L 264.999871 179.609156 
L 268.295856 163.00853 
L 269.943849 171.296249 
L 271.591841 187.882512 
L 273.239834 169.855976 
L 274.887826 136.141874 
L 276.535819 163.00853 
L 278.183812 153.402307 
L 279.831804 136.141874 
L 281.479797 125.427042 
L 283.12779 115.94078 
L 284.775782 201.443002 
L 286.423775 196.052848 
L 288.071767 213.314011 
L 289.71976 193.110117 
L 291.367753 178.735266 
L 293.015745 160.026185 
L 294.663738 128.662616 
L 296.311731 136.141874 
L 297.959723 107.278301 
L 299.607716 123.306818 
L 301.255708 143.895456 
L 302.903701 134.367256 
L 304.551694 41.6805 
L 306.199686 42.666673 
L 307.847679 42.766014 
L 309.495671 41.971638 
L 311.143664 42.362703 
L 312.791657 41.768325 
L 314.439649 41.849425 
L 316.087642 42.403324 
L 317.735635 42.226247 
L 321.03162 42.176283 
L 322.679612 42.098577 
L 324.327605 42.275988 
L 325.975598 42.614616 
L 330.919575 42.631159 
L 332.567568 42.335977 
L 334.215561 42.49548 
L 335.863553 42.322716 
L 337.511546 42.480856 
L 339.159539 42.871683 
L 340.807531 42.958557 
L 342.455524 42.435571 
L 344.103516 42.181771 
L 347.399502 42.435571 
L 349.047494 42.435571 
L 350.695487 42.234748 
L 352.343479 42.223043 
L 353.991472 42.37563 
L 355.639465 42.382673 
L 357.287457 42.567983 
L 360.583443 42.335977 
L 365.52742 42.098561 
L 378.711361 42.137835 
L 380.359354 41.762123 
L 383.655339 41.680785 
L 386.951324 41.673172 
L 398.487273 41.482786 
L 398.487273 41.482786 
" clip-path="url(#p6df47880ba)" style="fill: none; stroke: #0000ff; stroke-width: 1.5; stroke-linecap: square"/>
   </g>
   <g id="line2d_17">
    <path d="M 73.832727 132.652373 
L 75.48072 128.662616 
L 77.128713 120.423703 
L 78.776705 120.423703 
L 80.424698 134.969328 
L 82.07269 138.109336 
L 83.720683 128.662616 
L 85.368676 138.10932 
L 87.016668 151.875113 
L 88.664661 145.925873 
L 90.312653 151.875113 
L 91.960646 143.895456 
L 93.608639 160.026185 
L 95.256631 158.108465 
L 96.904624 164.59476 
L 98.552617 102.182505 
L 100.200609 78.841625 
L 101.848602 83.040088 
L 103.496594 75.003869 
L 105.144587 78.535546 
L 106.79258 48.750229 
L 108.440572 50.745385 
L 110.088565 74.724675 
L 111.736557 96.174974 
L 113.38455 98.505966 
L 115.032543 154.809905 
L 116.680535 137.585779 
L 118.328528 123.306802 
L 119.976521 138.109336 
L 121.624513 138.10932 
L 123.272506 138.920176 
L 124.920498 148.29241 
L 126.568491 166.350661 
L 128.216484 172.892329 
L 129.864476 172.892329 
L 131.512469 179.609148 
L 133.160461 160.29407 
L 136.456447 160.29407 
L 138.104439 64.601589 
L 139.752432 62.683678 
L 141.400425 71.5085 
L 143.048417 78.841625 
L 144.69641 103.700388 
L 146.344402 70.663414 
L 147.992395 66.242589 
L 149.640388 54.875278 
L 151.28838 60.536759 
L 152.936373 60.536743 
L 154.584365 50.831338 
L 156.232358 49.765857 
L 157.880351 53.011059 
L 159.528343 83.503466 
L 161.176336 89.049364 
L 162.824329 84.359861 
L 164.472321 154.809889 
L 166.120314 166.350645 
L 167.768306 174.656335 
L 169.416299 166.350661 
L 171.064292 168.288938 
L 172.712284 215.870601 
L 174.360277 214.921829 
L 176.008269 194.64659 
L 177.656262 189.461074 
L 179.304255 181.202643 
L 180.952247 181.18897 
L 182.60024 184.003817 
L 184.248233 184.003817 
L 185.896225 214.068075 
L 187.544218 214.068067 
L 189.19221 223.231222 
L 192.488196 159.141033 
L 194.136188 145.385931 
L 195.784181 213.314019 
L 197.432174 215.521441 
L 199.080166 202.619672 
L 200.728159 207.590678 
L 202.376151 236.412344 
L 204.024144 251.745231 
L 205.672137 295.174204 
L 207.320129 290.848214 
L 208.968122 295.605479 
L 210.616114 248.670132 
L 212.264107 248.670132 
L 213.9121 229.709127 
L 215.560092 237.218807 
L 217.208085 237.218799 
L 218.856078 222.896465 
L 220.50407 229.944234 
L 222.152063 234.617567 
L 223.800055 229.944242 
L 225.448048 174.656343 
L 227.096041 174.656272 
L 228.744033 167.394729 
L 230.392026 176.60018 
L 232.040018 226.111927 
L 233.688011 174.656335 
L 235.336004 176.600195 
L 236.983996 182.961018 
L 238.631989 203.226779 
L 240.279982 213.194169 
L 241.927974 210.45146 
L 243.575967 175.703853 
L 245.223959 167.394729 
L 246.871952 140.394361 
L 248.519945 168.288938 
L 250.167937 154.809905 
L 251.81593 95.259654 
L 255.111915 76.048604 
L 256.759908 78.535546 
L 258.4079 84.289119 
L 260.055893 146.919184 
L 261.703886 95.259654 
L 263.351878 78.535546 
L 264.999871 99.520896 
L 266.647863 123.306818 
L 268.295856 138.109336 
L 269.943849 116.398401 
L 271.591841 145.925873 
L 273.239834 125.427042 
L 274.887826 119.872722 
L 276.535819 130.555418 
L 278.183812 134.367272 
L 279.831804 143.047833 
L 281.479797 149.086866 
L 283.12779 174.656272 
L 284.775782 129.687888 
L 286.423775 104.019157 
L 288.071767 193.375782 
L 289.71976 132.770383 
L 291.367753 103.295238 
L 293.015745 108.237907 
L 294.663738 108.237907 
L 296.311731 132.770383 
L 297.959723 63.613623 
L 299.607716 50.378207 
L 301.255708 41.8184 
L 302.903701 44.719787 
L 304.551694 41.517919 
L 306.199686 41.603936 
L 307.847679 42.757195 
L 309.495671 41.585568 
L 311.143664 41.755382 
L 312.791657 41.528848 
L 314.439649 41.507228 
L 316.087642 42.666673 
L 317.735635 41.663401 
L 319.383627 41.73354 
L 321.03162 41.957394 
L 324.327605 41.750401 
L 325.975598 41.827282 
L 329.271583 41.634406 
L 330.919575 42.553105 
L 332.567568 42.910671 
L 334.215561 41.511686 
L 339.159539 41.532813 
L 340.807531 41.658325 
L 345.751509 41.588122 
L 349.047494 41.578209 
L 352.343479 41.527912 
L 368.823406 41.653567 
L 378.711361 41.51232 
L 380.359354 41.625825 
L 382.007347 41.519521 
L 391.895302 41.514905 
L 398.487273 41.482802 
L 398.487273 41.482802 
" clip-path="url(#p6df47880ba)" style="fill: none; stroke: #ffa500; stroke-width: 1.5; stroke-linecap: square"/>
   </g>
   <g id="line2d_18">
    <path d="M 73.832727 41.472523 
L 398.487273 41.472952 
L 398.487273 41.472952 
" clip-path="url(#p6df47880ba)" style="fill: none; stroke: #008000; stroke-width: 1.5; stroke-linecap: square"/>
   </g>
   <g id="patch_3">
    <path d="M 57.6 307.584 
L 57.6 41.472 
" style="fill: none; stroke: #000000; stroke-width: 0.8; stroke-linejoin: miter; stroke-linecap: square"/>
   </g>
   <g id="patch_4">
    <path d="M 414.72 307.584 
L 414.72 41.472 
" style="fill: none; stroke: #000000; stroke-width: 0.8; stroke-linejoin: miter; stroke-linecap: square"/>
   </g>
   <g id="patch_5">
    <path d="M 57.6 307.584 
L 414.72 307.584 
" style="fill: none; stroke: #000000; stroke-width: 0.8; stroke-linejoin: miter; stroke-linecap: square"/>
   </g>
   <g id="patch_6">
    <path d="M 57.6 41.472 
L 414.72 41.472 
" style="fill: none; stroke: #000000; stroke-width: 0.8; stroke-linejoin: miter; stroke-linecap: square"/>
   </g>
   <g id="text_18">
    <!-- logical_deduction_three_objects Q4 -->
    <g transform="translate(129.865313 31.472) scale(0.12 -0.12)">
     <defs>
      <path id="DejaVuSans-6c" d="M 603 4863 
L 1178 4863 
L 1178 0 
L 603 0 
L 603 4863 
z
" transform="scale(0.015625)"/>
      <path id="DejaVuSans-67" d="M 2906 1791 
Q 2906 2416 2648 2759 
Q 2391 3103 1925 3103 
Q 1463 3103 1205 2759 
Q 947 2416 947 1791 
Q 947 1169 1205 825 
Q 1463 481 1925 481 
Q 2391 481 2648 825 
Q 2906 1169 2906 1791 
z
M 3481 434 
Q 3481 -459 3084 -895 
Q 2688 -1331 1869 -1331 
Q 1566 -1331 1297 -1286 
Q 1028 -1241 775 -1147 
L 775 -588 
Q 1028 -725 1275 -790 
Q 1522 -856 1778 -856 
Q 2344 -856 2625 -561 
Q 2906 -266 2906 331 
L 2906 616 
Q 2728 306 2450 153 
Q 2172 0 1784 0 
Q 1141 0 747 490 
Q 353 981 353 1791 
Q 353 2603 747 3093 
Q 1141 3584 1784 3584 
Q 2172 3584 2450 3431 
Q 2728 3278 2906 2969 
L 2906 3500 
L 3481 3500 
L 3481 434 
z
" transform="scale(0.015625)"/>
      <path id="DejaVuSans-5f" d="M 3263 -1063 
L 3263 -1509 
L -63 -1509 
L -63 -1063 
L 3263 -1063 
z
" transform="scale(0.015625)"/>
      <path id="DejaVuSans-64" d="M 2906 2969 
L 2906 4863 
L 3481 4863 
L 3481 0 
L 2906 0 
L 2906 525 
Q 2725 213 2448 61 
Q 2172 -91 1784 -91 
Q 1150 -91 751 415 
Q 353 922 353 1747 
Q 353 2572 751 3078 
Q 1150 3584 1784 3584 
Q 2172 3584 2448 3432 
Q 2725 3281 2906 2969 
z
M 947 1747 
Q 947 1113 1208 752 
Q 1469 391 1925 391 
Q 2381 391 2643 752 
Q 2906 1113 2906 1747 
Q 2906 2381 2643 2742 
Q 2381 3103 1925 3103 
Q 1469 3103 1208 2742 
Q 947 2381 947 1747 
z
" transform="scale(0.015625)"/>
      <path id="DejaVuSans-68" d="M 3513 2113 
L 3513 0 
L 2938 0 
L 2938 2094 
Q 2938 2591 2744 2837 
Q 2550 3084 2163 3084 
Q 1697 3084 1428 2787 
Q 1159 2491 1159 1978 
L 1159 0 
L 581 0 
L 581 4863 
L 1159 4863 
L 1159 2956 
Q 1366 3272 1645 3428 
Q 1925 3584 2291 3584 
Q 2894 3584 3203 3211 
Q 3513 2838 3513 2113 
z
" transform="scale(0.015625)"/>
      <path id="DejaVuSans-62" d="M 3116 1747 
Q 3116 2381 2855 2742 
Q 2594 3103 2138 3103 
Q 1681 3103 1420 2742 
Q 1159 2381 1159 1747 
Q 1159 1113 1420 752 
Q 1681 391 2138 391 
Q 2594 391 2855 752 
Q 3116 1113 3116 1747 
z
M 1159 2969 
Q 1341 3281 1617 3432 
Q 1894 3584 2278 3584 
Q 2916 3584 3314 3078 
Q 3713 2572 3713 1747 
Q 3713 922 3314 415 
Q 2916 -91 2278 -91 
Q 1894 -91 1617 61 
Q 1341 213 1159 525 
L 1159 0 
L 581 0 
L 581 4863 
L 1159 4863 
L 1159 2969 
z
" transform="scale(0.015625)"/>
      <path id="DejaVuSans-6a" d="M 603 3500 
L 1178 3500 
L 1178 -63 
Q 1178 -731 923 -1031 
Q 669 -1331 103 -1331 
L -116 -1331 
L -116 -844 
L 38 -844 
Q 366 -844 484 -692 
Q 603 -541 603 -63 
L 603 3500 
z
M 603 4863 
L 1178 4863 
L 1178 4134 
L 603 4134 
L 603 4863 
z
" transform="scale(0.015625)"/>
      <path id="DejaVuSans-51" d="M 2522 4238 
Q 1834 4238 1429 3725 
Q 1025 3213 1025 2328 
Q 1025 1447 1429 934 
Q 1834 422 2522 422 
Q 3209 422 3611 934 
Q 4013 1447 4013 2328 
Q 4013 3213 3611 3725 
Q 3209 4238 2522 4238 
z
M 3406 84 
L 4238 -825 
L 3475 -825 
L 2784 -78 
Q 2681 -84 2626 -87 
Q 2572 -91 2522 -91 
Q 1538 -91 948 567 
Q 359 1225 359 2328 
Q 359 3434 948 4092 
Q 1538 4750 2522 4750 
Q 3503 4750 4090 4092 
Q 4678 3434 4678 2328 
Q 4678 1516 4351 937 
Q 4025 359 3406 84 
z
" transform="scale(0.015625)"/>
     </defs>
     <use xlink:href="#DejaVuSans-6c"/>
     <use xlink:href="#DejaVuSans-6f" transform="translate(27.783203 0)"/>
     <use xlink:href="#DejaVuSans-67" transform="translate(88.964844 0)"/>
     <use xlink:href="#DejaVuSans-69" transform="translate(152.441406 0)"/>
     <use xlink:href="#DejaVuSans-63" transform="translate(180.224609 0)"/>
     <use xlink:href="#DejaVuSans-61" transform="translate(235.205078 0)"/>
     <use xlink:href="#DejaVuSans-6c" transform="translate(296.484375 0)"/>
     <use xlink:href="#DejaVuSans-5f" transform="translate(324.267578 0)"/>
     <use xlink:href="#DejaVuSans-64" transform="translate(374.267578 0)"/>
     <use xlink:href="#DejaVuSans-65" transform="translate(437.744141 0)"/>
     <use xlink:href="#DejaVuSans-64" transform="translate(499.267578 0)"/>
     <use xlink:href="#DejaVuSans-75" transform="translate(562.744141 0)"/>
     <use xlink:href="#DejaVuSans-63" transform="translate(626.123047 0)"/>
     <use xlink:href="#DejaVuSans-74" transform="translate(681.103516 0)"/>
     <use xlink:href="#DejaVuSans-69" transform="translate(720.3125 0)"/>
     <use xlink:href="#DejaVuSans-6f" transform="translate(748.095703 0)"/>
     <use xlink:href="#DejaVuSans-6e" transform="translate(809.277344 0)"/>
     <use xlink:href="#DejaVuSans-5f" transform="translate(872.65625 0)"/>
     <use xlink:href="#DejaVuSans-74" transform="translate(922.65625 0)"/>
     <use xlink:href="#DejaVuSans-68" transform="translate(961.865234 0)"/>
     <use xlink:href="#DejaVuSans-72" transform="translate(1025.244141 0)"/>
     <use xlink:href="#DejaVuSans-65" transform="translate(1064.107422 0)"/>
     <use xlink:href="#DejaVuSans-65" transform="translate(1125.630859 0)"/>
     <use xlink:href="#DejaVuSans-5f" transform="translate(1187.154297 0)"/>
     <use xlink:href="#DejaVuSans-6f" transform="translate(1237.154297 0)"/>
     <use xlink:href="#DejaVuSans-62" transform="translate(1298.335938 0)"/>
     <use xlink:href="#DejaVuSans-6a" transform="translate(1361.8125 0)"/>
     <use xlink:href="#DejaVuSans-65" transform="translate(1389.595703 0)"/>
     <use xlink:href="#DejaVuSans-63" transform="translate(1451.119141 0)"/>
     <use xlink:href="#DejaVuSans-74" transform="translate(1506.099609 0)"/>
     <use xlink:href="#DejaVuSans-73" transform="translate(1545.308594 0)"/>
     <use xlink:href="#DejaVuSans-20" transform="translate(1597.408203 0)"/>
     <use xlink:href="#DejaVuSans-51" transform="translate(1629.195312 0)"/>
     <use xlink:href="#DejaVuSans-34" transform="translate(1707.90625 0)"/>
    </g>
   </g>
   <g id="legend_1">
    <g id="patch_7">
     <path d="M 226.085625 302.584 
L 407.72 302.584 
Q 409.72 302.584 409.72 300.584 
L 409.72 257.549625 
Q 409.72 255.549625 407.72 255.549625 
L 226.085625 255.549625 
Q 224.085625 255.549625 224.085625 257.549625 
L 224.085625 300.584 
Q 224.085625 302.584 226.085625 302.584 
z
" style="fill: #ffffff; opacity: 0.8; stroke: #cccccc; stroke-linejoin: miter"/>
    </g>
    <g id="line2d_19">
     <path d="M 228.085625 263.648062 
L 238.085625 263.648062 
L 248.085625 263.648062 
" style="fill: none; stroke: #0000ff; stroke-width: 1.5; stroke-linecap: square"/>
    </g>
    <g id="text_19">
     <!-- smooth-Llama-3.2-3B-Instruct -->
     <g transform="translate(256.085625 267.148062) scale(0.1 -0.1)">
      <defs>
       <path id="DejaVuSans-6d" d="M 3328 2828 
Q 3544 3216 3844 3400 
Q 4144 3584 4550 3584 
Q 5097 3584 5394 3201 
Q 5691 2819 5691 2113 
L 5691 0 
L 5113 0 
L 5113 2094 
Q 5113 2597 4934 2840 
Q 4756 3084 4391 3084 
Q 3944 3084 3684 2787 
Q 3425 2491 3425 1978 
L 3425 0 
L 2847 0 
L 2847 2094 
Q 2847 2600 2669 2842 
Q 2491 3084 2119 3084 
Q 1678 3084 1418 2786 
Q 1159 2488 1159 1978 
L 1159 0 
L 581 0 
L 581 3500 
L 1159 3500 
L 1159 2956 
Q 1356 3278 1631 3431 
Q 1906 3584 2284 3584 
Q 2666 3584 2933 3390 
Q 3200 3197 3328 2828 
z
" transform="scale(0.015625)"/>
       <path id="DejaVuSans-2d" d="M 313 2009 
L 1997 2009 
L 1997 1497 
L 313 1497 
L 313 2009 
z
" transform="scale(0.015625)"/>
       <path id="DejaVuSans-4c" d="M 628 4666 
L 1259 4666 
L 1259 531 
L 3531 531 
L 3531 0 
L 628 0 
L 628 4666 
z
" transform="scale(0.015625)"/>
       <path id="DejaVuSans-33" d="M 2597 2516 
Q 3050 2419 3304 2112 
Q 3559 1806 3559 1356 
Q 3559 666 3084 287 
Q 2609 -91 1734 -91 
Q 1441 -91 1130 -33 
Q 819 25 488 141 
L 488 750 
Q 750 597 1062 519 
Q 1375 441 1716 441 
Q 2309 441 2620 675 
Q 2931 909 2931 1356 
Q 2931 1769 2642 2001 
Q 2353 2234 1838 2234 
L 1294 2234 
L 1294 2753 
L 1863 2753 
Q 2328 2753 2575 2939 
Q 2822 3125 2822 3475 
Q 2822 3834 2567 4026 
Q 2313 4219 1838 4219 
Q 1578 4219 1281 4162 
Q 984 4106 628 3988 
L 628 4550 
Q 988 4650 1302 4700 
Q 1616 4750 1894 4750 
Q 2613 4750 3031 4423 
Q 3450 4097 3450 3541 
Q 3450 3153 3228 2886 
Q 3006 2619 2597 2516 
z
" transform="scale(0.015625)"/>
       <path id="DejaVuSans-42" d="M 1259 2228 
L 1259 519 
L 2272 519 
Q 2781 519 3026 730 
Q 3272 941 3272 1375 
Q 3272 1813 3026 2020 
Q 2781 2228 2272 2228 
L 1259 2228 
z
M 1259 4147 
L 1259 2741 
L 2194 2741 
Q 2656 2741 2882 2914 
Q 3109 3088 3109 3444 
Q 3109 3797 2882 3972 
Q 2656 4147 2194 4147 
L 1259 4147 
z
M 628 4666 
L 2241 4666 
Q 2963 4666 3353 4366 
Q 3744 4066 3744 3513 
Q 3744 3084 3544 2831 
Q 3344 2578 2956 2516 
Q 3422 2416 3680 2098 
Q 3938 1781 3938 1306 
Q 3938 681 3513 340 
Q 3088 0 2303 0 
L 628 0 
L 628 4666 
z
" transform="scale(0.015625)"/>
       <path id="DejaVuSans-49" d="M 628 4666 
L 1259 4666 
L 1259 0 
L 628 0 
L 628 4666 
z
" transform="scale(0.015625)"/>
      </defs>
      <use xlink:href="#DejaVuSans-73"/>
      <use xlink:href="#DejaVuSans-6d" transform="translate(52.099609 0)"/>
      <use xlink:href="#DejaVuSans-6f" transform="translate(149.511719 0)"/>
      <use xlink:href="#DejaVuSans-6f" transform="translate(210.693359 0)"/>
      <use xlink:href="#DejaVuSans-74" transform="translate(271.875 0)"/>
      <use xlink:href="#DejaVuSans-68" transform="translate(311.083984 0)"/>
      <use xlink:href="#DejaVuSans-2d" transform="translate(374.462891 0)"/>
      <use xlink:href="#DejaVuSans-4c" transform="translate(410.546875 0)"/>
      <use xlink:href="#DejaVuSans-6c" transform="translate(466.259766 0)"/>
      <use xlink:href="#DejaVuSans-61" transform="translate(494.042969 0)"/>
      <use xlink:href="#DejaVuSans-6d" transform="translate(555.322266 0)"/>
      <use xlink:href="#DejaVuSans-61" transform="translate(652.734375 0)"/>
      <use xlink:href="#DejaVuSans-2d" transform="translate(714.013672 0)"/>
      <use xlink:href="#DejaVuSans-33" transform="translate(750.097656 0)"/>
      <use xlink:href="#DejaVuSans-2e" transform="translate(813.720703 0)"/>
      <use xlink:href="#DejaVuSans-32" transform="translate(845.507812 0)"/>
      <use xlink:href="#DejaVuSans-2d" transform="translate(909.130859 0)"/>
      <use xlink:href="#DejaVuSans-33" transform="translate(945.214844 0)"/>
      <use xlink:href="#DejaVuSans-42" transform="translate(1008.837891 0)"/>
      <use xlink:href="#DejaVuSans-2d" transform="translate(1077.441406 0)"/>
      <use xlink:href="#DejaVuSans-49" transform="translate(1113.525391 0)"/>
      <use xlink:href="#DejaVuSans-6e" transform="translate(1143.017578 0)"/>
      <use xlink:href="#DejaVuSans-73" transform="translate(1206.396484 0)"/>
      <use xlink:href="#DejaVuSans-74" transform="translate(1258.496094 0)"/>
      <use xlink:href="#DejaVuSans-72" transform="translate(1297.705078 0)"/>
      <use xlink:href="#DejaVuSans-75" transform="translate(1338.818359 0)"/>
      <use xlink:href="#DejaVuSans-63" transform="translate(1402.197266 0)"/>
      <use xlink:href="#DejaVuSans-74" transform="translate(1457.177734 0)"/>
     </g>
    </g>
    <g id="line2d_20">
     <path d="M 228.085625 278.326188 
L 238.085625 278.326188 
L 248.085625 278.326188 
" style="fill: none; stroke: #ffa500; stroke-width: 1.5; stroke-linecap: square"/>
    </g>
    <g id="text_20">
     <!-- abrupt-Llama-3.2-3B-Instruct -->
     <g transform="translate(256.085625 281.826188) scale(0.1 -0.1)">
      <use xlink:href="#DejaVuSans-61"/>
      <use xlink:href="#DejaVuSans-62" transform="translate(61.279297 0)"/>
      <use xlink:href="#DejaVuSans-72" transform="translate(124.755859 0)"/>
      <use xlink:href="#DejaVuSans-75" transform="translate(165.869141 0)"/>
      <use xlink:href="#DejaVuSans-70" transform="translate(229.248047 0)"/>
      <use xlink:href="#DejaVuSans-74" transform="translate(292.724609 0)"/>
      <use xlink:href="#DejaVuSans-2d" transform="translate(331.933594 0)"/>
      <use xlink:href="#DejaVuSans-4c" transform="translate(368.017578 0)"/>
      <use xlink:href="#DejaVuSans-6c" transform="translate(423.730469 0)"/>
      <use xlink:href="#DejaVuSans-61" transform="translate(451.513672 0)"/>
      <use xlink:href="#DejaVuSans-6d" transform="translate(512.792969 0)"/>
      <use xlink:href="#DejaVuSans-61" transform="translate(610.205078 0)"/>
      <use xlink:href="#DejaVuSans-2d" transform="translate(671.484375 0)"/>
      <use xlink:href="#DejaVuSans-33" transform="translate(707.568359 0)"/>
      <use xlink:href="#DejaVuSans-2e" transform="translate(771.191406 0)"/>
      <use xlink:href="#DejaVuSans-32" transform="translate(802.978516 0)"/>
      <use xlink:href="#DejaVuSans-2d" transform="translate(866.601562 0)"/>
      <use xlink:href="#DejaVuSans-33" transform="translate(902.685547 0)"/>
      <use xlink:href="#DejaVuSans-42" transform="translate(966.308594 0)"/>
      <use xlink:href="#DejaVuSans-2d" transform="translate(1034.912109 0)"/>
      <use xlink:href="#DejaVuSans-49" transform="translate(1070.996094 0)"/>
      <use xlink:href="#DejaVuSans-6e" transform="translate(1100.488281 0)"/>
      <use xlink:href="#DejaVuSans-73" transform="translate(1163.867188 0)"/>
      <use xlink:href="#DejaVuSans-74" transform="translate(1215.966797 0)"/>
      <use xlink:href="#DejaVuSans-72" transform="translate(1255.175781 0)"/>
      <use xlink:href="#DejaVuSans-75" transform="translate(1296.289062 0)"/>
      <use xlink:href="#DejaVuSans-63" transform="translate(1359.667969 0)"/>
      <use xlink:href="#DejaVuSans-74" transform="translate(1414.648438 0)"/>
     </g>
    </g>
    <g id="line2d_21">
     <path d="M 228.085625 293.004312 
L 238.085625 293.004312 
L 248.085625 293.004312 
" style="fill: none; stroke: #008000; stroke-width: 1.5; stroke-linecap: square"/>
    </g>
    <g id="text_21">
     <!-- smooth-GEMMA-3-4B-IT -->
     <g transform="translate(256.085625 296.504312) scale(0.1 -0.1)">
      <defs>
       <path id="DejaVuSans-47" d="M 3809 666 
L 3809 1919 
L 2778 1919 
L 2778 2438 
L 4434 2438 
L 4434 434 
Q 4069 175 3628 42 
Q 3188 -91 2688 -91 
Q 1594 -91 976 548 
Q 359 1188 359 2328 
Q 359 3472 976 4111 
Q 1594 4750 2688 4750 
Q 3144 4750 3555 4637 
Q 3966 4525 4313 4306 
L 4313 3634 
Q 3963 3931 3569 4081 
Q 3175 4231 2741 4231 
Q 1884 4231 1454 3753 
Q 1025 3275 1025 2328 
Q 1025 1384 1454 906 
Q 1884 428 2741 428 
Q 3075 428 3337 486 
Q 3600 544 3809 666 
z
" transform="scale(0.015625)"/>
       <path id="DejaVuSans-45" d="M 628 4666 
L 3578 4666 
L 3578 4134 
L 1259 4134 
L 1259 2753 
L 3481 2753 
L 3481 2222 
L 1259 2222 
L 1259 531 
L 3634 531 
L 3634 0 
L 628 0 
L 628 4666 
z
" transform="scale(0.015625)"/>
       <path id="DejaVuSans-4d" d="M 628 4666 
L 1569 4666 
L 2759 1491 
L 3956 4666 
L 4897 4666 
L 4897 0 
L 4281 0 
L 4281 4097 
L 3078 897 
L 2444 897 
L 1241 4097 
L 1241 0 
L 628 0 
L 628 4666 
z
" transform="scale(0.015625)"/>
      </defs>
      <use xlink:href="#DejaVuSans-73"/>
      <use xlink:href="#DejaVuSans-6d" transform="translate(52.099609 0)"/>
      <use xlink:href="#DejaVuSans-6f" transform="translate(149.511719 0)"/>
      <use xlink:href="#DejaVuSans-6f" transform="translate(210.693359 0)"/>
      <use xlink:href="#DejaVuSans-74" transform="translate(271.875 0)"/>
      <use xlink:href="#DejaVuSans-68" transform="translate(311.083984 0)"/>
      <use xlink:href="#DejaVuSans-2d" transform="translate(374.462891 0)"/>
      <use xlink:href="#DejaVuSans-47" transform="translate(414.171875 0)"/>
      <use xlink:href="#DejaVuSans-45" transform="translate(491.662109 0)"/>
      <use xlink:href="#DejaVuSans-4d" transform="translate(554.845703 0)"/>
      <use xlink:href="#DejaVuSans-4d" transform="translate(641.125 0)"/>
      <use xlink:href="#DejaVuSans-41" transform="translate(727.404297 0)"/>
      <use xlink:href="#DejaVuSans-2d" transform="translate(793.5625 0)"/>
      <use xlink:href="#DejaVuSans-33" transform="translate(829.646484 0)"/>
      <use xlink:href="#DejaVuSans-2d" transform="translate(893.269531 0)"/>
      <use xlink:href="#DejaVuSans-34" transform="translate(929.353516 0)"/>
      <use xlink:href="#DejaVuSans-42" transform="translate(992.976562 0)"/>
      <use xlink:href="#DejaVuSans-2d" transform="translate(1061.580078 0)"/>
      <use xlink:href="#DejaVuSans-49" transform="translate(1097.664062 0)"/>
      <use xlink:href="#DejaVuSans-54" transform="translate(1127.15625 0)"/>
     </g>
    </g>
   </g>
  </g>
 </g>
 <defs>
  <clipPath id="p6df47880ba">
   <rect x="57.6" y="41.472" width="357.12" height="266.112"/>
  </clipPath>
 </defs>
</svg>
