<?xml version="1.0" encoding="utf-8" standalone="no"?>
<!DOCTYPE svg PUBLIC "-//W3C//DTD SVG 1.1//EN"
  "http://www.w3.org/Graphics/SVG/1.1/DTD/svg11.dtd">
<svg xmlns:xlink="http://www.w3.org/1999/xlink" width="460.8pt" height="345.6pt" viewBox="0 0 460.8 345.6" xmlns="http://www.w3.org/2000/svg" version="1.1">
 <metadata>
  <rdf:RDF xmlns:dc="http://purl.org/dc/elements/1.1/" xmlns:cc="http://creativecommons.org/ns#" xmlns:rdf="http://www.w3.org/1999/02/22-rdf-syntax-ns#">
   <cc:Work>
    <dc:type rdf:resource="http://purl.org/dc/dcmitype/StillImage"/>
    <dc:date>2025-05-16T21:58:01.953347</dc:date>
    <dc:format>image/svg+xml</dc:format>
    <dc:creator>
     <cc:Agent>
      <dc:title>Matplotlib v3.10.3, https://matplotlib.org/</dc:title>
     </cc:Agent>
    </dc:creator>
   </cc:Work>
  </rdf:RDF>
 </metadata>
 <defs>
  <style type="text/css">*{stroke-linejoin: round; stroke-linecap: butt}</style>
 </defs>
 <g id="figure_1">
  <g id="patch_1">
   <path d="M 0 345.6 
L 460.8 345.6 
L 460.8 0 
L 0 0 
z
" style="fill: #ffffff"/>
  </g>
  <g id="axes_1">
   <g id="patch_2">
    <path d="M 57.6 307.584 
L 414.72 307.584 
L 414.72 41.472 
L 57.6 41.472 
z
" style="fill: #ffffff"/>
   </g>
   <g id="matplotlib.axis_1">
    <g id="xtick_1">
     <g id="line2d_1">
      <defs>
       <path id="m7e3e24f7e5" d="M 0 0 
L 0 3.5 
" style="stroke: #000000; stroke-width: 0.8"/>
      </defs>
      <g>
       <use xlink:href="#m7e3e24f7e5" x="73.832727" y="307.584" style="stroke: #000000; stroke-width: 0.8"/>
      </g>
     </g>
     <g id="text_1">
      <!-- 0 -->
      <g transform="translate(70.651477 322.182437) scale(0.1 -0.1)">
       <defs>
        <path id="DejaVuSans-30" d="M 2034 4250 
Q 1547 4250 1301 3770 
Q 1056 3291 1056 2328 
Q 1056 1369 1301 889 
Q 1547 409 2034 409 
Q 2525 409 2770 889 
Q 3016 1369 3016 2328 
Q 3016 3291 2770 3770 
Q 2525 4250 2034 4250 
z
M 2034 4750 
Q 2819 4750 3233 4129 
Q 3647 3509 3647 2328 
Q 3647 1150 3233 529 
Q 2819 -91 2034 -91 
Q 1250 -91 836 529 
Q 422 1150 422 2328 
Q 422 3509 836 4129 
Q 1250 4750 2034 4750 
z
" transform="scale(0.015625)"/>
       </defs>
       <use xlink:href="#DejaVuSans-30"/>
      </g>
     </g>
    </g>
    <g id="xtick_2">
     <g id="line2d_2">
      <g>
       <use xlink:href="#m7e3e24f7e5" x="146.788805" y="307.584" style="stroke: #000000; stroke-width: 0.8"/>
      </g>
     </g>
     <g id="text_2">
      <!-- 100 -->
      <g transform="translate(137.245055 322.182437) scale(0.1 -0.1)">
       <defs>
        <path id="DejaVuSans-31" d="M 794 531 
L 1825 531 
L 1825 4091 
L 703 3866 
L 703 4441 
L 1819 4666 
L 2450 4666 
L 2450 531 
L 3481 531 
L 3481 0 
L 794 0 
L 794 531 
z
" transform="scale(0.015625)"/>
       </defs>
       <use xlink:href="#DejaVuSans-31"/>
       <use xlink:href="#DejaVuSans-30" transform="translate(63.623047 0)"/>
       <use xlink:href="#DejaVuSans-30" transform="translate(127.246094 0)"/>
      </g>
     </g>
    </g>
    <g id="xtick_3">
     <g id="line2d_3">
      <g>
       <use xlink:href="#m7e3e24f7e5" x="219.744883" y="307.584" style="stroke: #000000; stroke-width: 0.8"/>
      </g>
     </g>
     <g id="text_3">
      <!-- 200 -->
      <g transform="translate(210.201133 322.182437) scale(0.1 -0.1)">
       <defs>
        <path id="DejaVuSans-32" d="M 1228 531 
L 3431 531 
L 3431 0 
L 469 0 
L 469 531 
Q 828 903 1448 1529 
Q 2069 2156 2228 2338 
Q 2531 2678 2651 2914 
Q 2772 3150 2772 3378 
Q 2772 3750 2511 3984 
Q 2250 4219 1831 4219 
Q 1534 4219 1204 4116 
Q 875 4013 500 3803 
L 500 4441 
Q 881 4594 1212 4672 
Q 1544 4750 1819 4750 
Q 2544 4750 2975 4387 
Q 3406 4025 3406 3419 
Q 3406 3131 3298 2873 
Q 3191 2616 2906 2266 
Q 2828 2175 2409 1742 
Q 1991 1309 1228 531 
z
" transform="scale(0.015625)"/>
       </defs>
       <use xlink:href="#DejaVuSans-32"/>
       <use xlink:href="#DejaVuSans-30" transform="translate(63.623047 0)"/>
       <use xlink:href="#DejaVuSans-30" transform="translate(127.246094 0)"/>
      </g>
     </g>
    </g>
    <g id="xtick_4">
     <g id="line2d_4">
      <g>
       <use xlink:href="#m7e3e24f7e5" x="292.70096" y="307.584" style="stroke: #000000; stroke-width: 0.8"/>
      </g>
     </g>
     <g id="text_4">
      <!-- 300 -->
      <g transform="translate(283.15721 322.182437) scale(0.1 -0.1)">
       <defs>
        <path id="DejaVuSans-33" d="M 2597 2516 
Q 3050 2419 3304 2112 
Q 3559 1806 3559 1356 
Q 3559 666 3084 287 
Q 2609 -91 1734 -91 
Q 1441 -91 1130 -33 
Q 819 25 488 141 
L 488 750 
Q 750 597 1062 519 
Q 1375 441 1716 441 
Q 2309 441 2620 675 
Q 2931 909 2931 1356 
Q 2931 1769 2642 2001 
Q 2353 2234 1838 2234 
L 1294 2234 
L 1294 2753 
L 1863 2753 
Q 2328 2753 2575 2939 
Q 2822 3125 2822 3475 
Q 2822 3834 2567 4026 
Q 2313 4219 1838 4219 
Q 1578 4219 1281 4162 
Q 984 4106 628 3988 
L 628 4550 
Q 988 4650 1302 4700 
Q 1616 4750 1894 4750 
Q 2613 4750 3031 4423 
Q 3450 4097 3450 3541 
Q 3450 3153 3228 2886 
Q 3006 2619 2597 2516 
z
" transform="scale(0.015625)"/>
       </defs>
       <use xlink:href="#DejaVuSans-33"/>
       <use xlink:href="#DejaVuSans-30" transform="translate(63.623047 0)"/>
       <use xlink:href="#DejaVuSans-30" transform="translate(127.246094 0)"/>
      </g>
     </g>
    </g>
    <g id="xtick_5">
     <g id="line2d_5">
      <g>
       <use xlink:href="#m7e3e24f7e5" x="365.657038" y="307.584" style="stroke: #000000; stroke-width: 0.8"/>
      </g>
     </g>
     <g id="text_5">
      <!-- 400 -->
      <g transform="translate(356.113288 322.182437) scale(0.1 -0.1)">
       <defs>
        <path id="DejaVuSans-34" d="M 2419 4116 
L 825 1625 
L 2419 1625 
L 2419 4116 
z
M 2253 4666 
L 3047 4666 
L 3047 1625 
L 3713 1625 
L 3713 1100 
L 3047 1100 
L 3047 0 
L 2419 0 
L 2419 1100 
L 313 1100 
L 313 1709 
L 2253 4666 
z
" transform="scale(0.015625)"/>
       </defs>
       <use xlink:href="#DejaVuSans-34"/>
       <use xlink:href="#DejaVuSans-30" transform="translate(63.623047 0)"/>
       <use xlink:href="#DejaVuSans-30" transform="translate(127.246094 0)"/>
      </g>
     </g>
    </g>
    <g id="text_6">
     <!-- CoT token position -->
     <g transform="translate(189.593594 335.860562) scale(0.1 -0.1)">
      <defs>
       <path id="DejaVuSans-43" d="M 4122 4306 
L 4122 3641 
Q 3803 3938 3442 4084 
Q 3081 4231 2675 4231 
Q 1875 4231 1450 3742 
Q 1025 3253 1025 2328 
Q 1025 1406 1450 917 
Q 1875 428 2675 428 
Q 3081 428 3442 575 
Q 3803 722 4122 1019 
L 4122 359 
Q 3791 134 3420 21 
Q 3050 -91 2638 -91 
Q 1578 -91 968 557 
Q 359 1206 359 2328 
Q 359 3453 968 4101 
Q 1578 4750 2638 4750 
Q 3056 4750 3426 4639 
Q 3797 4528 4122 4306 
z
" transform="scale(0.015625)"/>
       <path id="DejaVuSans-6f" d="M 1959 3097 
Q 1497 3097 1228 2736 
Q 959 2375 959 1747 
Q 959 1119 1226 758 
Q 1494 397 1959 397 
Q 2419 397 2687 759 
Q 2956 1122 2956 1747 
Q 2956 2369 2687 2733 
Q 2419 3097 1959 3097 
z
M 1959 3584 
Q 2709 3584 3137 3096 
Q 3566 2609 3566 1747 
Q 3566 888 3137 398 
Q 2709 -91 1959 -91 
Q 1206 -91 779 398 
Q 353 888 353 1747 
Q 353 2609 779 3096 
Q 1206 3584 1959 3584 
z
" transform="scale(0.015625)"/>
       <path id="DejaVuSans-54" d="M -19 4666 
L 3928 4666 
L 3928 4134 
L 2272 4134 
L 2272 0 
L 1638 0 
L 1638 4134 
L -19 4134 
L -19 4666 
z
" transform="scale(0.015625)"/>
       <path id="DejaVuSans-20" transform="scale(0.015625)"/>
       <path id="DejaVuSans-74" d="M 1172 4494 
L 1172 3500 
L 2356 3500 
L 2356 3053 
L 1172 3053 
L 1172 1153 
Q 1172 725 1289 603 
Q 1406 481 1766 481 
L 2356 481 
L 2356 0 
L 1766 0 
Q 1100 0 847 248 
Q 594 497 594 1153 
L 594 3053 
L 172 3053 
L 172 3500 
L 594 3500 
L 594 4494 
L 1172 4494 
z
" transform="scale(0.015625)"/>
       <path id="DejaVuSans-6b" d="M 581 4863 
L 1159 4863 
L 1159 1991 
L 2875 3500 
L 3609 3500 
L 1753 1863 
L 3688 0 
L 2938 0 
L 1159 1709 
L 1159 0 
L 581 0 
L 581 4863 
z
" transform="scale(0.015625)"/>
       <path id="DejaVuSans-65" d="M 3597 1894 
L 3597 1613 
L 953 1613 
Q 991 1019 1311 708 
Q 1631 397 2203 397 
Q 2534 397 2845 478 
Q 3156 559 3463 722 
L 3463 178 
Q 3153 47 2828 -22 
Q 2503 -91 2169 -91 
Q 1331 -91 842 396 
Q 353 884 353 1716 
Q 353 2575 817 3079 
Q 1281 3584 2069 3584 
Q 2775 3584 3186 3129 
Q 3597 2675 3597 1894 
z
M 3022 2063 
Q 3016 2534 2758 2815 
Q 2500 3097 2075 3097 
Q 1594 3097 1305 2825 
Q 1016 2553 972 2059 
L 3022 2063 
z
" transform="scale(0.015625)"/>
       <path id="DejaVuSans-6e" d="M 3513 2113 
L 3513 0 
L 2938 0 
L 2938 2094 
Q 2938 2591 2744 2837 
Q 2550 3084 2163 3084 
Q 1697 3084 1428 2787 
Q 1159 2491 1159 1978 
L 1159 0 
L 581 0 
L 581 3500 
L 1159 3500 
L 1159 2956 
Q 1366 3272 1645 3428 
Q 1925 3584 2291 3584 
Q 2894 3584 3203 3211 
Q 3513 2838 3513 2113 
z
" transform="scale(0.015625)"/>
       <path id="DejaVuSans-70" d="M 1159 525 
L 1159 -1331 
L 581 -1331 
L 581 3500 
L 1159 3500 
L 1159 2969 
Q 1341 3281 1617 3432 
Q 1894 3584 2278 3584 
Q 2916 3584 3314 3078 
Q 3713 2572 3713 1747 
Q 3713 922 3314 415 
Q 2916 -91 2278 -91 
Q 1894 -91 1617 61 
Q 1341 213 1159 525 
z
M 3116 1747 
Q 3116 2381 2855 2742 
Q 2594 3103 2138 3103 
Q 1681 3103 1420 2742 
Q 1159 2381 1159 1747 
Q 1159 1113 1420 752 
Q 1681 391 2138 391 
Q 2594 391 2855 752 
Q 3116 1113 3116 1747 
z
" transform="scale(0.015625)"/>
       <path id="DejaVuSans-73" d="M 2834 3397 
L 2834 2853 
Q 2591 2978 2328 3040 
Q 2066 3103 1784 3103 
Q 1356 3103 1142 2972 
Q 928 2841 928 2578 
Q 928 2378 1081 2264 
Q 1234 2150 1697 2047 
L 1894 2003 
Q 2506 1872 2764 1633 
Q 3022 1394 3022 966 
Q 3022 478 2636 193 
Q 2250 -91 1575 -91 
Q 1294 -91 989 -36 
Q 684 19 347 128 
L 347 722 
Q 666 556 975 473 
Q 1284 391 1588 391 
Q 1994 391 2212 530 
Q 2431 669 2431 922 
Q 2431 1156 2273 1281 
Q 2116 1406 1581 1522 
L 1381 1569 
Q 847 1681 609 1914 
Q 372 2147 372 2553 
Q 372 3047 722 3315 
Q 1072 3584 1716 3584 
Q 2034 3584 2315 3537 
Q 2597 3491 2834 3397 
z
" transform="scale(0.015625)"/>
       <path id="DejaVuSans-69" d="M 603 3500 
L 1178 3500 
L 1178 0 
L 603 0 
L 603 3500 
z
M 603 4863 
L 1178 4863 
L 1178 4134 
L 603 4134 
L 603 4863 
z
" transform="scale(0.015625)"/>
      </defs>
      <use xlink:href="#DejaVuSans-43"/>
      <use xlink:href="#DejaVuSans-6f" transform="translate(69.824219 0)"/>
      <use xlink:href="#DejaVuSans-54" transform="translate(131.005859 0)"/>
      <use xlink:href="#DejaVuSans-20" transform="translate(192.089844 0)"/>
      <use xlink:href="#DejaVuSans-74" transform="translate(223.876953 0)"/>
      <use xlink:href="#DejaVuSans-6f" transform="translate(263.085938 0)"/>
      <use xlink:href="#DejaVuSans-6b" transform="translate(324.267578 0)"/>
      <use xlink:href="#DejaVuSans-65" transform="translate(378.552734 0)"/>
      <use xlink:href="#DejaVuSans-6e" transform="translate(440.076172 0)"/>
      <use xlink:href="#DejaVuSans-20" transform="translate(503.455078 0)"/>
      <use xlink:href="#DejaVuSans-70" transform="translate(535.242188 0)"/>
      <use xlink:href="#DejaVuSans-6f" transform="translate(598.71875 0)"/>
      <use xlink:href="#DejaVuSans-73" transform="translate(659.900391 0)"/>
      <use xlink:href="#DejaVuSans-69" transform="translate(712 0)"/>
      <use xlink:href="#DejaVuSans-74" transform="translate(739.783203 0)"/>
      <use xlink:href="#DejaVuSans-69" transform="translate(778.992188 0)"/>
      <use xlink:href="#DejaVuSans-6f" transform="translate(806.775391 0)"/>
      <use xlink:href="#DejaVuSans-6e" transform="translate(867.957031 0)"/>
     </g>
    </g>
   </g>
   <g id="matplotlib.axis_2">
    <g id="ytick_1">
     <g id="line2d_6">
      <defs>
       <path id="m7d85f951af" d="M 0 0 
L -3.5 0 
" style="stroke: #000000; stroke-width: 0.8"/>
      </defs>
      <g>
       <use xlink:href="#m7d85f951af" x="57.6" y="307.584" style="stroke: #000000; stroke-width: 0.8"/>
      </g>
     </g>
     <g id="text_7">
      <!-- 0.0 -->
      <g transform="translate(34.696875 311.383219) scale(0.1 -0.1)">
       <defs>
        <path id="DejaVuSans-2e" d="M 684 794 
L 1344 794 
L 1344 0 
L 684 0 
L 684 794 
z
" transform="scale(0.015625)"/>
       </defs>
       <use xlink:href="#DejaVuSans-30"/>
       <use xlink:href="#DejaVuSans-2e" transform="translate(63.623047 0)"/>
       <use xlink:href="#DejaVuSans-30" transform="translate(95.410156 0)"/>
      </g>
     </g>
    </g>
    <g id="ytick_2">
     <g id="line2d_7">
      <g>
       <use xlink:href="#m7d85f951af" x="57.6" y="254.3616" style="stroke: #000000; stroke-width: 0.8"/>
      </g>
     </g>
     <g id="text_8">
      <!-- 0.2 -->
      <g transform="translate(34.696875 258.160819) scale(0.1 -0.1)">
       <use xlink:href="#DejaVuSans-30"/>
       <use xlink:href="#DejaVuSans-2e" transform="translate(63.623047 0)"/>
       <use xlink:href="#DejaVuSans-32" transform="translate(95.410156 0)"/>
      </g>
     </g>
    </g>
    <g id="ytick_3">
     <g id="line2d_8">
      <g>
       <use xlink:href="#m7d85f951af" x="57.6" y="201.1392" style="stroke: #000000; stroke-width: 0.8"/>
      </g>
     </g>
     <g id="text_9">
      <!-- 0.4 -->
      <g transform="translate(34.696875 204.938419) scale(0.1 -0.1)">
       <use xlink:href="#DejaVuSans-30"/>
       <use xlink:href="#DejaVuSans-2e" transform="translate(63.623047 0)"/>
       <use xlink:href="#DejaVuSans-34" transform="translate(95.410156 0)"/>
      </g>
     </g>
    </g>
    <g id="ytick_4">
     <g id="line2d_9">
      <g>
       <use xlink:href="#m7d85f951af" x="57.6" y="147.9168" style="stroke: #000000; stroke-width: 0.8"/>
      </g>
     </g>
     <g id="text_10">
      <!-- 0.6 -->
      <g transform="translate(34.696875 151.716019) scale(0.1 -0.1)">
       <defs>
        <path id="DejaVuSans-36" d="M 2113 2584 
Q 1688 2584 1439 2293 
Q 1191 2003 1191 1497 
Q 1191 994 1439 701 
Q 1688 409 2113 409 
Q 2538 409 2786 701 
Q 3034 994 3034 1497 
Q 3034 2003 2786 2293 
Q 2538 2584 2113 2584 
z
M 3366 4563 
L 3366 3988 
Q 3128 4100 2886 4159 
Q 2644 4219 2406 4219 
Q 1781 4219 1451 3797 
Q 1122 3375 1075 2522 
Q 1259 2794 1537 2939 
Q 1816 3084 2150 3084 
Q 2853 3084 3261 2657 
Q 3669 2231 3669 1497 
Q 3669 778 3244 343 
Q 2819 -91 2113 -91 
Q 1303 -91 875 529 
Q 447 1150 447 2328 
Q 447 3434 972 4092 
Q 1497 4750 2381 4750 
Q 2619 4750 2861 4703 
Q 3103 4656 3366 4563 
z
" transform="scale(0.015625)"/>
       </defs>
       <use xlink:href="#DejaVuSans-30"/>
       <use xlink:href="#DejaVuSans-2e" transform="translate(63.623047 0)"/>
       <use xlink:href="#DejaVuSans-36" transform="translate(95.410156 0)"/>
      </g>
     </g>
    </g>
    <g id="ytick_5">
     <g id="line2d_10">
      <g>
       <use xlink:href="#m7d85f951af" x="57.6" y="94.6944" style="stroke: #000000; stroke-width: 0.8"/>
      </g>
     </g>
     <g id="text_11">
      <!-- 0.8 -->
      <g transform="translate(34.696875 98.493619) scale(0.1 -0.1)">
       <defs>
        <path id="DejaVuSans-38" d="M 2034 2216 
Q 1584 2216 1326 1975 
Q 1069 1734 1069 1313 
Q 1069 891 1326 650 
Q 1584 409 2034 409 
Q 2484 409 2743 651 
Q 3003 894 3003 1313 
Q 3003 1734 2745 1975 
Q 2488 2216 2034 2216 
z
M 1403 2484 
Q 997 2584 770 2862 
Q 544 3141 544 3541 
Q 544 4100 942 4425 
Q 1341 4750 2034 4750 
Q 2731 4750 3128 4425 
Q 3525 4100 3525 3541 
Q 3525 3141 3298 2862 
Q 3072 2584 2669 2484 
Q 3125 2378 3379 2068 
Q 3634 1759 3634 1313 
Q 3634 634 3220 271 
Q 2806 -91 2034 -91 
Q 1263 -91 848 271 
Q 434 634 434 1313 
Q 434 1759 690 2068 
Q 947 2378 1403 2484 
z
M 1172 3481 
Q 1172 3119 1398 2916 
Q 1625 2713 2034 2713 
Q 2441 2713 2670 2916 
Q 2900 3119 2900 3481 
Q 2900 3844 2670 4047 
Q 2441 4250 2034 4250 
Q 1625 4250 1398 4047 
Q 1172 3844 1172 3481 
z
" transform="scale(0.015625)"/>
       </defs>
       <use xlink:href="#DejaVuSans-30"/>
       <use xlink:href="#DejaVuSans-2e" transform="translate(63.623047 0)"/>
       <use xlink:href="#DejaVuSans-38" transform="translate(95.410156 0)"/>
      </g>
     </g>
    </g>
    <g id="ytick_6">
     <g id="line2d_11">
      <g>
       <use xlink:href="#m7d85f951af" x="57.6" y="41.472" style="stroke: #000000; stroke-width: 0.8"/>
      </g>
     </g>
     <g id="text_12">
      <!-- 1.0 -->
      <g transform="translate(34.696875 45.271219) scale(0.1 -0.1)">
       <use xlink:href="#DejaVuSans-31"/>
       <use xlink:href="#DejaVuSans-2e" transform="translate(63.623047 0)"/>
       <use xlink:href="#DejaVuSans-30" transform="translate(95.410156 0)"/>
      </g>
     </g>
    </g>
    <g id="text_13">
     <!-- Accuracy -->
     <g transform="translate(28.617187 197.356125) rotate(-90) scale(0.1 -0.1)">
      <defs>
       <path id="DejaVuSans-41" d="M 2188 4044 
L 1331 1722 
L 3047 1722 
L 2188 4044 
z
M 1831 4666 
L 2547 4666 
L 4325 0 
L 3669 0 
L 3244 1197 
L 1141 1197 
L 716 0 
L 50 0 
L 1831 4666 
z
" transform="scale(0.015625)"/>
       <path id="DejaVuSans-63" d="M 3122 3366 
L 3122 2828 
Q 2878 2963 2633 3030 
Q 2388 3097 2138 3097 
Q 1578 3097 1268 2742 
Q 959 2388 959 1747 
Q 959 1106 1268 751 
Q 1578 397 2138 397 
Q 2388 397 2633 464 
Q 2878 531 3122 666 
L 3122 134 
Q 2881 22 2623 -34 
Q 2366 -91 2075 -91 
Q 1284 -91 818 406 
Q 353 903 353 1747 
Q 353 2603 823 3093 
Q 1294 3584 2113 3584 
Q 2378 3584 2631 3529 
Q 2884 3475 3122 3366 
z
" transform="scale(0.015625)"/>
       <path id="DejaVuSans-75" d="M 544 1381 
L 544 3500 
L 1119 3500 
L 1119 1403 
Q 1119 906 1312 657 
Q 1506 409 1894 409 
Q 2359 409 2629 706 
Q 2900 1003 2900 1516 
L 2900 3500 
L 3475 3500 
L 3475 0 
L 2900 0 
L 2900 538 
Q 2691 219 2414 64 
Q 2138 -91 1772 -91 
Q 1169 -91 856 284 
Q 544 659 544 1381 
z
M 1991 3584 
L 1991 3584 
z
" transform="scale(0.015625)"/>
       <path id="DejaVuSans-72" d="M 2631 2963 
Q 2534 3019 2420 3045 
Q 2306 3072 2169 3072 
Q 1681 3072 1420 2755 
Q 1159 2438 1159 1844 
L 1159 0 
L 581 0 
L 581 3500 
L 1159 3500 
L 1159 2956 
Q 1341 3275 1631 3429 
Q 1922 3584 2338 3584 
Q 2397 3584 2469 3576 
Q 2541 3569 2628 3553 
L 2631 2963 
z
" transform="scale(0.015625)"/>
       <path id="DejaVuSans-61" d="M 2194 1759 
Q 1497 1759 1228 1600 
Q 959 1441 959 1056 
Q 959 750 1161 570 
Q 1363 391 1709 391 
Q 2188 391 2477 730 
Q 2766 1069 2766 1631 
L 2766 1759 
L 2194 1759 
z
M 3341 1997 
L 3341 0 
L 2766 0 
L 2766 531 
Q 2569 213 2275 61 
Q 1981 -91 1556 -91 
Q 1019 -91 701 211 
Q 384 513 384 1019 
Q 384 1609 779 1909 
Q 1175 2209 1959 2209 
L 2766 2209 
L 2766 2266 
Q 2766 2663 2505 2880 
Q 2244 3097 1772 3097 
Q 1472 3097 1187 3025 
Q 903 2953 641 2809 
L 641 3341 
Q 956 3463 1253 3523 
Q 1550 3584 1831 3584 
Q 2591 3584 2966 3190 
Q 3341 2797 3341 1997 
z
" transform="scale(0.015625)"/>
       <path id="DejaVuSans-79" d="M 2059 -325 
Q 1816 -950 1584 -1140 
Q 1353 -1331 966 -1331 
L 506 -1331 
L 506 -850 
L 844 -850 
Q 1081 -850 1212 -737 
Q 1344 -625 1503 -206 
L 1606 56 
L 191 3500 
L 800 3500 
L 1894 763 
L 2988 3500 
L 3597 3500 
L 2059 -325 
z
" transform="scale(0.015625)"/>
      </defs>
      <use xlink:href="#DejaVuSans-41"/>
      <use xlink:href="#DejaVuSans-63" transform="translate(66.658203 0)"/>
      <use xlink:href="#DejaVuSans-63" transform="translate(121.638672 0)"/>
      <use xlink:href="#DejaVuSans-75" transform="translate(176.619141 0)"/>
      <use xlink:href="#DejaVuSans-72" transform="translate(239.998047 0)"/>
      <use xlink:href="#DejaVuSans-61" transform="translate(281.111328 0)"/>
      <use xlink:href="#DejaVuSans-63" transform="translate(342.390625 0)"/>
      <use xlink:href="#DejaVuSans-79" transform="translate(397.371094 0)"/>
     </g>
    </g>
   </g>
   <g id="line2d_12">
    <path d="M 73.832727 254.204086 
L 74.562288 259.339255 
L 75.291849 257.060764 
L 76.02141 257.060764 
L 76.75097 254.204086 
L 77.480531 261.980034 
L 78.210092 248.670132 
L 78.939653 252.759257 
L 79.669213 249.379161 
L 80.398774 249.379161 
L 81.128335 246.030126 
L 81.857896 239.524365 
L 82.587457 254.863461 
L 83.317017 254.863469 
L 84.046578 251.400644 
L 84.776139 270.66822 
L 86.23526 275.131201 
L 86.964821 268.956684 
L 87.694382 261.684823 
L 88.423943 264.081434 
L 89.153504 278.528146 
L 89.883064 275.131201 
L 90.612625 273.815858 
L 91.342186 258.001019 
L 92.071747 258.001015 
L 92.801307 257.060768 
L 93.530868 267.308808 
L 94.260429 273.815858 
L 94.98999 272.563223 
L 95.719551 272.563223 
L 96.449111 265.733204 
L 97.178672 262.847738 
L 97.908233 265.733208 
L 98.637794 258.001015 
L 99.367354 262.847734 
L 100.096915 249.379165 
L 101.556037 264.643435 
L 102.285598 267.308808 
L 103.015158 272.563223 
L 103.744719 264.643439 
L 104.47428 264.081434 
L 105.203841 270.66822 
L 105.933401 267.308812 
L 106.662962 268.956688 
L 107.392523 267.308808 
L 108.122084 258.001015 
L 108.851645 247.118087 
L 109.581205 257.060768 
L 110.310766 247.118087 
L 111.040327 257.060764 
L 111.769888 239.918317 
L 112.499448 237.218807 
L 113.95857 223.544789 
L 114.688131 200.669959 
L 115.417692 213.232689 
L 116.147252 218.02365 
L 116.876813 232.224176 
L 117.606374 236.63485 
L 118.335935 232.224168 
L 119.065495 249.74335 
L 119.795056 241.047625 
L 120.524617 264.93171 
L 121.254178 271.439482 
L 121.983739 273.145384 
L 122.713299 236.63485 
L 123.44286 227.814469 
L 125.631542 248.865863 
L 126.361103 247.088537 
L 127.090664 248.865863 
L 127.820225 252.731718 
L 128.549785 257.975506 
L 129.279346 266.06931 
L 130.008907 262.824199 
L 130.738468 243.495699 
L 131.468029 243.495699 
L 132.197589 238.790032 
L 132.92715 242.946645 
L 133.656711 241.079178 
L 134.386272 233.419666 
L 135.115832 241.079182 
L 135.845393 252.759257 
L 136.574954 230.561525 
L 137.304515 237.218807 
L 138.034076 250.757685 
L 138.763636 248.670132 
L 139.493197 257.060764 
L 140.222758 251.745235 
L 140.952319 248.670132 
L 141.681879 229.709119 
L 142.41144 227.849785 
L 143.141001 223.544804 
L 143.870562 223.544796 
L 144.600123 203.536523 
L 145.329683 204.029864 
L 146.059244 171.264748 
L 146.788805 148.207012 
L 147.518366 135.652879 
L 148.247926 121.049947 
L 148.977487 132.690298 
L 149.707048 105.42417 
L 150.436609 103.245686 
L 151.16617 132.690282 
L 151.89573 117.082745 
L 152.625291 169.786614 
L 153.354852 118.341356 
L 154.813973 94.074291 
L 155.543534 87.251573 
L 156.273095 92.185439 
L 157.002656 82.705854 
L 157.732217 82.705838 
L 158.461777 87.251573 
L 159.191338 87.251573 
L 159.920899 115.884805 
L 160.65046 87.251589 
L 161.38002 109.372084 
L 162.109581 84.311832 
L 162.839142 70.45547 
L 163.568703 73.845091 
L 164.298264 80.006971 
L 165.027824 77.570817 
L 165.757385 83.486701 
L 166.486946 104.306853 
L 167.216507 118.341341 
L 167.946067 135.652879 
L 168.675628 116.661654 
L 169.405189 116.66167 
L 170.13475 123.583935 
L 170.864311 45.802272 
L 171.593871 48.53686 
L 172.323432 48.057033 
L 173.052993 42.19787 
L 173.782554 42.403927 
L 174.512114 44.196611 
L 175.241675 43.206678 
L 176.700797 42.824923 
L 177.430358 42.439679 
L 178.159918 42.265884 
L 180.348601 42.112789 
L 181.078161 42.226231 
L 181.807722 41.954079 
L 182.537283 41.912728 
L 183.266844 42.059764 
L 183.996404 41.954079 
L 184.725965 42.294737 
L 185.455526 42.362719 
L 186.185087 42.037653 
L 188.373769 41.897533 
L 189.832891 42.137819 
L 190.562451 41.97132 
L 192.021573 42.037653 
L 192.751134 42.403927 
L 193.480695 42.258366 
L 194.210255 42.294737 
L 194.939816 42.19833 
L 195.669377 42.294737 
L 196.398938 42.727232 
L 197.128498 42.480871 
L 197.858059 42.403911 
L 198.58762 42.82578 
L 199.317181 43.004983 
L 200.046742 42.794961 
L 201.505863 44.696582 
L 202.235424 43.598743 
L 203.694545 42.439679 
L 204.424106 43.437162 
L 205.153667 43.437162 
L 205.883228 43.69664 
L 206.612789 45.037731 
L 207.342349 47.300217 
L 208.07191 48.430873 
L 208.801471 44.599509 
L 209.531032 45.010434 
L 210.260592 44.25725 
L 210.990153 44.196611 
L 211.719714 42.667419 
L 212.449275 42.580339 
L 213.178836 42.93735 
L 213.908396 42.435571 
L 214.637957 42.580339 
L 215.367518 42.234748 
L 217.5562 41.893472 
L 219.015322 42.113202 
L 219.744883 42.226231 
L 220.474443 42.226231 
L 221.204004 42.362703 
L 221.933565 42.258366 
L 222.663126 42.403911 
L 223.392686 42.294737 
L 224.122247 41.929969 
L 226.31093 41.971622 
L 227.04049 41.775256 
L 228.499612 42.06641 
L 230.688294 41.640655 
L 232.876977 41.847585 
L 234.336098 41.861273 
L 235.065659 42.084809 
L 235.79522 42.181771 
L 236.52478 41.928034 
L 237.254341 42.134995 
L 237.983902 42.093708 
L 239.443023 42.181771 
L 240.172584 41.960217 
L 242.361267 42.059764 
L 243.090827 41.852391 
L 244.549949 41.748783 
L 246.00907 41.634422 
L 248.927314 41.827298 
L 249.656874 42.134995 
L 250.386435 41.785582 
L 252.575117 41.720122 
L 253.304678 42.098561 
L 254.034239 42.275988 
L 254.7638 42.025091 
L 256.222921 41.827298 
L 258.411604 41.960217 
L 259.141164 41.733556 
L 262.059408 41.880799 
L 262.788968 41.935156 
L 263.518529 41.720122 
L 264.977651 41.690968 
L 266.436772 42.025091 
L 267.166333 41.673172 
L 273.002819 41.587948 
L 275.191502 41.514921 
L 275.191502 41.514921 
" clip-path="url(#p6e838e8a63)" style="fill: none; stroke: #0000ff; stroke-width: 1.5; stroke-linecap: square"/>
   </g>
   <g id="line2d_13">
    <path d="M 73.832727 254.20409 
L 74.562288 251.745227 
L 75.291849 236.412352 
L 76.02141 236.412344 
L 76.75097 233.419666 
L 77.480531 234.651058 
L 78.210092 230.561525 
L 78.939653 236.412352 
L 79.669213 226.551734 
L 81.857896 226.551742 
L 83.317017 239.918317 
L 84.046578 233.419666 
L 84.776139 239.918317 
L 86.23526 264.643435 
L 86.964821 243.495703 
L 87.694382 257.060768 
L 88.423943 243.495707 
L 89.153504 279.384507 
L 89.883064 277.923831 
L 90.612625 279.384507 
L 91.342186 262.824195 
L 92.071747 281.072953 
L 92.801307 294.397352 
L 93.530868 290.887009 
L 94.260429 250.757685 
L 95.719551 236.412344 
L 96.449111 194.578727 
L 97.178672 205.48967 
L 97.908233 205.449873 
L 98.637794 220.66253 
L 99.367354 194.578719 
L 100.096915 162.462926 
L 100.826476 202.619672 
L 101.556037 199.949474 
L 102.285598 187.015807 
L 103.015158 201.182952 
L 103.744719 187.0158 
L 104.47428 193.110109 
L 105.203841 201.182952 
L 105.933401 214.921892 
L 106.662962 209.056385 
L 107.392523 222.321422 
L 108.122084 154.809905 
L 108.851645 178.169145 
L 109.581205 174.656328 
L 110.310766 182.961018 
L 111.040327 196.052848 
L 111.769888 204.059842 
L 112.499448 209.056385 
L 113.229009 149.992272 
L 113.95857 134.367272 
L 114.688131 148.29241 
L 115.417692 187.882512 
L 116.147252 124.053991 
L 116.876813 70.66343 
L 117.606374 169.855976 
L 118.335935 169.855976 
L 119.065495 156.360717 
L 119.795056 126.141826 
L 120.524617 132.083516 
L 121.254178 124.195095 
L 121.983739 100.176103 
L 122.713299 147.55964 
L 123.44286 173.717842 
L 124.172421 179.609156 
L 124.901982 187.015807 
L 125.631542 202.619672 
L 126.361103 189.373344 
L 127.090664 191.571408 
L 127.820225 213.232689 
L 128.549785 225.835484 
L 129.279346 214.921884 
L 130.008907 172.803505 
L 130.738468 154.77907 
L 131.468029 171.264748 
L 132.197589 137.521683 
L 132.92715 132.690282 
L 134.386272 105.424186 
L 135.115832 110.502931 
L 135.845393 94.074291 
L 136.574954 114.256827 
L 137.304515 125.350304 
L 138.034076 132.652389 
L 138.763636 134.367256 
L 139.493197 132.652389 
L 140.222758 113.663337 
L 140.952319 118.341341 
L 141.681879 140.284885 
L 142.41144 136.141874 
L 143.141001 136.141874 
L 143.870562 134.969328 
L 144.600123 59.006964 
L 145.329683 58.439423 
L 146.059244 50.745401 
L 146.788805 53.777138 
L 147.518366 60.843362 
L 148.247926 45.264408 
L 148.977487 42.145353 
L 149.707048 45.417916 
L 150.436609 46.03312 
L 151.16617 45.120037 
L 151.89573 46.412813 
L 152.625291 42.151586 
L 153.354852 42.279605 
L 154.084413 43.165676 
L 154.813973 43.512298 
L 155.543534 46.7437 
L 156.273095 46.7437 
L 157.002656 47.050303 
L 157.732217 47.976108 
L 158.461777 47.775444 
L 159.191338 47.429917 
L 159.920899 48.459884 
L 161.38002 183.619572 
L 162.109581 175.033546 
L 162.839142 79.25071 
L 163.568703 98.157583 
L 164.298264 92.781102 
L 165.027824 101.085967 
L 165.757385 95.503397 
L 166.486946 104.306837 
L 167.216507 90.942118 
L 167.946067 179.059951 
L 168.675628 85.530472 
L 169.405189 73.406266 
L 170.13475 117.08273 
L 170.864311 42.295403 
L 171.593871 53.784577 
L 172.323432 57.812846 
L 173.052993 41.795051 
L 173.782554 41.66881 
L 174.512114 44.184112 
L 175.241675 44.28404 
L 175.971236 44.54106 
L 176.700797 48.90932 
L 177.430358 47.300217 
L 179.61904 43.294424 
L 180.348601 43.294424 
L 181.078161 42.181771 
L 181.807722 43.004983 
L 182.537283 43.646185 
L 183.266844 44.090149 
L 183.996404 43.956722 
L 184.725965 42.327681 
L 185.455526 42.025091 
L 186.914648 44.390359 
L 187.644208 43.588972 
L 188.373769 43.86831 
L 189.10333 41.915107 
L 189.832891 42.181755 
L 190.562451 42.207435 
L 191.292012 42.794961 
L 192.021573 42.294752 
L 192.751134 42.382657 
L 193.480695 42.614616 
L 194.210255 43.879365 
L 194.939816 43.69664 
L 195.669377 43.66717 
L 196.398938 42.893445 
L 197.128498 42.569712 
L 197.858059 42.919363 
L 199.317181 41.785598 
L 200.046742 41.766612 
L 200.776302 49.180647 
L 201.505863 43.070856 
L 202.235424 47.92229 
L 202.964985 47.180637 
L 203.694545 48.135659 
L 204.424106 50.292999 
L 205.153667 51.170743 
L 205.883228 48.620561 
L 206.612789 45.522142 
L 207.342349 46.233404 
L 208.07191 55.52035 
L 208.801471 45.854139 
L 209.531032 46.38312 
L 210.260592 45.712924 
L 210.990153 41.77486 
L 211.719714 42.692194 
L 212.449275 42.372284 
L 213.178836 41.684846 
L 213.908396 41.604126 
L 214.637957 42.702076 
L 215.367518 43.258006 
L 216.097079 43.049396 
L 216.826639 43.62336 
L 218.285761 43.699591 
L 219.015322 44.590722 
L 219.744883 43.760911 
L 220.474443 43.62336 
L 221.204004 43.372368 
L 221.933565 43.524067 
L 222.663126 42.459205 
L 223.392686 43.407533 
L 224.122247 42.942441 
L 224.851808 43.026079 
L 225.581369 42.02674 
L 226.31093 41.754034 
L 227.04049 41.878071 
L 228.499612 41.579446 
L 229.229173 41.837481 
L 229.958733 41.692998 
L 233.606537 41.877991 
L 234.336098 41.673172 
L 235.065659 41.714634 
L 235.79522 41.9136 
L 236.52478 42.338118 
L 237.254341 42.558133 
L 237.983902 42.000902 
L 239.443023 41.573894 
L 240.902145 41.661006 
L 242.361267 41.521789 
L 243.820388 41.859179 
L 245.27951 41.931952 
L 246.738631 41.751654 
L 248.197753 41.759855 
L 251.845557 41.637388 
L 255.493361 41.644764 
L 256.952482 41.664257 
L 258.411604 41.53478 
L 259.870725 41.633724 
L 264.24809 41.585695 
L 265.707211 41.566265 
L 267.895894 41.527119 
L 275.191502 41.547326 
L 275.191502 41.547326 
" clip-path="url(#p6e838e8a63)" style="fill: none; stroke: #ffa500; stroke-width: 1.5; stroke-linecap: square"/>
   </g>
   <g id="line2d_14">
    <path d="M 73.832727 41.699946 
L 75.291849 41.605919 
L 76.75097 41.717346 
L 78.210092 41.649554 
L 78.939653 41.800365 
L 81.128335 41.680373 
L 81.857896 41.761822 
L 85.5057 41.634311 
L 86.23526 41.78693 
L 87.694382 41.634327 
L 89.883064 41.775082 
L 91.342186 41.680373 
L 92.071747 41.764613 
L 93.530868 41.722088 
L 94.260429 42.150746 
L 94.98999 42.240887 
L 95.719551 41.699946 
L 96.449111 41.570452 
L 100.826476 41.553243 
L 108.122084 41.482151 
L 124.901982 41.570452 
L 127.090664 41.574323 
L 127.820225 41.655898 
L 128.549785 41.539681 
L 132.92715 41.537349 
L 202.964985 41.624366 
L 203.694545 41.697995 
L 204.424106 41.557018 
L 208.07191 41.533463 
L 210.990153 41.514239 
L 220.474443 41.497632 
L 239.443023 41.502867 
L 260.600286 41.482675 
L 283.21667 41.497632 
L 286.864474 41.473301 
L 398.487273 41.472397 
L 398.487273 41.472397 
" clip-path="url(#p6e838e8a63)" style="fill: none; stroke: #008000; stroke-width: 1.5; stroke-linecap: square"/>
   </g>
   <g id="patch_3">
    <path d="M 57.6 307.584 
L 57.6 41.472 
" style="fill: none; stroke: #000000; stroke-width: 0.8; stroke-linejoin: miter; stroke-linecap: square"/>
   </g>
   <g id="patch_4">
    <path d="M 414.72 307.584 
L 414.72 41.472 
" style="fill: none; stroke: #000000; stroke-width: 0.8; stroke-linejoin: miter; stroke-linecap: square"/>
   </g>
   <g id="patch_5">
    <path d="M 57.6 307.584 
L 414.72 307.584 
" style="fill: none; stroke: #000000; stroke-width: 0.8; stroke-linejoin: miter; stroke-linecap: square"/>
   </g>
   <g id="patch_6">
    <path d="M 57.6 41.472 
L 414.72 41.472 
" style="fill: none; stroke: #000000; stroke-width: 0.8; stroke-linejoin: miter; stroke-linecap: square"/>
   </g>
   <g id="text_14">
    <!-- logical_deduction_three_objects Q15 -->
    <g transform="translate(126.047813 31.472) scale(0.12 -0.12)">
     <defs>
      <path id="DejaVuSans-6c" d="M 603 4863 
L 1178 4863 
L 1178 0 
L 603 0 
L 603 4863 
z
" transform="scale(0.015625)"/>
      <path id="DejaVuSans-67" d="M 2906 1791 
Q 2906 2416 2648 2759 
Q 2391 3103 1925 3103 
Q 1463 3103 1205 2759 
Q 947 2416 947 1791 
Q 947 1169 1205 825 
Q 1463 481 1925 481 
Q 2391 481 2648 825 
Q 2906 1169 2906 1791 
z
M 3481 434 
Q 3481 -459 3084 -895 
Q 2688 -1331 1869 -1331 
Q 1566 -1331 1297 -1286 
Q 1028 -1241 775 -1147 
L 775 -588 
Q 1028 -725 1275 -790 
Q 1522 -856 1778 -856 
Q 2344 -856 2625 -561 
Q 2906 -266 2906 331 
L 2906 616 
Q 2728 306 2450 153 
Q 2172 0 1784 0 
Q 1141 0 747 490 
Q 353 981 353 1791 
Q 353 2603 747 3093 
Q 1141 3584 1784 3584 
Q 2172 3584 2450 3431 
Q 2728 3278 2906 2969 
L 2906 3500 
L 3481 3500 
L 3481 434 
z
" transform="scale(0.015625)"/>
      <path id="DejaVuSans-5f" d="M 3263 -1063 
L 3263 -1509 
L -63 -1509 
L -63 -1063 
L 3263 -1063 
z
" transform="scale(0.015625)"/>
      <path id="DejaVuSans-64" d="M 2906 2969 
L 2906 4863 
L 3481 4863 
L 3481 0 
L 2906 0 
L 2906 525 
Q 2725 213 2448 61 
Q 2172 -91 1784 -91 
Q 1150 -91 751 415 
Q 353 922 353 1747 
Q 353 2572 751 3078 
Q 1150 3584 1784 3584 
Q 2172 3584 2448 3432 
Q 2725 3281 2906 2969 
z
M 947 1747 
Q 947 1113 1208 752 
Q 1469 391 1925 391 
Q 2381 391 2643 752 
Q 2906 1113 2906 1747 
Q 2906 2381 2643 2742 
Q 2381 3103 1925 3103 
Q 1469 3103 1208 2742 
Q 947 2381 947 1747 
z
" transform="scale(0.015625)"/>
      <path id="DejaVuSans-68" d="M 3513 2113 
L 3513 0 
L 2938 0 
L 2938 2094 
Q 2938 2591 2744 2837 
Q 2550 3084 2163 3084 
Q 1697 3084 1428 2787 
Q 1159 2491 1159 1978 
L 1159 0 
L 581 0 
L 581 4863 
L 1159 4863 
L 1159 2956 
Q 1366 3272 1645 3428 
Q 1925 3584 2291 3584 
Q 2894 3584 3203 3211 
Q 3513 2838 3513 2113 
z
" transform="scale(0.015625)"/>
      <path id="DejaVuSans-62" d="M 3116 1747 
Q 3116 2381 2855 2742 
Q 2594 3103 2138 3103 
Q 1681 3103 1420 2742 
Q 1159 2381 1159 1747 
Q 1159 1113 1420 752 
Q 1681 391 2138 391 
Q 2594 391 2855 752 
Q 3116 1113 3116 1747 
z
M 1159 2969 
Q 1341 3281 1617 3432 
Q 1894 3584 2278 3584 
Q 2916 3584 3314 3078 
Q 3713 2572 3713 1747 
Q 3713 922 3314 415 
Q 2916 -91 2278 -91 
Q 1894 -91 1617 61 
Q 1341 213 1159 525 
L 1159 0 
L 581 0 
L 581 4863 
L 1159 4863 
L 1159 2969 
z
" transform="scale(0.015625)"/>
      <path id="DejaVuSans-6a" d="M 603 3500 
L 1178 3500 
L 1178 -63 
Q 1178 -731 923 -1031 
Q 669 -1331 103 -1331 
L -116 -1331 
L -116 -844 
L 38 -844 
Q 366 -844 484 -692 
Q 603 -541 603 -63 
L 603 3500 
z
M 603 4863 
L 1178 4863 
L 1178 4134 
L 603 4134 
L 603 4863 
z
" transform="scale(0.015625)"/>
      <path id="DejaVuSans-51" d="M 2522 4238 
Q 1834 4238 1429 3725 
Q 1025 3213 1025 2328 
Q 1025 1447 1429 934 
Q 1834 422 2522 422 
Q 3209 422 3611 934 
Q 4013 1447 4013 2328 
Q 4013 3213 3611 3725 
Q 3209 4238 2522 4238 
z
M 3406 84 
L 4238 -825 
L 3475 -825 
L 2784 -78 
Q 2681 -84 2626 -87 
Q 2572 -91 2522 -91 
Q 1538 -91 948 567 
Q 359 1225 359 2328 
Q 359 3434 948 4092 
Q 1538 4750 2522 4750 
Q 3503 4750 4090 4092 
Q 4678 3434 4678 2328 
Q 4678 1516 4351 937 
Q 4025 359 3406 84 
z
" transform="scale(0.015625)"/>
      <path id="DejaVuSans-35" d="M 691 4666 
L 3169 4666 
L 3169 4134 
L 1269 4134 
L 1269 2991 
Q 1406 3038 1543 3061 
Q 1681 3084 1819 3084 
Q 2600 3084 3056 2656 
Q 3513 2228 3513 1497 
Q 3513 744 3044 326 
Q 2575 -91 1722 -91 
Q 1428 -91 1123 -41 
Q 819 9 494 109 
L 494 744 
Q 775 591 1075 516 
Q 1375 441 1709 441 
Q 2250 441 2565 725 
Q 2881 1009 2881 1497 
Q 2881 1984 2565 2268 
Q 2250 2553 1709 2553 
Q 1456 2553 1204 2497 
Q 953 2441 691 2322 
L 691 4666 
z
" transform="scale(0.015625)"/>
     </defs>
     <use xlink:href="#DejaVuSans-6c"/>
     <use xlink:href="#DejaVuSans-6f" transform="translate(27.783203 0)"/>
     <use xlink:href="#DejaVuSans-67" transform="translate(88.964844 0)"/>
     <use xlink:href="#DejaVuSans-69" transform="translate(152.441406 0)"/>
     <use xlink:href="#DejaVuSans-63" transform="translate(180.224609 0)"/>
     <use xlink:href="#DejaVuSans-61" transform="translate(235.205078 0)"/>
     <use xlink:href="#DejaVuSans-6c" transform="translate(296.484375 0)"/>
     <use xlink:href="#DejaVuSans-5f" transform="translate(324.267578 0)"/>
     <use xlink:href="#DejaVuSans-64" transform="translate(374.267578 0)"/>
     <use xlink:href="#DejaVuSans-65" transform="translate(437.744141 0)"/>
     <use xlink:href="#DejaVuSans-64" transform="translate(499.267578 0)"/>
     <use xlink:href="#DejaVuSans-75" transform="translate(562.744141 0)"/>
     <use xlink:href="#DejaVuSans-63" transform="translate(626.123047 0)"/>
     <use xlink:href="#DejaVuSans-74" transform="translate(681.103516 0)"/>
     <use xlink:href="#DejaVuSans-69" transform="translate(720.3125 0)"/>
     <use xlink:href="#DejaVuSans-6f" transform="translate(748.095703 0)"/>
     <use xlink:href="#DejaVuSans-6e" transform="translate(809.277344 0)"/>
     <use xlink:href="#DejaVuSans-5f" transform="translate(872.65625 0)"/>
     <use xlink:href="#DejaVuSans-74" transform="translate(922.65625 0)"/>
     <use xlink:href="#DejaVuSans-68" transform="translate(961.865234 0)"/>
     <use xlink:href="#DejaVuSans-72" transform="translate(1025.244141 0)"/>
     <use xlink:href="#DejaVuSans-65" transform="translate(1064.107422 0)"/>
     <use xlink:href="#DejaVuSans-65" transform="translate(1125.630859 0)"/>
     <use xlink:href="#DejaVuSans-5f" transform="translate(1187.154297 0)"/>
     <use xlink:href="#DejaVuSans-6f" transform="translate(1237.154297 0)"/>
     <use xlink:href="#DejaVuSans-62" transform="translate(1298.335938 0)"/>
     <use xlink:href="#DejaVuSans-6a" transform="translate(1361.8125 0)"/>
     <use xlink:href="#DejaVuSans-65" transform="translate(1389.595703 0)"/>
     <use xlink:href="#DejaVuSans-63" transform="translate(1451.119141 0)"/>
     <use xlink:href="#DejaVuSans-74" transform="translate(1506.099609 0)"/>
     <use xlink:href="#DejaVuSans-73" transform="translate(1545.308594 0)"/>
     <use xlink:href="#DejaVuSans-20" transform="translate(1597.408203 0)"/>
     <use xlink:href="#DejaVuSans-51" transform="translate(1629.195312 0)"/>
     <use xlink:href="#DejaVuSans-31" transform="translate(1707.90625 0)"/>
     <use xlink:href="#DejaVuSans-35" transform="translate(1771.529297 0)"/>
    </g>
   </g>
   <g id="legend_1">
    <g id="patch_7">
     <path d="M 226.085625 93.506375 
L 407.72 93.506375 
Q 409.72 93.506375 409.72 91.506375 
L 409.72 48.472 
Q 409.72 46.472 407.72 46.472 
L 226.085625 46.472 
Q 224.085625 46.472 224.085625 48.472 
L 224.085625 91.506375 
Q 224.085625 93.506375 226.085625 93.506375 
z
" style="fill: #ffffff; opacity: 0.8; stroke: #cccccc; stroke-linejoin: miter"/>
    </g>
    <g id="line2d_15">
     <path d="M 228.085625 54.570438 
L 238.085625 54.570438 
L 248.085625 54.570438 
" style="fill: none; stroke: #0000ff; stroke-width: 1.5; stroke-linecap: square"/>
    </g>
    <g id="text_15">
     <!-- smooth-Llama-3.2-3B-Instruct -->
     <g transform="translate(256.085625 58.070438) scale(0.1 -0.1)">
      <defs>
       <path id="DejaVuSans-6d" d="M 3328 2828 
Q 3544 3216 3844 3400 
Q 4144 3584 4550 3584 
Q 5097 3584 5394 3201 
Q 5691 2819 5691 2113 
L 5691 0 
L 5113 0 
L 5113 2094 
Q 5113 2597 4934 2840 
Q 4756 3084 4391 3084 
Q 3944 3084 3684 2787 
Q 3425 2491 3425 1978 
L 3425 0 
L 2847 0 
L 2847 2094 
Q 2847 2600 2669 2842 
Q 2491 3084 2119 3084 
Q 1678 3084 1418 2786 
Q 1159 2488 1159 1978 
L 1159 0 
L 581 0 
L 581 3500 
L 1159 3500 
L 1159 2956 
Q 1356 3278 1631 3431 
Q 1906 3584 2284 3584 
Q 2666 3584 2933 3390 
Q 3200 3197 3328 2828 
z
" transform="scale(0.015625)"/>
       <path id="DejaVuSans-2d" d="M 313 2009 
L 1997 2009 
L 1997 1497 
L 313 1497 
L 313 2009 
z
" transform="scale(0.015625)"/>
       <path id="DejaVuSans-4c" d="M 628 4666 
L 1259 4666 
L 1259 531 
L 3531 531 
L 3531 0 
L 628 0 
L 628 4666 
z
" transform="scale(0.015625)"/>
       <path id="DejaVuSans-42" d="M 1259 2228 
L 1259 519 
L 2272 519 
Q 2781 519 3026 730 
Q 3272 941 3272 1375 
Q 3272 1813 3026 2020 
Q 2781 2228 2272 2228 
L 1259 2228 
z
M 1259 4147 
L 1259 2741 
L 2194 2741 
Q 2656 2741 2882 2914 
Q 3109 3088 3109 3444 
Q 3109 3797 2882 3972 
Q 2656 4147 2194 4147 
L 1259 4147 
z
M 628 4666 
L 2241 4666 
Q 2963 4666 3353 4366 
Q 3744 4066 3744 3513 
Q 3744 3084 3544 2831 
Q 3344 2578 2956 2516 
Q 3422 2416 3680 2098 
Q 3938 1781 3938 1306 
Q 3938 681 3513 340 
Q 3088 0 2303 0 
L 628 0 
L 628 4666 
z
" transform="scale(0.015625)"/>
       <path id="DejaVuSans-49" d="M 628 4666 
L 1259 4666 
L 1259 0 
L 628 0 
L 628 4666 
z
" transform="scale(0.015625)"/>
      </defs>
      <use xlink:href="#DejaVuSans-73"/>
      <use xlink:href="#DejaVuSans-6d" transform="translate(52.099609 0)"/>
      <use xlink:href="#DejaVuSans-6f" transform="translate(149.511719 0)"/>
      <use xlink:href="#DejaVuSans-6f" transform="translate(210.693359 0)"/>
      <use xlink:href="#DejaVuSans-74" transform="translate(271.875 0)"/>
      <use xlink:href="#DejaVuSans-68" transform="translate(311.083984 0)"/>
      <use xlink:href="#DejaVuSans-2d" transform="translate(374.462891 0)"/>
      <use xlink:href="#DejaVuSans-4c" transform="translate(410.546875 0)"/>
      <use xlink:href="#DejaVuSans-6c" transform="translate(466.259766 0)"/>
      <use xlink:href="#DejaVuSans-61" transform="translate(494.042969 0)"/>
      <use xlink:href="#DejaVuSans-6d" transform="translate(555.322266 0)"/>
      <use xlink:href="#DejaVuSans-61" transform="translate(652.734375 0)"/>
      <use xlink:href="#DejaVuSans-2d" transform="translate(714.013672 0)"/>
      <use xlink:href="#DejaVuSans-33" transform="translate(750.097656 0)"/>
      <use xlink:href="#DejaVuSans-2e" transform="translate(813.720703 0)"/>
      <use xlink:href="#DejaVuSans-32" transform="translate(845.507812 0)"/>
      <use xlink:href="#DejaVuSans-2d" transform="translate(909.130859 0)"/>
      <use xlink:href="#DejaVuSans-33" transform="translate(945.214844 0)"/>
      <use xlink:href="#DejaVuSans-42" transform="translate(1008.837891 0)"/>
      <use xlink:href="#DejaVuSans-2d" transform="translate(1077.441406 0)"/>
      <use xlink:href="#DejaVuSans-49" transform="translate(1113.525391 0)"/>
      <use xlink:href="#DejaVuSans-6e" transform="translate(1143.017578 0)"/>
      <use xlink:href="#DejaVuSans-73" transform="translate(1206.396484 0)"/>
      <use xlink:href="#DejaVuSans-74" transform="translate(1258.496094 0)"/>
      <use xlink:href="#DejaVuSans-72" transform="translate(1297.705078 0)"/>
      <use xlink:href="#DejaVuSans-75" transform="translate(1338.818359 0)"/>
      <use xlink:href="#DejaVuSans-63" transform="translate(1402.197266 0)"/>
      <use xlink:href="#DejaVuSans-74" transform="translate(1457.177734 0)"/>
     </g>
    </g>
    <g id="line2d_16">
     <path d="M 228.085625 69.248563 
L 238.085625 69.248563 
L 248.085625 69.248563 
" style="fill: none; stroke: #ffa500; stroke-width: 1.5; stroke-linecap: square"/>
    </g>
    <g id="text_16">
     <!-- abrupt-Llama-3.2-3B-Instruct -->
     <g transform="translate(256.085625 72.748563) scale(0.1 -0.1)">
      <use xlink:href="#DejaVuSans-61"/>
      <use xlink:href="#DejaVuSans-62" transform="translate(61.279297 0)"/>
      <use xlink:href="#DejaVuSans-72" transform="translate(124.755859 0)"/>
      <use xlink:href="#DejaVuSans-75" transform="translate(165.869141 0)"/>
      <use xlink:href="#DejaVuSans-70" transform="translate(229.248047 0)"/>
      <use xlink:href="#DejaVuSans-74" transform="translate(292.724609 0)"/>
      <use xlink:href="#DejaVuSans-2d" transform="translate(331.933594 0)"/>
      <use xlink:href="#DejaVuSans-4c" transform="translate(368.017578 0)"/>
      <use xlink:href="#DejaVuSans-6c" transform="translate(423.730469 0)"/>
      <use xlink:href="#DejaVuSans-61" transform="translate(451.513672 0)"/>
      <use xlink:href="#DejaVuSans-6d" transform="translate(512.792969 0)"/>
      <use xlink:href="#DejaVuSans-61" transform="translate(610.205078 0)"/>
      <use xlink:href="#DejaVuSans-2d" transform="translate(671.484375 0)"/>
      <use xlink:href="#DejaVuSans-33" transform="translate(707.568359 0)"/>
      <use xlink:href="#DejaVuSans-2e" transform="translate(771.191406 0)"/>
      <use xlink:href="#DejaVuSans-32" transform="translate(802.978516 0)"/>
      <use xlink:href="#DejaVuSans-2d" transform="translate(866.601562 0)"/>
      <use xlink:href="#DejaVuSans-33" transform="translate(902.685547 0)"/>
      <use xlink:href="#DejaVuSans-42" transform="translate(966.308594 0)"/>
      <use xlink:href="#DejaVuSans-2d" transform="translate(1034.912109 0)"/>
      <use xlink:href="#DejaVuSans-49" transform="translate(1070.996094 0)"/>
      <use xlink:href="#DejaVuSans-6e" transform="translate(1100.488281 0)"/>
      <use xlink:href="#DejaVuSans-73" transform="translate(1163.867188 0)"/>
      <use xlink:href="#DejaVuSans-74" transform="translate(1215.966797 0)"/>
      <use xlink:href="#DejaVuSans-72" transform="translate(1255.175781 0)"/>
      <use xlink:href="#DejaVuSans-75" transform="translate(1296.289062 0)"/>
      <use xlink:href="#DejaVuSans-63" transform="translate(1359.667969 0)"/>
      <use xlink:href="#DejaVuSans-74" transform="translate(1414.648438 0)"/>
     </g>
    </g>
    <g id="line2d_17">
     <path d="M 228.085625 83.926688 
L 238.085625 83.926688 
L 248.085625 83.926688 
" style="fill: none; stroke: #008000; stroke-width: 1.5; stroke-linecap: square"/>
    </g>
    <g id="text_17">
     <!-- smooth-GEMMA-3-4B-IT -->
     <g transform="translate(256.085625 87.426688) scale(0.1 -0.1)">
      <defs>
       <path id="DejaVuSans-47" d="M 3809 666 
L 3809 1919 
L 2778 1919 
L 2778 2438 
L 4434 2438 
L 4434 434 
Q 4069 175 3628 42 
Q 3188 -91 2688 -91 
Q 1594 -91 976 548 
Q 359 1188 359 2328 
Q 359 3472 976 4111 
Q 1594 4750 2688 4750 
Q 3144 4750 3555 4637 
Q 3966 4525 4313 4306 
L 4313 3634 
Q 3963 3931 3569 4081 
Q 3175 4231 2741 4231 
Q 1884 4231 1454 3753 
Q 1025 3275 1025 2328 
Q 1025 1384 1454 906 
Q 1884 428 2741 428 
Q 3075 428 3337 486 
Q 3600 544 3809 666 
z
" transform="scale(0.015625)"/>
       <path id="DejaVuSans-45" d="M 628 4666 
L 3578 4666 
L 3578 4134 
L 1259 4134 
L 1259 2753 
L 3481 2753 
L 3481 2222 
L 1259 2222 
L 1259 531 
L 3634 531 
L 3634 0 
L 628 0 
L 628 4666 
z
" transform="scale(0.015625)"/>
       <path id="DejaVuSans-4d" d="M 628 4666 
L 1569 4666 
L 2759 1491 
L 3956 4666 
L 4897 4666 
L 4897 0 
L 4281 0 
L 4281 4097 
L 3078 897 
L 2444 897 
L 1241 4097 
L 1241 0 
L 628 0 
L 628 4666 
z
" transform="scale(0.015625)"/>
      </defs>
      <use xlink:href="#DejaVuSans-73"/>
      <use xlink:href="#DejaVuSans-6d" transform="translate(52.099609 0)"/>
      <use xlink:href="#DejaVuSans-6f" transform="translate(149.511719 0)"/>
      <use xlink:href="#DejaVuSans-6f" transform="translate(210.693359 0)"/>
      <use xlink:href="#DejaVuSans-74" transform="translate(271.875 0)"/>
      <use xlink:href="#DejaVuSans-68" transform="translate(311.083984 0)"/>
      <use xlink:href="#DejaVuSans-2d" transform="translate(374.462891 0)"/>
      <use xlink:href="#DejaVuSans-47" transform="translate(414.171875 0)"/>
      <use xlink:href="#DejaVuSans-45" transform="translate(491.662109 0)"/>
      <use xlink:href="#DejaVuSans-4d" transform="translate(554.845703 0)"/>
      <use xlink:href="#DejaVuSans-4d" transform="translate(641.125 0)"/>
      <use xlink:href="#DejaVuSans-41" transform="translate(727.404297 0)"/>
      <use xlink:href="#DejaVuSans-2d" transform="translate(793.5625 0)"/>
      <use xlink:href="#DejaVuSans-33" transform="translate(829.646484 0)"/>
      <use xlink:href="#DejaVuSans-2d" transform="translate(893.269531 0)"/>
      <use xlink:href="#DejaVuSans-34" transform="translate(929.353516 0)"/>
      <use xlink:href="#DejaVuSans-42" transform="translate(992.976562 0)"/>
      <use xlink:href="#DejaVuSans-2d" transform="translate(1061.580078 0)"/>
      <use xlink:href="#DejaVuSans-49" transform="translate(1097.664062 0)"/>
      <use xlink:href="#DejaVuSans-54" transform="translate(1127.15625 0)"/>
     </g>
    </g>
   </g>
  </g>
 </g>
 <defs>
  <clipPath id="p6e838e8a63">
   <rect x="57.6" y="41.472" width="357.12" height="266.112"/>
  </clipPath>
 </defs>
</svg>
